<svg xmlns="http://www.w3.org/2000/svg" viewBox="0 0 48 48"><defs><style>.cls-1{fill:none;}</style></defs><title>add-circle-solid</title><g id="Layer_2" data-name="Layer 2"><g id="invisible_box" data-name="invisible box"><rect class="cls-1" width="48" height="48"/><rect class="cls-1" width="48" height="48"/><rect class="cls-1" width="48" height="48"/></g><g id="Layer_3" data-name="Layer 3"><path d="M24,2A22,22,0,1,0,46,24,22,22,0,0,0,24,2ZM35.41,25.41A2,2,0,0,1,34,26H26v8a2,2,0,0,1-2,2,2,2,0,0,1-2-2V26H14a2,2,0,0,1-2-2,2,2,0,0,1,2-2h8V14a2,2,0,0,1,2-2,2,2,0,0,1,2,2v8h8a2,2,0,0,1,2,2A2,2,0,0,1,35.41,25.41Z"/></g></g></svg>