<svg xmlns="http://www.w3.org/2000/svg" viewBox="0 0 48 48"><defs><style>.cls-1{fill:none;}</style></defs><title>archive-solid</title><g id="Layer_2" data-name="Layer 2"><g id="invisible_box" data-name="invisible box"><rect class="cls-1" width="48" height="48"/><rect class="cls-1" width="48" height="48"/><rect class="cls-1" width="48" height="48"/></g><g id="Layer_3" data-name="Layer 3"><path d="M43.2,12.27l-5-6.67A4,4,0,0,0,35,4H13A4,4,0,0,0,9.8,5.6l-5,6.67A3.88,3.88,0,0,0,4.06,14H43.94A3.88,3.88,0,0,0,43.2,12.27ZM4,18V40a4,4,0,0,0,4,4H40a4,4,0,0,0,4-4V18ZM32.35,33.49l-6.94,6.92a2,2,0,0,1-2.83,0l-6.93-6.92a2.07,2.07,0,0,1-.3-2.65,2,2,0,0,1,3-.25L22,34.18V23a2,2,0,0,1,4,0V34.17l3.6-3.58a2,2,0,0,1,3,.25A2.07,2.07,0,0,1,32.35,33.49Z"/></g></g></svg>