<svg xmlns="http://www.w3.org/2000/svg" viewBox="0 0 48 48"><defs><style>.cls-1{fill:none;}</style></defs><title>archive</title><g id="Layer_2" data-name="Layer 2"><g id="invisible_box" data-name="invisible box"><rect class="cls-1" width="48" height="48"/></g><g id="Layer_3" data-name="Layer 3"><path d="M32.65,30.84a2,2,0,0,0-3-.25L26,34.17V23a2,2,0,0,0-4,0V34.18l-3.6-3.59a2,2,0,0,0-3,.25,2.07,2.07,0,0,0,.3,2.65l6.93,6.92a2,2,0,0,0,2.83,0l6.94-6.92A2.07,2.07,0,0,0,32.65,30.84Z"/><path d="M43.2,12.27l-5-6.67A4,4,0,0,0,35,4H13A4,4,0,0,0,9.8,5.6l-5,6.67a4,4,0,0,0-.8,2.4V40a4,4,0,0,0,4,4h6a2,2,0,0,0,0-4H8V18H40V40H34a2,2,0,0,0,0,4h6a4,4,0,0,0,4-4V14.67A4,4,0,0,0,43.2,12.27ZM13,8H35l4.5,6H8.5Z"/></g></g></svg>