<svg xmlns="http://www.w3.org/2000/svg" viewBox="0 0 48 48"><defs><style>.cls-1{fill:none;}</style></defs><title>arrow-right-circle</title><g id="Layer_2" data-name="Layer 2"><g id="invisible_box" data-name="invisible box"><rect class="cls-1" width="48" height="48"/></g><g id="Layer_3" data-name="Layer 3"><path d="M6,24A18,18,0,1,1,24,42,18,18,0,0,1,6,24M2,24A22,22,0,1,0,24,2,22,22,0,0,0,2,24Z"/><path d="M26.17,24l-6.58,6.6a2,2,0,0,0,.25,3,2.07,2.07,0,0,0,2.65-.3l7.92-7.94a2,2,0,0,0,0-2.83l-7.92-7.93a2.07,2.07,0,0,0-2.65-.3,2,2,0,0,0-.25,3Z"/></g></g></svg>