<svg xmlns="http://www.w3.org/2000/svg" viewBox="0 0 48 48"><defs><style>.cls-1{fill:none;}</style></defs><title>arrow-down-circle-solid</title><g id="Layer_2" data-name="Layer 2"><g id="invisible_box" data-name="invisible box"><rect class="cls-1" width="48" height="48"/></g><g id="Layer_3" data-name="Layer 3"><path d="M24,2A22,22,0,1,0,46,24,22,22,0,0,0,24,2Zm9.35,20.49-7.93,7.92a2,2,0,0,1-2.83,0l-7.94-7.92a2.07,2.07,0,0,1-.3-2.65,2,2,0,0,1,3-.25L24,26.17l6.6-6.58a2,2,0,0,1,3,.25A2.07,2.07,0,0,1,33.35,22.49Z"/></g></g></svg>