<svg xmlns="http://www.w3.org/2000/svg" width="48" height="48" viewBox="0 0 48 48">
  <title>arrowhead-left-circle-solid</title>
  <g id="Layer_2" data-name="Layer 2">
    <g id="invisible_box" data-name="invisible box">
      <rect width="48" height="48" fill="none"/>
    </g>
    <g id="icons_Q2" data-name="icons Q2">
      <path d="M24,2A22,22,0,1,0,46,24,21.9,21.9,0,0,0,24,2Zm4.4,28.6a1.9,1.9,0,0,1-.2,3,2,2,0,0,1-2.7-.3l-7.9-7.9a1.9,1.9,0,0,1,0-2.8l7.9-8a2.3,2.3,0,0,1,2.7-.3,2,2,0,0,1,.2,3.1L21.8,24Z"/>
    </g>
  </g>
</svg>
