<svg xmlns="http://www.w3.org/2000/svg" viewBox="0 0 48 48"><defs><style>.cls-1{fill:none;}</style></defs><title>arts-and-craft-solid</title><g id="Layer_2" data-name="Layer 2"><g id="invisible_box" data-name="invisible box"><rect class="cls-1" width="48" height="48"/></g><g id="Layer_3" data-name="Layer 3"><path d="M26.29,11.12,21.43,16l-2.84,2.84-2.77,2.77L13,24.43,3.59,33.82A2,2,0,0,0,3,35.24V43a2,2,0,0,0,2,2h7.76a2,2,0,0,0,1.41-.59l22.71-22.7Zm18.12.24L36.64,3.59a2,2,0,0,0-2.82,0l-4.7,4.7L39.71,18.88l4.7-4.7A2,2,0,0,0,44.41,11.36Z"/><path d="M9,3A7,7,0,0,0,4.06,5.05a6.92,6.92,0,0,0-2,5.23,7,7,0,0,0,2.48,5.05l7.11,6.15,9-8.93L14.39,5.47A7.06,7.06,0,0,0,9.32,3Z"/><path d="M34,28.7l-6.17,6.14,2.22,2a7.39,7.39,0,0,0,2.3,5.83C34.64,44.57,38.13,45,40.89,45a31.08,31.08,0,0,0,4.19-.3c.8-.1.92-.57.92-.78,0-1.2-2.35-1.32-2.79-3.65-.38-2.05.71-5.52-1.8-7.82a5.83,5.83,0,0,0-4.08-1.57,9.53,9.53,0,0,0-1.25.09L34,28.7Z"/></g></g></svg>