<svg xmlns="http://www.w3.org/2000/svg" viewBox="0 0 48 48"><defs><style>.cls-1{fill:none;}</style></defs><title>arts-and-crafts</title><g id="Layer_2" data-name="Layer 2"><g id="invisible_box" data-name="invisible box"><rect class="cls-1" width="48" height="48"/></g><g id="Layer_3" data-name="Layer 3"><path d="M44.41,11.36,36.64,3.59a2,2,0,0,0-2.82,0L21.43,16l-2.84,2.84-2.77,2.77L13,24.43,3.59,33.82A2,2,0,0,0,3,35.24V43a2,2,0,0,0,2,2h7.76a2,2,0,0,0,1.41-.59L24.45,34.14l2.84-2.85,1-1,2.85-2.84L44.41,14.18A2,2,0,0,0,44.41,11.36ZM11.93,41H7V36.07L29.37,13.7l4.93,4.93Zm25.2-25.19-4.94-4.94,3-3,4.93,4.93Z"/><path d="M9,3A7,7,0,0,0,4.06,5.05a6.92,6.92,0,0,0-2,5.23,7,7,0,0,0,2.48,5.05l7.11,6.15,2.84-2.83L7.07,12.28A3,3,0,0,1,9,7h.13A3,3,0,0,1,11.33,8l6.4,7.34,2.84-2.83L14.39,5.47A7.06,7.06,0,0,0,9.32,3Z"/><path d="M37.33,34.86a1.77,1.77,0,0,1,1.37.53c.4.36.46,1.11.43,2.76A14.23,14.23,0,0,0,39.27,41,8.58,8.58,0,0,1,35,39.7a3.42,3.42,0,0,1-1-2.66l0-.43.5-.44.47-.42.83-.75.69-.08a5.88,5.88,0,0,1,.77-.06M34,28.7l-6.17,6.14,2.22,2a7.39,7.39,0,0,0,2.3,5.83C34.64,44.57,38.13,45,40.89,45a31.08,31.08,0,0,0,4.19-.3c.8-.1.92-.57.92-.78,0-1.2-2.35-1.32-2.79-3.65-.38-2.05.71-5.52-1.8-7.82a5.83,5.83,0,0,0-4.08-1.57,9.53,9.53,0,0,0-1.25.09L34,28.7Z"/></g></g></svg>