<svg xmlns="http://www.w3.org/2000/svg" viewBox="0 0 48 48"><defs><style>.cls-1{fill:none;}</style></defs><title>assignment-text</title><g id="Layer_2" data-name="Layer 2"><g id="invisible_box" data-name="invisible box"><rect class="cls-1" width="48" height="48"/></g><g id="Layer_3" data-name="Layer 3"><rect x="14" y="16" width="20" height="4" rx="2" ry="2"/><rect x="14" y="24" width="20" height="4" rx="2" ry="2"/><rect x="14" y="32" width="12" height="4" rx="2" ry="2"/><path d="M40,6H31V4a2,2,0,0,0-2-2H19a2,2,0,0,0-2,2V6H8A2,2,0,0,0,6,8V44a2,2,0,0,0,2,2H40a2,2,0,0,0,2-2V8A2,2,0,0,0,40,6ZM38,42H10V10H21V6h6v4H38Z"/></g></g></svg>