<svg xmlns="http://www.w3.org/2000/svg" viewBox="0 0 40 44"><title>baby-solid</title><g id="Layer_2" data-name="Layer 2"><g id="Layer_3" data-name="Layer 3"><path d="M8,20V13a2,2,0,0,0-2-2H2a2,2,0,0,0,0,4H4v6a1.82,1.82,0,0,0,.08.52,17.88,17.88,0,0,0,4,9.94,6.5,6.5,0,1,0,8.88,6c0-.07,0-.15,0-.22a17.79,17.79,0,0,0,10,0c0,.07,0,.15,0,.22a6.5,6.5,0,1,0,8.88-6A18,18,0,0,0,40,20Zm2.5,20A2.5,2.5,0,1,1,13,37.5,2.5,2.5,0,0,1,10.5,40Zm23,0A2.5,2.5,0,1,1,36,37.5,2.5,2.5,0,0,1,33.5,40Z"/><path d="M24.29,0A1.23,1.23,0,0,0,24,0a1.92,1.92,0,0,0-2,1.79V16H40C40,7.79,33.15,1,24.29,0Z"/></g></g></svg>