<svg xmlns="http://www.w3.org/2000/svg" viewBox="0 0 48 48"><defs><style>.cls-1{fill:none;}</style></defs><title>baby</title><g id="Layer_2" data-name="Layer 2"><g id="invisible_box" data-name="invisible box"><rect class="cls-1" width="48" height="48"/><rect class="cls-1" width="48" height="48"/></g><g id="Layer_3" data-name="Layer 3"><path d="M10,22V15a2,2,0,0,0-2-2H4a2,2,0,0,0,0,4H6v6a1.82,1.82,0,0,0,.08.52,17.88,17.88,0,0,0,4,9.94,6.5,6.5,0,1,0,8.88,6c0-.07,0-.15,0-.22a17.79,17.79,0,0,0,10,0c0,.07,0,.15,0,.22a6.5,6.5,0,1,0,8.88-6A18,18,0,0,0,42,22Zm2.5,20A2.5,2.5,0,1,1,15,39.5,2.5,2.5,0,0,1,12.5,42ZM10.58,26H37.42a14,14,0,0,1-26.84,0ZM35.5,42A2.5,2.5,0,1,1,38,39.5,2.5,2.5,0,0,1,35.5,42Z"/><path d="M26.29,2A1.23,1.23,0,0,0,26,2a1.92,1.92,0,0,0-2,1.79V18H42C42,9.79,35.15,3,26.29,2ZM28,14V6.39A13.35,13.35,0,0,1,37.21,14Z"/></g></g></svg>