<svg xmlns="http://www.w3.org/2000/svg" viewBox="0 0 48 48"><defs><style>.cls-1{fill:none;}</style></defs><title>bookmark-multiple</title><g id="Layer_2" data-name="Layer 2"><g id="invisible_box" data-name="invisible box"><rect class="cls-1" width="48" height="48"/></g><g id="Layer_3" data-name="Layer 3"><path d="M30,14V40l-7.59-5.72L20,32.43l-2.41,1.81L10,40V14H30M8,10a2,2,0,0,0-2,2V44a2,2,0,0,0,2,2,2,2,0,0,0,1.35-.54l10.64-8,10.64,8A2,2,0,0,0,32,46a2,2,0,0,0,2-2V12a2,2,0,0,0-2-2Z"/><path d="M16,2a2,2,0,0,0-2,2V6H38V37l.64.48A2,2,0,0,0,40,38a2,2,0,0,0,2-2V4a2,2,0,0,0-2-2Z"/></g></g></svg>