<svg xmlns="http://www.w3.org/2000/svg" viewBox="0 0 48 48"><defs><style>.cls-1{fill:none;}</style></defs><title>book</title><g id="Layer_2" data-name="Layer 2"><g id="invisible_box" data-name="invisible box"><rect class="cls-1" width="48" height="48"/></g><g id="Layer_3" data-name="Layer 3"><path d="M40,10H38V4a2,2,0,0,0-2-2H12A6,6,0,0,0,6,8V40a6,6,0,0,0,6,6H40a2,2,0,0,0,2-2V12A2,2,0,0,0,40,10ZM12,6H34v4H12.12A2.09,2.09,0,0,1,10,8.34,2,2,0,0,1,12,6ZM38,42H12a2,2,0,0,1-2-2V14H38Z"/><rect x="14" y="18" width="20" height="4"/></g></g></svg>