<svg xmlns="http://www.w3.org/2000/svg" width="48" height="48" viewBox="0 0 48 48">
  <title>book</title>
  <g id="Layer_2" data-name="Layer 2">
    <g id="invisible_box" data-name="invisible box">
      <rect width="48" height="48" fill="none"/>
    </g>
    <g id="icons_Q2" data-name="icons Q2">
      <path d="M40,10H38V4a2,2,0,0,0-2-2H12A6,6,0,0,0,6,8V40a6,6,0,0,0,6,6H40a2,2,0,0,0,2-2V12A2,2,0,0,0,40,10ZM12,6H34v4H12.1A2.1,2.1,0,0,1,10,8.3,2,2,0,0,1,12,6ZM38,42H12a2,2,0,0,1-2-2V14H38Z"/>
      <rect x="14" y="18" width="20" height="4"/>
    </g>
  </g>
</svg>
