<svg xmlns="http://www.w3.org/2000/svg" viewBox="0 0 48 48"><defs><style>.cls-1{fill:none;}</style></defs><title>branch</title><g id="Layer_2" data-name="Layer 2"><g id="invisible_box" data-name="invisible box"><rect class="cls-1" width="48" height="48"/></g><g id="Layer_3" data-name="Layer 3"><path d="M44,9a7,7,0,1,0-9,6.71V16a6,6,0,0,1-6,6H21a9.94,9.94,0,0,0-6,2V15.71a7,7,0,1,0-4,0V32.29a7,7,0,1,0,4,0V32a6,6,0,0,1,6-6h8A10,10,0,0,0,39,16v-.29A7,7,0,0,0,44,9ZM10,9a3,3,0,1,1,3,3A3,3,0,0,1,10,9Zm6,30a3,3,0,1,1-3-3A3,3,0,0,1,16,39ZM37,12a3,3,0,1,1,3-3A3,3,0,0,1,37,12Z"/></g></g></svg>