<svg xmlns="http://www.w3.org/2000/svg" viewBox="0 0 48 48"><defs><style>.cls-1{fill:none;}</style></defs><title>broadcast-tower</title><g id="Layer_2" data-name="Layer 2"><g id="invisible_box" data-name="invisible box"><rect class="cls-1" width="48" height="48"/></g><g id="Layer_3" data-name="Layer 3"><path d="M24,31.71,27.43,40H20.57L24,31.71M24,22c-.19,0-.39.18-.54.54L15.13,42.7c-.3.71-.07,1.3.51,1.3H32.36c.58,0,.81-.59.51-1.3L24.54,22.54c-.15-.36-.35-.54-.54-.54Z"/><circle cx="24" cy="21" r="5"/><path d="M17.36,28.54a2,2,0,1,1-2.72,2.92,14.11,14.11,0,0,1,0-20.92,2,2,0,0,1,2.72,2.92,10.14,10.14,0,0,0,0,15.08Z"/><path d="M38,21a14.19,14.19,0,0,1-4.64,10.46,2,2,0,0,1-2.72-2.92,10.14,10.14,0,0,0,0-15.08,2,2,0,1,1,2.72-2.92A14.19,14.19,0,0,1,38,21Z"/><path d="M46,21a21.33,21.33,0,0,1-6.61,15.44,2,2,0,0,1-2.78-2.88,17.33,17.33,0,0,0,0-25.12,2,2,0,0,1,2.78-2.88A21.33,21.33,0,0,1,46,21Z"/><path d="M11.39,33.56a2,2,0,0,1-2.78,2.88,21.34,21.34,0,0,1,0-30.88,2,2,0,0,1,2.78,2.88,17.33,17.33,0,0,0,0,25.12Z"/></g></g></svg>