<svg xmlns="http://www.w3.org/2000/svg" viewBox="0 0 48 48"><defs><style>.cls-1{fill:none;}</style></defs><title>browser-open-in-solid</title><g id="Layer_2" data-name="Layer 2"><g id="invisible_box" data-name="invisible box"><rect class="cls-1" width="48" height="48"/></g><g id="Layer_3" data-name="Layer 3"><path d="M44,6H4A2,2,0,0,0,2,8V40a2,2,0,0,0,2,2H22V26.83l-3.6,3.58a2,2,0,0,1-3-.25,2.07,2.07,0,0,1,.3-2.65l6.94-6.92a2,2,0,0,1,2.83,0l6.93,6.92a2.07,2.07,0,0,1,.3,2.65,2,2,0,0,1-3,.25L26,26.82V42H44a2,2,0,0,0,2-2V8A2,2,0,0,0,44,6ZM10,16a2,2,0,1,1,2-2A2,2,0,0,1,10,16Zm6,0a2,2,0,1,1,2-2A2,2,0,0,1,16,16Zm6,0a2,2,0,1,1,2-2A2,2,0,0,1,22,16Z"/></g></g></svg>