<svg xmlns="http://www.w3.org/2000/svg" viewBox="0 0 48 48"><defs><style>.cls-1{fill:none;}</style></defs><title>browser-bar-chart</title><g id="Layer_2" data-name="Layer 2"><g id="invisible_box" data-name="invisible box"><rect class="cls-1" width="48" height="48"/></g><g id="Layer_3" data-name="Layer 3"><path d="M2,8V40a2,2,0,0,0,2,2H44a2,2,0,0,0,2-2V8a2,2,0,0,0-2-2H4A2,2,0,0,0,2,8ZM42,38H6V10H42Z"/><circle cx="10" cy="14" r="2"/><circle cx="16" cy="14" r="2"/><circle cx="22" cy="14" r="2"/><path d="M20,34H16V26a2,2,0,0,1,2-2h0a2,2,0,0,1,2,2Z"/><path d="M26,34H22V22a2,2,0,0,1,2-2h0a2,2,0,0,1,2,2Z"/><path d="M32,34H28V27a2,2,0,0,1,2-2h0a2,2,0,0,1,2,2Z"/></g></g></svg>