<svg xmlns="http://www.w3.org/2000/svg" viewBox="0 0 48 48"><defs><style>.cls-1{fill:none;}</style></defs><title>browser-code</title><g id="Layer_2" data-name="Layer 2"><g id="invisible_box" data-name="invisible box"><rect class="cls-1" width="48" height="48"/></g><g id="Layer_3" data-name="Layer 3"><circle cx="10" cy="14" r="2"/><circle cx="16" cy="14" r="2"/><circle cx="22" cy="14" r="2"/><path d="M12,35a2,2,0,0,1-1.34-3.49L16,27l-5.35-4.51a2,2,0,1,1,2.68-3l7,6a2,2,0,0,1,0,3l-7,6A2,2,0,0,1,12,35Z"/><path d="M36,29.25H27a2,2,0,0,1,0-4h9a2,2,0,0,1,0,4Z"/><path d="M44,6H4A2,2,0,0,0,2,8V40a2,2,0,0,0,2,2H4a2.11,2.11,0,0,0,2-2.34C6,38.66,6,10,6,10H42V38H16a2,2,0,0,0-2,2.34A2.07,2.07,0,0,0,16.11,42H44a2,2,0,0,0,2-2V8A2,2,0,0,0,44,6Z"/></g></g></svg>