<svg xmlns="http://www.w3.org/2000/svg" viewBox="0 0 48 48"><defs><style>.cls-1{fill:none;}</style></defs><title>browser-cost-solid</title><g id="Layer_2" data-name="Layer 2"><g id="invisible_box" data-name="invisible box"><rect class="cls-1" width="48" height="48"/></g><g id="Layer_3" data-name="Layer 3"><path d="M44,6H4A2,2,0,0,0,2,8V40a2,2,0,0,0,2,2H22V39.79A10.75,10.75,0,0,1,17.8,38a1.92,1.92,0,0,1-.35-2.65,2.07,2.07,0,0,1,2.84-.51,6.52,6.52,0,0,0,4,1.27c1.44,0,2.45-.59,2.45-1.42,0-.53,0-1.15-3.28-1.79s-6.42-1.81-6.42-5.54c0-2.66,2-4.68,4.92-5.22V20a2,2,0,0,1,4,0v2.25a9.52,9.52,0,0,1,3.11,1.22,2,2,0,0,1,.38,2.85,1.74,1.74,0,0,1-2.68.47,6,6,0,0,0-3.25-.91,3.16,3.16,0,0,0-1.79.46,1,1,0,0,0-.48.83c0,.57,0,1.17,3.46,1.86,2.91.59,6.25,1.74,6.25,5.45v0a5,5,0,0,1-2,4,6.93,6.93,0,0,1-3,1.28V42H44a2,2,0,0,0,2-2V8A2,2,0,0,0,44,6ZM10,16a2,2,0,1,1,2-2A2,2,0,0,1,10,16Zm6,0a2,2,0,1,1,2-2A2,2,0,0,1,16,16Zm6,0a2,2,0,1,1,2-2A2,2,0,0,1,22,16Z"/></g></g></svg>