<svg xmlns="http://www.w3.org/2000/svg" viewBox="0 0 48 48"><defs><style>.cls-1{fill:none;}</style></defs><title>browser-cost</title><g id="Layer_2" data-name="Layer 2"><g id="invisible_box" data-name="invisible box"><rect class="cls-1" width="48" height="48"/></g><g id="Layer_3" data-name="Layer 3"><path d="M24.75,29c-3.46-.69-3.46-1.29-3.46-1.86a1,1,0,0,1,.48-.83,3.16,3.16,0,0,1,1.79-.46,6,6,0,0,1,3.25.91,1.74,1.74,0,0,0,2.68-.47,2,2,0,0,0-.38-2.85A9.52,9.52,0,0,0,26,22.25V20a2,2,0,0,0-4,0v2.15c-2.93.54-4.92,2.56-4.92,5.22,0,3.73,3.24,4.89,6.42,5.54s3.28,1.26,3.28,1.79c0,.83-1,1.42-2.45,1.42h0a6.52,6.52,0,0,1-4-1.27,2.07,2.07,0,0,0-2.84.51A1.92,1.92,0,0,0,17.8,38,10.75,10.75,0,0,0,22,39.79V42a2,2,0,0,0,4,0V39.82a6.93,6.93,0,0,0,3-1.28,5,5,0,0,0,2-4v0C31,30.77,27.66,29.62,24.75,29Z"/><path d="M44,6H4A2,2,0,0,0,2,8V40a2,2,0,0,0,2,2h8a2,2,0,0,0,2-2.34A2.07,2.07,0,0,0,11.89,38H6V10H42V38H36a2,2,0,0,0-2,2.34A2.07,2.07,0,0,0,36.11,42H44a2,2,0,0,0,2-2V8A2,2,0,0,0,44,6Z"/><circle cx="10" cy="14" r="2"/><circle cx="16" cy="14" r="2"/><circle cx="22" cy="14" r="2"/></g></g></svg>