<svg xmlns="http://www.w3.org/2000/svg" viewBox="0 0 48 48"><defs><style>.cls-1{fill:none;}</style></defs><title>browser-code-solid</title><g id="Layer_2" data-name="Layer 2"><g id="invisible_box" data-name="invisible box"><rect class="cls-1" width="48" height="48"/></g><g id="Layer_3" data-name="Layer 3"><path d="M44,6H4A2,2,0,0,0,2,8V40a2,2,0,0,0,2,2H44a2,2,0,0,0,2-2V8A2,2,0,0,0,44,6ZM16,12a2,2,0,1,1-2,2A2,2,0,0,1,16,12ZM8,14a2,2,0,1,1,2,2A2,2,0,0,1,8,14ZM20.34,28.49l-7,6a2,2,0,1,1-2.68-3L16,27l-5.35-4.51a2,2,0,1,1,2.68-3l7,6a2,2,0,0,1,0,3ZM22,16a2,2,0,1,1,2-2A2,2,0,0,1,22,16ZM36,29.25H27a2,2,0,0,1,0-4h9a2,2,0,0,1,0,4Z"/></g></g></svg>