<svg xmlns="http://www.w3.org/2000/svg" viewBox="0 0 48 48"><defs><style>.cls-1{fill:none;}</style></defs><title>browser-open-in</title><g id="Layer_2" data-name="Layer 2"><g id="invisible_box" data-name="invisible box"><rect class="cls-1" width="48" height="48"/></g><g id="Layer_3" data-name="Layer 3"><path d="M2,8V40a2,2,0,0,0,2,2H44a2,2,0,0,0,2-2V8a2,2,0,0,0-2-2H4A2,2,0,0,0,2,8ZM42,38H6V10H42Z"/><circle cx="10" cy="14" r="2"/><circle cx="16" cy="14" r="2"/><circle cx="22" cy="14" r="2"/><path d="M32.35,27.51l-6.93-6.92a2,2,0,0,0-2.83,0l-6.94,6.92a2.07,2.07,0,0,0-.3,2.65,2,2,0,0,0,3,.25L22,26.83V39a2,2,0,0,0,4,0V26.82l3.6,3.59a2,2,0,0,0,3-.25A2.07,2.07,0,0,0,32.35,27.51Z"/></g></g></svg>