<svg xmlns="http://www.w3.org/2000/svg" viewBox="0 0 48 48"><defs><style>.cls-1{fill:none;}</style></defs><title>bug-solid</title><g id="Layer_2" data-name="Layer 2"><g id="invisible_box" data-name="invisible box"><rect class="cls-1" width="48" height="48"/></g><g id="Layer_3" data-name="Layer 3"><path d="M42,32a2,2,0,0,0,0-4H35.9a17.52,17.52,0,0,0-.35-2.32A10,10,0,0,0,43,16a2,2,0,0,0-4,0,6.11,6.11,0,0,1-4.65,5.89,15.84,15.84,0,0,0-3.05-4.6A7.2,7.2,0,0,0,32,14a8.68,8.68,0,0,0-1-3.9V10a4,4,0,0,1,4-4,2,2,0,0,0,0-4,8.11,8.11,0,0,0-7.4,4.9,7.65,7.65,0,0,0-7.2,0A8.11,8.11,0,0,0,13,2a2,2,0,0,0,0,4,4,4,0,0,1,4,4v.1A8.68,8.68,0,0,0,16,14a7.49,7.49,0,0,0,.7,3.29,15.74,15.74,0,0,0-3,4.51A5.91,5.91,0,0,1,9,16a2,2,0,0,0-4,0,10.15,10.15,0,0,0,7.45,9.68A17.52,17.52,0,0,0,12.1,28H6a2,2,0,0,0,0,4h6.1a17.52,17.52,0,0,0,.35,2.32A10.15,10.15,0,0,0,5,44a2,2,0,0,0,4,0,6.11,6.11,0,0,1,4.65-5.89C15.74,42.83,19.59,46,24,46s8.26-3.17,10.35-7.89A6,6,0,0,1,39,44a2,2,0,0,0,4,0,10.15,10.15,0,0,0-7.45-9.68A17.52,17.52,0,0,0,35.9,32ZM26,38a2,2,0,0,1-4,0V24a2,2,0,0,1,2-2,2,2,0,0,1,2,2Z"/></g></g></svg>