<svg xmlns="http://www.w3.org/2000/svg" viewBox="0 0 48 48"><defs><style>.cls-1{fill:none;}</style></defs><title>calendar-date-range-solid</title><g id="Layer_2" data-name="Layer 2"><g id="invisible_box" data-name="invisible box"><rect class="cls-1" width="48" height="48"/></g><g id="Layer_3" data-name="Layer 3"><path d="M2,22V42a2,2,0,0,0,2,2H44a2,2,0,0,0,2-2V22ZM16,32a2,2,0,0,1-2,2H10a2,2,0,0,1-2-2V28a2,2,0,0,1,2-2h4a2,2,0,0,1,2,2Zm12,0a2,2,0,0,1-2,2H22a2,2,0,0,1-2-2V28a2,2,0,0,1,2-2h4a2,2,0,0,1,2,2Zm12,0a2,2,0,0,1-2,2H34a2,2,0,0,1-2-2V28a2,2,0,0,1,2-2h4a2,2,0,0,1,2,2ZM44,8H35V4.12A2.07,2.07,0,0,0,33.34,2,2,2,0,0,0,31,4V8H17V4.12A2.07,2.07,0,0,0,15.34,2,2,2,0,0,0,13,4V8H4a2,2,0,0,0-2,2v8H46V10A2,2,0,0,0,44,8Z"/></g></g></svg>