<svg xmlns="http://www.w3.org/2000/svg" viewBox="0 0 48 48"><defs><style>.cls-1{fill:none;}</style></defs><title>calendar</title><g id="Layer_2" data-name="Layer 2"><g id="invisible_box" data-name="invisible box"><rect class="cls-1" width="48" height="48"/></g><g id="Layer_3" data-name="Layer 3"><path d="M44,8H35V4.12A2.07,2.07,0,0,0,33.34,2,2,2,0,0,0,31,4V8H17V4.12A2.07,2.07,0,0,0,15.34,2,2,2,0,0,0,13,4V8H4a2,2,0,0,0-2,2V42a2,2,0,0,0,2,2H44a2,2,0,0,0,2-2V10A2,2,0,0,0,44,8Zm-2,4v6H6V12ZM6,40V22H42V40Z"/></g></g></svg>