<svg xmlns="http://www.w3.org/2000/svg" viewBox="0 0 48 48"><defs><style>.cls-1{fill:none;}</style></defs><title>camera</title><g id="Layer_2" data-name="Layer 2"><g id="invisible_box" data-name="invisible box"><rect class="cls-1" width="48" height="48"/></g><g id="Layer_3" data-name="Layer 3"><path d="M24,21a5,5,0,1,1-5,5,5,5,0,0,1,5-5m0-4a9,9,0,1,0,9,9,9,9,0,0,0-9-9Z"/><path d="M28.08,10l2.8,3.5,1.2,1.5H42V38H6V15h9.92l1.2-1.5,2.8-3.5h8.16M30,6H18l-4,5H4a2,2,0,0,0-2,2V40a2,2,0,0,0,2,2H44a2,2,0,0,0,2-2V13a2,2,0,0,0-2-2H34L30,6Z"/></g></g></svg>