<svg xmlns="http://www.w3.org/2000/svg" viewBox="0 0 48 48"><defs><style>.cls-1{fill:none;}</style></defs><title>cart-shopping-remove-solid</title><g id="Layer_2" data-name="Layer 2"><g id="invisible_box" data-name="invisible box"><rect class="cls-1" width="48" height="48"/></g><g id="Layer_3" data-name="Layer 3"><path d="M43.26,10.05A3,3,0,0,0,41,9H28.83l3.52,3.51a2.07,2.07,0,0,1,.3,2.65,2,2,0,0,1-3,.25L28,13.82V25a2,2,0,0,1-4,0V13.82l-1.6,1.59a2,2,0,0,1-3-.25,2.07,2.07,0,0,1,.3-2.65L23.17,9H10.48l-.39-3.35A3,3,0,0,0,7.11,3h-3A2.07,2.07,0,0,0,2,4.66,2,2,0,0,0,4,7H6.22L9.38,33.88A6,6,0,1,0,18.15,41h10.7a6,6,0,1,0,0-4H18.15a6,6,0,0,0-4.83-3.94L13.07,31h25.3a3,3,0,0,0,3-2.56L44,12.6A3.13,3.13,0,0,0,43.26,10.05ZM34.5,37a2,2,0,1,1-2,2A2,2,0,0,1,34.5,37Zm-20,2a2,2,0,1,1-2-2A2,2,0,0,1,14.5,39Z"/></g></g></svg>