<svg xmlns="http://www.w3.org/2000/svg" viewBox="0 0 48 48"><defs><style>.cls-1{fill:none;}</style></defs><title>cart-shopping-solid</title><g id="Layer_2" data-name="Layer 2"><g id="invisible_box" data-name="invisible box"><rect class="cls-1" width="48" height="48"/></g><g id="Layer_3" data-name="Layer 3"><path d="M44.26,10.05A3,3,0,0,0,42,9H11.48l-.39-3.35A3,3,0,0,0,8.11,3H5A2,2,0,0,0,5,7H7.22l3.16,26.88A6,6,0,1,0,19.15,41h10.7a6,6,0,1,0,0-4H19.15a6,6,0,0,0-4.83-3.94L14.07,31h25.3a3,3,0,0,0,3-2.56L45,12.6A3.13,3.13,0,0,0,44.26,10.05ZM37.5,39a2,2,0,1,1-2-2A2,2,0,0,1,37.5,39Zm-22,0a2,2,0,1,1-2-2A2,2,0,0,1,15.5,39Z"/></g></g></svg>