<svg xmlns="http://www.w3.org/2000/svg" viewBox="0 0 48 48"><defs><style>.cls-1{fill:none;}</style></defs><title>cart-shopping-remove</title><g id="Layer_2" data-name="Layer 2"><g id="invisible_box" data-name="invisible box"><rect class="cls-1" width="48" height="48"/></g><g id="Layer_3" data-name="Layer 3"><path d="M29,22V9.82l1.6,1.59a2,2,0,0,0,3-.25,2.07,2.07,0,0,0-.3-2.65L28.42,3.59a2,2,0,0,0-2.83,0L20.65,8.51a2.07,2.07,0,0,0-.3,2.65,2,2,0,0,0,3,.25L25,9.82V22a2,2,0,0,0,4,0Z"/><path d="M44.26,10.05A3,3,0,0,0,42,9H38a2,2,0,0,0-2,2h0a2,2,0,0,0,2,2h2.84L38.51,27H13.6L12,13h4a2,2,0,0,0,2-2h0a2,2,0,0,0-2-2H11.48l-.39-3.35A3,3,0,0,0,8.11,3h-3A2.07,2.07,0,0,0,3,4.66,2,2,0,0,0,5,7H7.22l3.16,26.88A6,6,0,1,0,19.15,41h10.7a6,6,0,1,0,0-4H19.15a6,6,0,0,0-4.83-3.94L14.07,31h25.3a3,3,0,0,0,3-2.56L45,12.6A3.13,3.13,0,0,0,44.26,10.05ZM35.5,37a2,2,0,1,1-2,2A2,2,0,0,1,35.5,37Zm-20,2a2,2,0,1,1-2-2A2,2,0,0,1,15.5,39Z"/></g></g></svg>