<svg xmlns="http://www.w3.org/2000/svg" viewBox="0 0 48 48"><defs><style>.cls-1{fill:none;}</style></defs><title>category-solid</title><g id="Layer_2" data-name="Layer 2"><g id="invisible_box" data-name="invisible box"><rect class="cls-1" width="48" height="48"/></g><g id="Layer_3" data-name="Layer 3"><path d="M24,2a2.09,2.09,0,0,0-1.71,1l-9,14a2.27,2.27,0,0,0,0,2,1.94,1.94,0,0,0,1.7,1H33a2.08,2.08,0,0,0,1.71-1,1.82,1.82,0,0,0,0-2l-9-14A1.94,1.94,0,0,0,24,2Z"/><path d="M43,43H29a2,2,0,0,1-2-2V27a2,2,0,0,1,2-2H43a2,2,0,0,1,2,2V41A2,2,0,0,1,43,43Z"/><path d="M13,24A10,10,0,1,0,23,34,10,10,0,0,0,13,24Z"/></g></g></svg>