<svg xmlns="http://www.w3.org/2000/svg" viewBox="0 0 48 48"><defs><style>.cls-1{fill:none;}</style></defs><title>category-list-solid</title><g id="Layer_2" data-name="Layer 2"><g id="invisible_box" data-name="invisible box"><rect class="cls-1" width="48" height="48"/><rect class="cls-1" width="48" height="48"/><rect class="cls-1" width="48" height="48"/></g><g id="Layer_3" data-name="Layer 3"><path d="M24,10h0a2,2,0,0,1,2-2H42a2,2,0,0,1,2,2h0a2,2,0,0,1-2,2H26A2,2,0,0,1,24,10Z"/><path d="M24,24h0a2,2,0,0,1,2-2H42a2,2,0,0,1,2,2h0a2,2,0,0,1-2,2H26A2,2,0,0,1,24,24Z"/><path d="M24,38h0a2,2,0,0,1,2-2H42a2,2,0,0,1,2,2h0a2,2,0,0,1-2,2H26A2,2,0,0,1,24,38Z"/><path d="M12,2a2.09,2.09,0,0,0-1.71,1l-6,10a2.27,2.27,0,0,0,0,2,1.94,1.94,0,0,0,1.7,1H18a2.08,2.08,0,0,0,1.71-1,1.82,1.82,0,0,0,0-2l-6-10A1.94,1.94,0,0,0,12,2Z"/><path d="M12,30a6,6,0,1,1,6-6A6,6,0,0,1,12,30Z"/><path d="M16,44H8a2,2,0,0,1-2-2V34a2,2,0,0,1,2-2h8a2,2,0,0,1,2,2v8A2,2,0,0,1,16,44Z"/></g></g></svg>