<svg xmlns="http://www.w3.org/2000/svg" viewBox="0 0 48 48"><defs><style>.cls-1{fill:none;}</style></defs><title>certificate-star-solid</title><g id="Layer_2" data-name="Layer 2"><g id="invisible_box" data-name="invisible box"><rect class="cls-1" width="48" height="48"/><rect class="cls-1" width="48" height="48"/></g><g id="Layer_3" data-name="Layer 3"><path d="M24,2a16,16,0,0,0-9,29.24V43.89a2,2,0,0,0,3.11,1.75L24,41l5.89,4.64A2,2,0,0,0,33,43.89V31.24A16,16,0,0,0,24,2ZM18.89,15.89l2.89-.42,1.29-2.89a1,1,0,0,1,1.86,0l1.29,2.89,2.89.42a1,1,0,0,1,.57,1.78l-2.08,2,.49,3.06a1,1,0,0,1-1.51,1.1L24,22l-2.58,1.88a1,1,0,0,1-1.51-1.1l.49-3.06-2.08-2A1,1,0,0,1,18.89,15.89Z"/></g></g></svg>