<svg xmlns="http://www.w3.org/2000/svg" viewBox="0 0 48 48"><defs><style>.cls-1{fill:none;}</style></defs><title>certificate-key-solid</title><g id="Layer_2" data-name="Layer 2"><g id="invisible_box" data-name="invisible box"><rect class="cls-1" width="48" height="48"/><rect class="cls-1" width="48" height="48"/></g><g id="Layer_3" data-name="Layer 3"><path d="M24,30A12,12,0,1,1,34.1,11.53a1,1,0,0,0,.84.47h2.32a1,1,0,0,0,.89-1.47A16,16,0,1,0,15,31.24V43.89a2,2,0,0,0,3.11,1.75L24,41l5.89,4.64A2,2,0,0,0,33,43.89V31.24a13.73,13.73,0,0,0,1.54-1.19,1,1,0,0,0-.07-1.55l-1.65-1.24a1,1,0,0,0-1.26,0A11.87,11.87,0,0,1,24,30Z"/><path d="M30.71,16a7,7,0,1,0,0,4h4v3.66a2,2,0,0,0,4,0V20h1.65v3.66a2,2,0,1,0,4,0V18a2,2,0,0,0-2-2Zm-8.83,4.12a3,3,0,1,1,4.24,0A3,3,0,0,1,21.88,20.12Z"/></g></g></svg>