<svg xmlns="http://www.w3.org/2000/svg" viewBox="0 0 48 48"><defs><style>.cls-1{fill:none;}</style></defs><title>certificate-check-solid</title><g id="Layer_2" data-name="Layer 2"><g id="invisible_box" data-name="invisible box"><rect class="cls-1" width="48" height="48"/><rect class="cls-1" width="48" height="48"/></g><g id="Layer_3" data-name="Layer 3"><path d="M24,2a16,16,0,0,0-9,29.23V43.89a2,2,0,0,0,3.11,1.75L24,41l5.89,4.64A2,2,0,0,0,33,43.89V31.23A16,16,0,0,0,24,2Zm7.41,13.41-8,8a2,2,0,0,1-2.83,0l-3.92-3.92a2.07,2.07,0,0,1-.3-2.65,2,2,0,0,1,3-.25L22,19.17l6.59-6.58a2,2,0,0,1,2.83,2.82Z"/></g></g></svg>