<svg xmlns="http://www.w3.org/2000/svg" viewBox="0 0 48 48"><defs><style>.cls-1{fill:none;}</style></defs><title>certificate-check</title><g id="Layer_2" data-name="Layer 2"><g id="invisible_box" data-name="invisible box"><rect class="cls-1" width="48" height="48"/></g><g id="Layer_3" data-name="Layer 3"><path d="M40,18A16,16,0,1,0,15,31.23V43.89a2,2,0,0,0,3.11,1.75L24,41l5.89,4.64A2,2,0,0,0,33,43.89V31.23A16,16,0,0,0,40,18ZM12,18A12,12,0,1,1,24,30,12,12,0,0,1,12,18Z"/><path d="M20.57,23.41l-3.92-3.92a2.07,2.07,0,0,1-.3-2.65,2,2,0,0,1,3-.25L22,19.17l6.59-6.58a2,2,0,0,1,2.83,2.82l-8,8A2,2,0,0,1,20.57,23.41Z"/></g></g></svg>