<svg xmlns="http://www.w3.org/2000/svg" viewBox="0 0 48 48"><defs><style>.cls-1{fill:none;}</style></defs><title>certificate-star</title><g id="Layer_2" data-name="Layer 2"><g id="invisible_box" data-name="invisible box"><rect class="cls-1" width="48" height="48"/></g><g id="Layer_3" data-name="Layer 3"><path d="M29.89,45.64,24,41l-5.89,4.64A2,2,0,0,1,15,43.89V31H33V43.89A2,2,0,0,1,29.89,45.64Z"/><path d="M24,6A12,12,0,1,1,12,18,12,12,0,0,1,24,6m0-4A16,16,0,1,0,40,18,16,16,0,0,0,24,2Z"/><path d="M24.93,12.58l1.29,2.89,2.89.42a1,1,0,0,1,.57,1.78l-2.08,2,.49,3.06a1,1,0,0,1-1.51,1.1L24,22l-2.58,1.88a1,1,0,0,1-1.51-1.1l.49-3.06-2.08-2a1,1,0,0,1,.57-1.78l2.89-.42,1.29-2.89A1,1,0,0,1,24.93,12.58Z"/></g></g></svg>