<svg xmlns="http://www.w3.org/2000/svg" viewBox="0 0 48 48"><defs><style>.cls-1{fill:none;}</style></defs><title>certificate-ssl</title><g id="Layer_2" data-name="Layer 2"><g id="invisible_box" data-name="invisible box"><rect class="cls-1" width="48" height="48"/></g><g id="Layer_3" data-name="Layer 3"><path d="M22,39H8V9H42a2,2,0,0,0,0-4H6A2,2,0,0,0,4,7V41a2,2,0,0,0,2,2H22a2,2,0,0,0,0-4Z"/><path d="M48,24A13,13,0,0,0,26.7,14H14a2,2,0,0,0,0,4h9.47a13,13,0,0,0-1.3,4H14a2,2,0,0,0,0,4h8.17a13,13,0,0,0,1.3,4H14a2,2,0,0,0,0,4H26.7a13.43,13.43,0,0,0,1.3.94v9.71c0,2,2,3.08,3.3,1.78L35,43l3.7,3.43c1.3,1.3,3.3.22,3.3-1.78V35.19A1.4,1.4,0,0,0,42,35,13,13,0,0,0,48,24ZM35,33a9,9,0,1,1,9-9A9,9,0,0,1,35,33Z"/><circle cx="35" cy="24" r="5"/></g></g></svg>