<svg xmlns="http://www.w3.org/2000/svg" viewBox="0 0 48 48"><defs><style>.cls-1{fill:none;}</style></defs><title>certificate-ssl-solid</title><g id="Layer_2" data-name="Layer 2"><g id="invisible_box" data-name="invisible box"><rect class="cls-1" width="48" height="48"/><rect class="cls-1" width="48" height="48"/></g><g id="Layer_3" data-name="Layer 3"><path d="M44,7v3.76A16,16,0,0,0,22.51,14H14a2,2,0,0,0,0,4h6.17a15.29,15.29,0,0,0-1,4H14a2,2,0,0,0,0,4h5.13a15.29,15.29,0,0,0,1,4H14a2,2,0,0,0,0,4h8.51A15.3,15.3,0,0,0,24,35.62V43H6a2,2,0,0,1-2-2V7A2,2,0,0,1,6,5H42A2,2,0,0,1,44,7Z"/><path d="M35,12a12,12,0,0,0-7,21.73V44.65c0,2,2,3.08,3.3,1.78L35,43l3.7,3.43c1.3,1.3,3.3.22,3.3-1.78V33.73A12,12,0,0,0,35,12Zm0,17a5,5,0,1,1,5-5A5,5,0,0,1,35,29Z"/></g></g></svg>