<svg xmlns="http://www.w3.org/2000/svg" viewBox="0 0 48 48"><defs><style>.cls-1{fill:none;}</style></defs><title>chart-data-sets-solid</title><g id="Layer_2" data-name="Layer 2"><g id="invisible_box" data-name="invisible box"><rect class="cls-1" width="48" height="48"/></g><g id="Layer_3" data-name="Layer 3"><path d="M42,40H8V6A2,2,0,0,0,4,6V44H42a2,2,0,0,0,0-4Z"/><circle cx="14" cy="12" r="2"/><circle cx="14" cy="22" r="2"/><circle cx="19" cy="17" r="2"/><circle cx="36" cy="34" r="2"/><circle cx="36" cy="24" r="2"/><circle cx="31" cy="29" r="2"/><path d="M30,4a2,2,0,0,0-2,2.34A2.07,2.07,0,0,0,30.11,8h7.06L5.68,39.5a2.08,2.08,0,0,0-.2,2.8,2,2,0,0,0,2.93.11L40,10.83v7.06A2.07,2.07,0,0,0,41.66,20,2,2,0,0,0,44,18V6a2,2,0,0,0-2-2Z"/></g></g></svg>