<svg xmlns="http://www.w3.org/2000/svg" viewBox="0 0 48 48"><defs><style>.cls-1{fill:none;}</style></defs><title>chart-donut-solid</title><g id="Layer_2" data-name="Layer 2"><g id="invisible_box" data-name="invisible box"><rect class="cls-1" width="48" height="48"/></g><g id="Layer_3" data-name="Layer 3"><path d="M26,2.09V16.25a7.94,7.94,0,0,1,3.69,2.14l12.24-7.11A22,22,0,0,0,26,2.09Zm3.68,27.53A8,8,0,1,1,22,16.25V2.09A22,22,0,1,0,41.91,36.75ZM44,14.74,31.7,21.85A7.6,7.6,0,0,1,32,24a8.18,8.18,0,0,1-.3,2.17L43.93,33.3a21.93,21.93,0,0,0,0-18.56Z"/></g></g></svg>