<svg xmlns="http://www.w3.org/2000/svg" viewBox="0 0 48 48"><defs><style>.cls-1{fill:none;}</style></defs><title>chart-create</title><g id="Layer_2" data-name="Layer 2"><g id="invisible_box" data-name="invisible box"><rect class="cls-1" width="48" height="48"/></g><g id="Layer_3" data-name="Layer 3"><path d="M16.28,37H4a2,2,0,0,1,0-4H14.63A16,16,0,0,0,16.28,37Z"/><path d="M12,29H8V19a2,2,0,0,1,2-2h0a2,2,0,0,1,2,2Z"/><path d="M36,5v9.3a15.31,15.31,0,0,0-4-1.05V5a2,2,0,0,1,2-2,2,2,0,0,1,2,2Z"/><path d="M20,13v3.67a15.73,15.73,0,0,0-4,4.84V13a2,2,0,0,1,2-2,2,2,0,0,1,2,2Z"/><path d="M28,8v5.25a15.31,15.31,0,0,0-4,1.05V8a2,2,0,0,1,2-2,2,2,0,0,1,2,2Z"/><rect x="22" y="27" width="16" height="4" rx="2" ry="2"/><rect x="22" y="27" width="16" height="4" rx="2" ry="2" transform="translate(59 -1) rotate(90)"/><path d="M30,17A12,12,0,1,1,18,29,12,12,0,0,1,30,17Zm0-4A16,16,0,1,0,46,29,16,16,0,0,0,30,13Z"/></g></g></svg>