<svg xmlns="http://www.w3.org/2000/svg" viewBox="0 0 48 48"><defs><style>.cls-1{fill:none;}</style></defs><title>chart-bar-horizontal</title><g id="Layer_2" data-name="Layer 2"><g id="invisible_box" data-name="invisible box"><rect class="cls-1" width="48" height="48"/></g><g id="Layer_3" data-name="Layer 3"><rect x="4" y="4" width="4" height="40" rx="2" ry="2" transform="translate(12 48) rotate(180)"/><path d="M12,34v4H28a2,2,0,0,0,2-2h0a2,2,0,0,0-2-2Z"/><path d="M12,10v4H42a2,2,0,0,0,2-2h0a2,2,0,0,0-2-2Z"/><path d="M12,26v4H34a2,2,0,0,0,2-2h0a2,2,0,0,0-2-2Z"/><path d="M12,18v4H25a2,2,0,0,0,2-2h0a2,2,0,0,0-2-2Z"/></g></g></svg>