<svg xmlns="http://www.w3.org/2000/svg" viewBox="0 0 48 48"><defs><style>.cls-1{fill:none;}</style></defs><title>chart-edit</title><g id="Layer_2" data-name="Layer 2"><g id="invisible_box" data-name="invisible box"><rect class="cls-1" width="48" height="48"/></g><g id="Layer_3" data-name="Layer 3"><path d="M45.41,23.36l-9.77-9.77a2,2,0,0,0-2.82,0L14.59,31.82A2,2,0,0,0,14,33.24V43a2,2,0,0,0,2,2h9.76a2,2,0,0,0,1.41-.59L45.41,26.18A2,2,0,0,0,45.41,23.36ZM18,41V34.07L28.37,23.7l6.93,6.93L24.93,41ZM38.13,27.81l-6.94-6.94,3-3,6.93,6.93Z"/><path d="M14,33a1,1,0,0,0,0,.24V37H4a2,2,0,0,1,0-4Z"/><path d="M12,25H8V19a2,2,0,0,1,2-2h0a2,2,0,0,1,2,2Z"/><path d="M36,5V10l-.36-.36a2,2,0,0,0-2.82,0l-.82.82V5a2,2,0,0,1,2-2,2,2,0,0,1,2,2Z"/><path d="M20,13v9.41L17.41,25H16V13a2,2,0,0,1,2-2,2,2,0,0,1,2,2Z"/><path d="M28,8v6.41l-4,4V8a2,2,0,0,1,2-2,2,2,0,0,1,2,2Z"/></g></g></svg>