<svg xmlns="http://www.w3.org/2000/svg" viewBox="0 0 48 48"><defs><style>.cls-1{fill:none;}</style></defs><title>chart-x-axis</title><g id="Layer_2" data-name="Layer 2"><g id="invisible_box" data-name="invisible box"><rect class="cls-1" width="48" height="48"/></g><g id="Layer_3" data-name="Layer 3"><path d="M39.17,36l-4.58-4.6a2,2,0,0,1,.25-3,2.07,2.07,0,0,1,2.65.3l5.92,5.94a2,2,0,0,1,0,2.83l-5.92,5.93a2.07,2.07,0,0,1-2.65.3,2,2,0,0,1-.25-3Z"/><rect x="4" y="34" width="38" height="4" rx="2" ry="2"/><rect x="3" y="25" width="6" height="4" rx="2" ry="2" transform="translate(-21 33) rotate(-90)"/><rect x="3" y="15" width="6" height="4" rx="2" ry="2" transform="translate(-11 23) rotate(-90)"/><rect x="3" y="5" width="6" height="4" rx="2" ry="2" transform="translate(-1 13) rotate(-90)"/></g></g></svg>