<svg xmlns="http://www.w3.org/2000/svg" viewBox="0 0 48 48"><defs><style>.cls-1{fill:none;}</style></defs><title>chart-downward</title><g id="Layer_2" data-name="Layer 2"><g id="invisible_box" data-name="invisible box"><rect class="cls-1" width="48" height="48"/></g><g id="Layer_3" data-name="Layer 3"><path d="M42,40H8V6A2,2,0,0,0,4,6V44H42a2,2,0,0,0,0-4Z"/><path d="M40,36H30a2,2,0,0,1-2-2.34A2.07,2.07,0,0,1,30.11,32h5.06l.11-.1-11.34-11L18,26.83,5.65,14.49a2.07,2.07,0,0,1-.3-2.65,2,2,0,0,1,3.05-.25L18,21.17l6.06-6.06L38,29V24.11A2.07,2.07,0,0,1,39.66,22,2,2,0,0,1,42,24V34A2,2,0,0,1,40,36Z"/></g></g></svg>