<svg xmlns="http://www.w3.org/2000/svg" viewBox="0 0 48 48"><defs><style>.cls-1{fill:none;}</style></defs><title>chart-flat-solid</title><g id="Layer_2" data-name="Layer 2"><g id="invisible_box" data-name="invisible box"><rect class="cls-1" width="48" height="48"/></g><g id="Layer_3" data-name="Layer 3"><path d="M35.49,32.35l6.92-6.93a2,2,0,0,0,0-2.83l-6.92-6.94a2.07,2.07,0,0,0-2.65-.3,2,2,0,0,0-.25,3L36.17,22H7a2,2,0,0,0,0,4H36.18l-3.59,3.6a2,2,0,0,0,.25,3A2.07,2.07,0,0,0,35.49,32.35Z"/><path d="M42,40H8V6A2,2,0,0,0,4,6V44H42a2,2,0,0,0,0-4Z"/></g></g></svg>