<svg xmlns="http://www.w3.org/2000/svg" viewBox="0 0 48 48"><defs><style>.cls-1{fill:none;}</style></defs><title>chart-pie-solid</title><g id="Layer_2" data-name="Layer 2"><g id="invisible_box" data-name="invisible box"><rect class="cls-1" width="48" height="48"/></g><g id="Layer_3" data-name="Layer 3"><path d="M28,46A18.11,18.11,0,0,1,10,29.15h0a2.94,2.94,0,0,1,.79-2.2A3,3,0,0,1,13,26H26V13a3,3,0,0,1,1-2.2,2.93,2.93,0,0,1,2.2-.79,18,18,0,0,1-.31,36ZM14,28.89Z"/><path d="M19,22H5a3,3,0,0,1-3-3.23A18.07,18.07,0,0,1,18.77,2,3,3,0,0,1,22,5V19A3,3,0,0,1,19,22ZM6,19Z"/></g></g></svg>