<svg xmlns="http://www.w3.org/2000/svg" viewBox="0 0 48 48"><defs><style>.cls-1{fill:none;}</style></defs><title>chart-area</title><g id="Layer_2" data-name="Layer 2"><g id="invisible_box" data-name="invisible box"><rect class="cls-1" width="48" height="48"/></g><g id="Layer_3" data-name="Layer 3"><path d="M41.89,33.28,36,18.45a2,2,0,0,0-2.71-1.19l-7.66,4.19a1,1,0,0,1-1.09-.18L15.43,10.55A2,2,0,0,0,12,12V36H40A2,2,0,0,0,41.89,33.28Z"/><path d="M42,40H8V6A2,2,0,0,0,4,6V44H42a2,2,0,0,0,0-4Z"/></g></g></svg>