<svg xmlns="http://www.w3.org/2000/svg" viewBox="0 0 48 48"><defs><style>.cls-1{fill:none;}</style></defs><title>chart-edit-solid</title><g id="Layer_2" data-name="Layer 2"><g id="invisible_box" data-name="invisible box"><rect class="cls-1" width="48" height="48"/><rect class="cls-1" width="48" height="48"/><rect class="cls-1" width="48" height="48"/></g><g id="Layer_3" data-name="Layer 3"><path d="M24.8,21.62,14.59,31.82A2,2,0,0,0,14,33.24V43a2,2,0,0,0,2,2h9.76a2,2,0,0,0,1.41-.59L37.38,34.2Zm20.61,1.74-9.77-9.77a2,2,0,0,0-2.82,0l-5.2,5.21L40.2,31.38l5.21-5.2A2,2,0,0,0,45.41,23.36Z"/><path d="M14,33a1,1,0,0,0,0,.24V37H4a2,2,0,0,1,0-4Z"/><path d="M12,25H8V19a2,2,0,0,1,2-2h0a2,2,0,0,1,2,2Z"/><path d="M36,5V10l-.36-.36a2,2,0,0,0-2.82,0l-.82.82V5a2,2,0,0,1,2-2,2,2,0,0,1,2,2Z"/><path d="M20,13v9.41L17.41,25H16V13a2,2,0,0,1,2-2,2,2,0,0,1,2,2Z"/><path d="M28,8v6.41l-4,4V8a2,2,0,0,1,2-2,2,2,0,0,1,2,2Z"/></g></g></svg>