<svg xmlns="http://www.w3.org/2000/svg" viewBox="0 0 48 48"><defs><style>.cls-1{fill:none;}</style></defs><title>chart-create-solid</title><g id="Layer_2" data-name="Layer 2"><g id="invisible_box" data-name="invisible box"><rect class="cls-1" width="48" height="48"/></g><g id="Layer_3" data-name="Layer 3"><path d="M16.28,37H4a2,2,0,0,1,0-4H14.63A16,16,0,0,0,16.28,37Z"/><path d="M12,29H8V19a2,2,0,0,1,2-2h0a2,2,0,0,1,2,2Z"/><path d="M36,5v9.3a15.31,15.31,0,0,0-4-1.05V5a2,2,0,0,1,2-2,2,2,0,0,1,2,2Z"/><path d="M20,13v3.67a15.73,15.73,0,0,0-4,4.84V13a2,2,0,0,1,2-2,2,2,0,0,1,2,2Z"/><path d="M28,8v5.25a15.31,15.31,0,0,0-4,1.05V8a2,2,0,0,1,2-2,2,2,0,0,1,2,2Z"/><path d="M36,14.17a15.29,15.29,0,0,0-4-1,15.45,15.45,0,0,0-4,0,15.29,15.29,0,0,0-4,1,15.55,15.55,0,0,0-4,2.34,16,16,0,1,0,16-2.34Zm1.41,16.24A2,2,0,0,1,36,31H32v4a2,2,0,0,1-2,2,2,2,0,0,1-2-2V31H24a2,2,0,0,1-2-2,2,2,0,0,1,2-2h4V23a2,2,0,0,1,2-2,2,2,0,0,1,2,2v4h4a2,2,0,0,1,2,2A2,2,0,0,1,37.41,30.41Z"/></g></g></svg>