<svg xmlns="http://www.w3.org/2000/svg" viewBox="0 0 48 48"><defs><style>.cls-1{fill:none;}</style></defs><title>chart-wave-solid</title><g id="Layer_2" data-name="Layer 2"><g id="invisible_box" data-name="invisible box"><rect class="cls-1" width="48" height="48"/></g><g id="Layer_3" data-name="Layer 3"><path d="M42,40H8V6A2,2,0,0,0,4,6V44H42a2,2,0,0,0,0-4Z"/><path d="M30,34c-4.71,0-7-5.45-9.25-10.72C18.9,18.93,16.81,14,14,14s-4,3.13-5.85,8.24L7.88,23a2,2,0,0,1-3.76-1.39l.28-.73C6.36,15.52,8.39,10,14,10s8.1,6.23,10.43,11.72C26.07,25.6,27.94,30,30,30c3.62,0,6.25-7.57,7.11-10a2,2,0,1,1,3.78,1.31C38.83,27.19,35.73,34,30,34Z"/></g></g></svg>