<svg xmlns="http://www.w3.org/2000/svg" viewBox="0 0 48 48"><defs><style>.cls-1{fill:none;}</style></defs><title>check-square-solid</title><g id="Layer_2" data-name="Layer 2"><g id="invisible_box" data-name="invisible box"><rect class="cls-1" width="48" height="48"/><rect class="cls-1" width="48" height="48"/><rect class="cls-1" width="48" height="48"/></g><g id="Layer_3" data-name="Layer 3"><path d="M42,4H6A2,2,0,0,0,4,6V42a2,2,0,0,0,2,2H42a2,2,0,0,0,2-2V6A2,2,0,0,0,42,4ZM35.41,18.41l-14,14a2,2,0,0,1-2.83,0l-5.92-5.92a2.07,2.07,0,0,1-.3-2.65,2,2,0,0,1,3.05-.25L20,28.17,32.58,15.59a2,2,0,0,1,2.83,2.82Z"/></g></g></svg>