<svg xmlns="http://www.w3.org/2000/svg" viewBox="0 0 48 48"><defs><style>.cls-1{fill:none;}</style></defs><title>check-all</title><g id="Layer_2" data-name="Layer 2"><g id="invisible_box" data-name="invisible box"><rect class="cls-1" width="48" height="48"/></g><g id="Layer_3" data-name="Layer 3"><path d="M20.57,38.41l-7.92-7.92a2.07,2.07,0,0,1-.3-2.65,2,2,0,0,1,3.05-.25L22,34.17,42.58,13.59a2,2,0,0,1,2.83,2.82l-22,22A2,2,0,0,1,20.57,38.41Z"/><path d="M12,39a2,2,0,0,1-1.41-.59l-8-8a2,2,0,0,1,2.82-2.82l8,8A2,2,0,0,1,12,39Z"/><path d="M22,29a2,2,0,0,1-1.41-3.41l12-12a2,2,0,0,1,2.82,2.82l-12,12A2,2,0,0,1,22,29Z"/></g></g></svg>