<svg xmlns="http://www.w3.org/2000/svg" viewBox="0 0 48 48"><defs><style>.cls-1{fill:none;}</style></defs><title>close-circle-solid</title><g id="Layer_2" data-name="Layer 2"><g id="invisible_box" data-name="invisible box"><rect class="cls-1" width="48" height="48"/></g><g id="Layer_3" data-name="Layer 3"><path d="M24,2A22,22,0,1,0,46,24,22,22,0,0,0,24,2Zm8.35,27.51a2.07,2.07,0,0,1,.3,2.65,2,2,0,0,1-3,.25L24,26.83l-5.6,5.58a2,2,0,0,1-3-.25,2.07,2.07,0,0,1,.3-2.65L21.17,24l-5.52-5.51a2.07,2.07,0,0,1-.3-2.65,2,2,0,0,1,3-.25L24,21.17l5.6-5.58a2,2,0,0,1,3,.25,2.07,2.07,0,0,1-.3,2.65L26.83,24Z"/></g></g></svg>