<svg xmlns="http://www.w3.org/2000/svg" viewBox="0 0 48 48"><defs><style>.cls-1{fill:none;}</style></defs><title>close</title><g id="Layer_2" data-name="Layer 2"><g id="invisible_box" data-name="invisible box"><rect class="cls-1" width="48" height="48"/></g><g id="Layer_3" data-name="Layer 3"><path d="M26.83,24,37.35,13.49a2.07,2.07,0,0,0,.3-2.65,2,2,0,0,0-3-.25L24,21.17,13.4,10.59a2,2,0,0,0-3.05.25,2.07,2.07,0,0,0,.3,2.65L21.17,24,10.65,34.51a2.07,2.07,0,0,0-.3,2.65,2,2,0,0,0,3.05.25L24,26.83,34.6,37.41a2,2,0,0,0,3-.25,2.07,2.07,0,0,0-.3-2.65Z"/></g></g></svg>