<svg xmlns="http://www.w3.org/2000/svg" viewBox="0 0 48 48"><defs><style>.cls-1{fill:none;}</style></defs><title>close-square-solid</title><g id="Layer_2" data-name="Layer 2"><g id="invisible_box" data-name="invisible box"><rect class="cls-1" width="48" height="48"/><rect class="cls-1" width="48" height="48"/><rect class="cls-1" width="48" height="48"/></g><g id="Layer_3" data-name="Layer 3"><path d="M42,4H6A2,2,0,0,0,4,6V42a2,2,0,0,0,2,2H42a2,2,0,0,0,2-2V6A2,2,0,0,0,42,4ZM32.35,29.51a2.07,2.07,0,0,1,.3,2.65,2,2,0,0,1-3,.25L24,26.83l-5.6,5.58a2,2,0,0,1-3-.25,2.07,2.07,0,0,1,.3-2.65L21.17,24l-5.52-5.51a2.07,2.07,0,0,1-.3-2.65,2,2,0,0,1,3-.25L24,21.17l5.6-5.58a2,2,0,0,1,3,.25,2.07,2.07,0,0,1-.3,2.65L26.83,24Z"/></g></g></svg>