<svg xmlns="http://www.w3.org/2000/svg" viewBox="0 0 48 48"><defs><style>.cls-1{fill:none;}</style></defs><title>cloud-check-solid</title><g id="Layer_2" data-name="Layer 2"><g id="invisible_box" data-name="invisible box"><rect class="cls-1" width="48" height="48"/></g><g id="Layer_3" data-name="Layer 3"><path d="M40.52,21.78a9.55,9.55,0,0,0-3.42-6.51A10.14,10.14,0,0,0,29.6,13,12.4,12.4,0,0,0,19.45,7a11.72,11.72,0,0,0-8.83,4,12.55,12.55,0,0,0-3.23,8.39,12.21,12.21,0,0,0-5.22,8.23A11.58,11.58,0,0,0,5.3,37.76,12.13,12.13,0,0,0,14,41H34.46c7.72,0,11.39-5.12,11.54-9.88A10.14,10.14,0,0,0,40.52,21.78Zm-8.11.63-10,10a2,2,0,0,1-2.83,0l-4.92-4.92a2.07,2.07,0,0,1-.3-2.65,2,2,0,0,1,3-.25L21,28.17l8.59-8.58a2,2,0,0,1,2.83,2.82Z"/></g></g></svg>