<svg xmlns="http://www.w3.org/2000/svg" viewBox="0 0 48 48"><defs><style>.cls-1{fill:none;}</style></defs><title>cloud-upload-solid</title><g id="Layer_2" data-name="Layer 2"><g id="invisible_box" data-name="invisible box"><rect class="cls-1" width="48" height="48"/></g><g id="Layer_3" data-name="Layer 3"><path d="M40.52,21.78a9.55,9.55,0,0,0-3.42-6.51A10.1,10.1,0,0,0,29.6,13,12.38,12.38,0,0,0,19.45,7a11.75,11.75,0,0,0-8.83,4,12.56,12.56,0,0,0-3.23,8.4,12.17,12.17,0,0,0-5.22,8.22A11.6,11.6,0,0,0,5.3,37.76,12.13,12.13,0,0,0,14,41H34.46c7.72,0,11.39-5.13,11.54-9.88A10.13,10.13,0,0,0,40.52,21.78Zm-7.87,4.38a2,2,0,0,1-3,.25L26,22.83V34a2,2,0,0,1-4,0V22.82l-3.6,3.59a2,2,0,0,1-3-.25,2.07,2.07,0,0,1,.3-2.65l6.93-6.92a2,2,0,0,1,2.83,0l6.94,6.92A2.07,2.07,0,0,1,32.65,26.16Z"/></g></g></svg>