<svg xmlns="http://www.w3.org/2000/svg" viewBox="0 0 48 48"><defs><style>.cls-1{fill:none;}</style></defs><title>cloud-error-solid</title><g id="Layer_2" data-name="Layer 2"><g id="invisible_box" data-name="invisible box"><rect class="cls-1" width="48" height="48"/></g><g id="Layer_3" data-name="Layer 3"><path d="M40.52,21.78a9.55,9.55,0,0,0-3.42-6.51A10.14,10.14,0,0,0,29.6,13,12.4,12.4,0,0,0,19.45,7a11.72,11.72,0,0,0-8.83,4,12.55,12.55,0,0,0-3.23,8.39,12.21,12.21,0,0,0-5.22,8.23A11.58,11.58,0,0,0,5.3,37.76,12.13,12.13,0,0,0,14,41H34.46c7.72,0,11.39-5.12,11.54-9.88A10.14,10.14,0,0,0,40.52,21.78ZM30.41,31.59a2,2,0,1,1-2.82,2.82L24,30.83l-3.59,3.58a2,2,0,1,1-2.82-2.82L21.17,28l-3.58-3.59a2,2,0,0,1,2.82-2.82L24,25.17l3.59-3.58a2,2,0,0,1,2.82,2.82L26.83,28Z"/></g></g></svg>