<svg xmlns="http://www.w3.org/2000/svg" viewBox="0 0 48 48"><defs><style>.cls-1{fill:none;}</style></defs><title>cloud-data-network-solid</title><g id="Layer_2" data-name="Layer 2"><g id="invisible_box" data-name="invisible box"><rect class="cls-1" width="48" height="48"/></g><g id="Layer_3" data-name="Layer 3"><path d="M41,39H29a2.71,2.71,0,0,0-.41,0A5.06,5.06,0,0,0,26,36.4V32h7.51c7,0,10.36-4.52,10.49-8.72A8.93,8.93,0,0,0,39,15a8.33,8.33,0,0,0-3.1-5.75A9.34,9.34,0,0,0,30,7.23c-.3,0-.6,0-.9,0A11.35,11.35,0,0,0,19.86,2a10.81,10.81,0,0,0-8,3.5A10.93,10.93,0,0,0,8.9,12.9a10.76,10.76,0,0,0-4.75,7.27,10.07,10.07,0,0,0,2.85,9C8.88,31,12.8,32,14.9,32H22v4.4A5,5,0,0,0,19.4,39l-.15,0h-12a2,2,0,0,0,0,4h12l.15,0a5,5,0,0,0,9.21,0A1.72,1.72,0,0,0,29,43H41a2,2,0,0,0,0-4Z"/></g></g></svg>