<svg xmlns="http://www.w3.org/2000/svg" viewBox="0 0 48 48"><defs><style>.cls-1{fill:none;}</style></defs><title>cloud</title><g id="Layer_2" data-name="Layer 2"><g id="invisible_box" data-name="invisible box"><rect class="cls-1" width="48" height="48"/></g><g id="Layer_3" data-name="Layer 3"><path d="M19.36,41H14A12.13,12.13,0,0,1,5.3,37.76,11.6,11.6,0,0,1,2.17,27.58a12.17,12.17,0,0,1,5.22-8.22A12.56,12.56,0,0,1,10.62,11a11.75,11.75,0,0,1,8.83-4A12.38,12.38,0,0,1,29.6,13a10.1,10.1,0,0,1,7.5,2.29,9.55,9.55,0,0,1,3.42,6.51A10.13,10.13,0,0,1,46,31.12C45.85,35.87,42.18,41,34.46,41H19.36Zm.09-30a7.83,7.83,0,0,0-5.86,2.63,8.59,8.59,0,0,0-2.15,6.62h0a2,2,0,0,1-1.09,2h0a8.12,8.12,0,0,0-4.24,6,7.67,7.67,0,0,0,2,6.72A8.12,8.12,0,0,0,14,37H34.46C41.61,37,42,31.61,42,31a6.22,6.22,0,0,0-4.12-6l-.21-.08a1.69,1.69,0,0,1-1.14-1.69h0a5.92,5.92,0,0,0-1.87-4.78A6.23,6.23,0,0,0,29,17.12h0A2,2,0,0,1,26.74,16h0C25.57,13.61,22.79,11,19.45,11Z"/></g></g></svg>