<svg xmlns="http://www.w3.org/2000/svg" viewBox="0 0 48 48"><defs><style>.cls-1{fill:none;}</style></defs><title>cloud-upload</title><g id="Layer_2" data-name="Layer 2"><g id="invisible_box" data-name="invisible box"><rect class="cls-1" width="48" height="48"/></g><g id="Layer_3" data-name="Layer 3"><path d="M15.35,31.16a2,2,0,0,0,3,.25L22,27.82V39a2,2,0,0,0,4,0V27.83l3.6,3.58a2,2,0,0,0,3-.25,2.07,2.07,0,0,0-.3-2.65l-6.94-6.92a2,2,0,0,0-2.83,0l-6.93,6.92A2.07,2.07,0,0,0,15.35,31.16Z"/><path d="M40.52,21.78a9.55,9.55,0,0,0-3.42-6.51A10.1,10.1,0,0,0,29.6,13,12.38,12.38,0,0,0,19.45,7a11.75,11.75,0,0,0-8.83,4,12.56,12.56,0,0,0-3.23,8.4,12.17,12.17,0,0,0-5.22,8.22A11.6,11.6,0,0,0,5.3,37.76,12.13,12.13,0,0,0,14,41h0a2,2,0,0,0,2-2V39a2,2,0,0,0-2-2h0a8.12,8.12,0,0,1-5.89-2.06,7.67,7.67,0,0,1-2-6.72,8.41,8.41,0,0,1,1.45-3.54,7.77,7.77,0,0,1,2.79-2.43,2,2,0,0,0,1.09-2h0a8.59,8.59,0,0,1,2.15-6.62A7.83,7.83,0,0,1,19.45,11a7.39,7.39,0,0,1,4.46,1.61A9.58,9.58,0,0,1,26.74,16a2,2,0,0,0,1.8,1.14,1.89,1.89,0,0,0,.47-.06,6.23,6.23,0,0,1,5.65,1.32,5.87,5.87,0,0,1,1.88,4.41c0,.12,0,.25,0,.37a1.69,1.69,0,0,0,1.14,1.69l.21.08A6.22,6.22,0,0,1,42,31c0,.61-.39,6-7.54,6H34a2,2,0,0,0-2,2h0a2,2,0,0,0,2,2h.46c7.72,0,11.39-5.13,11.54-9.88A10.13,10.13,0,0,0,40.52,21.78Z"/></g></g></svg>