<svg xmlns="http://www.w3.org/2000/svg" viewBox="0 0 48 48"><defs><style>.cls-1{fill:none;}</style></defs><title>cloud-solid</title><g id="Layer_2" data-name="Layer 2"><g id="invisible_box" data-name="invisible box"><rect class="cls-1" width="48" height="48"/></g><g id="Layer_3" data-name="Layer 3"><path d="M19.36,41H14A12.13,12.13,0,0,1,5.3,37.76,11.6,11.6,0,0,1,2.17,27.58a12.17,12.17,0,0,1,5.22-8.22A12.56,12.56,0,0,1,10.62,11a11.75,11.75,0,0,1,8.83-4A12.38,12.38,0,0,1,29.6,13a10.1,10.1,0,0,1,7.5,2.29,9.55,9.55,0,0,1,3.42,6.51A10.13,10.13,0,0,1,46,31.12C45.85,35.87,42.18,41,34.46,41H19.36Z"/></g></g></svg>