<svg xmlns="http://www.w3.org/2000/svg" viewBox="0 0 48 48"><defs><style>.cls-1{fill:none;}</style></defs><title>cloud-disable-solid</title><g id="Layer_2" data-name="Layer 2"><g id="invisible_box" data-name="invisible box"><rect class="cls-1" width="48" height="48"/></g><g id="Layer_3" data-name="Layer 3"><path d="M40.52,21.78a9.55,9.55,0,0,0-3.42-6.51A10.1,10.1,0,0,0,29.6,13,12.38,12.38,0,0,0,19.45,7a11.86,11.86,0,0,0-5.34,1.26l3.08,3.08c.72-.22,26.19,26.19,26.19,26.19A10,10,0,0,0,46,31.12,10.13,10.13,0,0,0,40.52,21.78Z"/><path d="M7.44,7.59a2,2,0,0,0-2.85,2.85l3.87,3.87a12.68,12.68,0,0,0-1.07,5,12.17,12.17,0,0,0-5.22,8.22A11.6,11.6,0,0,0,5.3,37.76,12.13,12.13,0,0,0,14,41l21.13,0,3.45,3.44a2,2,0,0,0,2.84,0,2,2,0,0,0,0-2.85Z"/></g></g></svg>