<svg xmlns="http://www.w3.org/2000/svg" viewBox="0 0 48 48"><defs><style>.cls-1{fill:none;}</style></defs><title>cloud-off</title><g id="Layer_2" data-name="Layer 2"><g id="invisible_box" data-name="invisible box"><rect class="cls-1" width="48" height="48"/></g><g id="Layer_3" data-name="Layer 3"><path d="M40.52,21.78a9.55,9.55,0,0,0-3.42-6.51A10.1,10.1,0,0,0,29.6,13,12.38,12.38,0,0,0,19.45,7a11.86,11.86,0,0,0-5.34,1.26l3.08,3.08A7.73,7.73,0,0,1,19.45,11a7.39,7.39,0,0,1,4.46,1.61A9.58,9.58,0,0,1,26.74,16a2,2,0,0,0,1.8,1.14,1.89,1.89,0,0,0,.47-.06,6.23,6.23,0,0,1,5.65,1.32,5.87,5.87,0,0,1,1.88,4.41c0,.12,0,.25,0,.37a1.69,1.69,0,0,0,1.14,1.69l.21.08A6.22,6.22,0,0,1,42,31a6.32,6.32,0,0,1-1.45,3.7l2.83,2.83A10,10,0,0,0,46,31.12,10.13,10.13,0,0,0,40.52,21.78Z"/><path d="M7.44,7.59a2,2,0,0,0-2.85,2.85l3.87,3.87a12.68,12.68,0,0,0-1.07,5,12.17,12.17,0,0,0-5.22,8.22A11.6,11.6,0,0,0,5.3,37.76,12.13,12.13,0,0,0,14,41l21.13,0,3.45,3.44a2,2,0,0,0,2.84,0,2,2,0,0,0,0-2.85ZM14,37a8.12,8.12,0,0,1-5.89-2.06,7.67,7.67,0,0,1-2-6.72,8.41,8.41,0,0,1,1.45-3.54,7.77,7.77,0,0,1,2.79-2.43,2,2,0,0,0,1.09-2h0a8.17,8.17,0,0,1,.17-2.79L31.15,37Z"/></g></g></svg>