<svg xmlns="http://www.w3.org/2000/svg" viewBox="0 0 48 48"><defs><style>.cls-1{fill:none;}</style></defs><title>cloud-download-solid</title><g id="Layer_2" data-name="Layer 2"><g id="invisible_box" data-name="invisible box"><rect class="cls-1" width="48" height="48"/></g><g id="Layer_3" data-name="Layer 3"><path d="M40.52,21.78a9.55,9.55,0,0,0-3.42-6.51A10.1,10.1,0,0,0,29.6,13,12.38,12.38,0,0,0,19.45,7a11.75,11.75,0,0,0-8.83,4,12.56,12.56,0,0,0-3.23,8.4,12.17,12.17,0,0,0-5.22,8.22A11.6,11.6,0,0,0,5.3,37.76,12.13,12.13,0,0,0,14,41H34.46c7.72,0,11.39-5.13,11.54-9.88A10.13,10.13,0,0,0,40.52,21.78Zm-8.17,6.71-6.94,6.92a2,2,0,0,1-2.83,0l-6.93-6.92a2.07,2.07,0,0,1-.3-2.65,2,2,0,0,1,3-.25L22,29.18V18a2,2,0,0,1,4,0V29.17l3.6-3.58a2,2,0,0,1,3,.25A2.07,2.07,0,0,1,32.35,28.49Z"/></g></g></svg>