<svg xmlns="http://www.w3.org/2000/svg" viewBox="0 0 48 48"><defs><style>.cls-1{fill:none;}</style></defs><title>cloud-error</title><g id="Layer_2" data-name="Layer 2"><g id="invisible_box" data-name="invisible box"><rect class="cls-1" width="48" height="48"/></g><g id="Layer_3" data-name="Layer 3"><path d="M46,31.12C45.85,35.87,42.18,41,34.46,41H34a2,2,0,0,1-1.42-.59A2,2,0,0,1,34,37h.46C41.61,37,42,31.61,42,31a6.22,6.22,0,0,0-4.12-6l-.21-.08a1.69,1.69,0,0,1-1.14-1.69c0-.12,0-.25,0-.37a5.87,5.87,0,0,0-1.88-4.41A6.23,6.23,0,0,0,29,17.12a1.89,1.89,0,0,1-.47.06A2,2,0,0,1,26.74,16a9.58,9.58,0,0,0-2.83-3.43A7.39,7.39,0,0,0,19.45,11a7.83,7.83,0,0,0-5.86,2.63,8.59,8.59,0,0,0-2.15,6.62h0a2,2,0,0,1-1.09,2,7.77,7.77,0,0,0-2.79,2.43,8.41,8.41,0,0,0-1.45,3.54,7.67,7.67,0,0,0,2,6.72A8.13,8.13,0,0,0,14,37h2a2,2,0,0,1,2,2,2,2,0,0,1-2,2H14A12.13,12.13,0,0,1,5.3,37.76,11.6,11.6,0,0,1,2.17,27.58a12.17,12.17,0,0,1,5.22-8.22A12.56,12.56,0,0,1,10.62,11a11.75,11.75,0,0,1,8.83-4A12.38,12.38,0,0,1,29.6,13a10.1,10.1,0,0,1,7.5,2.29,9.55,9.55,0,0,1,3.42,6.51A10.13,10.13,0,0,1,46,31.12Z"/><path d="M26.83,28l3.58-3.59a2,2,0,0,0-2.82-2.82L24,25.17l-3.59-3.58a2,2,0,0,0-2.82,2.82L21.17,28l-3.58,3.59a2,2,0,1,0,2.82,2.82L24,30.83l3.59,3.58a2,2,0,1,0,2.82-2.82Z"/></g></g></svg>