<svg xmlns="http://www.w3.org/2000/svg" viewBox="0 0 48 48"><defs><style>.cls-1{fill:none;}</style></defs><title>cloud-setting-solid</title><g id="Layer_2" data-name="Layer 2"><g id="invisible_box" data-name="invisible box"><rect class="cls-1" width="48" height="48"/></g><g id="Layer_3" data-name="Layer 3"><path d="M40.52,21.78a9.55,9.55,0,0,0-3.42-6.51A10.1,10.1,0,0,0,29.6,13,12.38,12.38,0,0,0,19.45,7a11.75,11.75,0,0,0-8.83,4,12.56,12.56,0,0,0-3.23,8.4,12.17,12.17,0,0,0-5.22,8.22A11.6,11.6,0,0,0,5.3,37.76,12.13,12.13,0,0,0,14,41H34.46c7.72,0,11.39-5.13,11.54-9.88A10.13,10.13,0,0,0,40.52,21.78ZM34,27.11,30.35,28a6.32,6.32,0,0,1-.43,1l1.94,3.23-1.57,1.57-3.23-1.94a6.32,6.32,0,0,1-1,.43L25.11,36H22.89L22,32.35a6.32,6.32,0,0,1-1-.43l-3.23,1.94-1.57-1.57,1.94-3.23a6.32,6.32,0,0,1-.43-1L14,27.11V24.89L17.65,24a6.32,6.32,0,0,1,.43-1l-1.94-3.23,1.57-1.57,3.23,1.94a6.32,6.32,0,0,1,1-.43L22.89,16h2.22L26,19.65a6.32,6.32,0,0,1,1,.43l3.23-1.94,1.57,1.57-1.94,3.23a6.32,6.32,0,0,1,.43,1l3.65.91ZM24,23a3,3,0,1,0,3,3A3,3,0,0,0,24,23Z"/></g></g></svg>