<svg xmlns="http://www.w3.org/2000/svg" viewBox="0 0 48 48"><defs><style>.cls-1{fill:none;}</style></defs><title>code</title><g id="Layer_2" data-name="Layer 2"><g id="invisible_box" data-name="invisible box"><rect class="cls-1" width="48" height="48"/></g><g id="Layer_3" data-name="Layer 3"><path d="M20,40a2.09,2.09,0,0,1-.55-.08,2,2,0,0,1-1.37-2.47l8-28a2,2,0,0,1,3.84,1.1l-8,28A2,2,0,0,1,20,40Z"/><path d="M14,35a2,2,0,0,0,1.34-3.49L7,24l8.35-7.51a2,2,0,1,0-2.68-3l-10,9a2,2,0,0,0,0,3l10,9A2,2,0,0,0,14,35Z"/><path d="M34,35a2,2,0,0,1-1.34-3.49L41,24l-8.35-7.51a2,2,0,1,1,2.68-3l10,9a2,2,0,0,1,0,3l-10,9A2,2,0,0,1,34,35Z"/></g></g></svg>