<svg xmlns="http://www.w3.org/2000/svg" viewBox="0 0 48 48"><defs><style>.cls-1{fill:none;}</style></defs><title>collapse-fullscreen-solid</title><g id="Layer_2" data-name="Layer 2"><g id="invisible_box" data-name="invisible box"><rect class="cls-1" width="48" height="48"/></g><g id="Layer_3" data-name="Layer 3"><path d="M8,26a2,2,0,0,0-2,2.34A2.07,2.07,0,0,0,8.09,30h7.07L4.65,40.5a2.08,2.08,0,0,0-.19,2.8A2,2,0,0,0,6,44a2,2,0,0,0,1.42-.59L18,32.83v7.06A2.07,2.07,0,0,0,19.66,42,2,2,0,0,0,22,40V28a2,2,0,0,0-2-2Z"/><path d="M43.65,4.84a2,2,0,0,0-3-.25L30,15.17V8.11A2.07,2.07,0,0,0,28.34,6,2,2,0,0,0,26,8V20a2,2,0,0,0,2,2H39.91A2.07,2.07,0,0,0,42,20.34,2,2,0,0,0,40,18H32.84L43.36,7.49A2.07,2.07,0,0,0,43.65,4.84Z"/></g></g></svg>