<svg xmlns="http://www.w3.org/2000/svg" viewBox="0 0 48 48"><defs><style>.cls-1{fill:none;}</style></defs><title>comment-text-solid</title><g id="Layer_2" data-name="Layer 2"><g id="invisible_box" data-name="invisible box"><rect class="cls-1" width="48" height="48"/></g><g id="Layer_3" data-name="Layer 3"><path d="M42,4H6A2,2,0,0,0,4,6V42a2,2,0,0,0,2,2,2,2,0,0,0,1.4-.59L15.18,36H42a2,2,0,0,0,2-2V6A2,2,0,0,0,42,4ZM25.41,25.41A2,2,0,0,1,24,26H16a2,2,0,0,1-2-2,2,2,0,0,1,2-2h8a2,2,0,0,1,2,2A2,2,0,0,1,25.41,25.41Zm8-8A2,2,0,0,1,32,18H16a2,2,0,0,1-2-2,2,2,0,0,1,2-2H32a2,2,0,0,1,2,2A2,2,0,0,1,33.41,17.41Z"/></g></g></svg>