<svg xmlns="http://www.w3.org/2000/svg" viewBox="0 0 48 48"><defs><style>.cls-1{fill:none;}</style></defs><title>comment-feedback-solid</title><g id="Layer_2" data-name="Layer 2"><g id="invisible_box" data-name="invisible box"><rect class="cls-1" width="48" height="48"/></g><g id="Layer_3" data-name="Layer 3"><path d="M42,4H6A2,2,0,0,0,4,6V42a2,2,0,0,0,2,2,2,2,0,0,0,1.4-.59L15.18,36H42a2,2,0,0,0,2-2V6A2,2,0,0,0,42,4ZM24,30a2,2,0,1,1,2-2A2,2,0,0,1,24,30Zm2-8a2,2,0,0,1-4,0V12a2,2,0,0,1,4,0Z"/></g></g></svg>