<svg xmlns="http://www.w3.org/2000/svg" viewBox="0 0 48 48"><defs><style>.cls-1{fill:none;}</style></defs><title>comment-forum</title><g id="Layer_2" data-name="Layer 2"><g id="invisible_box" data-name="invisible box"><rect class="cls-1" width="48" height="48"/></g><g id="Layer_3" data-name="Layer 3"><path d="M30,10V24H11.41l-1.15,1.09L6,29.1V10H30m1.94-4H4.06A2,2,0,0,0,2,8V36a1,1,0,0,0,1,1,1.07,1.07,0,0,0,.72-.28L13,28H31.94A2.05,2.05,0,0,0,34,26V8a2,2,0,0,0-2.06-2Z"/><path d="M43.94,15H38V32H14v3a2.05,2.05,0,0,0,2.06,2H35l9.24,8.72A1.07,1.07,0,0,0,45,46a1,1,0,0,0,1-1V17A2,2,0,0,0,43.94,15Z"/></g></g></svg>