<svg xmlns="http://www.w3.org/2000/svg" viewBox="0 0 48 48"><defs><style>.cls-1{fill:none;}</style></defs><title>comment-help</title><g id="Layer_2" data-name="Layer 2"><g id="invisible_box" data-name="invisible box"><rect class="cls-1" width="48" height="48"/></g><g id="Layer_3" data-name="Layer 3"><path d="M40,8V32H13.58l-1.16,1.11L8,37.33V8H40m2-4H6A2,2,0,0,0,4,6V42a2,2,0,0,0,2,2,2,2,0,0,0,1.4-.59L15.18,36H42a2,2,0,0,0,2-2V6a2,2,0,0,0-2-2Z"/><path d="M24,30a2,2,0,0,1-1.42-.59,1.76,1.76,0,0,1-.24-.3,1.48,1.48,0,0,1-.19-.35,1.58,1.58,0,0,1-.11-.37A1.72,1.72,0,0,1,22,28a2,2,0,0,1,.58-1.41,2.06,2.06,0,0,1,2.83,0A2,2,0,0,1,26,28a1.72,1.72,0,0,1,0,.39,1.58,1.58,0,0,1-.11.37,2,2,0,0,1-.19.35,1.42,1.42,0,0,1-.25.3A2,2,0,0,1,24,30Z"/><path d="M24,24a2,2,0,0,1-1.44-3.39,6.77,6.77,0,0,1,2.21-1.25l.31-.13a2.75,2.75,0,0,0,1.82-3,2.94,2.94,0,0,0-2.31-2.21,3.07,3.07,0,0,0-3.3,1.5,2,2,0,0,1-3.52-1.91,7.07,7.07,0,0,1,7.56-3.52,6.94,6.94,0,0,1,5.49,5.36,6.69,6.69,0,0,1-4.08,7.39l-.42.18c-.24.1-.79.33-1,.46A2,2,0,0,1,24,24Zm1.44-.61Z"/></g></g></svg>