<svg xmlns="http://www.w3.org/2000/svg" viewBox="0 0 48 48"><defs><style>.cls-1{fill:none;}</style></defs><title>comment-text</title><g id="Layer_2" data-name="Layer 2"><g id="invisible_box" data-name="invisible box"><rect class="cls-1" width="48" height="48"/></g><g id="Layer_3" data-name="Layer 3"><path d="M40,8V32H13.58l-1.16,1.11L8,37.33V8H40m2-4H6A2,2,0,0,0,4,6V42a2,2,0,0,0,2,2,2,2,0,0,0,1.4-.59L15.18,36H42a2,2,0,0,0,2-2V6a2,2,0,0,0-2-2Z"/><rect x="14" y="14" width="20" height="4" rx="2" ry="2"/><rect x="14" y="22" width="12" height="4" rx="2" ry="2"/></g></g></svg>