<svg xmlns="http://www.w3.org/2000/svg" viewBox="0 0 48 48"><defs><style>.cls-1{fill:none;}</style></defs><title>container-optimize</title><g id="Layer_2" data-name="Layer 2"><g id="invisible_box" data-name="invisible box"><rect class="cls-1" width="48" height="48"/></g><g id="Layer_3" data-name="Layer 3"><path d="M42.89,12.2l-18-9a2,2,0,0,0-1.78,0l-18,9A2,2,0,0,0,4,14V33.84a2,2,0,0,0,1.09,1.78l18,9.16a2,2,0,0,0,1.82,0l18-9.16A2,2,0,0,0,44,33.84V14A2,2,0,0,0,42.89,12.2ZM24,7.24l14.58,7.28L24,21.94,9.42,14.52Zm-16,11,14,7.13V39.74L8,32.61ZM26,39.74V25.41l14-7.13V32.61Z"/></g></g></svg>