<svg xmlns="http://www.w3.org/2000/svg" viewBox="0 0 48 48"><defs><style>.cls-1{fill:none;}</style></defs><title>container-optimize-solid</title><g id="Layer_2" data-name="Layer 2"><g id="invisible_box" data-name="invisible box"><rect class="cls-1" width="48" height="48"/></g><g id="Layer_3" data-name="Layer 3"><path d="M26,25.3V44.23l16.91-8.61A2,2,0,0,0,44,33.84V16.2ZM4,16.2V33.84a2,2,0,0,0,1.09,1.78L22,44.23V25.91a1,1,0,0,0-.55-.89Zm38.89-4-18-9a2,2,0,0,0-1.78,0l-18,9v.09l18,9.08a2,2,0,0,0,1.8,0l18-9.08Z"/></g></g></svg>