<svg xmlns="http://www.w3.org/2000/svg" viewBox="0 0 48 48"><defs><style>.cls-1{fill:none;}</style></defs><title>container-solid</title><g id="Layer_2" data-name="Layer 2"><g id="invisible_box" data-name="invisible box"><rect class="cls-1" width="48" height="48"/><rect class="cls-1" width="48" height="48"/><rect class="cls-1" width="48" height="48"/></g><g id="Layer_3" data-name="Layer 3"><path d="M44,6H4A2,2,0,0,0,2,8V40a2,2,0,0,0,2,2H44a2,2,0,0,0,2-2V8A2,2,0,0,0,44,6ZM14,32a2,2,0,0,1-4,0V16a2,2,0,0,1,4,0Zm8,0a2,2,0,0,1-4,0V16a2,2,0,0,1,4,0Zm8,0a2,2,0,0,1-4,0V16a2,2,0,0,1,4,0Zm8,0a2,2,0,0,1-4,0V16a2,2,0,0,1,4,0Z"/></g></g></svg>