<svg xmlns="http://www.w3.org/2000/svg" viewBox="0 0 48 48"><defs><style>.cls-1{fill:none;}</style></defs><title>currency-yen</title><g id="Layer_2" data-name="Layer 2"><g id="invisible_box" data-name="invisible box"><rect class="cls-1" width="48" height="48"/></g><g id="Layer_3" data-name="Layer 3"><path d="M24,18.17,10.4,4.59a2,2,0,0,0-3.05.25,2.07,2.07,0,0,0,.3,2.65L22.59,22.41a2,2,0,0,0,2.83,0L40.35,7.49a2.07,2.07,0,0,0,.3-2.65,2,2,0,0,0-3-.25Z"/><rect x="22" y="20" width="4" height="24" rx="2" ry="2"/><rect x="22" y="10" width="4" height="24" rx="2" ry="2" transform="translate(46 -2) rotate(90)"/><rect x="22" y="18" width="4" height="24" rx="2" ry="2" transform="translate(54 6) rotate(90)"/></g></g></svg>