<svg xmlns="http://www.w3.org/2000/svg" viewBox="0 0 48 48"><defs><style>.cls-1{fill:none;}</style></defs><title>currency-dollar</title><g id="Layer_2" data-name="Layer 2"><g id="invisible_box" data-name="invisible box"><rect class="cls-1" width="48" height="48"/></g><g id="Layer_3" data-name="Layer 3"><path d="M37,31.83v.1C37,37.86,31.9,42,24.59,42a20.83,20.83,0,0,1-12.75-4.08c-1-.72-1.16-1.76-.19-3a2.14,2.14,0,0,1,3.09-.45,15.77,15.77,0,0,0,10,3.28c4.38,0,7.45-2.24,7.45-5.45v-.09c0-2.81-1.41-4.62-8.84-6.15S11.22,22.21,11.22,15.83v-.1c0-5.64,5-9.73,12-9.73A18.92,18.92,0,0,1,34,9a1.86,1.86,0,0,1,.38,2.94,2.28,2.28,0,0,1-3.09.69,14.75,14.75,0,0,0-8.15-2.38c-4.19,0-7.1,2.12-7.1,5.15v.1c0,2.9,1.43,4.67,9.24,6.29C33.49,23.52,37,26.53,37,31.83Z"/><rect x="22" y="2" width="4" height="44" rx="2" ry="2"/></g></g></svg>