<svg xmlns="http://www.w3.org/2000/svg" viewBox="0 0 48 48"><defs><style>.cls-1{fill:none;}</style></defs><title>currency-euro</title><g id="Layer_2" data-name="Layer 2"><g id="invisible_box" data-name="invisible box"><rect class="cls-1" width="48" height="48"/></g><g id="Layer_3" data-name="Layer 3"><path d="M38.55,35.36a15.28,15.28,0,0,1-11,4.64A15.59,15.59,0,0,1,13.15,30H22a2,2,0,0,0,0-4H12.14a14.36,14.36,0,0,1,0-4H22a2,2,0,0,0,0-4H13.15A15.59,15.59,0,0,1,27.58,8a15.25,15.25,0,0,1,11,4.66,2,2,0,0,0,2.86-2.8A19.25,19.25,0,0,0,27.58,4,19.66,19.66,0,0,0,8.9,18H4a2,2,0,0,0,0,4H8.1a20,20,0,0,0,0,4H4a2,2,0,0,0,0,4H8.9A19.66,19.66,0,0,0,27.58,44,19.24,19.24,0,0,0,41.4,38.17a2,2,0,1,0-2.85-2.81Z"/></g></g></svg>