<svg xmlns="http://www.w3.org/2000/svg" viewBox="0 0 48 48"><defs><style>.cls-1{fill:none;}</style></defs><title>dashboard</title><g id="Layer_2" data-name="Layer 2"><g id="invisible_box" data-name="invisible box"><rect class="cls-1" width="48" height="48"/></g><g id="Layer_3" data-name="Layer 3"><path d="M26,19.42V14a2,2,0,0,0-4,0v5.42a5,5,0,1,0,4,0Z"/><path d="M24,2A22,22,0,0,0,8.29,39.4a2,2,0,0,0,2.83,0v0c.18-.17,3-3,3-3a2,2,0,0,0-2.83-2.82L9.81,35.05a17.78,17.78,0,0,1-3.69-9H8a2,2,0,0,0,0-4H6.12A17.86,17.86,0,0,1,10,12.78h0l1.32,1.32a2,2,0,0,0,2.83-2.83L12.78,10h0A17.86,17.86,0,0,1,22,6.12h0V8a2,2,0,0,0,4,0V6.12h0A17.86,17.86,0,0,1,35.22,10h0L33.9,11.27a2,2,0,1,0,2.83,2.83l1.32-1.32h0A17.86,17.86,0,0,1,41.88,22H40a2,2,0,0,0,0,4h1.88a17.78,17.78,0,0,1-3.69,9l-1.46-1.46a2,2,0,1,0-2.83,2.82S37,39.51,37,39.53a2,2,0,0,0,2.69-.14A22,22,0,0,0,24,2Z"/></g></g></svg>