<svg xmlns="http://www.w3.org/2000/svg" viewBox="0 0 48 48"><defs><style>.cls-1{fill:none;}</style></defs><title>dashboard-tile-remove-solid</title><g id="Layer_2" data-name="Layer 2"><g id="invisible_box" data-name="invisible box"><rect class="cls-1" width="48" height="48"/></g><g id="Layer_3" data-name="Layer 3"><path d="M20,30H8a2,2,0,0,0-2,2V42a2,2,0,0,0,2,2H20a2,2,0,0,0,2-2V32a2,2,0,0,0-2-2Z"/><path d="M18,4H7A1,1,0,0,0,6,5V25a1,1,0,0,0,1,1H18a1,1,0,0,0,.85-1.55,17,17,0,0,1,0-18.9A1,1,0,0,0,18,4Z"/><path d="M33,32a16.88,16.88,0,0,1-5.67-1A1,1,0,0,0,26,32V43a1,1,0,0,0,1,1H41a1,1,0,0,0,1-1V31.12a1,1,0,0,0-1.45-.89A16.75,16.75,0,0,1,33,32Z"/><path d="M33,2A13,13,0,1,0,46,15,13,13,0,0,0,33,2Zm4,15H29a2,2,0,0,1-2-2,2,2,0,0,1,2-2h8a2,2,0,0,1,0,4Z"/></g></g></svg>