<svg xmlns="http://www.w3.org/2000/svg" viewBox="0 0 48 48"><defs><style>.cls-1{fill:none;}</style></defs><title>dashboard-add-solid</title><g id="Layer_2" data-name="Layer 2"><g id="invisible_box" data-name="invisible box"><rect class="cls-1" width="48" height="48"/></g><g id="Layer_3" data-name="Layer 3"><path d="M46,10h0a2,2,0,0,1-2,2H32a2,2,0,0,1-2-2h0a2,2,0,0,1,2-2H44A2,2,0,0,1,46,10Z"/><path d="M38,2h0a2,2,0,0,1,2,2V16a2,2,0,0,1-2,2h0a2,2,0,0,1-2-2V4A2,2,0,0,1,38,2Z"/><path d="M26,19.42V14a2,2,0,0,0-4,0v5.42a5,5,0,1,0,4,0Z"/><path d="M24,2c.68,0,1.34,0,2,.09V8a2,2,0,0,1-4,0V6.12A17.7,17.7,0,0,0,17.06,7.4,18.29,18.29,0,0,0,12.78,10l1.32,1.32a2,2,0,1,1-2.83,2.83L10,12.78A17.86,17.86,0,0,0,6.12,22H8a2,2,0,0,1,0,4H6.12a17.78,17.78,0,0,0,3.69,9l1.46-1.46a2,2,0,0,1,2.83,2.82s-2.79,2.83-3,3c0,0,0,0,0,0a2,2,0,0,1-2.83,0A22,22,0,0,1,24,2Z"/><path d="M46,24a21.88,21.88,0,0,1-6.28,15.39,2,2,0,0,1-2.69.14c-.05,0-3.13-3.12-3.13-3.12a2,2,0,1,1,2.83-2.82l1.46,1.46a17.78,17.78,0,0,0,3.69-9H40a2,2,0,0,1,0-4h5.91C46,22.66,46,23.32,46,24Z"/></g></g></svg>