<svg xmlns="http://www.w3.org/2000/svg" viewBox="0 0 48 48"><defs><style>.cls-1{fill:none;}</style></defs><title>dashboard-tile-solid</title><g id="Layer_2" data-name="Layer 2"><g id="invisible_box" data-name="invisible box"><rect class="cls-1" width="48" height="48"/></g><g id="Layer_3" data-name="Layer 3"><path d="M20,30H8a2,2,0,0,0-2,2V42a2,2,0,0,0,2,2H20a2,2,0,0,0,2-2V32a2,2,0,0,0-2-2Z"/><path d="M20,4H8A2,2,0,0,0,6,6V24a2,2,0,0,0,2,2H20a2,2,0,0,0,2-2V6a2,2,0,0,0-2-2Z"/><path d="M40,4H28a2,2,0,0,0-2,2V16a2,2,0,0,0,2,2H40a2,2,0,0,0,2-2V6a2,2,0,0,0-2-2Z"/><path d="M40,22H28a2,2,0,0,0-2,2V42a2,2,0,0,0,2,2H40a2,2,0,0,0,2-2V24a2,2,0,0,0-2-2Z"/></g></g></svg>