<svg xmlns="http://www.w3.org/2000/svg" viewBox="0 0 48 48"><defs><style>.cls-1{fill:none;}</style></defs><title>data-storage-check</title><g id="Layer_2" data-name="Layer 2"><g id="invisible_box" data-name="invisible box"><rect class="cls-1" width="48" height="48"/></g><g id="Layer_3" data-name="Layer 3"><path d="M44,28H28a2,2,0,0,0-2,2h0a2,2,0,0,0,2,2H42v8H28a2,2,0,0,0-2,2h0a2,2,0,0,0,2,2H44a2,2,0,0,0,2-2V30A2,2,0,0,0,44,28Z"/><path d="M38,34a2,2,0,1,0,2,2,2,2,0,0,0-2-2Z"/><path d="M32,34a2,2,0,1,0,2,2,2,2,0,0,0-2-2Z"/><path d="M44,16H22v4H42v8H28a2,2,0,0,0-2,2h0a2,2,0,0,0,2,2H44a2,2,0,0,0,2-2V18A2,2,0,0,0,44,16Z"/><circle cx="38" cy="24" r="2"/><circle cx="32" cy="24" r="2"/><path d="M42,8v8H6V8H42m2-4H4A2,2,0,0,0,2,6V18a2,2,0,0,0,2,2H44a2,2,0,0,0,2-2V6a2,2,0,0,0-2-2Z"/><path d="M38,10a2,2,0,1,0,2,2,2,2,0,0,0-2-2Z"/><path d="M32,10a2,2,0,1,0,2,2,2,2,0,0,0-2-2Z"/><path d="M7.57,41.41,3.65,37.49a2.07,2.07,0,0,1-.3-2.65,2,2,0,0,1,3.05-.25L9,37.17,19.58,26.59a2,2,0,0,1,2.83,2.82l-12,12A2,2,0,0,1,7.57,41.41Z"/></g></g></svg>