<svg xmlns="http://www.w3.org/2000/svg" viewBox="0 0 48 48"><defs><style>.cls-1{fill:none;}</style></defs><title>data-storage-network</title><g id="Layer_2" data-name="Layer 2"><g id="invisible_box" data-name="invisible box"><rect class="cls-1" width="48" height="48"/></g><g id="Layer_3" data-name="Layer 3"><rect x="11.25" y="33" width="4" height="16" rx="2" ry="2" transform="translate(-27.75 54.25) rotate(-90)"/><rect x="33" y="33" width="4" height="16" rx="2" ry="2" transform="translate(-6 76) rotate(-90)"/><path d="M26,36.4V30a2,2,0,1,0-4,0v6.4A5,5,0,1,0,29,41,5.05,5.05,0,0,0,26,36.4ZM24,42a1,1,0,1,1,1-1A.94.94,0,0,1,24,42Z"/><path d="M42,20v8H6V20H42m2-4H4a2,2,0,0,0-2,2V30a2,2,0,0,0,2,2H44a2,2,0,0,0,2-2V18a2,2,0,0,0-2-2Z"/><path d="M38,22a2,2,0,1,0,2,2,2,2,0,0,0-2-2Z"/><path d="M32,22a2,2,0,1,0,2,2,2,2,0,0,0-2-2Z"/><path d="M42,8v8H6V8H42m2-4H4A2,2,0,0,0,2,6V18a2,2,0,0,0,2,2H44a2,2,0,0,0,2-2V6a2,2,0,0,0-2-2Z"/><path d="M38,10a2,2,0,1,0,2,2,2,2,0,0,0-2-2Z"/><path d="M32,10a2,2,0,1,0,2,2,2,2,0,0,0-2-2Z"/></g></g></svg>