<svg xmlns="http://www.w3.org/2000/svg" viewBox="0 0 48 48"><defs><style>.cls-1{fill:none;}</style></defs><title>data-source-solid</title><g id="Layer_2" data-name="Layer 2"><g id="invisible_box" data-name="invisible box"><rect class="cls-1" width="48" height="48"/></g><g id="Layer_3" data-name="Layer 3"><path d="M46,9c0-6.8-19.75-7-22-7S2,2.2,2,9v5c0,.29,1.12,1.84,5.17,3.37l.33.13a41.58,41.58,0,0,0,8.57,2A61.14,61.14,0,0,0,24,20a61.14,61.14,0,0,0,7.93-.5,41.58,41.58,0,0,0,8.57-2l.33-.13C44.88,15.85,46,14.3,46,14V9.33h0C46,9.22,46,9.11,46,9ZM2,32.32V39c0,6.8,19.75,7,22,7s22-.2,22-7V32.32C41.4,35.14,33.26,37,24,37S6.6,35.14,2,32.32ZM45.71,19.5a25.06,25.06,0,0,1-4.88,2.12A55.69,55.69,0,0,1,24,24,55.69,55.69,0,0,1,7.17,21.62,25.06,25.06,0,0,1,2.29,19.5,2.82,2.82,0,0,1,2,19.32V27c0,.3,1.18,1.92,5.5,3.5A50.26,50.26,0,0,0,24,33a50.26,50.26,0,0,0,16.5-2.49C44.82,28.93,46,27.31,46,27V19.32A2.82,2.82,0,0,1,45.71,19.5Z"/></g></g></svg>