<svg xmlns="http://www.w3.org/2000/svg" viewBox="0 0 48 48"><defs><style>.cls-1{fill:none;}</style></defs><title>data-storage-setting</title><g id="Layer_2" data-name="Layer 2"><g id="invisible_box" data-name="invisible box"><rect class="cls-1" width="48" height="48"/></g><g id="Layer_3" data-name="Layer 3"><path d="M44,28H28a2,2,0,0,0-2,2h0a2,2,0,0,0,2,2H42v8H28a2,2,0,0,0-2,2h0a2,2,0,0,0,2,2H44a2,2,0,0,0,2-2V30A2,2,0,0,0,44,28Z"/><path d="M38,34a2,2,0,1,0,2,2,2,2,0,0,0-2-2Z"/><path d="M32,34a2,2,0,1,0,2,2,2,2,0,0,0-2-2Z"/><path d="M44,16H22v4H42v8H28a2,2,0,0,0-2,2h0a2,2,0,0,0,2,2H44a2,2,0,0,0,2-2V18A2,2,0,0,0,44,16Z"/><circle cx="38" cy="24" r="2"/><circle cx="32" cy="24" r="2"/><path d="M42,8v8H6V8H42m2-4H4A2,2,0,0,0,2,6V18a2,2,0,0,0,2,2H44a2,2,0,0,0,2-2V6a2,2,0,0,0-2-2Z"/><path d="M38,10a2,2,0,1,0,2,2,2,2,0,0,0-2-2Z"/><path d="M32,10a2,2,0,1,0,2,2,2,2,0,0,0-2-2Z"/><path d="M22,35.11V32.89L18.35,32a6.32,6.32,0,0,0-.43-1l1.94-3.23-1.57-1.57-3.23,1.94a6.32,6.32,0,0,0-1-.43L13.11,24H10.89L10,27.65a6.32,6.32,0,0,0-1,.43L5.71,26.14,4.14,27.71l1.94,3.23a6.32,6.32,0,0,0-.43,1L2,32.89v2.22L5.65,36a6.32,6.32,0,0,0,.43,1L4.14,40.29l1.57,1.57,3.23-1.94a6.32,6.32,0,0,0,1,.43L10.89,44h2.22L14,40.35a6.32,6.32,0,0,0,1-.43l3.23,1.94,1.57-1.57-1.94-3.23a6.32,6.32,0,0,0,.43-1ZM12,37a3,3,0,1,1,3-3A3,3,0,0,1,12,37Z"/></g></g></svg>