<svg xmlns="http://www.w3.org/2000/svg" viewBox="0 0 48 48"><defs><style>.cls-1{fill:none;}</style></defs><title>data-storage-setting-solid</title><g id="Layer_2" data-name="Layer 2"><g id="invisible_box" data-name="invisible box"><rect class="cls-1" width="48" height="48"/><rect class="cls-1" width="48" height="48"/><rect class="cls-1" width="48" height="48"/></g><g id="Layer_3" data-name="Layer 3"><path d="M44,18H28a2,2,0,0,0-2,2v8a2,2,0,0,0,2,2H44a2,2,0,0,0,2-2V20A2,2,0,0,0,44,18ZM32,26a2,2,0,1,1,2-2A2,2,0,0,1,32,26Zm6,0a2,2,0,1,1,2-2A2,2,0,0,1,38,26Z"/><path d="M44,34H28a2,2,0,0,0-2,2v8a2,2,0,0,0,2,2H44a2,2,0,0,0,2-2V36A2,2,0,0,0,44,34ZM32,42a2,2,0,1,1,2-2A2,2,0,0,1,32,42Zm6,0a2,2,0,1,1,2-2A2,2,0,0,1,38,42Z"/><path d="M44,2H4A2,2,0,0,0,2,4v8a2,2,0,0,0,2,2H44a2,2,0,0,0,2-2V4A2,2,0,0,0,44,2ZM32,10a2,2,0,1,1,2-2A2,2,0,0,1,32,10Zm6,0a2,2,0,1,1,2-2A2,2,0,0,1,38,10Z"/><path d="M22,35.11V32.89L18.35,32a6.32,6.32,0,0,0-.43-1l1.94-3.23-1.57-1.57-3.23,1.94a6.32,6.32,0,0,0-1-.43L13.11,24H10.89L10,27.65a6.32,6.32,0,0,0-1,.43L5.71,26.14,4.14,27.71l1.94,3.23a6.32,6.32,0,0,0-.43,1L2,32.89v2.22L5.65,36a6.32,6.32,0,0,0,.43,1L4.14,40.29l1.57,1.57,3.23-1.94a6.32,6.32,0,0,0,1,.43L10.89,44h2.22L14,40.35a6.32,6.32,0,0,0,1-.43l3.23,1.94,1.57-1.57-1.94-3.23a6.32,6.32,0,0,0,.43-1ZM12,37a3,3,0,1,1,3-3A3,3,0,0,1,12,37Z"/></g></g></svg>