<svg xmlns="http://www.w3.org/2000/svg" viewBox="0 0 48 48"><defs><style>.cls-1{fill:none;}</style></defs><title>data-storage-multiple</title><g id="Layer_2" data-name="Layer 2"><g id="invisible_box" data-name="invisible box"><rect class="cls-1" width="48" height="48"/></g><g id="Layer_3" data-name="Layer 3"><path d="M42,20v8H6V20H42m2-4H4a2,2,0,0,0-2,2V30a2,2,0,0,0,2,2H44a2,2,0,0,0,2-2V18a2,2,0,0,0-2-2Z"/><path d="M38,22a2,2,0,1,0,2,2,2,2,0,0,0-2-2Z"/><path d="M32,22a2,2,0,1,0,2,2,2,2,0,0,0-2-2Z"/><path d="M42,32v8H6V32H42m2-4H4a2,2,0,0,0-2,2V42a2,2,0,0,0,2,2H44a2,2,0,0,0,2-2V30a2,2,0,0,0-2-2Z"/><path d="M38,34a2,2,0,1,0,2,2,2,2,0,0,0-2-2Z"/><path d="M32,34a2,2,0,1,0,2,2,2,2,0,0,0-2-2Z"/><path d="M42,8v8H6V8H42m2-4H4A2,2,0,0,0,2,6V18a2,2,0,0,0,2,2H44a2,2,0,0,0,2-2V6a2,2,0,0,0-2-2Z"/><path d="M38,10a2,2,0,1,0,2,2,2,2,0,0,0-2-2Z"/><path d="M32,10a2,2,0,1,0,2,2,2,2,0,0,0-2-2Z"/></g></g></svg>