<svg xmlns="http://www.w3.org/2000/svg" viewBox="0 0 48 48"><defs><style>.cls-1{fill:none;}</style></defs><title>data-source</title><g id="Layer_2" data-name="Layer 2"><g id="invisible_box" data-name="invisible box"><rect class="cls-1" width="48" height="48"/></g><g id="Layer_3" data-name="Layer 3"><path d="M46,9c0-6.8-19.75-7-22-7S2,2.2,2,9V39c0,6.8,19.75,7,22,7s22-.2,22-7V9.33h0C46,9.22,46,9.11,46,9Zm-4,9.79C41,20,34.44,22,24,22S7,20,6,18.79V13.37C11.89,15.9,22.39,16,24,16s12.11-.1,18-2.63Zm0,10C41,30,34.44,32,24,32S7,30,6,28.79V23.37C11.89,25.9,22.39,26,24,26s12.11-.1,18-2.63ZM24,6c9.83,0,16.28,1.8,17.79,3-1.51,1.2-8,3-17.79,3S7.72,10.2,6.21,9C7.72,7.8,14.17,6,24,6Zm0,36C13.62,42,7,40,6,38.8V33.37C11.89,35.9,22.39,36,24,36s12.11-.1,18-2.63V38.8C41,40,34.38,42,24,42Z"/></g></g></svg>