<svg xmlns="http://www.w3.org/2000/svg" viewBox="0 0 48 48"><defs><style>.cls-1{fill:none;}</style></defs><title>data-storage-network-solid</title><g id="Layer_2" data-name="Layer 2"><g id="invisible_box" data-name="invisible box"><rect class="cls-1" width="48" height="48"/></g><g id="Layer_3" data-name="Layer 3"><path d="M44,2H4A2,2,0,0,0,2,4v8a2,2,0,0,0,2,2H44a2,2,0,0,0,2-2V4A2,2,0,0,0,44,2ZM32,10a2,2,0,1,1,2-2A2,2,0,0,1,32,10Zm6,0a2,2,0,1,1,2-2A2,2,0,0,1,38,10Z"/><path d="M44,18H4a2,2,0,0,0-2,2v8a2,2,0,0,0,2,2H22v6.4A5.06,5.06,0,0,0,19.39,39H7.25a2,2,0,0,0-1.41.59A2,2,0,0,0,7.25,43H19.4a5,5,0,0,0,9.19,0A1.84,1.84,0,0,0,29,43H41a2,2,0,0,0,0-4H29a1.93,1.93,0,0,0-.42,0A5.06,5.06,0,0,0,26,36.4V30H44a2,2,0,0,0,2-2V20A2,2,0,0,0,44,18ZM32,26a2,2,0,1,1,2-2A2,2,0,0,1,32,26Zm6,0a2,2,0,1,1,2-2A2,2,0,0,1,38,26Z"/></g></g></svg>