<svg xmlns="http://www.w3.org/2000/svg" viewBox="0 0 48 48"><defs><style>.cls-1{fill:none;}</style></defs><title>data-storage-check-solid</title><g id="Layer_2" data-name="Layer 2"><g id="invisible_box" data-name="invisible box"><rect class="cls-1" width="48" height="48"/></g><g id="Layer_3" data-name="Layer 3"><path d="M44,18H28a2,2,0,0,0-2,2v8a2,2,0,0,0,2,2H44a2,2,0,0,0,2-2V20A2,2,0,0,0,44,18ZM32,26a2,2,0,1,1,2-2A2,2,0,0,1,32,26Zm6,0a2,2,0,1,1,2-2A2,2,0,0,1,38,26Z"/><path d="M44,34H28a2,2,0,0,0-2,2v8a2,2,0,0,0,2,2H44a2,2,0,0,0,2-2V36A2,2,0,0,0,44,34ZM32,42a2,2,0,1,1,2-2A2,2,0,0,1,32,42Zm6,0a2,2,0,1,1,2-2A2,2,0,0,1,38,42Z"/><path d="M44,2H4A2,2,0,0,0,2,4v8a2,2,0,0,0,2,2H44a2,2,0,0,0,2-2V4A2,2,0,0,0,44,2ZM32,10a2,2,0,1,1,2-2A2,2,0,0,1,32,10Zm6,0a2,2,0,1,1,2-2A2,2,0,0,1,38,10Z"/><path d="M7.57,39.41,3.65,35.49a2.07,2.07,0,0,1-.3-2.65,2,2,0,0,1,3.05-.25L9,35.17,19.58,24.59a2,2,0,0,1,2.83,2.82l-12,12A2,2,0,0,1,7.57,39.41Z"/></g></g></svg>