<svg xmlns="http://www.w3.org/2000/svg" viewBox="0 0 48 48"><defs><style>.cls-1{fill:none;}</style></defs><title>decline</title><g id="Layer_2" data-name="Layer 2"><g id="invisible_box" data-name="invisible box"><rect class="cls-1" width="48" height="48"/></g><g id="Layer_3" data-name="Layer 3"><path d="M24,2A22,22,0,1,0,46,24,22,22,0,0,0,24,2ZM6.12,21.89A18.08,18.08,0,0,1,21.94,6.12,17.89,17.89,0,0,1,35.22,10L9.9,35.16A17.94,17.94,0,0,1,6.12,21.89ZM26,41.89A17.93,17.93,0,0,1,12.71,38L38.05,12.78A18,18,0,0,1,26,41.89Z"/></g></g></svg>