<svg xmlns="http://www.w3.org/2000/svg" viewBox="0 0 48 48"><defs><style>.cls-1{fill:none;}</style></defs><title>device-mobile-graph</title><g id="Layer_2" data-name="Layer 2"><g id="invisible_box" data-name="invisible box"><rect class="cls-1" width="48" height="48"/></g><g id="Layer_3" data-name="Layer 3"><path d="M38,4h0a2,2,0,0,0-2-2H10A2,2,0,0,0,8,4V44a2,2,0,0,0,2,2H36a2,2,0,0,0,2-2V30a2,2,0,0,0-2-2h0a2,2,0,0,0-2,2V42H12V6H36A2,2,0,0,0,38,4Z"/><path d="M24,36H22a2,2,0,0,0,0,4h2a2,2,0,0,0,0-4Z"/><path d="M40,10H30a2,2,0,0,0-2,2.34A2.07,2.07,0,0,0,30.11,14h5.06l.11.1-6.34,7L25,17.17l-8.35,8.34a2.07,2.07,0,0,0-.3,2.65,2,2,0,0,0,3,.25L25,22.83l4.06,4.06L38,17.05v4.84A2.07,2.07,0,0,0,39.66,24,2,2,0,0,0,42,22V12A2,2,0,0,0,40,10Z"/></g></g></svg>