<svg xmlns="http://www.w3.org/2000/svg" viewBox="0 0 48 48"><defs><style>.cls-1{fill:none;}</style></defs><title>device-tablet-graph-solid</title><g id="Layer_2" data-name="Layer 2"><g id="invisible_box" data-name="invisible box"><rect class="cls-1" width="48" height="48"/></g><g id="Layer_3" data-name="Layer 3"><path d="M40,2H8A2,2,0,0,0,6,4V26.16l9-9,3.94,3.94,6.34-7-.11-.1H20.11A2.07,2.07,0,0,1,18,12.34,2,2,0,0,1,20,10H30a2,2,0,0,1,2,2V22a2,2,0,0,1-2.34,2A2.07,2.07,0,0,1,28,21.89V17.05l-8.94,9.84L15,22.83l-9,9V44a2,2,0,0,0,2,2H40a2,2,0,0,0,2-2V4A2,2,0,0,0,40,2ZM24,40a2,2,0,0,1-2-2,2,2,0,0,1,2-2,2,2,0,0,1,2,2A2,2,0,0,1,24,40Z"/></g></g></svg>