<svg xmlns="http://www.w3.org/2000/svg" viewBox="0 0 48 48"><defs><style>.cls-1{fill:none;}</style></defs><title>device-mobile-graph-solid</title><g id="Layer_2" data-name="Layer 2"><g id="invisible_box" data-name="invisible box"><rect class="cls-1" width="48" height="48"/></g><g id="Layer_3" data-name="Layer 3"><path d="M37,2H11A2,2,0,0,0,9,4V22.16l5-5,3.94,3.94,6.34-7-.11-.1H19.11A2.07,2.07,0,0,1,17,12.34,2,2,0,0,1,19,10H29a2,2,0,0,1,2,2V22a2,2,0,0,1-2.34,2A2.07,2.07,0,0,1,27,21.89V17.05l-8.94,9.84L14,22.83l-5,5V44a2,2,0,0,0,2,2H37a2,2,0,0,0,2-2V4A2,2,0,0,0,37,2ZM25,40H23a2,2,0,0,1,0-4h2a2,2,0,0,1,0,4Z"/></g></g></svg>