<svg xmlns="http://www.w3.org/2000/svg" viewBox="0 0 48 48"><defs><style>.cls-1{fill:none;}</style></defs><title>device-mobile-notification</title><g id="Layer_2" data-name="Layer 2"><g id="invisible_box" data-name="invisible box"><rect class="cls-1" width="48" height="48"/></g><g id="Layer_3" data-name="Layer 3"><path d="M24,36H22a2,2,0,0,0,0,4h2a2,2,0,0,0,0-4Z"/><path d="M32,13a3.21,3.21,0,0,1,3.5,3.5v3.17a6.27,6.27,0,0,0,1.76,4.24l.08.09H26.66l.31-.32A5.14,5.14,0,0,0,28.5,20V16.5A3.17,3.17,0,0,1,32,13m0-4a7.12,7.12,0,0,0-7.5,7.5V20a1.21,1.21,0,0,1-.35.85l-1.86,1.86a1,1,0,0,0-.29.7V27a1,1,0,0,0,1,1h5.54a3.5,3.5,0,0,0,6.92,0H41a1,1,0,0,0,1-1V23.41a1,1,0,0,0-.29-.7l-1.62-1.62a2.29,2.29,0,0,1-.59-1.42V16.5A7.17,7.17,0,0,0,32,9Z"/><path d="M38,4h0a2,2,0,0,0-2-2H10A2,2,0,0,0,8,4V44a2,2,0,0,0,2,2H36a2,2,0,0,0,2-2V35a2,2,0,0,0-2-2h0a2,2,0,0,0-2,2v7H12V6H36A2,2,0,0,0,38,4Z"/></g></g></svg>