<svg xmlns="http://www.w3.org/2000/svg" viewBox="0 0 48 48"><defs><style>.cls-1{fill:none;}</style></defs><title>device-multiple-solid</title><g id="Layer_2" data-name="Layer 2"><g id="invisible_box" data-name="invisible box"><rect class="cls-1" width="48" height="48"/></g><g id="Layer_3" data-name="Layer 3"><path d="M44,19H32a2,2,0,0,0-2,2V43a2,2,0,0,0,2,2H44a2,2,0,0,0,2-2V21a2,2,0,0,0-2-2Z"/><path d="M38,7H7A2,2,0,0,0,5,9V31a2,2,0,0,0,2,2H26V17a2,2,0,0,1,2-2H40V9A2,2,0,0,0,38,7Z"/><path d="M26,37v4H4a2,2,0,0,1,0-4Z"/></g></g></svg>