<svg xmlns="http://www.w3.org/2000/svg" viewBox="0 0 48 48"><defs><style>.cls-1{fill:none;}</style></defs><title>device-mobile-notification-solid</title><g id="Layer_2" data-name="Layer 2"><g id="invisible_box" data-name="invisible box"><rect class="cls-1" width="48" height="48"/></g><g id="Layer_3" data-name="Layer 3"><path d="M37,2H11A2,2,0,0,0,9,4V44a2,2,0,0,0,2,2H37a2,2,0,0,0,2-2V4A2,2,0,0,0,37,2ZM25,40H23a2,2,0,0,1,0-4h2a2,2,0,0,1,0,4Zm9-13a1,1,0,0,1-1,1H27.46a3.5,3.5,0,0,1-6.92,0H15a1,1,0,0,1-1-1V23.41a1,1,0,0,1,.29-.7l1.86-1.86A1.21,1.21,0,0,0,16.5,20V16.5A7.12,7.12,0,0,1,24,9a7.17,7.17,0,0,1,7.5,7.5v3.17a2.29,2.29,0,0,0,.59,1.42l1.62,1.62a1,1,0,0,1,.29.7Z"/></g></g></svg>