<svg xmlns="http://www.w3.org/2000/svg" viewBox="0 0 48 48"><defs><style>.cls-1{fill:none;}</style></defs><title>device-mobile-priority-solid</title><g id="Layer_2" data-name="Layer 2"><g id="invisible_box" data-name="invisible box"><rect class="cls-1" width="48" height="48"/></g><g id="Layer_3" data-name="Layer 3"><path d="M37,2H11A2,2,0,0,0,9,4V44a2,2,0,0,0,2,2H37a2,2,0,0,0,2-2V4A2,2,0,0,0,37,2ZM22,11a2,2,0,0,1,4,0V21a2,2,0,0,1-4,0Zm2,14a2,2,0,1,1-2,2A2,2,0,0,1,24,25Zm1,15H23a2,2,0,0,1,0-4h2a2,2,0,0,1,0,4Z"/></g></g></svg>