<svg xmlns="http://www.w3.org/2000/svg" viewBox="0 0 48 48"><defs><style>.cls-1{fill:none;}</style></defs><title>device-mobile-comment</title><g id="Layer_2" data-name="Layer 2"><g id="invisible_box" data-name="invisible box"><rect class="cls-1" width="48" height="48"/></g><g id="Layer_3" data-name="Layer 3"><path d="M38,4h0a2,2,0,0,0-2-2H10A2,2,0,0,0,8,4V44a2,2,0,0,0,2,2H36a2,2,0,0,0,2-2V32a2,2,0,0,0-2-2h0a2,2,0,0,0-2,2V42H12V6H36A2,2,0,0,0,38,4Z"/><path d="M24,36H22a2,2,0,0,0,0,4h2a2,2,0,0,0,0-4Z"/><path d="M41,14v8H25.41L23,24.1V14H41m1.94-4H21.06A2,2,0,0,0,19,12V31a1,1,0,0,0,1,1,1.07,1.07,0,0,0,.72-.28L27,26H42.94A2.05,2.05,0,0,0,45,24V12a2,2,0,0,0-2.06-2Z"/></g></g></svg>