<svg xmlns="http://www.w3.org/2000/svg" viewBox="0 0 48 48"><defs><style>.cls-1{fill:none;}</style></defs><title>device-tablet-graph</title><g id="Layer_2" data-name="Layer 2"><g id="invisible_box" data-name="invisible box"><rect class="cls-1" width="48" height="48"/></g><g id="Layer_3" data-name="Layer 3"><path d="M30,10H20a2,2,0,0,0-2,2.34A2.07,2.07,0,0,0,20.11,14h5.06l.11.1-6.34,7L15,17.17,6.65,25.51a2.07,2.07,0,0,0-.3,2.65,2,2,0,0,0,3.05.25L15,22.83l4.06,4.06L28,17.05v4.84A2.07,2.07,0,0,0,29.66,24,2,2,0,0,0,32,22V12A2,2,0,0,0,30,10Z"/><path d="M24,36a2,2,0,0,0-2,2h0a2,2,0,0,0,4,0h0a2,2,0,0,0-2-2Z"/><path d="M38,6V42H10V6H38m2-4H8A2,2,0,0,0,6,4V44a2,2,0,0,0,2,2H40a2,2,0,0,0,2-2V4a2,2,0,0,0-2-2Z"/></g></g></svg>