<svg xmlns="http://www.w3.org/2000/svg" viewBox="0 0 48 48"><defs><style>.cls-1{fill:none;}</style></defs><title>domain</title><g id="Layer_2" data-name="Layer 2"><g id="invisible_box" data-name="invisible box"><rect class="cls-1" width="48" height="48"/></g><g id="Layer_3" data-name="Layer 3"><path d="M24,2A22,22,0,1,0,46,24,22,22,0,0,0,24,2ZM40.1,16H35.18a27.44,27.44,0,0,0-2.94-8A18.1,18.1,0,0,1,40.1,16ZM42,24a18.16,18.16,0,0,1-.46,4H35.8c.13-1.3.2-2.63.2-4s-.07-2.7-.2-4h5.74A18.16,18.16,0,0,1,42,24ZM6,24a18.16,18.16,0,0,1,.46-4H12.2c-.13,1.3-.2,2.63-.2,4s.07,2.7.2,4H6.46A18.16,18.16,0,0,1,6,24Zm10,0a35.22,35.22,0,0,1,.23-4H22v8H16.23A35.22,35.22,0,0,1,16,24ZM26,6.74a10.59,10.59,0,0,1,3,3.62A23.37,23.37,0,0,1,31.06,16H26Zm-4,0V16H16.94A23.37,23.37,0,0,1,19,10.36,10.59,10.59,0,0,1,22,6.74ZM22,32v9.26a10.59,10.59,0,0,1-3-3.62A23.37,23.37,0,0,1,16.94,32Zm4,9.26V32h5.06A23.37,23.37,0,0,1,29,37.64,10.59,10.59,0,0,1,26,41.26ZM26,28V20h5.77A35.22,35.22,0,0,1,32,24a35.22,35.22,0,0,1-.23,4ZM15.76,8a27.44,27.44,0,0,0-2.94,8H7.9A18.1,18.1,0,0,1,15.76,8ZM7.9,32h4.92a27.44,27.44,0,0,0,2.94,8A18.1,18.1,0,0,1,7.9,32Zm24.34,8a27.44,27.44,0,0,0,2.94-8H40.1A18.1,18.1,0,0,1,32.24,40Z"/></g></g></svg>