<svg xmlns="http://www.w3.org/2000/svg" viewBox="0 0 48 48"><defs><style>.cls-1{fill:none;}</style></defs><title>domain-solid</title><g id="Layer_2" data-name="Layer 2"><g id="invisible_box" data-name="invisible box"><rect class="cls-1" width="48" height="48"/></g><g id="Layer_3" data-name="Layer 3"><path d="M10.24,29H2.58a21.84,21.84,0,0,1,0-10h7.66c-.16,1.62-.24,3.29-.24,5S10.08,27.38,10.24,29Z"/><path d="M14.52,43.86A22.06,22.06,0,0,1,3.93,33H10.8A35.43,35.43,0,0,0,14.52,43.86Z"/><path d="M10.8,15H3.93A22.06,22.06,0,0,1,14.52,4.14,35.43,35.43,0,0,0,10.8,15Z"/><path d="M22,2.09V15H14.87C16.1,8.89,18.48,4.27,21.06,2.2,21.37,2.15,21.68,2.12,22,2.09Z"/><path d="M22,19V29H14.26a48.21,48.21,0,0,1,0-10Z"/><path d="M14.87,33H22V45.91c-.32,0-.63-.06-.94-.11C18.48,43.73,16.1,39.11,14.87,33Z"/><path d="M33.13,15H26V2.09c.32,0,.63.06.94.11C29.52,4.27,31.9,8.89,33.13,15Z"/><path d="M26,33h7.13c-1.23,6.11-3.61,10.73-6.19,12.8-.31.05-.62.08-.94.11Z"/><path d="M34,24a47.35,47.35,0,0,1-.26,5H26V19h7.74A47.35,47.35,0,0,1,34,24Z"/><path d="M37.2,15A35.43,35.43,0,0,0,33.48,4.14,22.06,22.06,0,0,1,44.07,15Z"/><path d="M37.2,33h6.87A22.06,22.06,0,0,1,33.48,43.86,35.43,35.43,0,0,0,37.2,33Z"/><path d="M46,24a21.65,21.65,0,0,1-.58,5H37.76c.16-1.62.24-3.29.24-5s-.08-3.38-.24-5h7.66A21.65,21.65,0,0,1,46,24Z"/></g></g></svg>