<svg xmlns="http://www.w3.org/2000/svg" viewBox="0 0 48 48"><defs><style>.cls-1{fill:none;}</style></defs><title>download-solid</title><g id="Layer_2" data-name="Layer 2"><g id="invisible_box" data-name="invisible box"><rect class="cls-1" width="48" height="48"/></g><g id="Layer_3" data-name="Layer 3"><path d="M42,44H6a2,2,0,0,1,0-4H42a2,2,0,0,1,0,4Z"/><path d="M12.65,25.49l9.93,9.92a2,2,0,0,0,2.83,0l9.94-9.92a2.07,2.07,0,0,0,.3-2.65,2,2,0,0,0-3-.25L26,29.17V6a2,2,0,0,0-4,0V29.18l-6.6-6.59a2,2,0,0,0-3.05.25A2.07,2.07,0,0,0,12.65,25.49Z"/></g></g></svg>