<svg xmlns="http://www.w3.org/2000/svg" viewBox="0 0 48 48"><defs><style>.cls-1{fill:none;}</style></defs><title>drag-arrow-solid</title><g id="Layer_2" data-name="Layer 2"><g id="invisible_box" data-name="invisible box"><rect class="cls-1" width="48" height="48"/></g><g id="Layer_3" data-name="Layer 3"><path d="M45.41,22.59l-5.92-5.94a2.07,2.07,0,0,0-2.65-.3,2,2,0,0,0-.25,3L39.17,22H26V8.82l2.6,2.59a2,2,0,0,0,3-.25,2.07,2.07,0,0,0-.3-2.65L25.42,2.59a2,2,0,0,0-2.83,0L16.65,8.51a2.07,2.07,0,0,0-.3,2.65,2,2,0,0,0,3,.25L22,8.83V22H8.82l2.59-2.6a2,2,0,0,0-.25-3,2.07,2.07,0,0,0-2.65.3L2.59,22.58a2,2,0,0,0,0,2.83l5.92,5.94a2.07,2.07,0,0,0,2.65.3,2,2,0,0,0,.25-3L8.83,26H22V39.18l-2.6-2.59a2,2,0,0,0-3,.25,2.07,2.07,0,0,0,.3,2.65l5.93,5.92a2,2,0,0,0,2.83,0l5.94-5.92a2.07,2.07,0,0,0,.3-2.65,2,2,0,0,0-3-.25L26,39.17V26H39.18l-2.59,2.6a2,2,0,0,0,.25,3,2.07,2.07,0,0,0,2.65-.3l5.92-5.93A2,2,0,0,0,45.41,22.59Z"/></g></g></svg>