<svg xmlns="http://www.w3.org/2000/svg" viewBox="0 0 48 48"><defs><style>.cls-1{fill:none;}</style></defs><title>drag-arrow</title><g id="Layer_2" data-name="Layer 2"><g id="invisible_box" data-name="invisible box"><rect class="cls-1" width="48" height="48"/></g><g id="Layer_3" data-name="Layer 3"><path d="M24,6.83l-4.6,4.58a2,2,0,0,1-3-.25,2.07,2.07,0,0,1,.3-2.65l5.94-5.92a2,2,0,0,1,2.83,0l5.93,5.92a2.07,2.07,0,0,1,.3,2.65,2,2,0,0,1-3,.25Z"/><path d="M24,41.17l4.6-4.58a2,2,0,0,1,3,.25,2.07,2.07,0,0,1-.3,2.65l-5.94,5.92a2,2,0,0,1-2.83,0l-5.93-5.92a2.07,2.07,0,0,1-.3-2.65,2,2,0,0,1,3-.25Z"/><rect x="22" y="5" width="4" height="38"/><path d="M41.17,24l-4.58-4.6a2,2,0,0,1,.25-3,2.07,2.07,0,0,1,2.65.3l5.92,5.94a2,2,0,0,1,0,2.83l-5.92,5.93a2.07,2.07,0,0,1-2.65.3,2,2,0,0,1-.25-3Z"/><path d="M6.83,24l4.58,4.6a2,2,0,0,1-.25,3,2.07,2.07,0,0,1-2.65-.3L2.59,25.41a2,2,0,0,1,0-2.83l5.92-5.93a2.07,2.07,0,0,1,2.65-.3,2,2,0,0,1,.25,3Z"/><rect x="22" y="5" width="4" height="38" transform="translate(48 0) rotate(90)"/></g></g></svg>