<svg xmlns="http://www.w3.org/2000/svg" viewBox="0 0 48 48"><defs><style>.cls-1{fill:none;}</style></defs><title>eject-circle</title><g id="Layer_2" data-name="Layer 2"><g id="invisible_box" data-name="invisible box"><rect class="cls-1" width="48" height="48"/></g><g id="Layer_3" data-name="Layer 3"><rect x="22" y="23" width="4" height="20" rx="2" ry="2" transform="translate(57 9) rotate(90)"/><path d="M23.16,11.45a1,1,0,0,1,1.68,0l9,13.81A1.12,1.12,0,0,1,32.9,27H15.1a1.12,1.12,0,0,1-.91-1.74Z"/><path d="M24,6A18,18,0,1,1,6,24,18,18,0,0,1,24,6m0-4A22,22,0,1,0,46,24,22,22,0,0,0,24,2Z"/></g></g></svg>