<svg xmlns="http://www.w3.org/2000/svg" viewBox="0 0 48 48"><defs><style>.cls-1{fill:none;}</style></defs><title>eject-circle-solid</title><g id="Layer_2" data-name="Layer 2"><g id="invisible_box" data-name="invisible box"><rect class="cls-1" width="48" height="48"/></g><g id="Layer_3" data-name="Layer 3"><path d="M24,2A22,22,0,1,0,46,24,22,22,0,0,0,24,2ZM14.19,25.26l9-13.81a1,1,0,0,1,1.68,0l9,13.81A1.12,1.12,0,0,1,32.9,27H15.1A1.12,1.12,0,0,1,14.19,25.26Zm19.22,9.15A2,2,0,0,1,32,35H16a2,2,0,0,1,0-4H32a2,2,0,0,1,2,2A2,2,0,0,1,33.41,34.41Z"/></g></g></svg>