<svg xmlns="http://www.w3.org/2000/svg" viewBox="0 0 48 48"><defs><style>.cls-1{fill:none;}</style></defs><title>escalate-solid</title><g id="Layer_2" data-name="Layer 2"><g id="invisible_box" data-name="invisible box"><rect class="cls-1" width="48" height="48"/></g><g id="Layer_3" data-name="Layer 3"><path d="M39.57,8.43A22,22,0,0,0,2,23.78a2,2,0,0,0,.59,1.43A2,2,0,0,0,6,23.82,18,18,0,1,1,26,41.89V22.83l4.6,4.58a2,2,0,0,0,3-.25,2.07,2.07,0,0,0-.3-2.65l-7.94-7.92a2,2,0,0,0-2.83,0l-7.93,7.92a2.07,2.07,0,0,0-.3,2.65,2,2,0,0,0,3,.25L22,22.82V44a2,2,0,0,0,2,2h.23A22,22,0,0,0,39.57,8.43Z"/></g></g></svg>