<svg xmlns="http://www.w3.org/2000/svg" viewBox="0 0 48 48"><defs><style>.cls-1{fill:none;}</style></defs><title>exit-to-app</title><g id="Layer_2" data-name="Layer 2"><g id="invisible_box" data-name="invisible box"><rect class="cls-1" width="48" height="48"/></g><g id="Layer_3" data-name="Layer 3"><path d="M44,42V6a2,2,0,0,0-2-2H6A2,2,0,0,0,4,6v5a2,2,0,0,0,2.34,2A2.07,2.07,0,0,0,8,10.89V8H40V40H8V37a2,2,0,0,0-2.34-2A2.07,2.07,0,0,0,4,37.11V42a2,2,0,0,0,2,2H42A2,2,0,0,0,44,42Z"/><path d="M22.49,34.35l8.92-8.93a2,2,0,0,0,0-2.83l-8.92-8.94a2.07,2.07,0,0,0-2.65-.3,2,2,0,0,0-.25,3L25.17,22H6a2,2,0,0,0,0,4H25.18l-5.59,5.6a2,2,0,0,0,.25,3A2.07,2.07,0,0,0,22.49,34.35Z"/></g></g></svg>