<svg xmlns="http://www.w3.org/2000/svg" viewBox="0 0 48 48"><defs><style>.cls-1{fill:none;}</style></defs><title>external-solid</title><g id="Layer_2" data-name="Layer 2"><g id="invisible_box" data-name="invisible box"><rect class="cls-1" width="48" height="48"/></g><g id="Layer_3" data-name="Layer 3"><path d="M28,4a2,2,0,0,0-2,2.34A2.07,2.07,0,0,0,28.11,8h9.06L24.68,20.5a2.08,2.08,0,0,0-.2,2.8,2,2,0,0,0,2.93.11L40,10.83v9.06A2.07,2.07,0,0,0,41.66,22,2,2,0,0,0,44,20V6a2,2,0,0,0-2-2Z"/><path d="M41.66,30A2.07,2.07,0,0,0,40,32.11V40H8V8h8a2,2,0,0,0,2-2.34A2.07,2.07,0,0,0,15.89,4H6A2,2,0,0,0,4,6V42a2,2,0,0,0,2,2H42a2,2,0,0,0,2-2V32A2,2,0,0,0,41.66,30Z"/></g></g></svg>