<svg xmlns="http://www.w3.org/2000/svg" viewBox="0 0 48 48"><defs><style>.cls-1{fill:none;}</style></defs><title>eye-close</title><g id="Layer_2" data-name="Layer 2"><g id="invisible_box" data-name="invisible box"><rect class="cls-1" width="48" height="48"/></g><g id="Layer_3" data-name="Layer 3"><path d="M2.68,22.11a34,34,0,0,1,9-7.63L6.59,9.41A2,2,0,1,1,9.42,6.59l12,12A6.06,6.06,0,0,1,24,18a6,6,0,0,1,6,6,5.86,5.86,0,0,1-.59,2.58l4,4A29.3,29.3,0,0,0,41.69,24c-2.42-2.77-8.86-9-17.69-9a2,2,0,0,1,0-4c11.36,0,19.2,8.51,21.33,11.11a3,3,0,0,1,0,3.78,34,34,0,0,1-9,7.63l5.06,5.07a2,2,0,1,1-2.83,2.82l-12-12A6.07,6.07,0,0,1,24,30a6,6,0,0,1-6-6,5.86,5.86,0,0,1,.6-2.58l-4-4A29.3,29.3,0,0,0,6.32,24c2.42,2.77,8.86,9,17.68,9a2,2,0,0,1,0,4C12.65,37,4.81,28.49,2.68,25.89A3,3,0,0,1,2.68,22.11Z"/></g></g></svg>