<svg xmlns="http://www.w3.org/2000/svg" viewBox="0 0 48 48"><defs><style>.cls-1{fill:none;}</style></defs><title>eye-close-solid</title><g id="Layer_2" data-name="Layer 2"><g id="invisible_box" data-name="invisible box"><rect class="cls-1" width="48" height="48"/></g><g id="Layer_3" data-name="Layer 3"><path d="M45.33,22.11C43.2,19.5,35.36,11,24,11a22.41,22.41,0,0,0-4.16.39L39.72,31.27a34.77,34.77,0,0,0,5.61-5.38A3,3,0,0,0,45.33,22.11Z"/><path d="M36.39,33.5l-.06,0a28.31,28.31,0,0,1-3.75,1.81A23.45,23.45,0,0,1,24,37C12.64,37,4.8,28.49,2.67,25.89a3,3,0,0,1,0-3.78,34,34,0,0,1,9-7.66,27.09,27.09,0,0,1,3.75-1.8l.07,0,6,6a.09.09,0,0,0-.07,0l-.32.17a2.9,2.9,0,0,0-.33.2l-.27.19-.09.06-.27.22a4.93,4.93,0,0,0-.61.6,1.59,1.59,0,0,0-.2.24,5.72,5.72,0,0,0-.86,1.47,3.52,3.52,0,0,0-.15.42,4.44,4.44,0,0,0-.16.6,2.74,2.74,0,0,0-.05.28c0,.12,0,.25,0,.38A5.44,5.44,0,0,0,18,24a6,6,0,0,0,6,6,5.37,5.37,0,0,0,.7,0l.44-.07A5.85,5.85,0,0,0,27,29.21c.13-.07.25-.15.37-.23a2.86,2.86,0,0,0,.3-.22,2.43,2.43,0,0,0,.25-.2,4.61,4.61,0,0,0,.59-.58c.07-.07.14-.16.21-.24s.17-.22.25-.34a4.43,4.43,0,0,0,.29-.46c.06-.11.12-.22.17-.33a.09.09,0,0,0,0-.07Z"/><path d="M15.51,12.62l-.07,0a27.09,27.09,0,0,0-3.75,1.8L6.61,9.37A2,2,0,0,1,9.44,6.55Z"/><path d="M41.45,41.39a2,2,0,0,1-2.83,0l-6-6a28.31,28.31,0,0,0,3.75-1.81l.06,0,5.06,5.06a1.7,1.7,0,0,1,.31.41A2,2,0,0,1,41.45,41.39Z"/></g></g></svg>