<svg xmlns="http://www.w3.org/2000/svg" viewBox="0 0 48 48"><defs><style>.cls-1{fill:none;}</style></defs><title>eye-open</title><g id="Layer_2" data-name="Layer 2"><g id="invisible_box" data-name="invisible box"><rect class="cls-1" width="48" height="48"/></g><g id="Layer_3" data-name="Layer 3"><path d="M45.33,22.11h0C43.2,19.5,35.36,11,24,11S4.8,19.51,2.67,22.11a3,3,0,0,0,0,3.78C4.8,28.49,12.64,37,24,37s19.2-8.51,21.33-11.11A3,3,0,0,0,45.33,22.11ZM24,33c-8.82,0-15.26-6.23-17.69-9,2.43-2.77,8.87-9,17.69-9s15.26,6.23,17.69,9C39.26,26.77,32.82,33,24,33Z"/><circle cx="24" cy="24" r="6"/></g></g></svg>