<svg xmlns="http://www.w3.org/2000/svg" viewBox="0 0 48 48"><defs><style>.cls-1{fill:none;}</style></defs><title>file-text-solid</title><g id="Layer_2" data-name="Layer 2"><g id="invisible_box" data-name="invisible box"><rect class="cls-1" width="48" height="48"/><rect class="cls-1" width="48" height="48"/></g><g id="Layer_3" data-name="Layer 3"><path d="M40,3H8A2,2,0,0,0,6,5V43a2,2,0,0,0,2,2H40a2,2,0,0,0,2-2V5A2,2,0,0,0,40,3ZM25.41,33.41A2,2,0,0,1,24,34H16a2,2,0,0,1-2-2,2,2,0,0,1,2-2h8a2,2,0,0,1,2,2A2,2,0,0,1,25.41,33.41Zm8-8A2,2,0,0,1,32,26H16a2,2,0,0,1-2-2,2,2,0,0,1,2-2H32a2,2,0,0,1,2,2A2,2,0,0,1,33.41,25.41Zm0-8A2,2,0,0,1,32,18H16a2,2,0,0,1-2-2,2,2,0,0,1,2-2H32a2,2,0,0,1,2,2A2,2,0,0,1,33.41,17.41Z"/></g></g></svg>