<svg xmlns="http://www.w3.org/2000/svg" viewBox="0 0 48 48"><defs><style>.cls-1{fill:none;}</style></defs><title>file-search-solid</title><g id="Layer_2" data-name="Layer 2"><g id="invisible_box" data-name="invisible box"><rect class="cls-1" width="48" height="48"/><rect class="cls-1" width="48" height="48"/></g><g id="Layer_3" data-name="Layer 3"><path d="M31,29.87V30h0a2,2,0,0,1,0,4H13a2,2,0,0,1,0-4H27v-.14A14.79,14.79,0,0,1,18.82,26H13a2,2,0,0,1-2-2,2,2,0,0,1,2-2h2.73a15.13,15.13,0,0,1-1.43-4H13a2,2,0,0,1-2-2,2,2,0,0,1,2-2h1A15,15,0,0,1,20,3H6A2,2,0,0,0,4,5V43a2,2,0,0,0,2,2H38a2,2,0,0,0,2-2V33.82l-5-5.05A14.55,14.55,0,0,1,31,29.87Z"/><path d="M45.41,28.59l-7.35-7.35a11,11,0,1,0-2.82,2.82l7.35,7.35a2,2,0,0,0,2.82-2.82ZM29,22a7,7,0,1,1,7-7A7,7,0,0,1,29,22Z"/></g></g></svg>