<svg xmlns="http://www.w3.org/2000/svg" viewBox="0 0 48 48"><defs><style>.cls-1{fill:none;}</style></defs><title>file-edit-solid</title><g id="Layer_2" data-name="Layer 2"><g id="invisible_box" data-name="invisible box"><rect class="cls-1" width="48" height="48"/><rect class="cls-1" width="48" height="48"/></g><g id="Layer_3" data-name="Layer 3"><path d="M28.93,41H22V34.07l6.37-6.37,6.93,6.93Zm9.2-9.19-6.94-6.94,3-3,6.93,6.93Zm7.28-4.45-5.6-5.6a2,2,0,0,0,.19-.87V5a2,2,0,0,0-2-2H6A2,2,0,0,0,4,5V43a2,2,0,0,0,2,2H29.76a2,2,0,0,0,1.41-.59L45.41,30.18A2,2,0,0,0,45.41,27.36ZM16.17,34H15a2,2,0,0,1,0-4h5.17Zm8-8H15a2,2,0,0,1,0-4H28.18Zm6.24-8.59A2,2,0,0,1,29,18H15a2,2,0,0,1-2-2,2,2,0,0,1,2-2H29a2,2,0,0,1,2,2A2,2,0,0,1,30.41,17.41Z"/></g></g></svg>