<svg xmlns="http://www.w3.org/2000/svg" viewBox="0 0 48 48"><defs><style>.cls-1{fill:none;}</style></defs><title>file-multiple-solid</title><g id="Layer_2" data-name="Layer 2"><g id="invisible_box" data-name="invisible box"><rect class="cls-1" width="48" height="48"/><rect class="cls-1" width="48" height="48"/></g><g id="Layer_3" data-name="Layer 3"><path d="M42,2H12a2,2,0,0,0-2,2V6H38a2,2,0,0,1,2,2V40h2a2,2,0,0,0,2-2V4A2,2,0,0,0,42,2Zm-8,8H6a2,2,0,0,0-2,2V44a2,2,0,0,0,2,2H34a2,2,0,0,0,2-2V12A2,2,0,0,0,34,10ZM18,38H14a2,2,0,0,1,0-4h4a2,2,0,0,1,0,4Zm8-8H14a2,2,0,0,1,0-4H26a2,2,0,0,1,0,4Zm0-8H14a2,2,0,0,1,0-4H26a2,2,0,0,1,0,4Z"/></g></g></svg>