<svg xmlns="http://www.w3.org/2000/svg" viewBox="0 0 48 48"><defs><style>.cls-1{fill:none;}</style></defs><title>file-minus-solid</title><g id="Layer_2" data-name="Layer 2"><g id="invisible_box" data-name="invisible box"><rect class="cls-1" width="48" height="48"/><rect class="cls-1" width="48" height="48"/></g><g id="Layer_3" data-name="Layer 3"><path d="M33,2a13,13,0,0,0-5,1H8A2,2,0,0,0,6,5V43a2,2,0,0,0,2,2H40a2,2,0,0,0,2-2V24.37A13,13,0,0,0,33,2ZM14.59,14.59A2,2,0,0,1,16,14h4.05c0,.33-.05.66-.05,1a12.9,12.9,0,0,0,.36,3H16a2,2,0,0,1-2-2A2,2,0,0,1,14.59,14.59Zm0,8A2,2,0,0,1,16,22h6.06a13,13,0,0,0,4,4H16a2,2,0,0,1-2-2A2,2,0,0,1,14.59,22.59ZM32,34H16a2,2,0,0,1,0-4H32a2,2,0,0,1,0,4Zm1-10a9,9,0,1,1,9-9A9,9,0,0,1,33,24Z"/><path d="M37,13H29a2,2,0,0,0-2,2,2,2,0,0,0,2,2h8a2,2,0,0,0,2-2A2,2,0,0,0,37,13Z"/></g></g></svg>