<svg xmlns="http://www.w3.org/2000/svg" viewBox="0 0 48 48"><defs><style>.cls-1{fill:none;}</style></defs><title>file-text</title><g id="Layer_2" data-name="Layer 2"><g id="invisible_box" data-name="invisible box"><rect class="cls-1" width="48" height="48"/></g><g id="Layer_3" data-name="Layer 3"><rect x="14" y="14" width="20" height="4" rx="2" ry="2"/><rect x="14" y="22" width="20" height="4" rx="2" ry="2"/><rect x="14" y="30" width="12" height="4" rx="2" ry="2"/><path d="M38,7V41H10V7H38m2-4H8A2,2,0,0,0,6,5V43a2,2,0,0,0,2,2H40a2,2,0,0,0,2-2V5a2,2,0,0,0-2-2Z"/></g></g></svg>