<svg xmlns="http://www.w3.org/2000/svg" viewBox="0 0 48 48"><defs><style>.cls-1{fill:none;}</style></defs><title>file-edit</title><g id="Layer_2" data-name="Layer 2"><g id="invisible_box" data-name="invisible box"><rect class="cls-1" width="48" height="48"/></g><g id="Layer_3" data-name="Layer 3"><path d="M9.89,45H6a2,2,0,0,1-2-2V5A2,2,0,0,1,6,3H38a2,2,0,0,1,2,2v7.89A2.07,2.07,0,0,1,38.34,15,2,2,0,0,1,36,13V7H8V41h2a2,2,0,0,1,2,2.34A2.07,2.07,0,0,1,9.89,45Z"/><rect x="13" y="14" width="18" height="4" rx="2" ry="2"/><path d="M45.41,27.36l-9.77-9.77a2,2,0,0,0-2.82,0L28.41,22H15a2,2,0,0,0,0,4h9.41l-4,4H15a2,2,0,0,0,0,4h3v9a2,2,0,0,0,2,2h9.76a2,2,0,0,0,1.41-.59L45.41,30.18A2,2,0,0,0,45.41,27.36ZM28.93,41H22V34.07l6.37-6.37,6.93,6.93Zm9.2-9.19-6.94-6.94,3-3,6.93,6.93Z"/></g></g></svg>