<svg xmlns="http://www.w3.org/2000/svg" viewBox="0 0 48 48"><defs><style>.cls-1{fill:none;}</style></defs><title>file-minus</title><g id="Layer_2" data-name="Layer 2"><g id="invisible_box" data-name="invisible box"><rect class="cls-1" width="48" height="48"/></g><g id="Layer_3" data-name="Layer 3"><path d="M40,45H8a2,2,0,0,1-2-2V5A2,2,0,0,1,8,3H18a2,2,0,0,1,2,2h0a2,2,0,0,1-2,2H10V41H38l0-8.79a2,2,0,0,1,2-2h0a2,2,0,0,1,2,2V43A2,2,0,0,1,40,45Z"/><path d="M33,2A13,13,0,0,0,20.05,14H16a2,2,0,0,0-2,2,2,2,0,0,0,2,2h4.35a12.82,12.82,0,0,0,1.7,4H16a2,2,0,0,0-2,2,2,2,0,0,0,2,2H26.08A13,13,0,1,0,33,2Zm0,22a9,9,0,1,1,9-9A9,9,0,0,1,33,24Z"/><rect x="14" y="30" width="20" height="4" rx="2" ry="2"/><path d="M39,15a2,2,0,0,1-2,2H29a2,2,0,0,1-2-2,2,2,0,0,1,2-2h8A2,2,0,0,1,39,15Z"/></g></g></svg>