<svg xmlns="http://www.w3.org/2000/svg" viewBox="0 0 48 48"><defs><style>.cls-1{fill:none;}</style></defs><title>file-search</title><g id="Layer_2" data-name="Layer 2"><g id="invisible_box" data-name="invisible box"><rect class="cls-1" width="48" height="48"/></g><g id="Layer_3" data-name="Layer 3"><rect x="13" y="30" width="18" height="4" rx="2" ry="2"/><path d="M38,45H6a2,2,0,0,1-2-2V5A2,2,0,0,1,6,3h8.89A2.07,2.07,0,0,1,17,4.66,2,2,0,0,1,15,7H8V41H36V34.11A2.07,2.07,0,0,1,37.66,32,2,2,0,0,1,40,34v9A2,2,0,0,1,38,45Z"/><path d="M45.41,28.59l-7.35-7.35a11,11,0,1,0-20-7.24H15a2,2,0,0,0-2,2,2,2,0,0,0,2,2h3.42a10.87,10.87,0,0,0,2.09,4H15a2,2,0,0,0-2,2,2,2,0,0,0,2,2H29a11.19,11.19,0,0,0,6.24-1.94l7.35,7.35a2,2,0,0,0,2.82-2.82ZM29,22a7,7,0,0,1-6.32-4A6.88,6.88,0,0,1,22,15a5.55,5.55,0,0,1,.08-1A7,7,0,1,1,29,22Z"/></g></g></svg>