<svg xmlns="http://www.w3.org/2000/svg" viewBox="0 0 48 48"><defs><style>.cls-1{fill:none;}</style></defs><title>cart-shopping-add</title><g id="Layer_2" data-name="Layer 2"><g id="invisible_box" data-name="invisible box"><rect class="cls-1" width="48" height="48"/><rect class="cls-1" width="48" height="48"/></g><g id="Layer_3" data-name="Layer 3"><path d="M33,2a13,13,0,0,0-5,1H8A2,2,0,0,0,6,5V43a2,2,0,0,0,2,2H40a2,2,0,0,0,2-2V24.37A13,13,0,0,0,33,2Zm0,22a9,9,0,1,1,9-9A9,9,0,0,1,33,24Z"/><path d="M39,15a2,2,0,0,1-2,2H35v2a2,2,0,0,1-2,2,2,2,0,0,1-2-2V17H29a2,2,0,0,1-2-2,2,2,0,0,1,2-2h2V11a2,2,0,0,1,2-2,2,2,0,0,1,2,2v2h2A2,2,0,0,1,39,15Z"/></g></g></svg>