<svg xmlns="http://www.w3.org/2000/svg" viewBox="0 0 48 48"><defs><style>.cls-1{fill:none;}</style></defs><title>filter-horizontal-solid</title><g id="Layer_2" data-name="Layer 2"><g id="invisible_box" data-name="invisible box"><rect class="cls-1" width="48" height="48"/></g><g id="Layer_3" data-name="Layer 3"><path d="M41.8,8H21.65a6,6,0,0,0-11.3,0H6.2A2.11,2.11,0,0,0,4,10a2.11,2.11,0,0,0,2.2,2h4.15a6,6,0,0,0,11.3,0H41.8A2.11,2.11,0,0,0,44,10,2.11,2.11,0,0,0,41.8,8Z"/><path d="M41.8,22H37.65a6,6,0,0,0-11.3,0H6.2a2,2,0,1,0,0,4H26.35a6,6,0,0,0,11.3,0H41.8a2,2,0,1,0,0-4Z"/><path d="M41.8,36H24.65a6,6,0,0,0-11.3,0H6.2a2,2,0,1,0,0,4h7.15a6,6,0,0,0,11.3,0H41.8a2,2,0,1,0,0-4Z"/></g></g></svg>