<svg xmlns="http://www.w3.org/2000/svg" viewBox="0 0 48 48"><defs><style>.cls-1{fill:none;}</style></defs><title>filter-vertical-solid</title><g id="Layer_2" data-name="Layer 2"><g id="invisible_box" data-name="invisible box"><rect class="cls-1" width="48" height="48"/><rect class="cls-1" width="48" height="48"/><rect class="cls-1" width="48" height="48"/></g><g id="Layer_3" data-name="Layer 3"><path d="M8,6.2V26.35a6,6,0,0,0,0,11.3V41.8A2.11,2.11,0,0,0,10,44a2.11,2.11,0,0,0,2-2.2V37.65a6,6,0,0,0,0-11.3V6.2A2.11,2.11,0,0,0,10,4,2.11,2.11,0,0,0,8,6.2Z"/><path d="M22,6.2v4.15a6,6,0,0,0,0,11.3V41.8a2,2,0,1,0,4,0V21.65a6,6,0,0,0,0-11.3V6.2a2,2,0,1,0-4,0Z"/><path d="M36,6.2V23.35a6,6,0,0,0,0,11.3V41.8a2,2,0,1,0,4,0V34.65a6,6,0,0,0,0-11.3V6.2a2,2,0,1,0-4,0Z"/></g></g></svg>