<svg xmlns="http://www.w3.org/2000/svg" viewBox="0 0 48 48"><defs><style>.cls-1{fill:none;}</style></defs><title>fingerprint-solid</title><g id="Layer_2" data-name="Layer 2"><g id="invisible_box" data-name="invisible box"><rect class="cls-1" width="48" height="48"/></g><g id="Layer_3" data-name="Layer 3"><path d="M31.69,37.29V22a7.69,7.69,0,0,0-15.38,0V37.29a10.68,10.68,0,0,0,4,8.33,1.54,1.54,0,0,0,1.94-2.38,7.67,7.67,0,0,1-2.84-6V22a4.62,4.62,0,0,1,9.24,0V37.29a1.54,1.54,0,0,1-3.08,0V22a1.54,1.54,0,0,0-3.08,0V37.29a1.63,1.63,0,0,0,0,.31,4.6,4.6,0,0,0,9.17,0A1.55,1.55,0,0,0,31.69,37.29Z"/><path d="M24,8.14A13.84,13.84,0,0,0,10.15,22V37.29a17,17,0,0,0,1.95,7.87,1.54,1.54,0,0,0,2.72-1.44,13.78,13.78,0,0,1-1.59-6.43V22a10.77,10.77,0,0,1,21.54,0V37.29a7.64,7.64,0,0,1-2.88,6,1.54,1.54,0,0,0,1,2.73,1.5,1.5,0,0,0,1-.34,10.68,10.68,0,0,0,4-8.37V22A13.84,13.84,0,0,0,24,8.14Z"/><path d="M24,2A20,20,0,0,0,4,22V40.36a1.54,1.54,0,0,0,3.08,0V22a16.92,16.92,0,0,1,33.84,0V37.29a13.75,13.75,0,0,1-1.6,6.45A1.53,1.53,0,0,0,40,45.81a1.45,1.45,0,0,0,.72.18A1.53,1.53,0,0,0,42,45.18,16.86,16.86,0,0,0,44,38a1.5,1.5,0,0,0,0-.22V22A20,20,0,0,0,24,2Z"/></g></g></svg>