<svg xmlns="http://www.w3.org/2000/svg" viewBox="0 0 48 48"><defs><style>.cls-1{fill:none;}</style></defs><title>first-page-sollid</title><g id="Layer_2" data-name="Layer 2"><g id="invisible_box" data-name="invisible box"><rect class="cls-1" width="48" height="48"/><rect class="cls-1" width="48" height="48"/><rect class="cls-1" width="48" height="48"/></g><g id="Layer_3" data-name="Layer 3"><path d="M14,42V6a2,2,0,0,0-4,0V42a2,2,0,0,0,4,0Z"/><path d="M26.83,24,37.41,34.6a2,2,0,0,1-.25,3,2.07,2.07,0,0,1-2.65-.3L22.59,25.41a2,2,0,0,1,0-2.83L34.51,10.65a2.07,2.07,0,0,1,2.65-.3,2,2,0,0,1,.25,3.05Z"/></g></g></svg>