<svg xmlns="http://www.w3.org/2000/svg" viewBox="0 0 48 48"><defs><style>.cls-1{fill:none;}</style></defs><title>flip</title><g id="Layer_2" data-name="Layer 2"><g id="invisible_box" data-name="invisible box"><rect class="cls-1" width="48" height="48"/></g><g id="Layer_3" data-name="Layer 3"><path d="M22,42V6a2,2,0,0,1,4,0V42a2,2,0,0,1-4,0Z"/><path d="M8,17.21,14.78,24,8,30.79V17.21M5,9a1,1,0,0,0-1,1V38a1,1,0,0,0,1,1,1,1,0,0,0,.72-.3l13.94-14a1,1,0,0,0,0-1.46L5.76,9.3A1,1,0,0,0,5,9Z"/><path d="M28.3,23.27l13.94-14A1,1,0,0,1,44,10V38a1,1,0,0,1-1.76.73l-13.94-14A1,1,0,0,1,28.3,23.27Z"/></g></g></svg>