<svg xmlns="http://www.w3.org/2000/svg" viewBox="0 0 48 48"><defs><style>.cls-1{fill:none;}</style></defs><title>flower</title><g id="Layer_2" data-name="Layer 2"><g id="invisible_box" data-name="invisible box"><rect class="cls-1" width="48" height="48"/></g><g id="Layer_3" data-name="Layer 3"><path d="M43.47,24l.32-.3a7.54,7.54,0,0,0-6.34-12.8A2.7,2.7,0,0,0,37,11c0-.13.05-.27.06-.41a7,7,0,0,0,.07-1A7.54,7.54,0,0,0,24.3,4.21l-.3.32-.3-.32a7.54,7.54,0,0,0-12.8,6.34A2.7,2.7,0,0,0,11,11c-.13,0-.27-.05-.41-.06a7,7,0,0,0-1-.07A7.54,7.54,0,0,0,4.21,23.7l.32.3-.32.3A7.54,7.54,0,0,0,9.53,37.17a7,7,0,0,0,1-.07c.14,0,.28,0,.41-.06a2.7,2.7,0,0,0-.06.41,7.54,7.54,0,0,0,12.8,6.34l.3-.32.3.32a7.54,7.54,0,0,0,12.87-5.32,6.9,6.9,0,0,0-.07-1c0-.14,0-.28-.06-.41a2.7,2.7,0,0,0,.41.06,7.54,7.54,0,0,0,6.34-12.8ZM7,15.86a3.51,3.51,0,0,1,2.49-1l.48,0,.12,0h.07A3.91,3.91,0,0,0,11,15a4,4,0,0,0,3.92-4.8.25.25,0,0,1,0-.08.13.13,0,0,1,0-.06,3.54,3.54,0,0,1,6-3c.62.61.93,1.79,1,3.6,0,.56,0,1.91.05,3.59a10,10,0,0,0-7.67,7.68c-1.66,0-3,0-3.48-.06-1.42-.07-3-.24-3.7-1A3.55,3.55,0,0,1,7,15.86Zm14.8,21.5c0,1.81-.35,3-1,3.6a3.54,3.54,0,0,1-6-3,.13.13,0,0,1,0-.06.25.25,0,0,1,0-.08A4,4,0,0,0,11,33a3.91,3.91,0,0,0-.76.07h-.07l-.12,0-.48,0a3.51,3.51,0,0,1-2.49-1,3.55,3.55,0,0,1,0-5c.74-.75,2.28-.91,3.7-1,.52,0,1.82,0,3.48-.06a10,10,0,0,0,7.67,7.68C21.87,35.45,21.86,36.8,21.84,37.36ZM24,30a6,6,0,1,1,6-6A6,6,0,0,1,24,30Zm17,2.14a3.53,3.53,0,0,1-3,1h-.14A4,4,0,0,0,33,37a3.91,3.91,0,0,0,.07.76v.07s0,.08,0,.12a3.87,3.87,0,0,1,0,.48,3.54,3.54,0,0,1-6,2.49c-.75-.74-.91-2.28-1-3.7,0-.52,0-1.82-.06-3.48a10,10,0,0,0,7.69-7.67c1.68,0,3,0,3.58.05,1.81,0,3,.35,3.6,1a3.54,3.54,0,0,1,0,5Zm0-11.27c-.61.62-1.79.93-3.6,1-.56,0-1.9,0-3.58.05a10,10,0,0,0-7.69-7.67c0-1.66,0-3,.06-3.48.07-1.42.23-3,1-3.7a3.55,3.55,0,0,1,5,0,3.51,3.51,0,0,1,1,2.49,3.87,3.87,0,0,1,0,.48s0,.08,0,.12v.07A3.91,3.91,0,0,0,33,11a4,4,0,0,0,4.8,3.92H38a3.54,3.54,0,0,1,3,6Z"/></g></g></svg>