<svg xmlns="http://www.w3.org/2000/svg" viewBox="0 0 48 48"><defs><style>.cls-1{fill:none;}</style></defs><title>flower-solid</title><g id="Layer_2" data-name="Layer 2"><g id="invisible_box" data-name="invisible box"><rect class="cls-1" width="48" height="48"/></g><g id="Layer_3" data-name="Layer 3"><path d="M43.47,24l.32-.3a7.54,7.54,0,0,0-6.34-12.8A2.7,2.7,0,0,0,37,11c0-.13.05-.27.06-.41a7,7,0,0,0,.07-1A7.54,7.54,0,0,0,24.3,4.21l-.3.32-.3-.32a7.54,7.54,0,0,0-12.8,6.34A2.7,2.7,0,0,0,11,11c-.13,0-.27-.05-.41-.06a7,7,0,0,0-1-.07A7.54,7.54,0,0,0,4.21,23.7l.32.3-.32.3A7.54,7.54,0,0,0,9.53,37.17a7,7,0,0,0,1-.07c.14,0,.28,0,.41-.06a2.7,2.7,0,0,0-.06.41,7.54,7.54,0,0,0,12.8,6.34l.3-.32.3.32a7.54,7.54,0,0,0,12.87-5.32,6.9,6.9,0,0,0-.07-1c0-.14,0-.28-.06-.41a2.7,2.7,0,0,0,.41.06,7.54,7.54,0,0,0,6.34-12.8ZM24,32a8,8,0,1,1,8-8A8,8,0,0,1,24,32Z"/></g></g></svg>