<svg xmlns="http://www.w3.org/2000/svg" viewBox="0 0 48 48"><defs><style>.cls-1{fill:none;}</style></defs><title>folder-key-solid</title><g id="Layer_2" data-name="Layer 2"><g id="invisible_box" data-name="invisible box"><rect class="cls-1" width="48" height="48"/></g><g id="Layer_3" data-name="Layer 3"><path d="M44.06,12H27L21,6H3.94A1.94,1.94,0,0,0,2,7.94V40.06A1.94,1.94,0,0,0,3.94,42H44.06A1.94,1.94,0,0,0,46,40.06V13.94A1.94,1.94,0,0,0,44.06,12ZM33.41,34.41l-4,4a2,2,0,0,1-2.82-2.82L29.17,33,28,31.83l-2.59,2.58a2,2,0,1,1-2.82-2.82L25.17,29l-2.84-2.84a7,7,0,1,1,2.83-2.83l8.25,8.26A2,2,0,0,1,33.41,34.41ZM19,17a3,3,0,1,0,3,3A3,3,0,0,0,19,17Z"/><path d="M19,17a3,3,0,1,0,3,3A3,3,0,0,0,19,17Zm0,0a3,3,0,1,0,3,3A3,3,0,0,0,19,17Z"/></g></g></svg>