<svg xmlns="http://www.w3.org/2000/svg" viewBox="0 0 48 48"><defs><style>.cls-1{fill:none;}</style></defs><title>folder-merge</title><g id="Layer_2" data-name="Layer 2"><g id="invisible_box" data-name="invisible box"><rect class="cls-1" width="48" height="48"/></g><g id="Layer_3" data-name="Layer 3"><path d="M36.53,25.73,30.61,19.8A2.07,2.07,0,0,0,28,19.51a2,2,0,0,0-.26,3l2.59,2.6H24l-9.51-9.51a2.07,2.07,0,0,0-2.65-.3,2,2,0,0,0-.25,3L20.17,27l-8.58,8.6a2,2,0,0,0,.25,3,2.07,2.07,0,0,0,2.65-.3l9.18-9.19h6.61L27.7,31.75A2,2,0,0,0,28,34.81a2.09,2.09,0,0,0,2.65-.3l5.92-5.94A2,2,0,0,0,36.53,25.73Z"/><path d="M46,14V40a2,2,0,0,1-2,2H24a2,2,0,0,1-2-2h0a2,2,0,0,1,2-2H42V16H25.34l-1.17-1.17L19.34,10H6V40a2,2,0,0,1-2,2H4a2,2,0,0,1-2-2V8A2,2,0,0,1,4,6H21l6,6H44A2,2,0,0,1,46,14Z"/></g></g></svg>