<svg xmlns="http://www.w3.org/2000/svg" viewBox="0 0 48 48"><defs><style>.cls-1{fill:none;}</style></defs><title>folder-key</title><g id="Layer_2" data-name="Layer 2"><g id="invisible_box" data-name="invisible box"><rect class="cls-1" width="48" height="48"/></g><g id="Layer_3" data-name="Layer 3"><path d="M29.16,30.33a7,7,0,1,0-2.83,2.83L29.17,36l-2.58,2.59a2,2,0,1,0,2.82,2.82L32,38.83,33.17,40l-2.58,2.59a2,2,0,1,0,2.82,2.82l4-4a2,2,0,0,0,0-2.82ZM20,27a3,3,0,1,1,3,3A3,3,0,0,1,20,27Z"/><path d="M44,12H27L21,6H4A2,2,0,0,0,2,8V40a2,2,0,0,0,2,2H20a2,2,0,0,0,2-2h0a2,2,0,0,0-2-2H6V10H19.34l6,6H42V40a2,2,0,0,0,2,2h0a2,2,0,0,0,2-2V14A2,2,0,0,0,44,12Z"/></g></g></svg>