<svg xmlns="http://www.w3.org/2000/svg" viewBox="0 0 48 48"><defs><style>.cls-1{fill:none;}</style></defs><title>folder-add</title><g id="Layer_2" data-name="Layer 2"><g id="invisible_box" data-name="invisible box"><rect class="cls-1" width="48" height="48"/></g><g id="Layer_3" data-name="Layer 3"><path d="M19.34,10l4.83,4.83L25.34,16H42V38H6V10H19.34M21,6H4A2,2,0,0,0,2,8V40a2,2,0,0,0,2,2H44a2,2,0,0,0,2-2V14a2,2,0,0,0-2-2H27L21,6Z"/><rect x="17" y="25" width="14" height="4" rx="2" ry="2"/><rect x="17" y="25" width="14" height="4" rx="2" ry="2" transform="translate(51 3) rotate(90)"/></g></g></svg>