<svg xmlns="http://www.w3.org/2000/svg" viewBox="0 0 48 48"><defs><style>.cls-1{fill:none;}</style></defs><title>folder-open</title><g id="Layer_2" data-name="Layer 2"><g id="invisible_box" data-name="invisible box"><rect class="cls-1" width="48" height="48"/></g><g id="Layer_3" data-name="Layer 3"><path d="M42,18V14a2,2,0,0,0-2-2H23L17,6H4A2,2,0,0,0,2,8V36a6,6,0,0,0,6,6H44a2,2,0,0,0,2-2V20a2,2,0,0,0-2-2ZM6,10h9.34l4.83,4.83L21.34,16H38v2H12a2,2,0,0,0-2,2V35.88A2.07,2.07,0,0,1,8.34,38,2,2,0,0,1,6,36V10ZM42,38H14V22H42Z"/></g></g></svg>