<svg xmlns="http://www.w3.org/2000/svg" viewBox="0 0 48 48"><defs><style>.cls-1{fill:none;}</style></defs><title>folder-favorite-solid</title><g id="Layer_2" data-name="Layer 2"><g id="invisible_box" data-name="invisible box"><rect class="cls-1" width="48" height="48"/></g><g id="Layer_3" data-name="Layer 3"><path d="M44,12H27L21,6H4A2,2,0,0,0,2,8V40a2,2,0,0,0,2,2H44a2,2,0,0,0,2-2V14A2,2,0,0,0,44,12ZM29.68,26.67l-2.08,2,.49,3.06a1,1,0,0,1-1.51,1.1L24,31l-2.58,1.88a1,1,0,0,1-1.51-1.1l.49-3.06-2.08-2a1,1,0,0,1,.57-1.78l2.89-.42,1.29-2.89a1,1,0,0,1,1.86,0l1.29,2.89,2.89.42A1,1,0,0,1,29.68,26.67Z"/></g></g></svg>