<svg xmlns="http://www.w3.org/2000/svg" viewBox="0 0 48 48"><defs><style>.cls-1{fill:none;}</style></defs><title>folder-merge-solid</title><g id="Layer_2" data-name="Layer 2"><g id="invisible_box" data-name="invisible box"><rect class="cls-1" width="48" height="48"/></g><g id="Layer_3" data-name="Layer 3"><path d="M44.06,12H27L21,6H3.94A1.94,1.94,0,0,0,2,7.94V40.06A1.94,1.94,0,0,0,3.94,42H44.06A1.94,1.94,0,0,0,46,40.06V13.94A1.94,1.94,0,0,0,44.06,12ZM36.53,28.57l-5.92,5.94a2.09,2.09,0,0,1-2.65.3,2,2,0,0,1-.26-3.06l2.58-2.59H23.67l-9.18,9.19a2.07,2.07,0,0,1-2.65.3,2,2,0,0,1-.25-3L20.17,27l-8.58-8.6a2,2,0,0,1,.25-3,2.07,2.07,0,0,1,2.65.3L24,25.16h6.29l-2.59-2.6a2,2,0,0,1,.26-3,2.07,2.07,0,0,1,2.65.29l5.92,5.93A2,2,0,0,1,36.53,28.57Z"/></g></g></svg>