<svg xmlns="http://www.w3.org/2000/svg" viewBox="0 0 48 48"><defs><style>.cls-1{fill:none;}</style></defs><title>forward-circle-solid</title><g id="Layer_2" data-name="Layer 2"><g id="invisible_box" data-name="invisible box"><rect class="cls-1" width="48" height="48"/></g><g id="Layer_3" data-name="Layer 3"><path d="M24.14,1.84A22,22,0,1,0,46,24,22,22,0,0,0,24.14,1.84Zm-.68,23-7.83,4.8a1.1,1.1,0,0,1-1.66-1l.06-9.7a1.11,1.11,0,0,1,1.68-1l7.76,4.91A1.16,1.16,0,0,1,23.46,24.82Zm12,.08-7.83,4.8a1.1,1.1,0,0,1-1.66-1L26,19a1.11,1.11,0,0,1,1.68-1l7.76,4.91A1.16,1.16,0,0,1,35.46,24.9Z"/></g></g></svg>