<svg xmlns="http://www.w3.org/2000/svg" viewBox="0 0 48 48"><defs><style>.cls-1{fill:none;}</style></defs><title>forward-circle</title><g id="Layer_2" data-name="Layer 2"><g id="invisible_box" data-name="invisible box"><rect class="cls-1" width="48" height="48"/></g><g id="Layer_3" data-name="Layer 3"><path d="M24,2A22,22,0,1,0,46,24,22,22,0,0,0,24,2Zm0,40A18,18,0,1,1,42,24,18,18,0,0,1,24,42Z"/><path d="M14,19.15v9.7a1.1,1.1,0,0,0,1.67,1L23.46,25a1.16,1.16,0,0,0,0-2l-7.79-4.85A1.1,1.1,0,0,0,14,19.15Z"/><path d="M26,19.15v9.7a1.1,1.1,0,0,0,1.67,1L35.46,25a1.16,1.16,0,0,0,0-2l-7.79-4.85A1.1,1.1,0,0,0,26,19.15Z"/><path d="M24,2A22,22,0,1,0,46,24,22,22,0,0,0,24,2Zm0,40A18,18,0,1,1,42,24,18,18,0,0,1,24,42Z"/></g></g></svg>