<svg xmlns="http://www.w3.org/2000/svg" viewBox="0 0 48 48"><defs><style>.cls-1{fill:none;}</style></defs><title>grid</title><g id="Layer_2" data-name="Layer 2"><g id="invisible_box" data-name="invisible box"><rect class="cls-1" width="48" height="48"/></g><g id="Layer_3" data-name="Layer 3"><path d="M10,44V4a2,2,0,0,1,4,0V44a2,2,0,0,1-4,0Z"/><path d="M22,44V4a2,2,0,0,1,4,0V44a2,2,0,0,1-4,0Z"/><path d="M34,44V4a2,2,0,0,1,4,0V44a2,2,0,0,1-4,0Z"/><path d="M4,10H44a2,2,0,0,1,0,4H4a2,2,0,0,1,0-4Z"/><path d="M4,22H44a2,2,0,0,1,0,4H4a2,2,0,0,1,0-4Z"/><path d="M4,34H44a2,2,0,0,1,0,4H4a2,2,0,0,1,0-4Z"/></g></g></svg>