<svg xmlns="http://www.w3.org/2000/svg" viewBox="0 0 48 48"><defs><style>.cls-1{fill:none;}</style></defs><title>hash</title><g id="Layer_2" data-name="Layer 2"><g id="invisible_box" data-name="invisible box"><rect class="cls-1" width="48" height="48"/></g><g id="Layer_3" data-name="Layer 3"><path d="M18,4h0a2,2,0,0,1,2,2L16,42a2,2,0,0,1-2,2h0a2,2,0,0,1-2-2L16,6A2,2,0,0,1,18,4Z"/><path d="M34,4h0a2,2,0,0,1,2,2L32,42a2,2,0,0,1-2,2h0a2,2,0,0,1-2-2L32,6A2,2,0,0,1,34,4Z"/><rect x="22" y="-4" width="4" height="40" rx="2" ry="2" transform="translate(8 40) rotate(-90)"/><rect x="22" y="12" width="4" height="40" rx="2" ry="2" transform="translate(-8 56) rotate(-90)"/></g></g></svg>