<svg xmlns="http://www.w3.org/2000/svg" viewBox="0 0 48 48"><defs><style>.cls-1{fill:none;}</style></defs><title>heart-health-solid</title><g id="Layer_2" data-name="Layer 2"><g id="invisible_box" data-name="invisible box"><rect class="cls-1" width="48" height="48"/></g><g id="Layer_3" data-name="Layer 3"><path d="M42.47,7.64A11.78,11.78,0,0,0,34,4c-3.9,0-8,3.07-10,6.47C22,7.07,17.94,4,14,4A11.78,11.78,0,0,0,5.53,7.64,11.89,11.89,0,0,0,2,16.14,11.62,11.62,0,0,0,3.77,22h10.1l3.27-5.46a1,1,0,0,1,1.72,0L24,25.11,25.87,22h8A2.07,2.07,0,0,1,36,23.66,2,2,0,0,1,34,26H28.13l-3.27,5.46a1,1,0,0,1-1.72,0L18,22.89,16.13,26H6.78a2.62,2.62,0,0,0,.22.25c2,2.2,13.29,14.24,16.27,17.43a1,1,0,0,0,1.46,0C27.71,40.49,39,28.45,41,26.25c2.35-2.54,5-6.08,5-10.11A11.89,11.89,0,0,0,42.47,7.64Z"/></g></g></svg>