<svg xmlns="http://www.w3.org/2000/svg" viewBox="0 0 48 48"><defs><style>.cls-1{fill:none;}</style></defs><title>heart-health</title><g id="Layer_2" data-name="Layer 2"><g id="invisible_box" data-name="invisible box"><rect class="cls-1" width="48" height="48"/></g><g id="Layer_3" data-name="Layer 3"><path d="M42.47,7.64A11.78,11.78,0,0,0,34,4c-3.9,0-8,3.07-10,6.47C22,7.07,17.94,4,14,4A11.78,11.78,0,0,0,5.53,7.64,11.89,11.89,0,0,0,2,16.14,9.46,9.46,0,0,0,2.19,18H6.34A6.06,6.06,0,0,1,6,16.14a7.79,7.79,0,0,1,2.39-5.65A7.75,7.75,0,0,1,14,8.08c2.14,0,5.05,2,6.5,4.47L23.14,17a1,1,0,0,0,1.72,0l2.6-4.41c1.45-2.46,4.36-4.47,6.5-4.47A7.76,7.76,0,0,1,39.6,10.5,7.78,7.78,0,0,1,42,16.14c0,2.08-1.28,4.47-3.91,7.31L24,38.53,16,30H10.49L23.27,43.68a1,1,0,0,0,1.46,0C27.71,40.49,39,28.45,41,26.25c2.35-2.54,5-6.08,5-10.11A11.89,11.89,0,0,0,42.47,7.64Z"/><path d="M23.14,31.46,18,22.89,16.13,26h-9A2.07,2.07,0,0,1,5,24.34,2,2,0,0,1,7,22h6.87l3.27-5.46a1,1,0,0,1,1.72,0L24,25.11,25.87,22h14A2.07,2.07,0,0,1,42,23.66,2,2,0,0,1,40,26H28.13l-3.27,5.46A1,1,0,0,1,23.14,31.46Z"/></g></g></svg>