<svg xmlns="http://www.w3.org/2000/svg" viewBox="0 0 48 48"><defs><style>.cls-1{fill:none;}</style></defs><title>heart-like</title><g id="Layer_2" data-name="Layer 2"><g id="invisible_box" data-name="invisible box"><rect class="cls-1" width="48" height="48"/></g><g id="Layer_3" data-name="Layer 3"><path d="M34,8.08A7.76,7.76,0,0,1,39.6,10.5,7.78,7.78,0,0,1,42,16.14c0,2.08-1.28,4.47-3.91,7.31L24,38.53,9.94,23.47C7.3,20.61,6,18.22,6,16.14a7.79,7.79,0,0,1,2.39-5.65A7.75,7.75,0,0,1,14,8.08c2.14,0,5.05,2,6.5,4.47L23.14,17a1,1,0,0,0,1.72,0l2.6-4.41c1.45-2.46,4.36-4.47,6.5-4.47M34,4c-3.9,0-8,3.07-10,6.47C22,7.07,17.94,4,14,4A11.78,11.78,0,0,0,5.53,7.64,11.89,11.89,0,0,0,2,16.14c0,4,2.65,7.57,5,10.11,2,2.2,13.29,14.24,16.27,17.43a1,1,0,0,0,1.46,0C27.71,40.49,39,28.45,41,26.25c2.35-2.54,5-6.08,5-10.11a11.89,11.89,0,0,0-3.53-8.5A11.78,11.78,0,0,0,34,4Z"/></g></g></svg>