<svg xmlns="http://www.w3.org/2000/svg" viewBox="0 0 48 48"><defs><style>.cls-1{fill:none;}</style></defs><title>heart-like-solid</title><g id="Layer_2" data-name="Layer 2"><g id="invisible_box" data-name="invisible box"><rect class="cls-1" width="48" height="48"/></g><g id="Layer_3" data-name="Layer 3"><path d="M34,4c-3.9,0-8,3.07-10,6.47C22,7.07,17.94,4,14,4A11.78,11.78,0,0,0,5.53,7.64,11.89,11.89,0,0,0,2,16.14c0,4,2.65,7.57,5,10.11,2,2.2,13.29,14.24,16.27,17.43a1,1,0,0,0,1.46,0C27.71,40.49,39,28.45,41,26.25c2.35-2.54,5-6.08,5-10.11a11.89,11.89,0,0,0-3.53-8.5A11.78,11.78,0,0,0,34,4Z"/></g></g></svg>