<svg xmlns="http://www.w3.org/2000/svg" viewBox="0 0 48 48"><defs><style>.cls-1{fill:none;}</style></defs><title>help-circle</title><g id="Layer_2" data-name="Layer 2"><g id="invisible_box" data-name="invisible box"><rect class="cls-1" width="48" height="48"/></g><g id="Layer_3" data-name="Layer 3"><path d="M24,2A22,22,0,1,0,46,24,22,22,0,0,0,24,2Zm0,40A18,18,0,1,1,42,24,18,18,0,0,1,24,42Z"/><path d="M24,38a1.72,1.72,0,0,1-.39,0,2.26,2.26,0,0,1-.37-.11,2,2,0,0,1-.35-.19,2.16,2.16,0,0,1-.55-.55,2.27,2.27,0,0,1-.19-.34,2.72,2.72,0,0,1-.11-.38,1.92,1.92,0,0,1,0-.78,2.26,2.26,0,0,1,.11-.37,2,2,0,0,1,.19-.35,1.42,1.42,0,0,1,.25-.3,2,2,0,0,1,1.8-.55,2.72,2.72,0,0,1,.38.11,2.27,2.27,0,0,1,.34.19,2.16,2.16,0,0,1,.55.55,2,2,0,0,1,.19.35,2.26,2.26,0,0,1,.11.37,1.92,1.92,0,0,1,0,.78,2.72,2.72,0,0,1-.11.38,2.27,2.27,0,0,1-.19.34,2.16,2.16,0,0,1-.55.55,2.27,2.27,0,0,1-.34.19,2.72,2.72,0,0,1-.38.11A1.72,1.72,0,0,1,24,38Z"/><path d="M24.36,30a1.91,1.91,0,0,1-.74-.14,2,2,0,0,1-1.12-2.6,7.11,7.11,0,0,1,3.65-3.86A4.92,4.92,0,0,0,25,14.1a5,5,0,0,0-4.23,1A4.87,4.87,0,0,0,19,18.93a2,2,0,0,1-4,0,8.9,8.9,0,0,1,3.25-6.87,9.05,9.05,0,0,1,7.53-1.88A8.92,8.92,0,0,1,27.84,27a3.14,3.14,0,0,0-1.62,1.72A2,2,0,0,1,24.36,30Z"/></g></g></svg>