<svg xmlns="http://www.w3.org/2000/svg" viewBox="0 0 48 48"><defs><style>.cls-1{fill:none;}</style></defs><title>home</title><g id="Layer_2" data-name="Layer 2"><g id="invisible_box" data-name="invisible box"><rect class="cls-1" width="48" height="48"/></g><g id="Layer_3" data-name="Layer 3"><path d="M24,7.05,40,21.57V40H33V25.87a2,2,0,0,0-2-2H17a2,2,0,0,0-2,2V40H8V21.57L24,7.05m0-5a1.05,1.05,0,0,0-.68.26l-18.67,17A2,2,0,0,0,4,20.67V44H19V27.87H29V44H44V20.67a2,2,0,0,0-.65-1.46l-18.67-17A1.05,1.05,0,0,0,24,2Z"/></g></g></svg>