<svg xmlns="http://www.w3.org/2000/svg" viewBox="0 0 48 48"><defs><style>.cls-1{fill:none;}</style></defs><title>horoscope</title><g id="Layer_2" data-name="Layer 2"><g id="invisible_box" data-name="invisible box"><rect class="cls-1" width="48" height="48"/></g><g id="Layer_3" data-name="Layer 3"><path d="M35,32.41V11.58a26.2,26.2,0,0,0,8.49-6.24,2,2,0,0,0-3-2.68A22.16,22.16,0,0,1,24,10,22.16,22.16,0,0,1,7.49,2.67a2,2,0,0,0-3,2.66A25.84,25.84,0,0,0,13,11.59V32.42a26.2,26.2,0,0,0-8.49,6.24,2,2,0,0,0,3,2.68,22.25,22.25,0,0,1,33,0,2,2,0,1,0,3-2.66A25.84,25.84,0,0,0,35,32.41ZM17,31V13.05A26.67,26.67,0,0,0,24,14a26.22,26.22,0,0,0,7-.95V31A26.67,26.67,0,0,0,24,30,26.22,26.22,0,0,0,17,31Z"/></g></g></svg>