<svg xmlns="http://www.w3.org/2000/svg" viewBox="0 0 48 48"><defs><style>.cls-1{fill:none;}</style></defs><title>hourglass</title><g id="Layer_2" data-name="Layer 2"><g id="invisible_box" data-name="invisible box"><rect class="cls-1" width="48" height="48"/></g><g id="Layer_3" data-name="Layer 3"><path d="M40,42H38V34.49a8,8,0,0,0-2.34-5.66L30.83,24l4.83-4.83A8,8,0,0,0,38,13.51V6h2a2,2,0,0,0,0-4H8A2,2,0,0,0,8,6h2v7.51a8,8,0,0,0,2.34,5.66L17.17,24l-4.83,4.84A7.88,7.88,0,0,0,10,34.47V42H8a2,2,0,0,0,0,4H40a2,2,0,0,0,0-4ZM15.16,31.66l6.25-6.25a2,2,0,0,0,0-2.82l-6.24-6.25A4,4,0,0,1,14,13.51V6H34v7.51a4,4,0,0,1-1.17,2.83l-6.24,6.25a2,2,0,0,0,0,2.82l6.24,6.25A4,4,0,0,1,34,34.49v6.28l-7.15-7.26a4,4,0,0,0-5.7,0L14,40.77v-6.3A4,4,0,0,1,15.16,31.66ZM29.6,42H18.4L24,36.32Z"/></g></g></svg>