<svg xmlns="http://www.w3.org/2000/svg" viewBox="0 0 48 48"><defs><style>.cls-1{fill:none;}</style></defs><title>infrastructure-solid</title><g id="Layer_2" data-name="Layer 2"><g id="invisible_box" data-name="invisible box"><rect class="cls-1" width="48" height="48"/></g><g id="Layer_3" data-name="Layer 3"><circle cx="24" cy="24" r="2"/><circle cx="24" cy="16" r="2"/><circle cx="24" cy="8" r="2"/><circle cx="24" cy="40" r="2"/><circle cx="24" cy="32" r="2"/><circle cx="32" cy="24" r="2"/><circle cx="40" cy="24" r="2"/><circle cx="8" cy="24" r="2"/><circle cx="16" cy="24" r="2"/><path d="M42,12a4,4,0,0,0-3.46,2H34V9.46a4,4,0,1,0-4,0V18h8.54A4,4,0,1,0,42,12Z"/><path d="M2,16a4,4,0,0,0,7.46,2H18V9.46a4,4,0,1,0-4,0V14H9.46A4,4,0,0,0,2,16Z"/><path d="M42,28a4,4,0,0,0-3.46,2H30v8.54a4,4,0,1,0,4,0V34h4.54A4,4,0,1,0,42,28Z"/><path d="M18,38.54V30H9.46a4,4,0,1,0,0,4H14v4.54a4,4,0,1,0,4,0Z"/></g></g></svg>