<svg xmlns="http://www.w3.org/2000/svg" viewBox="0 0 48 48"><defs><style>.cls-1{fill:none;}</style></defs><title>input</title><g id="Layer_2" data-name="Layer 2"><g id="invisible_box" data-name="invisible box"><rect class="cls-1" width="48" height="48"/></g><g id="Layer_3" data-name="Layer 3"><path d="M8,9.72a2,2,0,0,1,.6-1.43A22,22,0,1,1,24,46,21.87,21.87,0,0,1,8.6,39.71a2,2,0,1,1,2.8-2.85,18,18,0,1,0,0-25.71A2,2,0,0,1,8,9.72Z"/><path d="M33.41,22.58l-7.92-7.93a2.07,2.07,0,0,0-2.65-.3,2,2,0,0,0-.25,3L27.18,22H4a2,2,0,0,0-2,2H2a2,2,0,0,0,2,2H27.17l-4.58,4.6a2,2,0,0,0,.25,3,2.07,2.07,0,0,0,2.65-.3l7.92-7.94A2,2,0,0,0,33.41,22.58Z"/></g></g></svg>