<svg xmlns="http://www.w3.org/2000/svg" viewBox="0 0 48 48"><defs><style>.cls-1{fill:none;}</style></defs><title>input-solid</title><g id="Layer_2" data-name="Layer 2"><g id="invisible_box" data-name="invisible box"><rect class="cls-1" width="48" height="48"/></g><g id="Layer_3" data-name="Layer 3"><path d="M46,24A22,22,0,1,0,24,46,22,22,0,0,0,46,24ZM21.84,32.65a2,2,0,0,1-.25-3L25.17,26H8a2,2,0,0,1-2-2,2,2,0,0,1,2-2H25.18l-3.59-3.6a2,2,0,0,1,.25-3,2.07,2.07,0,0,1,2.65.3l6.92,6.93a2,2,0,0,1,0,2.83l-6.92,6.94A2.07,2.07,0,0,1,21.84,32.65ZM11.27,36.73A2,2,0,1,1,14.1,33.9a14,14,0,1,0,0-19.8,2,2,0,0,1-2.83-2.83,18,18,0,1,1,0,25.46Z"/><path d="M46,24A22,22,0,1,0,24,46,22,22,0,0,0,46,24ZM21.84,32.65a2,2,0,0,1-.25-3L25.17,26H8a2,2,0,0,1-2-2,2,2,0,0,1,2-2H25.18l-3.59-3.6a2,2,0,0,1,.25-3,2.07,2.07,0,0,1,2.65.3l6.92,6.93a2,2,0,0,1,0,2.83l-6.92,6.94A2.07,2.07,0,0,1,21.84,32.65ZM11.27,36.73A2,2,0,1,1,14.1,33.9a14,14,0,1,0,0-19.8,2,2,0,0,1-2.83-2.83,18,18,0,1,1,0,25.46Z"/></g></g></svg>