<svg xmlns="http://www.w3.org/2000/svg" viewBox="0 0 48 48"><defs><style>.cls-1{fill:none;}</style></defs><title>key-circle</title><g id="Layer_2" data-name="Layer 2"><g id="invisible_box" data-name="invisible box"><rect class="cls-1" width="48" height="48"/></g><g id="Layer_3" data-name="Layer 3"><path d="M24,2A22,22,0,1,0,46,24,22,22,0,0,0,24,2Zm0,40A18,18,0,1,1,42,24,18,18,0,0,1,24,42Z"/><path d="M25.16,22.33a7,7,0,1,0-2.83,2.83L25.17,28l-2.58,2.59a2,2,0,1,0,2.82,2.82L28,30.83,29.17,32l-2.58,2.59a2,2,0,1,0,2.82,2.82l4-4a2,2,0,0,0,0-2.82ZM16,19a3,3,0,1,1,3,3A3,3,0,0,1,16,19Z"/></g></g></svg>