<svg xmlns="http://www.w3.org/2000/svg" viewBox="0 0 48 48"><defs><style>.cls-1{fill:none;}</style></defs><title>key-circle-solid</title><g id="Layer_2" data-name="Layer 2"><g id="invisible_box" data-name="invisible box"><rect class="cls-1" width="48" height="48"/></g><g id="Layer_3" data-name="Layer 3"><path d="M24,2A22,22,0,1,0,46,24,22,22,0,0,0,24,2Zm9.41,31.41-4,4a2,2,0,0,1-2.82-2.82L29.17,32,28,30.83l-2.59,2.58a2,2,0,1,1-2.82-2.82L25.17,28l-2.84-2.84a7,7,0,1,1,2.83-2.83l8.25,8.26A2,2,0,0,1,33.41,33.41ZM19,16a3,3,0,1,0,3,3A3,3,0,0,0,19,16Z"/><path d="M19,16a3,3,0,1,0,3,3A3,3,0,0,0,19,16Zm0,0a3,3,0,1,0,3,3A3,3,0,0,0,19,16Z"/></g></g></svg>