<svg xmlns="http://www.w3.org/2000/svg" viewBox="0 0 48 48"><defs><style>.cls-1{fill:none;}</style></defs><title>key</title><g id="Layer_2" data-name="Layer 2"><g id="invisible_box" data-name="invisible box"><rect class="cls-1" width="48" height="48"/></g><g id="Layer_3" data-name="Layer 3"><path d="M40.41,34.59,27.06,21.23a11,11,0,1,0-2.83,2.83L30.17,30l-4.58,4.59a2,2,0,1,0,2.82,2.82L33,32.83,36.17,36l-4.58,4.59a2,2,0,1,0,2.82,2.82l6-6A2,2,0,0,0,40.41,34.59ZM11,15a7,7,0,1,1,7,7A7,7,0,0,1,11,15Z"/></g></g></svg>