<svg xmlns="http://www.w3.org/2000/svg" viewBox="0 0 48 48"><defs><style>.cls-1{fill:none;}</style></defs><title>last-page-solid</title><g id="Layer_2" data-name="Layer 2"><g id="invisible_box" data-name="invisible box"><rect class="cls-1" width="48" height="48"/></g><g id="Layer_3" data-name="Layer 3"><path d="M34,42V6a2,2,0,0,1,4,0V42a2,2,0,0,1-4,0Z"/><path d="M21.17,24,10.59,34.6a2,2,0,0,0,.25,3,2.07,2.07,0,0,0,2.65-.3L25.41,25.41a2,2,0,0,0,0-2.83L13.49,10.65a2.07,2.07,0,0,0-2.65-.3,2,2,0,0,0-.25,3.05Z"/></g></g></svg>