<svg xmlns="http://www.w3.org/2000/svg" viewBox="0 0 48 48"><defs><style>.cls-1{fill:none;}</style></defs><title>layout-three-solid</title><g id="Layer_2" data-name="Layer 2"><g id="invisible_box" data-name="invisible box"><rect class="cls-1" width="48" height="48"/><rect class="cls-1" width="48" height="48"/><rect class="cls-1" width="48" height="48"/></g><g id="Layer_3" data-name="Layer 3"><path d="M4,6H44a2,2,0,0,1,2,2v8a0,0,0,0,1,0,0H2a0,0,0,0,1,0,0V8A2,2,0,0,1,4,6Z"/><path d="M2,20H12a2,2,0,0,1,2,2V42a0,0,0,0,1,0,0H2a0,0,0,0,1,0,0V20A0,0,0,0,1,2,20Z" transform="translate(16 62) rotate(180)"/><rect x="18" y="20" width="12" height="22" transform="translate(48 62) rotate(180)"/><path d="M34,20H46a0,0,0,0,1,0,0V40a2,2,0,0,1-2,2H34a0,0,0,0,1,0,0V20a0,0,0,0,1,0,0Z"/></g></g></svg>