<svg xmlns="http://www.w3.org/2000/svg" viewBox="0 0 48 48"><defs><style>.cls-1{fill:none;}</style></defs><title>link-solid</title><g id="Layer_2" data-name="Layer 2"><g id="invisible_box" data-name="invisible box"><rect class="cls-1" width="48" height="48"/></g><g id="Layer_3" data-name="Layer 3"><path d="M13.89,44a9.89,9.89,0,0,1-7-16.89l7.2-7.2a9.91,9.91,0,0,1,14,0,2,2,0,0,1-2.83,2.83,5.91,5.91,0,0,0-8.35,0L9.73,29.92a5.9,5.9,0,0,0,8.35,8.35l4.48-4.66a2,2,0,0,1,2.88,2.78l-4.51,4.68A9.91,9.91,0,0,1,13.89,44Z"/><path d="M26.9,31a9.88,9.88,0,0,1-7-2.9,2,2,0,0,1,2.83-2.83,5.91,5.91,0,0,0,8.35,0l7.19-7.19a5.9,5.9,0,0,0-8.35-8.35l-4.48,4.66a2,2,0,1,1-2.88-2.78l4.51-4.68a9.9,9.9,0,1,1,14,14l-7.2,7.2A9.87,9.87,0,0,1,26.9,31Z"/></g></g></svg>