<svg xmlns="http://www.w3.org/2000/svg" viewBox="0 0 48 48"><defs><style>.cls-1{fill:none;}</style></defs><title>list-check-solid</title><g id="Layer_2" data-name="Layer 2"><g id="invisible_box" data-name="invisible box"><rect class="cls-1" width="48" height="48"/></g><g id="Layer_3" data-name="Layer 3"><path d="M24,12h0a2,2,0,0,1,2-2H42a2,2,0,0,1,2,2h0a2,2,0,0,1-2,2H26A2,2,0,0,1,24,12Z"/><path d="M24,24h0a2,2,0,0,1,2-2H42a2,2,0,0,1,2,2h0a2,2,0,0,1-2,2H26A2,2,0,0,1,24,24Z"/><path d="M24,36h0a2,2,0,0,1,2-2H42a2,2,0,0,1,2,2h0a2,2,0,0,1-2,2H26A2,2,0,0,1,24,36Z"/><rect x="9" y="21" width="4" height="6" rx="2" ry="2" transform="translate(35 13) rotate(90)"/><rect x="9" y="33" width="4" height="6" rx="2" ry="2" transform="translate(47 25) rotate(90)"/><path d="M9.57,15.41,5.65,11.49a2.07,2.07,0,0,1-.3-2.65A2,2,0,0,1,8.4,8.59L11,11.17l8.59-8.58a2,2,0,0,1,2.83,2.82l-10,10A2,2,0,0,1,9.57,15.41Z"/></g></g></svg>