<svg xmlns="http://www.w3.org/2000/svg" viewBox="0 0 48 48"><defs><style>.cls-1{fill:none;}</style></defs><title>list-solid</title><g id="Layer_2" data-name="Layer 2"><g id="invisible_box" data-name="invisible box"><rect class="cls-1" width="48" height="48"/></g><g id="Layer_3" data-name="Layer 3"><rect x="7" y="21" width="4" height="6" rx="2" ry="2" transform="translate(33 15) rotate(90)"/><rect x="7" y="9" width="4" height="6" rx="2" ry="2" transform="translate(21 3) rotate(90)"/><rect x="7" y="33" width="4" height="6" rx="2" ry="2" transform="translate(45 27) rotate(90)"/><path d="M17,24h0a2,2,0,0,1,2-2H39a2,2,0,0,1,2,2h0a2,2,0,0,1-2,2H19A2,2,0,0,1,17,24Z"/><path d="M17,12h0a2,2,0,0,1,2-2H39a2,2,0,0,1,2,2h0a2,2,0,0,1-2,2H19A2,2,0,0,1,17,12Z"/><path d="M17,36h0a2,2,0,0,1,2-2H39a2,2,0,0,1,2,2h0a2,2,0,0,1-2,2H19A2,2,0,0,1,17,36Z"/></g></g></svg>