<svg xmlns="http://www.w3.org/2000/svg" viewBox="0 0 48 48"><defs><style>.cls-1{fill:none;}</style></defs><title>location-not-found-solid</title><g id="Layer_2" data-name="Layer 2"><g id="invisible_box" data-name="invisible box"><rect class="cls-1" width="48" height="48"/></g><g id="Layer_3" data-name="Layer 3"><path d="M24,2C14.06,2,7,10.1,7,20,7,30.08,18.49,41.31,22.58,45.41a2,2,0,0,0,2.84,0C29.51,41.31,41,30.08,41,20,41,10.1,33.94,2,24,2Zm0,8a9,9,0,0,1,4.79,1.38L16.38,23.79A9,9,0,0,1,24,10Zm0,18a9,9,0,0,1-4.79-1.38L31.62,14.21A9,9,0,0,1,24,28Z"/></g></g></svg>