<svg xmlns="http://www.w3.org/2000/svg" viewBox="0 0 48 48"><defs><style>.cls-1{fill:none;}</style></defs><title>location-edit</title><g id="Layer_2" data-name="Layer 2"><g id="invisible_box" data-name="invisible box"><rect class="cls-1" width="48" height="48"/></g><g id="Layer_3" data-name="Layer 3"><path d="M35.45,26.13C32.77,32,27.24,37.89,24,41.17,19.61,36.72,11,27.48,11,20c0-8,5.59-14,13-14h0a2,2,0,0,0,2-2h0a2,2,0,0,0-2-2h0C14.06,2,7,10.1,7,20,7,30.08,18.49,41.31,22.58,45.41a2,2,0,0,0,2.84,0c3-3,10.19-10.06,13.65-17.6A2,2,0,0,0,37.25,25h0A2,2,0,0,0,35.45,26.13Z"/><path d="M40.41,13.36,32.64,5.59a2,2,0,0,0-2.82,0L17.59,17.82A2,2,0,0,0,17,19.24V27a2,2,0,0,0,2,2h7.76a2,2,0,0,0,1.41-.59L40.41,16.18A2,2,0,0,0,40.41,13.36ZM21,25V20.07l5.37-5.37,4.93,4.93L25.93,25Zm13.13-8.19-4.94-4.94,2-2,4.93,4.93Z"/></g></g></svg>