<svg xmlns="http://www.w3.org/2000/svg" viewBox="0 0 48 48"><defs><style>.cls-1{fill:none;}</style></defs><title>location-not-found</title><g id="Layer_2" data-name="Layer 2"><g id="invisible_box" data-name="invisible box"><rect class="cls-1" width="48" height="48"/></g><g id="Layer_3" data-name="Layer 3"><path d="M24,6c7.41,0,13,6,13,14,0,7.49-8.61,16.72-13,21.17C19.61,36.72,11,27.48,11,20c0-8,5.59-14,13-14m0-4C14.06,2,7,10.1,7,20,7,30.08,18.49,41.31,22.58,45.41a2,2,0,0,0,2.84,0C29.51,41.31,41,30.08,41,20c0-9.9-7.06-18-17-18Z"/><path d="M24,10a9,9,0,1,0,9,9A9,9,0,0,0,24,10Zm0,4a4.89,4.89,0,0,1,1.8.35l-6.44,6.48A4.85,4.85,0,0,1,19,19,5,5,0,0,1,24,14Zm0,10a4.89,4.89,0,0,1-1.8-.35l6.44-6.48A4.85,4.85,0,0,1,29,19,5,5,0,0,1,24,24Z"/></g></g></svg>