<svg xmlns="http://www.w3.org/2000/svg" viewBox="0 0 48 48"><defs><style>.cls-1{fill:none;}</style></defs><title>location-edit</title><g id="Layer_2" data-name="Layer 2"><g id="invisible_box" data-name="invisible box"><rect class="cls-1" width="48" height="48"/></g><g id="Layer_3" data-name="Layer 3"><path d="M24,2C14.06,2,7,10.1,7,20,7,30.08,18.49,41.31,22.58,45.41a2,2,0,0,0,2.84,0C29.51,41.31,41,30.08,41,20,41,10.1,33.94,2,24,2Zm-.83,27.41a2,2,0,0,1-1.41.59H16a2,2,0,0,1-2-2V22.24a2,2,0,0,1,.59-1.42L21,14.37,29.63,23Zm9.29-9.28-8.59-8.59,2.95-2.95a2,2,0,0,1,2.82,0l5.77,5.77a2,2,0,0,1,0,2.82Z"/></g></g></svg>