<svg xmlns="http://www.w3.org/2000/svg" viewBox="0 0 48 48"><defs><style>.cls-1{fill:none;}</style></defs><title>location-pin</title><g id="Layer_2" data-name="Layer 2"><g id="invisible_box" data-name="invisible box"><rect class="cls-1" width="48" height="48"/></g><g id="Layer_3" data-name="Layer 3"><path d="M24,44a2,2,0,0,1-2-2V26c0-1.1.9-1,2-1h0c1.1,0,2-.1,2,1V42a2,2,0,0,1-2,2Z"/><path d="M24,28A12,12,0,1,1,36,16,12,12,0,0,1,24,28ZM24,8a8,8,0,1,0,8,8A8,8,0,0,0,24,8Z"/><circle cx="24" cy="16" r="4"/></g></g></svg>