<svg xmlns="http://www.w3.org/2000/svg" viewBox="0 0 48 48"><defs><style>.cls-1{fill:none;}</style></defs><title>location-current</title><g id="Layer_2" data-name="Layer 2"><g id="invisible_box" data-name="invisible box"><rect class="cls-1" width="48" height="48"/></g><g id="Layer_3" data-name="Layer 3"><path d="M8,26H4a2,2,0,0,1,0-4H8a2,2,0,0,1,0,4Z"/><path d="M44,26H39a2,2,0,0,1,0-4h5a2,2,0,0,1,0,4Z"/><path d="M22,8V4a2,2,0,0,1,4,0V8a2,2,0,0,1-4,0Z"/><path d="M22,44V40a2,2,0,0,1,4,0v4a2,2,0,0,1-4,0Z"/><path d="M24,12A12,12,0,1,1,12,24,12,12,0,0,1,24,12m0-4A16,16,0,1,0,40,24,16,16,0,0,0,24,8Z"/><circle cx="24" cy="24" r="7"/></g></g></svg>