<svg xmlns="http://www.w3.org/2000/svg" viewBox="0 0 48 48"><defs><style>.cls-1{fill:none;}</style></defs><title>lock-close-solid</title><g id="Layer_2" data-name="Layer 2"><g id="invisible_box" data-name="invisible box"><rect class="cls-1" width="48" height="48"/></g><g id="Layer_3" data-name="Layer 3"><path d="M40,18H36V13A11,11,0,0,0,25,2H23A11,11,0,0,0,12,13v5H8a2,2,0,0,0-2,2V44a2,2,0,0,0,2,2H40a2,2,0,0,0,2-2V20A2,2,0,0,0,40,18ZM25.9,33.37v2.55a2,2,0,0,1-4,0V33.37a4,4,0,1,1,4,0ZM32,18H16V13a7,7,0,0,1,7-7h2a7,7,0,0,1,7,7Z"/></g></g></svg>