<svg xmlns="http://www.w3.org/2000/svg" viewBox="0 0 48 48"><defs><style>.cls-1{fill:none;}</style></defs><title>map</title><g id="Layer_2" data-name="Layer 2"><g id="invisible_box" data-name="invisible box"><rect class="cls-1" width="48" height="48"/></g><g id="Layer_3" data-name="Layer 3"><path d="M44,4.6a1.91,1.91,0,0,0-.52.07L31.53,7.86a2.24,2.24,0,0,1-.51.07,2,2,0,0,1-.55-.08L17.53,4.15A2,2,0,0,0,17,4.07a2.24,2.24,0,0,0-.51.07L3.48,7.6A2,2,0,0,0,2,9.54V41.4a2,2,0,0,0,2,2,1.91,1.91,0,0,0,.52-.07l12-3.19a2.24,2.24,0,0,1,.51-.07,2,2,0,0,1,.55.08l12.94,3.7a2,2,0,0,0,.55.08,2.24,2.24,0,0,0,.51-.07l13-3.46A2,2,0,0,0,46,38.46V6.6A2,2,0,0,0,44,4.6ZM19,8.73l10,2.86V39.27L19,36.41ZM6,11.07l9-2.4V36.39l-9,2.4ZM42,36.93l-9,2.4V11.61l9-2.4Z"/></g></g></svg>