<svg xmlns="http://www.w3.org/2000/svg" viewBox="0 0 48 48"><defs><style>.cls-1{fill:none;}</style></defs><title>medal-solid</title><g id="Layer_2" data-name="Layer 2"><g id="invisible_box" data-name="invisible box"><rect class="cls-1" width="48" height="48"/></g><g id="Layer_3" data-name="Layer 3"><path d="M43.41,4.59a2,2,0,0,0-2.82,0L30,15.17A16.12,16.12,0,0,0,24.79,14l6.62-6.63a2,2,0,0,0-2.82-2.82L24.5,8.67,20.41,4.59a2,2,0,0,0-2.82,2.82l4.08,4.09L18,15.17,7.41,4.59A2,2,0,0,0,4.59,7.41l9.81,9.81a16,16,0,1,0,19.2,0l9.81-9.81A2,2,0,0,0,43.41,4.59ZM29.68,29.67l-2.08,2,.49,3.06a1,1,0,0,1-1.51,1.1L24,34l-2.58,1.88a1,1,0,0,1-1.51-1.1l.49-3.06-2.08-2a1,1,0,0,1,.57-1.78l2.89-.42,1.29-2.89a1,1,0,0,1,1.86,0l1.29,2.89,2.89.42A1,1,0,0,1,29.68,29.67Z"/></g></g></svg>