<svg xmlns="http://www.w3.org/2000/svg" viewBox="0 0 48 48"><defs><style>.cls-1{fill:none;}</style></defs><title>memory-chip-solid</title><g id="Layer_2" data-name="Layer 2"><g id="invisible_box" data-name="invisible box"><rect class="cls-1" width="48" height="48"/></g><g id="Layer_3" data-name="Layer 3"><path d="M44,28H40V20h4a2,2,0,0,0,0-4H40V10a2,2,0,0,0-2-2H32V4a2,2,0,0,0-4,0V8H20V4a2,2,0,0,0-4,0V8H10a2,2,0,0,0-2,2v6H4a2,2,0,0,0,0,4H8v8H4a2,2,0,0,0,0,4H8v6a2,2,0,0,0,2,2h6v4a2,2,0,0,0,4,0V40h8v4a2,2,0,0,0,4,0V40h6a2,2,0,0,0,2-2V32h4a2,2,0,0,0,0-4ZM32,32H16V16H32ZM28,20H20v8h8Z"/></g></g></svg>