<svg xmlns="http://www.w3.org/2000/svg" viewBox="0 0 48 48"><defs><style>.cls-1{fill:none;}</style></defs><title>memory-card</title><g id="Layer_2" data-name="Layer 2"><g id="invisible_box" data-name="invisible box"><rect class="cls-1" width="48" height="48"/></g><g id="Layer_3" data-name="Layer 3"><path d="M30.34,6,38,13.67V42H10V6H30.34M32,2H8A2,2,0,0,0,6,4V44a2,2,0,0,0,2,2H40a2,2,0,0,0,2-2V12L32,2Z"/><path d="M16,18a2,2,0,0,1-2-2V12a2,2,0,0,1,4,0v4A2,2,0,0,1,16,18Z"/><path d="M22,18a2,2,0,0,1-2-2V12a2,2,0,0,1,4,0v4A2,2,0,0,1,22,18Z"/><path d="M28,18a2,2,0,0,1-2-2V12a2,2,0,0,1,4,0v4A2,2,0,0,1,28,18Z"/><path d="M32,30H16a2,2,0,0,1,0-4H32a2,2,0,0,1,0,4Z"/><path d="M32,38H16a2,2,0,0,1,0-4H32a2,2,0,0,1,0,4Z"/></g></g></svg>