<svg xmlns="http://www.w3.org/2000/svg" viewBox="0 0 48 48"><defs><style>.cls-1{fill:none;}</style></defs><title>memory-card-solid</title><g id="Layer_2" data-name="Layer 2"><g id="invisible_box" data-name="invisible box"><rect class="cls-1" width="48" height="48"/></g><g id="Layer_3" data-name="Layer 3"><path d="M32,2H8A2,2,0,0,0,6,4V44a2,2,0,0,0,2,2H40a2,2,0,0,0,2-2V12ZM26,12a2,2,0,0,1,4,0v4a2,2,0,0,1-4,0Zm-6,0a2,2,0,0,1,4,0v4a2,2,0,0,1-4,0Zm-6,0a2,2,0,0,1,4,0v4a2,2,0,0,1-4,0ZM32,38H16a2,2,0,0,1,0-4H32a2,2,0,0,1,0,4Zm0-8H16a2,2,0,0,1,0-4H32a2,2,0,0,1,0,4Z"/></g></g></svg>