<svg xmlns="http://www.w3.org/2000/svg" viewBox="0 0 48 48"><defs><style>.cls-1{fill:none;}</style></defs><title>men</title><g id="Layer_2" data-name="Layer 2"><g id="invisible_box" data-name="invisible box"><rect class="cls-1" width="48" height="48"/></g><g id="Layer_3" data-name="Layer 3"><path d="M24,6h0m0-4a4,4,0,1,0,4,4,4,4,0,0,0-4-4Z"/><path d="M33,28a2,2,0,0,1-2-2V16H17V26a2,2,0,0,1-4,0V14a2,2,0,0,1,2-2H33a2,2,0,0,1,2,2V26A2,2,0,0,1,33,28Z"/><path d="M24,46a2,2,0,0,1-2-1.8l-2-20a1.34,1.34,0,0,1,0-.2V19h8v5a1.34,1.34,0,0,1,0,.2l-2,20A2,2,0,0,1,24,46Z"/></g></g></svg>