<svg xmlns="http://www.w3.org/2000/svg" viewBox="0 0 48 48"><defs><style>.cls-1{fill:none;}</style></defs><title>merge-solid</title><g id="Layer_2" data-name="Layer 2"><g id="invisible_box" data-name="invisible box"><rect class="cls-1" width="48" height="48"/></g><g id="Layer_3" data-name="Layer 3"><path d="M43.41,25.41l-9.92,9.94a2.07,2.07,0,0,1-2.65.3,2,2,0,0,1-.25-3L37.17,26H22V22H37.18l-6.59-6.6a2,2,0,0,1,.25-3.05,2.07,2.07,0,0,1,2.65.3l9.92,9.93A2,2,0,0,1,43.41,25.41Z"/><path d="M21.17,24,4.59,40.6a2,2,0,0,0,.25,3,2.07,2.07,0,0,0,2.65-.3L25.41,25.41a2,2,0,0,0,0-2.83L7.49,4.65a2.07,2.07,0,0,0-2.65-.3A2,2,0,0,0,4.59,7.4Z"/></g></g></svg>