<svg xmlns="http://www.w3.org/2000/svg" viewBox="0 0 48 48"><defs><style>.cls-1{fill:none;}</style></defs><title>mpa-solid</title><g id="Layer_2" data-name="Layer 2"><g id="invisible_box" data-name="invisible box"><rect class="cls-1" width="48" height="48"/></g><g id="Layer_3" data-name="Layer 3"><path d="M3.48,7.6A2,2,0,0,0,2,9.54V41.4a2,2,0,0,0,2,2,1.91,1.91,0,0,0,.52-.07L14,40.8V4.8ZM44,4.6a1.91,1.91,0,0,0-.52.07L34,7.2v36l10.52-2.8A2,2,0,0,0,46,38.46V6.6A2,2,0,0,0,44,4.6ZM18,4.28v36l12,3.44v-36Z"/></g></g></svg>