<svg xmlns="http://www.w3.org/2000/svg" viewBox="0 0 48 48"><defs><style>.cls-1{fill:none;}</style></defs><title>network-mapping-solid</title><g id="Layer_2" data-name="Layer 2"><g id="invisible_box" data-name="invisible box"><rect class="cls-1" width="48" height="48"/></g><g id="Layer_3" data-name="Layer 3"><path d="M36,21h8a2,2,0,0,0,2-2V11a2,2,0,0,0-2-2H36a2,2,0,0,0-2,2v2H26v3.26a7.82,7.82,0,0,0-4,0V6H14V4a2,2,0,0,0-2-2H4A2,2,0,0,0,2,4v8a2,2,0,0,0,2,2h8a2,2,0,0,0,2-2V10h4v8.72A8,8,0,0,0,16.26,22H14V20a2,2,0,0,0-2-2H4a2,2,0,0,0-2,2v8a2,2,0,0,0,2,2h8a2,2,0,0,0,2-2V26h2.26A8,8,0,0,0,18,29.28V38H14V36a2,2,0,0,0-2-2H4a2,2,0,0,0-2,2v8a2,2,0,0,0,2,2h8a2,2,0,0,0,2-2V42h8V31.74a7.82,7.82,0,0,0,4,0V35h8v2a2,2,0,0,0,2,2h8a2,2,0,0,0,2-2V29a2,2,0,0,0-2-2H36a2,2,0,0,0-2,2v2H30V29.28a8,8,0,0,0,0-10.56V17h4v2A2,2,0,0,0,36,21Z"/></g></g></svg>