<svg xmlns="http://www.w3.org/2000/svg" viewBox="0 0 48 48"><defs><style>.cls-1{fill:none;}</style></defs><title>newspaper-solid</title><g id="Layer_2" data-name="Layer 2"><g id="invisible_box" data-name="invisible box"><rect class="cls-1" width="48" height="48"/><rect class="cls-1" width="48" height="48"/></g><g id="Layer_3" data-name="Layer 3"><path d="M44,5H12a2,2,0,0,0-2,2V17H4a2,2,0,0,0-2,2V37a6,6,0,0,0,6,6H40a6,6,0,0,0,6-6V7A2,2,0,0,0,44,5ZM10,37a2,2,0,0,1-4,0V21h4Zm8-21.21A1.79,1.79,0,0,1,19.79,14h4.42A1.79,1.79,0,0,1,26,15.79v8.42A1.79,1.79,0,0,1,24.21,26H19.79A1.79,1.79,0,0,1,18,24.21ZM37.41,33.41A2,2,0,0,1,36,34H20a2,2,0,0,1-2-2,2,2,0,0,1,2-2H36a2,2,0,0,1,2,2A2,2,0,0,1,37.41,33.41Zm0-8A2,2,0,0,1,36,26H32a2,2,0,0,1-2-2,2,2,0,0,1,2-2h4a2,2,0,0,1,2,2A2,2,0,0,1,37.41,25.41Zm0-8A2,2,0,0,1,36,18H32a2,2,0,0,1-2-2,2,2,0,0,1,2-2h4a2,2,0,0,1,2,2A2,2,0,0,1,37.41,17.41Z"/></g></g></svg>