<svg xmlns="http://www.w3.org/2000/svg" viewBox="0 0 48 48"><defs><style>.cls-1{fill:none;}</style></defs><title>news-solid</title><g id="Layer_2" data-name="Layer 2"><g id="invisible_box" data-name="invisible box"><rect class="cls-1" width="48" height="48"/><rect class="cls-1" width="48" height="48"/></g><g id="Layer_3" data-name="Layer 3"><path d="M42,4H6A2,2,0,0,0,4,6V42a2,2,0,0,0,2,2H42a2,2,0,0,0,2-2V6A2,2,0,0,0,42,4ZM12,16a2,2,0,0,1,2-2h6a2,2,0,0,1,2,2v8a2,2,0,0,1-2,2H14a2,2,0,0,1-2-2ZM34,34H14a2,2,0,0,1,0-4H34a2,2,0,0,1,0,4Zm0-8H28a2,2,0,0,1,0-4h6a2,2,0,0,1,0,4Zm0-8H28a2,2,0,0,1,0-4h6a2,2,0,0,1,0,4Z"/></g></g></svg>