<svg xmlns="http://www.w3.org/2000/svg" viewBox="0 0 48 48"><defs><style>.cls-1{fill:none;}</style></defs><title>newspaper</title><g id="Layer_2" data-name="Layer 2"><g id="invisible_box" data-name="invisible box"><rect class="cls-1" width="48" height="48"/></g><g id="Layer_3" data-name="Layer 3"><rect x="30" y="14" width="8" height="4" rx="2" ry="2"/><rect x="30" y="22" width="8" height="4" rx="2" ry="2"/><rect x="18" y="30" width="20" height="4" rx="2" ry="2"/><rect x="18" y="14" width="8" height="12" rx="1.79" ry="1.79"/><path d="M44,5H12a2,2,0,0,0-2,2V17H4a2,2,0,0,0-2,2V37a6,6,0,0,0,6,6H40a6,6,0,0,0,6-6V7A2,2,0,0,0,44,5ZM6,37V21h4V37a2,2,0,0,1-4,0Zm36,0a2,2,0,0,1-2,2H13.65A6,6,0,0,0,14,37V9H42Z"/></g></g></svg>