<svg xmlns="http://www.w3.org/2000/svg" viewBox="0 0 48 48"><defs><style>.cls-1{fill:none;}</style></defs><title>news</title><g id="Layer_2" data-name="Layer 2"><g id="invisible_box" data-name="invisible box"><rect class="cls-1" width="48" height="48"/></g><g id="Layer_3" data-name="Layer 3"><path d="M40,8V40H8V8H40m2-4H6A2,2,0,0,0,4,6V42a2,2,0,0,0,2,2H42a2,2,0,0,0,2-2V6a2,2,0,0,0-2-2Z"/><path d="M34,30H14a2,2,0,0,0,0,4H34a2,2,0,0,0,0-4Z"/><path d="M34,22H28a2,2,0,0,0,0,4h6a2,2,0,0,0,0-4Z"/><path d="M34,14H28a2,2,0,0,0,0,4h6a2,2,0,0,0,0-4Z"/><rect x="12" y="14" width="10" height="12" rx="2" ry="2"/></g></g></svg>