<svg xmlns="http://www.w3.org/2000/svg" viewBox="0 0 48 48"><defs><style>.cls-1{fill:none;}</style></defs><title>notification-add</title><g id="Layer_2" data-name="Layer 2"><g id="invisible_box" data-name="invisible box"><rect class="cls-1" width="48" height="48"/></g><g id="Layer_3" data-name="Layer 3"><path d="M43.41,29.41l-3.24-3.24A4.63,4.63,0,0,1,39,23.34V17C39,8.92,33.58,2,24,2S9,8.72,9,17v7a2.41,2.41,0,0,1-.71,1.71l-3.7,3.7A2,2,0,0,0,4,30.83V38a2,2,0,0,0,2,2H17.08a7,7,0,0,0,13.84,0H42a2,2,0,0,0,2-2V30.83A2,2,0,0,0,43.41,29.41ZM40,36H8V31.66l3.12-3.12A6.41,6.41,0,0,0,13,24V17c0-5.32,2.89-11,11-11s11,5.93,11,11v6.34A8.52,8.52,0,0,0,37.34,29L40,31.66Z"/><rect x="22" y="14" width="4" height="16" rx="2" ry="2"/><rect x="22" y="14" width="4" height="16" rx="2" ry="2" transform="translate(46 -2) rotate(90)"/></g></g></svg>