<svg xmlns="http://www.w3.org/2000/svg" viewBox="0 0 48 48"><defs><style>.cls-1{fill:none;}</style></defs><title>notification-solid</title><g id="Layer_2" data-name="Layer 2"><g id="invisible_box" data-name="invisible box"><rect class="cls-1" width="48" height="48"/></g><g id="Layer_3" data-name="Layer 3"><path d="M43.41,29.41l-3.24-3.24A4.63,4.63,0,0,1,39,23.34V17C39,8.92,33.58,2,24,2S9,8.72,9,17v7a2.41,2.41,0,0,1-.71,1.71l-3.7,3.7A2,2,0,0,0,4,30.83V38a2,2,0,0,0,2,2H17.08a7,7,0,0,0,13.84,0H42a2,2,0,0,0,2-2V30.83A2,2,0,0,0,43.41,29.41Z"/></g></g></svg>