<svg xmlns="http://www.w3.org/2000/svg" viewBox="0 0 48 48"><defs><style>.cls-1{fill:none;}</style></defs><title>onboard</title><g id="Layer_2" data-name="Layer 2"><g id="invisible_box" data-name="invisible box"><rect class="cls-1" width="48" height="48"/></g><g id="Layer_3" data-name="Layer 3"><path d="M9.72,40a2,2,0,0,1-1.43-.6A22,22,0,1,1,46,24a21.87,21.87,0,0,1-6.29,15.4,2,2,0,1,1-2.85-2.8,18,18,0,1,0-25.71,0A2,2,0,0,1,9.72,40Z"/><path d="M22.58,14.59l-7.93,7.92a2.07,2.07,0,0,0-.3,2.65,2,2,0,0,0,3,.25L22,20.82V44a2,2,0,0,0,2,2h0a2,2,0,0,0,2-2V20.83l4.6,4.58a2,2,0,0,0,3-.25,2.07,2.07,0,0,0-.3-2.65l-7.94-7.92A2,2,0,0,0,22.58,14.59Z"/></g></g></svg>