<svg xmlns="http://www.w3.org/2000/svg" viewBox="0 0 48 48"><defs><style>.cls-1{fill:none;}</style></defs><title>onboard-solid</title><g id="Layer_2" data-name="Layer 2"><g id="invisible_box" data-name="invisible box"><rect class="cls-1" width="48" height="48"/></g><g id="Layer_3" data-name="Layer 3"><path d="M24,2A22,22,0,1,0,46,24,22,22,0,0,0,24,2Zm8.65,24.16a2,2,0,0,1-3,.25L26,22.83V40a2,2,0,0,1-2,2,2,2,0,0,1-2-2V22.82l-3.6,3.59a2,2,0,0,1-3-.25,2.07,2.07,0,0,1,.3-2.65l6.93-6.92a2,2,0,0,1,2.83,0l6.94,6.92A2.07,2.07,0,0,1,32.65,26.16Zm4.08,10.57A2,2,0,0,1,33.9,33.9a14,14,0,1,0-19.8,0,2,2,0,0,1-2.83,2.83,18,18,0,1,1,25.46,0Z"/></g></g></svg>