<svg xmlns="http://www.w3.org/2000/svg" viewBox="0 0 48 48"><defs><style>.cls-1{fill:none;}</style></defs><title>palette-solid</title><g id="Layer_2" data-name="Layer 2"><g id="invisible_box" data-name="invisible box"><rect class="cls-1" width="48" height="48"/></g><g id="Layer_3" data-name="Layer 3"><path d="M28,33c9,0,18-3,18-15C46,9,37,2,27,2H26.5C13,2,2,11.85,2,24s8,22,21.5,22C29,46,31,39,26,36,25.06,35.43,25,33,28,33ZM21,16a3,3,0,1,1,3-3A3,3,0,0,1,21,16Zm15-2a3,3,0,1,1-3,3A3,3,0,0,1,36,14ZM29,9a3,3,0,1,1-3,3A3,3,0,0,1,29,9Z"/></g></g></svg>