<svg xmlns="http://www.w3.org/2000/svg" viewBox="0 0 48 48"><defs><style>.cls-1{fill:none;}</style></defs><title>palette</title><g id="Layer_2" data-name="Layer 2"><g id="invisible_box" data-name="invisible box"><rect class="cls-1" width="48" height="48"/></g><g id="Layer_3" data-name="Layer 3"><path d="M26.63,6H27c8.11,0,15,5.49,15,12,0,5.1-1.59,11-14,11-3.81,0-5.78,2.25-6.36,4.35a5.39,5.39,0,0,0,2.31,6.09c1,.6,1,1.31.88,1.69A1.21,1.21,0,0,1,23.5,42C11.41,42,6,33,6,24,6,14.07,15.2,6,26.5,6h.13M26.5,2C13,2,2,11.85,2,24s8,22,21.5,22C29,46,31,39,26,36c-.94-.57-1-3,2-3,9,0,18-3,18-15C46,9,37,2,27,2Z"/><path d="M14,15a3,3,0,1,0,3,3,3,3,0,0,0-3-3Z"/><path d="M21,10a3,3,0,1,0,3,3,3,3,0,0,0-3-3Z"/><path d="M29,9a3,3,0,1,0,3,3,3,3,0,0,0-3-3Z"/><path d="M36,14a3,3,0,1,0,3,3,3,3,0,0,0-3-3Z"/></g></g></svg>