<svg xmlns="http://www.w3.org/2000/svg" viewBox="0 0 48 48"><defs><style>.cls-1{fill:none;}</style></defs><title>pencil</title><g id="Layer_2" data-name="Layer 2"><g id="invisible_box" data-name="invisible box"><rect class="cls-1" width="48" height="48"/></g><g id="Layer_3" data-name="Layer 3"><path d="M43.42,18.77,29.31,4.59A2,2,0,0,0,27.89,4a1.94,1.94,0,0,0-1.4.58L4.58,26.49A2,2,0,0,0,4,27.9V42a2,2,0,0,0,2,2H20.1a2,2,0,0,0,1.41-.58l21.9-21.84A2,2,0,0,0,43.42,18.77ZM19.27,40H8V28.73L20.45,16.28,31.74,27.57Zm15.3-15.25L23.28,13.45l4.61-4.61L39.17,20.17Z"/></g></g></svg>