<svg xmlns="http://www.w3.org/2000/svg" viewBox="0 0 48 48"><defs><style>.cls-1{fill:none;}</style></defs><title>pencil-solid</title><g id="Layer_2" data-name="Layer 2"><g id="invisible_box" data-name="invisible box"><rect class="cls-1" width="48" height="48"/></g><g id="Layer_3" data-name="Layer 3"><path d="M43.42,18.77,29.31,4.59A2,2,0,0,0,27.89,4a1.94,1.94,0,0,0-1.4.58l-6,6,17,17,6-6A2,2,0,0,0,43.42,18.77ZM4.58,26.49A2,2,0,0,0,4,27.9V42a2,2,0,0,0,2,2H20.1a2,2,0,0,0,1.41-.58l13.06-13L17.62,13.45Z"/></g></g></svg>