<svg xmlns="http://www.w3.org/2000/svg" viewBox="0 0 48 48"><defs><style>.cls-1{fill:none;}</style></defs><title>pets-solid</title><g id="Layer_2" data-name="Layer 2"><g id="invisible_box" data-name="invisible box"><rect class="cls-1" width="48" height="48"/><rect class="cls-1" width="48" height="48"/><rect class="cls-1" width="48" height="48"/></g><g id="Layer_3" data-name="Layer 3"><rect x="3" y="13" width="8" height="14" rx="4" ry="4"/><rect x="14" y="4" width="8" height="14" rx="4" ry="4"/><rect x="37" y="13" width="8" height="14" rx="4" ry="4" transform="translate(82 40) rotate(-180)"/><rect x="26" y="4" width="8" height="14" rx="4" ry="4" transform="translate(60 22) rotate(180)"/><path d="M8.72,34,19.53,21.83a6.43,6.43,0,0,1,8.72,0L39.06,34c3.88,3.66,1.13,9.93-4.36,9.93,0,0-7.87-1-10.79-1s-9.8,1-9.8,1C8.61,43.88,4.83,37.61,8.72,34Z"/></g></g></svg>