<svg xmlns="http://www.w3.org/2000/svg" viewBox="0 0 48 48"><defs><style>.cls-1{fill:none;}</style></defs><title>photo</title><g id="Layer_2" data-name="Layer 2"><g id="invisible_box" data-name="invisible box"><rect class="cls-1" width="48" height="48"/></g><g id="Layer_3" data-name="Layer 3"><path d="M44,6H4A2,2,0,0,0,2,8V40a2,2,0,0,0,2,2H44a2,2,0,0,0,2-2V8A2,2,0,0,0,44,6ZM42,38H6V30.79l8-8L24.6,33.38a2,2,0,0,0,2.82,0L34,26.82l8,8Zm0-8.85-6.59-6.57a2,2,0,0,0-2.82,0L26,29.14,15.41,18.58a2,2,0,0,0-2.82,0L6,25.15V10H42Z"/></g></g></svg>