<svg xmlns="http://www.w3.org/2000/svg" viewBox="0 0 48 48"><defs><style>.cls-1{fill:none;}</style></defs><title>pipeline</title><g id="Layer_2" data-name="Layer 2"><g id="invisible_box" data-name="invisible box"><rect class="cls-1" width="48" height="48"/></g><g id="Layer_3" data-name="Layer 3"><path d="M42,43H22a12,12,0,0,1,0-24h4a2,2,0,0,0,0-4H6V5H26a12,12,0,0,1,0,24H22a2,2,0,0,0,0,4H42ZM22,23a8,8,0,0,0,0,16H38V37H22a6,6,0,0,1,0-12h4A8,8,0,0,0,26,9H10v2H26a6,6,0,0,1,0,12Z"/><rect x="6" y="2" width="4" height="16" rx="2" ry="2"/><rect x="38" y="30" width="4" height="16" rx="2" ry="2"/></g></g></svg>