<svg xmlns="http://www.w3.org/2000/svg" viewBox="0 0 48 48"><defs><style>.cls-1{fill:none;}</style></defs><title>plug-in-solid</title><g id="Layer_2" data-name="Layer 2"><g id="invisible_box" data-name="invisible box"><rect class="cls-1" width="48" height="48"/></g><g id="Layer_3" data-name="Layer 3"><path d="M44,13H40V6a2,2,0,0,0-2-2H28a2,2,0,0,0-2,2v7H22V6a2,2,0,0,0-2-2H10A2,2,0,0,0,8,6v7H4a2,2,0,0,0-2,2V42a2,2,0,0,0,2,2H9a2,2,0,0,0,2-2.34A2.07,2.07,0,0,0,8.89,40H6V17H42V40H21a2,2,0,0,0-2,2.34A2.07,2.07,0,0,0,21.11,44H44a2,2,0,0,0,2-2V15A2,2,0,0,0,44,13Z"/></g></g></svg>