<svg xmlns="http://www.w3.org/2000/svg" viewBox="0 0 48 48"><defs><style>.cls-1{fill:none;}</style></defs><title>power</title><g id="Layer_2" data-name="Layer 2"><g id="invisible_box" data-name="invisible box"><rect class="cls-1" width="48" height="48"/></g><g id="Layer_3" data-name="Layer 3"><path d="M39.71,8.6a2,2,0,1,0-2.86,2.8,18,18,0,1,1-25.71,0A2,2,0,1,0,8.29,8.6,22,22,0,1,0,46,24,21.87,21.87,0,0,0,39.71,8.6Z"/><path d="M24,29a2,2,0,0,0,2-2V4a2,2,0,0,0-4,0V27A2,2,0,0,0,24,29Z"/></g></g></svg>