<svg xmlns="http://www.w3.org/2000/svg" viewBox="0 0 48 48"><defs><style>.cls-1{fill:none;}</style></defs><title>queue-solid</title><g id="Layer_2" data-name="Layer 2"><g id="invisible_box" data-name="invisible box"><rect class="cls-1" width="48" height="48"/></g><g id="Layer_3" data-name="Layer 3"><path d="M16,36a2,2,0,0,1-2-2V6a2,2,0,0,1,2-2h0a2,2,0,0,1,2,2V34a2,2,0,0,1-2,2Z"/><path d="M24,36a2,2,0,0,1-2-2V6a2,2,0,0,1,2-2h0a2,2,0,0,1,2,2V34a2,2,0,0,1-2,2Z"/><path d="M32,36a2,2,0,0,1-2-2V6a2,2,0,0,1,2-2h0a2,2,0,0,1,2,2V34a2,2,0,0,1-2,2Z"/><path d="M39.66,26A2.07,2.07,0,0,0,38,28.11V40H10V28.11A2.07,2.07,0,0,0,8.34,26,2,2,0,0,0,6,28V42a2,2,0,0,0,2,2H40a2,2,0,0,0,2-2V28A2,2,0,0,0,39.66,26Z"/><path d="M9.8,15.7,2.47,11.07c-.26-.16-.47,0-.47.28v9.3c0,.32.21.44.47.28L9.8,16.3A.32.32,0,0,0,9.8,15.7Z"/><path d="M45.8,15.7l-7.33-4.63c-.26-.16-.47,0-.47.28v9.3c0,.32.21.44.47.28L45.8,16.3A.32.32,0,0,0,45.8,15.7Z"/></g></g></svg>