<svg xmlns="http://www.w3.org/2000/svg" viewBox="0 0 48 48"><defs><style>.cls-1{fill:none;}</style></defs><title>rearrange</title><g id="Layer_2" data-name="Layer 2"><g id="invisible_box" data-name="invisible box"><rect class="cls-1" width="48" height="48"/></g><g id="Layer_3" data-name="Layer 3"><path d="M42.34,3A2,2,0,0,0,40,5V8.91A22,22,0,0,0,7.93,9H6a2,2,0,0,0-2,2V21a2,2,0,0,0,2,2H16a2,2,0,0,0,2-2V11a2,2,0,0,0-2-2H14.11A17.9,17.9,0,0,1,37.4,12H33.12A2.09,2.09,0,0,0,31,13.66,2,2,0,0,0,33,16h9a2,2,0,0,0,2-2V5.12A2.09,2.09,0,0,0,42.34,3ZM14,19H8V13h6Z"/><path d="M42,27H32a2,2,0,0,0-2,2V39a2,2,0,0,0,.85,1.63A17.92,17.92,0,0,1,10.6,36h4.28A2.09,2.09,0,0,0,17,34.34,2,2,0,0,0,15,32H6a2,2,0,0,0-2,2v8.88A2.09,2.09,0,0,0,5.66,45,2,2,0,0,0,8,43V39.09A22,22,0,0,0,37.94,41H42a2,2,0,0,0,2-2V29A2,2,0,0,0,42,27Zm-8,4h6v6H34Z"/></g></g></svg>