<svg xmlns="http://www.w3.org/2000/svg" viewBox="0 0 48 48"><defs><style>.cls-1{fill:none;}</style></defs><title>refresh-setting</title><g id="Layer_2" data-name="Layer 2"><g id="invisible_box" data-name="invisible box"><rect class="cls-1" width="48" height="48"/></g><g id="Layer_3" data-name="Layer 3"><path d="M18.28,25.82a7.61,7.61,0,0,0,.39.93l-1.74,2.91,1.41,1.41,2.91-1.74a7.61,7.61,0,0,0,.93.39L23,33h2l.82-3.28a7.61,7.61,0,0,0,.93-.39l2.91,1.74,1.41-1.41-1.74-2.91a7.61,7.61,0,0,0,.39-.93L33,25V23l-3.28-.82a7.61,7.61,0,0,0-.39-.93l1.74-2.91-1.41-1.41-2.91,1.74a7.61,7.61,0,0,0-.93-.39L25,15H23l-.82,3.28a7.61,7.61,0,0,0-.93.39l-2.91-1.74-1.41,1.41,1.74,2.91a7.61,7.61,0,0,0-.39.93L15,23v2ZM22,24a2,2,0,1,1,2,2A2,2,0,0,1,22,24Z"/><path d="M4,5.12V14a2,2,0,0,0,2,2h9a2,2,0,0,0,2-2.34A2.09,2.09,0,0,0,14.88,12H10.6A18,18,0,0,1,41.91,22.17a2,2,0,0,0,2,1.83h0a2,2,0,0,0,2-2.15A22,22,0,0,0,8,8.91V5A2,2,0,0,0,5.66,3,2.09,2.09,0,0,0,4,5.12Z"/><path d="M44,42.88V34a2,2,0,0,0-2-2H33a2,2,0,0,0-2,2.34A2.09,2.09,0,0,0,33.12,36H37.4A18,18,0,0,1,6.09,25.83a2,2,0,0,0-2-1.83h0a2,2,0,0,0-2,2.15A22,22,0,0,0,40,39.09V43a2,2,0,0,0,2.34,2A2.09,2.09,0,0,0,44,42.88Z"/></g></g></svg>