<svg xmlns="http://www.w3.org/2000/svg" viewBox="0 0 48 48"><defs><style>.cls-1{fill:none;}</style></defs><title>reroute-solid</title><g id="Layer_2" data-name="Layer 2"><g id="invisible_box" data-name="invisible box"><rect class="cls-1" width="48" height="48"/></g><g id="Layer_3" data-name="Layer 3"><path d="M24.49,31.65a2.07,2.07,0,0,0-2.65-.3,2,2,0,0,0-.25,3L23.21,36a2.85,2.85,0,0,0-.29,0,2,2,0,0,0,0,4,2.85,2.85,0,0,0,.29,0L21.59,41.6a2,2,0,0,0,.25,3,2.07,2.07,0,0,0,2.65-.3l4.92-4.93a2,2,0,0,0,0-2.83Z"/><path d="M44.35,22l-4.93-4.92a2,2,0,0,0-2.83,0L31.65,22a2.07,2.07,0,0,0-.3,2.65,2,2,0,0,0,3,.25L36,23.32V33.41A5,5,0,0,0,33.41,40,5,5,0,1,0,40,33.41V23.32l1.6,1.59a2,2,0,0,0,3-.25A2.07,2.07,0,0,0,44.35,22ZM38,40a2,2,0,1,1,2-2A2,2,0,0,1,38,40Z"/><path d="M36,12.59a5.08,5.08,0,0,0,4,0A5,5,0,1,0,33.41,6a5.08,5.08,0,0,0,0,4A5.11,5.11,0,0,0,36,12.59ZM38,6a2,2,0,1,1-2,2A2,2,0,0,1,38,6Z"/><path d="M15.27,35.94a2,2,0,1,0-.7,3.93,2.07,2.07,0,0,0,.35,0,2,2,0,0,0,.35-4Z"/><path d="M8.3,31a2,2,0,0,0,.83,3.82,2,2,0,0,0,.82-.18A2,2,0,0,0,8.3,31Z"/><circle cx="8" cy="25.01" r="2"/><circle cx="8" cy="17" r="2"/><circle cx="8" cy="8" r="5"/></g></g></svg>