<svg xmlns="http://www.w3.org/2000/svg" viewBox="0 0 48 48"><defs><style>.cls-1{fill:none;}</style></defs><title>rewind-circle</title><g id="Layer_2" data-name="Layer 2"><g id="invisible_box" data-name="invisible box"><rect class="cls-1" width="48" height="48"/></g><g id="Layer_3" data-name="Layer 3"><path d="M24,46A22,22,0,1,0,2,24,22,22,0,0,0,24,46ZM24,6A18,18,0,1,1,6,24,18,18,0,0,1,24,6Z"/><path d="M34,28.85v-9.7a1.1,1.1,0,0,0-1.67-1L24.54,23a1.16,1.16,0,0,0,0,2l7.79,4.85A1.1,1.1,0,0,0,34,28.85Z"/><path d="M22,28.85v-9.7a1.1,1.1,0,0,0-1.67-1L12.54,23a1.16,1.16,0,0,0,0,2l7.79,4.85A1.1,1.1,0,0,0,22,28.85Z"/><path d="M24,46A22,22,0,1,0,2,24,22,22,0,0,0,24,46ZM24,6A18,18,0,1,1,6,24,18,18,0,0,1,24,6Z"/></g></g></svg>