<svg xmlns="http://www.w3.org/2000/svg" viewBox="0 0 48 48"><defs><style>.cls-1{fill:none;}</style></defs><title>rotate-left</title><g id="Layer_2" data-name="Layer 2"><g id="invisible_box" data-name="invisible box"><rect class="cls-1" width="48" height="48"/></g><g id="Layer_3" data-name="Layer 3"><path d="M5.66,2A2,2,0,0,1,8,4V8.91A22,22,0,0,1,46,24h0a2,2,0,0,1-4,0h0A18,18,0,0,0,10.6,12h5.28A2.07,2.07,0,0,1,18,13.66,2,2,0,0,1,16,16H6a2,2,0,0,1-2-2V4.12A2.07,2.07,0,0,1,5.66,2Z"/><path d="M24,42h0a2,2,0,1,1-2,2A2,2,0,0,1,24,42Z"/><path d="M33,39.59h0a2,2,0,1,1-.73,2.74A2,2,0,0,1,33,39.59Z"/><path d="M39.59,33a2,2,0,1,1,.74,2.74A2,2,0,0,1,39.59,33Z"/><path d="M5.67,32.27A2,2,0,0,1,8.41,33h0a2,2,0,1,1-2.74-.73Z"/><path d="M15,39.59h0a2,2,0,1,1-2.74.74A2,2,0,0,1,15,39.59Z"/></g></g></svg>