<svg xmlns="http://www.w3.org/2000/svg" viewBox="0 0 48 48"><defs><style>.cls-1{fill:none;}</style></defs><title>rotate-right-solid</title><g id="Layer_2" data-name="Layer 2"><g id="invisible_box" data-name="invisible box"><rect class="cls-1" width="48" height="48"/></g><g id="Layer_3" data-name="Layer 3"><path d="M42.34,2A2,2,0,0,0,40,4V8.91A22,22,0,0,0,2,24H2a2,2,0,0,0,4,0H6A18,18,0,0,1,37.4,12H32.12A2.07,2.07,0,0,0,30,13.66,2,2,0,0,0,32,16H42a2,2,0,0,0,2-2V4.12A2.07,2.07,0,0,0,42.34,2Z"/><path d="M24,42h0a2,2,0,1,0,2,2A2,2,0,0,0,24,42Z"/><path d="M15,39.59h0a2,2,0,1,0,.73,2.74A2,2,0,0,0,15,39.59Z"/><path d="M8.41,33a2,2,0,1,0-.74,2.74A2,2,0,0,0,8.41,33Z"/><path d="M42.33,32.27a2,2,0,0,0-2.74.73h0a2,2,0,1,0,2.74-.73Z"/><path d="M33,39.59h0a2,2,0,1,0,2.74.74A2,2,0,0,0,33,39.59Z"/></g></g></svg>