<svg xmlns="http://www.w3.org/2000/svg" viewBox="0 0 48 48"><defs><style>.cls-1{fill:none;}</style></defs><title>scale-expand</title><g id="Layer_2" data-name="Layer 2"><g id="invisible_box" data-name="invisible box"><rect class="cls-1" width="48" height="48"/></g><g id="Layer_3" data-name="Layer 3"><path d="M13,23a2,2,0,0,0,2.34,2A2.08,2.08,0,0,0,17,22.91V19.84l6.5,6.51a2.08,2.08,0,0,0,2.8.2,2,2,0,0,0,.11-2.94L19.83,17h3.06A2.07,2.07,0,0,0,25,15.34,2,2,0,0,0,23,13H15a2,2,0,0,0-2,2Z"/><path d="M24,46A22,22,0,1,1,46,24a2,2,0,0,1-4,0A18,18,0,1,0,24,42a2,2,0,0,1,0,4Z"/><circle cx="36" cy="28" r="2"/><circle cx="30.34" cy="30.34" r="2"/><circle cx="28" cy="36" r="2"/><circle cx="30.34" cy="41.66" r="2"/><circle cx="36" cy="44" r="2"/><circle cx="41.66" cy="41.66" r="2"/><circle cx="44" cy="36" r="2"/><circle cx="41.66" cy="30.34" r="2"/></g></g></svg>