<svg xmlns="http://www.w3.org/2000/svg" viewBox="0 0 48 48"><defs><style>.cls-1{fill:none;}</style></defs><title>scale-mini-solid</title><g id="Layer_2" data-name="Layer 2"><g id="invisible_box" data-name="invisible box"><rect class="cls-1" width="48" height="48"/></g><g id="Layer_3" data-name="Layer 3"><path d="M36,30a6,6,0,1,1-6,6,6,6,0,0,1,6-6m0-4A10,10,0,1,0,46,36,10,10,0,0,0,36,26Z"/><path d="M27,17a2,2,0,0,0-2.34-2A2.08,2.08,0,0,0,23,17.09v3.07l-6.5-6.51a2.08,2.08,0,0,0-2.8-.2,2,2,0,0,0-.11,2.94L20.17,23H17.11A2.07,2.07,0,0,0,15,24.66,2,2,0,0,0,17,27h8a2,2,0,0,0,2-2Z"/><path d="M22,4a2,2,0,0,1,2-2h0a2,2,0,0,1,2,2h0a2,2,0,0,1-2,2h0A2,2,0,0,1,22,4Z"/><path d="M12.27,7.69A2,2,0,0,1,13,5h0a2,2,0,0,1,2.73.72h0A2,2,0,0,1,15,8.41h0A2,2,0,0,1,12.27,7.69Z"/><path d="M5.69,15.74A2,2,0,0,1,4.94,13h0a2,2,0,0,1,2.73-.74h0A2,2,0,0,1,8.41,15h0A2,2,0,0,1,5.69,15.74Z"/><path d="M4,26a2,2,0,0,1-2-2H2a2,2,0,0,1,2-2H4a2,2,0,0,1,2,2H6v0H6A2,2,0,0,1,4,26Z"/><path d="M7.69,35.73A2,2,0,0,1,5,35H5a2,2,0,0,1,.72-2.73h0A2,2,0,0,1,8.41,33h0A2,2,0,0,1,7.69,35.73Z"/><path d="M15.74,42.31a2,2,0,0,1-2.74.75h0a2,2,0,0,1-.74-2.73h0A2,2,0,0,1,15,39.59h0A2,2,0,0,1,15.74,42.31Z"/><path d="M26,44a2,2,0,0,1-2,2h0a2,2,0,0,1-2-2h0a2,2,0,0,1,2-2h0A2,2,0,0,1,26,44Z"/><path d="M44,22a2,2,0,0,1,2,2h0a2,2,0,0,1-2,2h0a2,2,0,0,1-2-2h0v0h0A2,2,0,0,1,44,22Z"/><path d="M40.31,12.27a2,2,0,0,1,2.74.73h0a2,2,0,0,1-.72,2.73h0A2,2,0,0,1,39.59,15h0A2,2,0,0,1,40.31,12.27Z"/><path d="M32.26,5.69A2,2,0,0,1,35,4.94h0a2,2,0,0,1,.74,2.73h0A2,2,0,0,1,33,8.41h0A2,2,0,0,1,32.26,5.69Z"/></g></g></svg>