<svg xmlns="http://www.w3.org/2000/svg" viewBox="0 0 48 48"><defs><style>.cls-1{fill:none;}</style></defs><title>security-priority</title><g id="Layer_2" data-name="Layer 2"><g id="invisible_box" data-name="invisible box"><rect class="cls-1" width="48" height="48"/></g><g id="Layer_3" data-name="Layer 3"><path d="M24,6.19c5.3,1.5,11.1,3.29,14,4.29V26.24c0,3.4-3.7,9.38-14,15.37-10.3-6.09-14-12-14-15.37V10.48c2.9-1.1,8.7-2.79,14-4.29M24,2S6,7.09,6,8V26.24C6,35.42,19.3,43.51,23,45.7a1.82,1.82,0,0,0,2,0c3.8-2.09,17-10.28,17-19.46V8c0-.9-18-6-18-6Z"/><path d="M28.08,34.25,25,25H29a1,1,0,0,0,.78-1.67l-9-12.16a.51.51,0,0,0-.84.57L23,21H19a1,1,0,0,0-.78,1.67l9,12.16A.51.51,0,0,0,28.08,34.25Z"/></g></g></svg>