<svg xmlns="http://www.w3.org/2000/svg" viewBox="0 0 48 48"><defs><style>.cls-1{fill:none;}</style></defs><title>security-verified-solid</title><g id="Layer_2" data-name="Layer 2"><g id="invisible_box" data-name="invisible box"><rect class="cls-1" width="48" height="48"/></g><g id="Layer_3" data-name="Layer 3"><path d="M24,2S6,7.09,6,8V26.24C6,35.42,19.3,43.51,23,45.7a1.82,1.82,0,0,0,2,0c3.8-2.09,17-10.28,17-19.46V8C42,7.09,24,2,24,2Zm9.41,16.41-11,11a2,2,0,0,1-2.83,0l-4.92-4.92a2.07,2.07,0,0,1-.3-2.65,2,2,0,0,1,3-.25L21,25.17l9.59-9.58a2,2,0,0,1,2.83,2.82Z"/></g></g></svg>