<svg xmlns="http://www.w3.org/2000/svg" viewBox="0 0 48 48"><defs><style>.cls-1{fill:none;}</style></defs><title>security-priority-solid</title><g id="Layer_2" data-name="Layer 2"><g id="invisible_box" data-name="invisible box"><rect class="cls-1" width="48" height="48"/></g><g id="Layer_3" data-name="Layer 3"><path d="M24,2S6,7.09,6,8V26.24C6,35.42,19.3,43.51,23,45.7a1.82,1.82,0,0,0,2,0c3.8-2.09,17-10.28,17-19.46V8C42,7.09,24,2,24,2Zm5,23H25l3,9.24a.51.51,0,0,1-.84.57l-9-12.16A1,1,0,0,1,19,21H23l-3-9.24a.51.51,0,0,1,.84-.57l9,12.16A1,1,0,0,1,29,25Z"/></g></g></svg>