<svg xmlns="http://www.w3.org/2000/svg" viewBox="0 0 48 48"><defs><style>.cls-1{fill:none;}</style></defs><title>send-solid</title><g id="Layer_2" data-name="Layer 2"><g id="invisible_box" data-name="invisible box"><rect class="cls-1" width="48" height="48"/></g><g id="Layer_3" data-name="Layer 3"><path d="M44.89,23.21l-38-18A2.11,2.11,0,0,0,6,5,2,2,0,0,0,4,7L9.33,23H24a2,2,0,0,1,0,4H9.33L4,43a2,2,0,0,0,2,2,2.11,2.11,0,0,0,.9-.21l38-18A2,2,0,0,0,44.89,23.21Z"/><path d="M26.5,25a2,2,0,0,1-2,2H24a2,2,0,0,0,0-4h.5A2,2,0,0,1,26.5,25Z"/></g></g></svg>