<svg xmlns="http://www.w3.org/2000/svg" viewBox="0 0 48 48"><defs><style>.cls-1{fill:none;}</style></defs><title>send</title><g id="Layer_2" data-name="Layer 2"><g id="invisible_box" data-name="invisible box"><rect class="cls-1" width="48" height="48"/></g><g id="Layer_3" data-name="Layer 3"><path d="M9.51,10.88,39.33,25,9.51,39.12l4.28-12.85L14.22,25l-.43-1.27L9.51,10.88M6,5A2,2,0,0,0,4,7l6,18L4,43a2,2,0,0,0,2,2,2.11,2.11,0,0,0,.9-.21l38-18a2,2,0,0,0,0-3.58l-38-18A2.11,2.11,0,0,0,6,5Z"/><path d="M24,23H14a2,2,0,0,0,0,4H24a2,2,0,0,0,0-4Z"/></g></g></svg>