<svg xmlns="http://www.w3.org/2000/svg" viewBox="0 0 48 48"><defs><style>.cls-1{fill:none;}</style></defs><title>setting</title><g id="Layer_2" data-name="Layer 2"><g id="invisible_box" data-name="invisible box"><rect class="cls-1" width="48" height="48"/></g><g id="Layer_3" data-name="Layer 3"><path d="M40.19,29.16l5.5-1.5a21.76,21.76,0,0,0,0-7.32l-5.5-1.5A1.93,1.93,0,0,1,39.1,16.2l2.83-4.95a22.34,22.34,0,0,0-5.18-5.18L31.8,8.9a1.9,1.9,0,0,1-.83.19,1.93,1.93,0,0,1-1.81-1.28l-1.5-5.5a21.76,21.76,0,0,0-7.32,0l-1.5,5.5A1.93,1.93,0,0,1,17,9.09a1.9,1.9,0,0,1-.83-.19L11.25,6.07a22.34,22.34,0,0,0-5.18,5.18L8.9,16.2a1.93,1.93,0,0,1-1.09,2.64l-5.5,1.5a21.76,21.76,0,0,0,0,7.32l5.5,1.5A1.93,1.93,0,0,1,8.9,31.8L6.07,36.75a22.34,22.34,0,0,0,5.18,5.18L16.2,39.1a1.9,1.9,0,0,1,.83-.19,1.93,1.93,0,0,1,1.81,1.28l1.5,5.5a21.76,21.76,0,0,0,7.32,0l1.5-5.5A1.93,1.93,0,0,1,31,38.91a1.9,1.9,0,0,1,.83.19l4.95,2.83a22.34,22.34,0,0,0,5.18-5.18L39.1,31.8A1.93,1.93,0,0,1,40.19,29.16ZM39,25.34l-.14.05a5.93,5.93,0,0,0-3.36,8.12l.06.14.08.13,1.46,2.57-.74.74-2.57-1.46-.13-.08-.14-.06A5.87,5.87,0,0,0,31,34.91a6,6,0,0,0-5.58,3.94l-.05.14,0,.15L24.52,42h-1l-.78-2.85,0-.15-.05-.14A6,6,0,0,0,17,34.91a5.87,5.87,0,0,0-2.54.58l-.14.06-.13.08-2.57,1.46-.74-.74,1.46-2.57.08-.13.06-.14a5.93,5.93,0,0,0-3.36-8.12L9,25.34l-.15,0L6,24.52c0-.17,0-.34,0-.52s0-.35,0-.52l2.85-.78.15,0,.14-.05a5.93,5.93,0,0,0,3.36-8.12l-.06-.14-.08-.13-1.46-2.57.74-.74,2.57,1.46.13.08.14.06a5.87,5.87,0,0,0,2.54.58,6,6,0,0,0,5.58-3.94L22.66,9l0-.15L23.48,6h1l.78,2.85,0,.15.05.14A6,6,0,0,0,31,13.09a5.87,5.87,0,0,0,2.54-.58l.14-.06.13-.08,2.57-1.46.74.74-1.46,2.57-.08.13-.06.14a5.93,5.93,0,0,0,3.36,8.12l.14.05.15,0,2.85.78c0,.17,0,.34,0,.52s0,.35,0,.52l-2.85.78Z"/><path d="M24,15a9,9,0,1,0,9,9A9,9,0,0,0,24,15Zm0,14a5,5,0,1,1,5-5A5,5,0,0,1,24,29Z"/></g></g></svg>