<svg xmlns="http://www.w3.org/2000/svg" viewBox="0 0 48 48"><defs><style>.cls-1{fill:none;}</style></defs><title>setting-solid</title><g id="Layer_2" data-name="Layer 2"><g id="invisible_box" data-name="invisible box"><rect class="cls-1" width="48" height="48"/><rect class="cls-1" width="48" height="48"/><rect class="cls-1" width="48" height="48"/></g><g id="Layer_3" data-name="Layer 3"><path d="M40.19,29.16l5.5-1.5a21.76,21.76,0,0,0,0-7.32l-5.5-1.5A1.93,1.93,0,0,1,39.1,16.2l2.83-4.95a22.34,22.34,0,0,0-5.18-5.18L31.8,8.9a1.9,1.9,0,0,1-.83.19,1.93,1.93,0,0,1-1.81-1.28l-1.5-5.5a21.76,21.76,0,0,0-7.32,0l-1.5,5.5A1.93,1.93,0,0,1,17,9.09a1.9,1.9,0,0,1-.83-.19L11.25,6.07a22.34,22.34,0,0,0-5.18,5.18L8.9,16.2a1.93,1.93,0,0,1-1.09,2.64l-5.5,1.5a21.76,21.76,0,0,0,0,7.32l5.5,1.5A1.93,1.93,0,0,1,8.9,31.8L6.07,36.75a22.34,22.34,0,0,0,5.18,5.18L16.2,39.1a1.9,1.9,0,0,1,.83-.19,1.93,1.93,0,0,1,1.81,1.28l1.5,5.5a21.76,21.76,0,0,0,7.32,0l1.5-5.5A1.93,1.93,0,0,1,31,38.91a1.9,1.9,0,0,1,.83.19l4.95,2.83a22.34,22.34,0,0,0,5.18-5.18L39.1,31.8A1.93,1.93,0,0,1,40.19,29.16ZM24,33a9,9,0,1,1,9-9A9,9,0,0,1,24,33Z"/></g></g></svg>