<svg xmlns="http://www.w3.org/2000/svg" viewBox="0 0 48 48"><defs><style>.cls-1{fill:none;}</style></defs><title>share</title><g id="Layer_2" data-name="Layer 2"><g id="invisible_box" data-name="invisible box"><rect class="cls-1" width="48" height="48"/></g><g id="Layer_3" data-name="Layer 3"><path d="M37,28a8,8,0,0,0-6.32,3.11L16.9,25.21a7.37,7.37,0,0,0,0-2.42l13.78-5.9A8,8,0,1,0,29,12a8.12,8.12,0,0,0,.1,1.21l-13.78,5.9a8,8,0,1,0,0,9.78l13.78,5.9A8.12,8.12,0,0,0,29,36a8,8,0,1,0,8-8ZM37,8a4,4,0,1,1-4,4A4,4,0,0,1,37,8ZM9,28a4,4,0,1,1,4-4A4,4,0,0,1,9,28ZM37,40a4,4,0,1,1,4-4A4,4,0,0,1,37,40Z"/></g></g></svg>