<svg xmlns="http://www.w3.org/2000/svg" viewBox="0 0 48 48"><defs><style>.cls-1{fill:none;}</style></defs><title>shuffle-data-model</title><g id="Layer_2" data-name="Layer 2"><g id="invisible_box" data-name="invisible box"><rect class="cls-1" width="48" height="48"/></g><g id="Layer_3" data-name="Layer 3"><path d="M44,33H36a2,2,0,0,0-2,2v2c-4.68-.39-7.86-3.49-7.86-7.82v-9A13.14,13.14,0,0,0,14,7.05V5a2,2,0,0,0-2-2H4A2,2,0,0,0,2,5v8a2,2,0,0,0,2,2h8a2,2,0,0,0,2-2V11.06a9.15,9.15,0,0,1,8.14,9.08v9C22.14,35.7,27.07,40.53,34,41v2a2,2,0,0,0,2,2h8a2,2,0,0,0,2-2V35A2,2,0,0,0,44,33ZM10,11H6V7h4ZM42,41H38V37h4Z"/><path d="M44,3H36a2,2,0,0,0-2,2V7A13.18,13.18,0,0,0,26.78,9.9a13.37,13.37,0,0,1,2.11,3.45A9.09,9.09,0,0,1,34,11.06V13a2,2,0,0,0,2,2h8a2,2,0,0,0,2-2V5A2,2,0,0,0,44,3Zm-2,8H38V7h4Z"/><path d="M19.08,34.57A8.76,8.76,0,0,1,14,36.94V35a2,2,0,0,0-2-2H4a2,2,0,0,0-2,2v8a2,2,0,0,0,2,2h8a2,2,0,0,0,2-2V41a12.72,12.72,0,0,0,7.33-3A13,13,0,0,1,19.08,34.57ZM10,41H6V37h4Z"/></g></g></svg>