<svg xmlns="http://www.w3.org/2000/svg" viewBox="0 0 48 48"><defs><style>.cls-1{fill:none;}</style></defs><title>skip</title><g id="Layer_2" data-name="Layer 2"><g id="invisible_box" data-name="invisible box"><rect class="cls-1" width="48" height="48"/></g><g id="Layer_3" data-name="Layer 3"><circle cx="8" cy="37" r="6"/><path d="M24,31a6,6,0,1,0,6,6A6,6,0,0,0,24,31Zm0,8a2,2,0,1,1,2-2A2,2,0,0,1,24,39Z"/><circle cx="40" cy="37" r="6"/><path d="M37.4,19.59a2,2,0,0,0-3,.25,2.07,2.07,0,0,0,.3,2.65l3.93,3.92a2,2,0,0,0,2.83,0l3.94-3.92a2.07,2.07,0,0,0,.3-2.65,2,2,0,0,0-3-.25l-.64.63A18,18,0,0,0,6,21v2a2,2,0,0,0,4,0V21a14,14,0,0,1,28-.86Z"/></g></g></svg>