<svg xmlns="http://www.w3.org/2000/svg" viewBox="0 0 48 48"><defs><style>.cls-1{fill:none;}</style></defs><title>split</title><g id="Layer_2" data-name="Layer 2"><g id="invisible_box" data-name="invisible box"><rect class="cls-1" width="48" height="48"/></g><g id="Layer_3" data-name="Layer 3"><path d="M44,17V6a2,2,0,0,0-2-2H31a2,2,0,0,0-2,2h0a2,2,0,0,0,2,2h6.14l-14,14H6a2,2,0,0,0-2,2H4a2,2,0,0,0,2,2H23.17l14,14H31a2,2,0,0,0-2,2h0a2,2,0,0,0,2,2H42a2,2,0,0,0,2-2V31a2,2,0,0,0-2-2h0a2,2,0,0,0-2,2v6.14L26.83,24,40,10.83V17a2,2,0,0,0,2,2h0A2,2,0,0,0,44,17Z"/></g></g></svg>