<svg xmlns="http://www.w3.org/2000/svg" viewBox="0 0 48 48"><defs><style>.cls-1{fill:none;}</style></defs><title>star-solid</title><g id="Layer_2" data-name="Layer 2"><g id="invisible_box" data-name="invisible box"><rect class="cls-1" width="48" height="48"/></g><g id="Layer_3" data-name="Layer 3"><path d="M24,3a2,2,0,0,0-1.8,1.12L16.49,15.68,3.72,17.53A2,2,0,0,0,2.61,21l9.24,9L9.67,42.65a2,2,0,0,0,2,2.35,2,2,0,0,0,.93-.23l11.43-6,11.43,6a2,2,0,0,0,2.9-2.12L36.15,30l9.24-9a2,2,0,0,0-1.11-3.42L31.51,15.68,25.8,4.12A2,2,0,0,0,24,3Z"/></g></g></svg>