<svg xmlns="http://www.w3.org/2000/svg" viewBox="0 0 48 48"><defs><style>.cls-1{fill:none;}</style></defs><title>star</title><g id="Layer_2" data-name="Layer 2"><g id="invisible_box" data-name="invisible box"><rect class="cls-1" width="48" height="48"/></g><g id="Layer_3" data-name="Layer 3"><path d="M24,9.51l3.92,7.94.93,1.89,2.09.3,8.76,1.27-6.34,6.17-1.51,1.47.36,2.07,1.5,8.72-7.85-4.12-1.86-1-1.86,1-7.85,4.12,1.5-8.72.36-2.07-1.51-1.47L8.3,20.91l8.76-1.27,2.09-.3.93-1.89L24,9.51M24,3a2,2,0,0,0-1.8,1.12L16.49,15.68,3.72,17.53A2,2,0,0,0,2.61,21l9.24,9L9.67,42.65a2,2,0,0,0,2,2.35,2,2,0,0,0,.93-.23l11.43-6,11.43,6a2,2,0,0,0,2.9-2.12L36.15,30l9.24-9a2,2,0,0,0-1.11-3.42L31.51,15.68,25.8,4.12A2,2,0,0,0,24,3Z"/></g></g></svg>