<svg xmlns="http://www.w3.org/2000/svg" viewBox="0 0 48 48"><defs><style>.cls-1{fill:none;}</style></defs><title>stop-warning</title><g id="Layer_2" data-name="Layer 2"><g id="invisible_box" data-name="invisible box"><rect class="cls-1" width="48" height="48"/></g><g id="Layer_3" data-name="Layer 3"><path d="M43.41,15.13,32.87,4.59A2,2,0,0,0,31.45,4H16.55a2,2,0,0,0-1.42.59L4.59,15.13A2,2,0,0,0,4,16.55v14.9a2,2,0,0,0,.59,1.42L15.13,43.41a2,2,0,0,0,1.42.59h14.9a2,2,0,0,0,1.42-.59L43.41,32.87A2,2,0,0,0,44,31.45V16.55A2,2,0,0,0,43.41,15.13ZM40,30.63,30.63,40H17.37L8,30.63V17.37L17.37,8H30.63L40,17.37Z"/><path d="M26.83,24l5.58-5.59a2,2,0,1,0-2.82-2.82L24,21.17l-5.59-5.58a2,2,0,0,0-2.82,2.82L21.17,24l-5.58,5.59a2,2,0,1,0,2.82,2.82L24,26.83l5.59,5.58a2,2,0,1,0,2.82-2.82Z"/></g></g></svg>