<svg xmlns="http://www.w3.org/2000/svg" viewBox="0 0 48 48"><defs><style>.cls-1{fill:none;}</style></defs><title>stop-warning-solid</title><g id="Layer_2" data-name="Layer 2"><g id="invisible_box" data-name="invisible box"><rect class="cls-1" width="48" height="48"/></g><g id="Layer_3" data-name="Layer 3"><path d="M43.41,15.13,32.87,4.59A2,2,0,0,0,31.45,4H16.55a2,2,0,0,0-1.42.59L4.59,15.13A2,2,0,0,0,4,16.55v14.9a2,2,0,0,0,.59,1.42L15.13,43.41a2,2,0,0,0,1.42.59h14.9a2,2,0,0,0,1.42-.59L43.41,32.87A2,2,0,0,0,44,31.45V16.55A2,2,0,0,0,43.41,15.13Zm-11,14.46a2,2,0,1,1-2.82,2.82L24,26.83l-5.59,5.58a2,2,0,1,1-2.82-2.82L21.17,24l-5.58-5.59a2,2,0,0,1,2.82-2.82L24,21.17l5.59-5.58a2,2,0,1,1,2.82,2.82L26.83,24Z"/></g></g></svg>