<svg xmlns="http://www.w3.org/2000/svg" viewBox="0 0 48 48"><defs><style>.cls-1{fill:none;}</style></defs><title>subdirectory-left-solid</title><g id="Layer_2" data-name="Layer 2"><g id="invisible_box" data-name="invisible box"><rect class="cls-1" width="48" height="48"/></g><g id="Layer_3" data-name="Layer 3"><path d="M35,4a2,2,0,0,0-2,2V31H15.83l5.58-5.6a2,2,0,0,0-.25-3,2.07,2.07,0,0,0-2.65.3L9.59,31.59a2,2,0,0,0,0,2.83l8.92,8.93a2.07,2.07,0,0,0,2.65.3,2,2,0,0,0,.25-3L15.82,35H35a2,2,0,0,0,.93-.24A2,2,0,0,0,37,33V6A2,2,0,0,0,35,4Z"/></g></g></svg>