<svg xmlns="http://www.w3.org/2000/svg" viewBox="0 0 48 48"><defs><style>.cls-1{fill:none;}</style></defs><title>subdirectory-right</title><g id="Layer_2" data-name="Layer 2"><g id="invisible_box" data-name="invisible box"><rect class="cls-1" width="48" height="48"/></g><g id="Layer_3" data-name="Layer 3"><path d="M38.41,31.59l-8.92-8.94a2.07,2.07,0,0,0-2.65-.3,2,2,0,0,0-.25,3L32.17,31H15V6a2,2,0,0,0-4,0V33a2,2,0,0,0,1.07,1.76A2,2,0,0,0,13,35H32.18l-5.59,5.6a2,2,0,0,0,.25,3,2.07,2.07,0,0,0,2.65-.3l8.92-8.93A2,2,0,0,0,38.41,31.59Z"/></g></g></svg>