<svg xmlns="http://www.w3.org/2000/svg" viewBox="0 0 48 48"><defs><style>.cls-1{fill:none;}</style></defs><title>swap-horizontal-circle-solid</title><g id="Layer_2" data-name="Layer 2"><g id="invisible_box" data-name="invisible box"><rect class="cls-1" width="48" height="48"/></g><g id="Layer_3" data-name="Layer 3"><path d="M24,2A22,22,0,1,0,46,24,22,22,0,0,0,24,2ZM11.59,16.58l4.92-4.93a2.07,2.07,0,0,1,2.65-.3,2,2,0,0,1,.25,3.05L17.82,16H33a2,2,0,0,1,0,4H17.82l1.59,1.6a2,2,0,0,1-.25,3,2.07,2.07,0,0,1-2.65-.3l-4.92-4.94A2,2,0,0,1,11.59,16.58ZM36.41,31.42l-4.92,4.93a2.07,2.07,0,0,1-2.65.3,2,2,0,0,1-.25-3L30.18,32H15a2,2,0,0,1,0-4H30.18l-1.59-1.6a2,2,0,0,1,.25-3,2.07,2.07,0,0,1,2.65.3l4.92,4.94A2,2,0,0,1,36.41,31.42Z"/></g></g></svg>