<svg xmlns="http://www.w3.org/2000/svg" viewBox="0 0 48 48"><defs><style>.cls-1{fill:none;}</style></defs><title>swap-vertical-circle-solid</title><g id="Layer_2" data-name="Layer 2"><g id="invisible_box" data-name="invisible box"><rect class="cls-1" width="48" height="48"/></g><g id="Layer_3" data-name="Layer 3"><path d="M24,2A22,22,0,1,0,46,24,22,22,0,0,0,24,2Zm.35,29.49-4.94,4.92a2,2,0,0,1-2.83,0l-4.93-4.92a2.07,2.07,0,0,1-.3-2.65,2,2,0,0,1,3.05-.25L16,30.18V15a2,2,0,0,1,4,0V30.18l1.6-1.59a2,2,0,0,1,3,.25A2.07,2.07,0,0,1,24.35,31.49Zm12.3-12.33a2,2,0,0,1-3,.25L32,17.82V33a2,2,0,0,1-4,0V17.82l-1.6,1.59a2,2,0,0,1-3-.25,2.07,2.07,0,0,1,.3-2.65l4.94-4.92a2,2,0,0,1,2.83,0l4.93,4.92A2.07,2.07,0,0,1,36.65,19.16Z"/></g></g></svg>