<svg xmlns="http://www.w3.org/2000/svg" viewBox="0 0 48 48"><defs><style>.cls-1{fill:none;}</style></defs><title>swap-vertical-circle</title><g id="Layer_2" data-name="Layer 2"><g id="invisible_box" data-name="invisible box"><rect class="cls-1" width="48" height="48"/></g><g id="Layer_3" data-name="Layer 3"><path d="M19.41,36.41l4.94-4.92a2.07,2.07,0,0,0,.3-2.65,2,2,0,0,0-3-.25L20,30.18V15a2,2,0,0,0-4,0V30.18l-1.6-1.59a2,2,0,0,0-3.05.25,2.07,2.07,0,0,0,.3,2.65l4.93,4.92A2,2,0,0,0,19.41,36.41Z"/><path d="M32,33V17.82l1.6,1.59a2,2,0,0,0,3-.25,2.07,2.07,0,0,0-.3-2.65l-4.93-4.92a2,2,0,0,0-2.83,0l-4.94,4.92a2.07,2.07,0,0,0-.3,2.65,2,2,0,0,0,3,.25L28,17.82V33a2,2,0,0,0,4,0Z"/><path d="M24,42A18,18,0,1,1,42,24,18,18,0,0,1,24,42m0,4A22,22,0,1,0,2,24,22,22,0,0,0,24,46Z"/></g></g></svg>