<svg xmlns="http://www.w3.org/2000/svg" viewBox="0 0 48 48"><defs><style>.cls-1{fill:none;}</style></defs><title>swap-vertical-solid</title><g id="Layer_2" data-name="Layer 2"><g id="invisible_box" data-name="invisible box"><rect class="cls-1" width="48" height="48"/></g><g id="Layer_3" data-name="Layer 3"><path d="M24.35,33.49a2.07,2.07,0,0,0,.3-2.65,2,2,0,0,0-3-.25L17,35.17V8a2,2,0,0,0-4,0V35.18L8.4,30.59a2,2,0,0,0-3.05.25,2.07,2.07,0,0,0,.3,2.65l7.93,7.92a2,2,0,0,0,2.83,0Z"/><path d="M23.65,14.51a2.07,2.07,0,0,0-.3,2.65,2,2,0,0,0,3,.25L31,12.83V40a2,2,0,0,0,4,0V12.82l4.6,4.59a2,2,0,0,0,3-.25,2.07,2.07,0,0,0-.3-2.65L34.42,6.59a2,2,0,0,0-2.83,0Z"/></g></g></svg>