<svg xmlns="http://www.w3.org/2000/svg" viewBox="0 0 48 48"><defs><style>.cls-1{fill:none;}</style></defs><title>swap-horizontal-circle</title><g id="Layer_2" data-name="Layer 2"><g id="invisible_box" data-name="invisible box"><rect class="cls-1" width="48" height="48"/></g><g id="Layer_3" data-name="Layer 3"><path d="M36.41,28.59l-4.92-4.94a2.07,2.07,0,0,0-2.65-.3,2,2,0,0,0-.25,3L30.18,28H15a2,2,0,0,0,0,4H30.18l-1.59,1.6a2,2,0,0,0,.25,3,2.07,2.07,0,0,0,2.65-.3l4.92-4.93A2,2,0,0,0,36.41,28.59Z"/><path d="M33,16H17.82l1.59-1.6a2,2,0,0,0-.25-3.05,2.07,2.07,0,0,0-2.65.3l-4.92,4.93a2,2,0,0,0,0,2.83l4.92,4.94a2.07,2.07,0,0,0,2.65.3,2,2,0,0,0,.25-3L17.82,20H33a2,2,0,0,0,0-4Z"/><path d="M42,24A18,18,0,1,1,24,6,18,18,0,0,1,42,24m4,0A22,22,0,1,0,24,46,22,22,0,0,0,46,24Z"/></g></g></svg>