<svg xmlns="http://www.w3.org/2000/svg" viewBox="0 0 48 48"><defs><style>.cls-1{fill:none;}</style></defs><title>swap-horizontal-solid</title><g id="Layer_2" data-name="Layer 2"><g id="invisible_box" data-name="invisible box"><rect class="cls-1" width="48" height="48"/></g><g id="Layer_3" data-name="Layer 3"><path d="M33.49,23.65a2.07,2.07,0,0,0-2.65-.3,2,2,0,0,0-.25,3L35.17,31H8a2,2,0,0,0,0,4H35.18l-4.59,4.6a2,2,0,0,0,.25,3,2.07,2.07,0,0,0,2.65-.3l7.92-7.93a2,2,0,0,0,0-2.83Z"/><path d="M14.51,24.35a2.07,2.07,0,0,0,2.65.3,2,2,0,0,0,.25-3L12.83,17H40a2,2,0,0,0,0-4H12.82l4.59-4.6a2,2,0,0,0-.25-3.05,2.07,2.07,0,0,0-2.65.3L6.59,13.58a2,2,0,0,0,0,2.83Z"/></g></g></svg>