<svg xmlns="http://www.w3.org/2000/svg" viewBox="0 0 48 48"><defs><style>.cls-1{fill:none;}</style></defs><title>sync</title><g id="Layer_2" data-name="Layer 2"><g id="invisible_box" data-name="invisible box"><rect class="cls-1" width="48" height="48"/></g><g id="Layer_3" data-name="Layer 3"><path d="M44,5.12V14a2,2,0,0,1-2,2H33a2,2,0,0,1-2-2.34A2.09,2.09,0,0,1,33.12,12H37.4A18,18,0,0,0,6.09,22.17a2,2,0,0,1-2,1.83h0a2,2,0,0,1-2-2.15A22,22,0,0,1,40,8.91V5a2,2,0,0,1,2.34-2A2.09,2.09,0,0,1,44,5.12Z"/><path d="M4,42.88V34a2,2,0,0,1,2-2h9a2,2,0,0,1,2,2.34A2.09,2.09,0,0,1,14.88,36H10.6A18,18,0,0,0,41.91,25.83a2,2,0,0,1,2-1.83h0a2,2,0,0,1,2,2.15A22,22,0,0,1,8,39.09V43a2,2,0,0,1-2.34,2A2.09,2.09,0,0,1,4,42.88Z"/></g></g></svg>