<svg xmlns="http://www.w3.org/2000/svg" viewBox="0 0 48 48"><defs><style>.cls-1{fill:none;}</style></defs><title>table</title><g id="Layer_2" data-name="Layer 2"><g id="invisible_box" data-name="invisible box"><rect class="cls-1" width="48" height="48"/></g><g id="Layer_3" data-name="Layer 3"><path d="M42,4H6A2,2,0,0,0,4,6V42a2,2,0,0,0,2,2H42a2,2,0,0,0,2-2V6A2,2,0,0,0,42,4ZM16,40H8V32h8Zm0-12H8V20h8Zm0-12H8V8h8ZM28,40H20V32h8Zm0-12H20V20h8Zm0-12H20V8h8ZM40,32v8H32V32Zm0-4H32V20h8Zm0-12H32V8h8Z"/></g></g></svg>