<svg xmlns="http://www.w3.org/2000/svg" viewBox="0 0 48 48"><defs><style>.cls-1{fill:none;}</style></defs><title>target</title><g id="Layer_2" data-name="Layer 2"><g id="invisible_box" data-name="invisible box"><rect class="cls-1" width="48" height="48"/></g><g id="Layer_3" data-name="Layer 3"><path d="M14,26H4a2,2,0,0,1,0-4H14a2,2,0,0,1,0,4Z"/><path d="M44,26H34a2,2,0,0,1,0-4H44a2,2,0,0,1,0,4Z"/><path d="M22,14V4a2,2,0,0,1,4,0V14a2,2,0,0,1-4,0Z"/><path d="M22,44V34a2,2,0,0,1,4,0V44a2,2,0,0,1-4,0Z"/><path d="M24,10A14,14,0,1,1,10,24,14,14,0,0,1,24,10m0-4A18,18,0,1,0,42,24,18,18,0,0,0,24,6Z"/></g></g></svg>