<svg xmlns="http://www.w3.org/2000/svg" viewBox="0 0 48 48"><defs><style>.cls-1{fill:none;}</style></defs><title>target-solid</title><g id="Layer_2" data-name="Layer 2"><g id="invisible_box" data-name="invisible box"><rect class="cls-1" width="48" height="48"/></g><g id="Layer_3" data-name="Layer 3"><path d="M44,22H41.88A18,18,0,0,0,26,6.12V4a2,2,0,0,0-4,0V6.12A18,18,0,0,0,6.12,22H4a2,2,0,0,0,0,4H6.12A18,18,0,0,0,22,41.88V44a2,2,0,0,0,4,0V41.88A18,18,0,0,0,41.88,26H44a2,2,0,0,0,0-4ZM26,37.84V34a2,2,0,0,0-4,0v3.84A14,14,0,0,1,10.16,26H14a2,2,0,0,0,0-4H10.16A14,14,0,0,1,22,10.16V14a2,2,0,0,0,4,0V10.16A14,14,0,0,1,37.84,22H34a2,2,0,0,0,0,4h3.84A14,14,0,0,1,26,37.84Z"/></g></g></svg>