<svg xmlns="http://www.w3.org/2000/svg" viewBox="0 0 48 48"><defs><style>.cls-1{fill:none;}</style></defs><title>thumbs-up</title><g id="Layer_2" data-name="Layer 2"><g id="invisible_box" data-name="invisible box"><rect class="cls-1" width="48" height="48"/></g><g id="Layer_3" data-name="Layer 3"><path d="M39,15H35l.37-3.3C36,6,32.4,2,28.79,2a1.89,1.89,0,0,0-1.74,1.14S20,18,17,18H6a2,2,0,0,0-2,2V39a2,2,0,0,0,2,2H18V38h1.32a2,2,0,0,1,1.2.4c1.35,1,5.06,3.6,7.48,3.6h6c5.89,0,11-4,11.48-11.95h0L46,22A6.7,6.7,0,0,0,39,15ZM14,37H8V22h6Zm27.49-7.2v.14a9.48,9.48,0,0,1-2.24,5.94A6.89,6.89,0,0,1,34,38H28c-.61,0-2.61-.94-5.11-2.81A5.93,5.93,0,0,0,19.32,34H18V21.93c2-.34,5.52-2.44,11.88-15.45a3.91,3.91,0,0,1,.36.35,5.66,5.66,0,0,1,1.15,4.42L31,14.55,30.53,19H39a2.72,2.72,0,0,1,3,2.89Z"/></g></g></svg>