<svg xmlns="http://www.w3.org/2000/svg" viewBox="0 0 48 48"><defs><style>.cls-1{fill:none;}</style></defs><title>thumbs-down</title><g id="Layer_2" data-name="Layer 2"><g id="invisible_box" data-name="invisible box"><rect class="cls-1" width="48" height="48"/></g><g id="Layer_3" data-name="Layer 3"><path d="M45.48,18h0C45,10,39.89,6,34,6H28c-2.42,0-6.13,2.59-7.48,3.6a2,2,0,0,1-1.2.4H6a2,2,0,0,0-2,2V31a2,2,0,0,0,2,2H18V30.41c3.33,2.39,9.05,14.45,9.05,14.45A1.89,1.89,0,0,0,28.79,46c3.61,0,7.21-4,6.58-9.7L35,33h4a6.7,6.7,0,0,0,7-7ZM14,29H8V14h6Zm25,0H30.53L31,33.45l.37,3.3a5.66,5.66,0,0,1-1.15,4.42,3.91,3.91,0,0,1-.36.35C23.52,28.51,20,26.41,18,26.07V14h1.32a5.93,5.93,0,0,0,3.59-1.19C25.41,10.94,27.41,10,28,10h6a6.89,6.89,0,0,1,5.24,2.14,9.48,9.48,0,0,1,2.24,5.94v.14L42,26.11A2.72,2.72,0,0,1,39,29Z"/></g></g></svg>