<svg xmlns="http://www.w3.org/2000/svg" viewBox="0 0 48 48"><defs><style>.cls-1{fill:none;}</style></defs><title>thumbs-up-solid</title><g id="Layer_2" data-name="Layer 2"><g id="invisible_box" data-name="invisible box"><rect class="cls-1" width="48" height="48"/></g><g id="Layer_3" data-name="Layer 3"><path d="M6,18a2,2,0,0,0-2,2V39a2,2,0,0,0,2,2h8V18Zm33-3H32l.37-3.3C33,6,32.4,2,28.79,2a1.89,1.89,0,0,0-1.74,1.14S21.33,15.2,18,17.59V38h1.32a2,2,0,0,1,1.2.4c1.35,1,5.06,3.6,7.48,3.6h6c5.89,0,11-4,11.48-11.95h0L46,22A6.7,6.7,0,0,0,39,15Z"/></g></g></svg>