<svg xmlns="http://www.w3.org/2000/svg" viewBox="0 0 48 48"><defs><style>.cls-1{fill:none;}</style></defs><title>thumbs-down-solid</title><g id="Layer_2" data-name="Layer 2"><g id="invisible_box" data-name="invisible box"><rect class="cls-1" width="48" height="48"/></g><g id="Layer_3" data-name="Layer 3"><path d="M45.48,18h0C45,10,39.89,6,34,6H28c-2.42,0-6.13,2.59-7.48,3.6a2,2,0,0,1-1.2.4H18V30.41c3.33,2.39,9.05,14.45,9.05,14.45A1.89,1.89,0,0,0,28.79,46c3.61,0,4.21-4,3.58-9.7L32,33h7a6.7,6.7,0,0,0,7-7ZM4,12V31a2,2,0,0,0,2,2h8V10H6A2,2,0,0,0,4,12Z"/></g></g></svg>