<svg xmlns="http://www.w3.org/2000/svg" viewBox="0 0 48 48"><defs><style>.cls-1{fill:none;}</style></defs><title>timer-solid</title><g id="Layer_2" data-name="Layer 2"><g id="invisible_box" data-name="invisible box"><rect class="cls-1" width="48" height="48"/></g><g id="Layer_3" data-name="Layer 3"><path d="M24,19a5,5,0,0,0-1.82.35l-4.77-4.76a2,2,0,0,0-2.82,2.82l4.76,4.77A5,5,0,1,0,24,19Z"/><path d="M24,46A22,22,0,0,1,2,24a2,2,0,0,1,4,0A18,18,0,1,0,26,6.11V10a2,2,0,0,1-4,0V2h2a22,22,0,0,1,0,44Z"/></g></g></svg>