<svg xmlns="http://www.w3.org/2000/svg" viewBox="0 0 48 48"><defs><style>.cls-1{fill:none;}</style></defs><title>time-alarm-add</title><g id="Layer_2" data-name="Layer 2"><g id="invisible_box" data-name="invisible box"><rect class="cls-1" width="48" height="48"/></g><g id="Layer_3" data-name="Layer 3"><path d="M24,8A19,19,0,1,0,43,27,19,19,0,0,0,24,8Zm8.41,20.41A2,2,0,0,1,31,29H26v5a2,2,0,0,1-2,2,2,2,0,0,1-2-2V29H17a2,2,0,0,1-2-2,2,2,0,0,1,2-2h5V20a2,2,0,0,1,2-2,2,2,0,0,1,2,2v5h5a2,2,0,0,1,2,2A2,2,0,0,1,32.41,28.41Z"/><path d="M6,12A2,2,0,0,1,4.8,8.4l8-6a2,2,0,0,1,2.4,3.2l-8,6A2,2,0,0,1,6,12Z"/><path d="M42,12a2,2,0,0,1-1.2-.4l-8-6a2,2,0,0,1,2.4-3.2l8,6A2,2,0,0,1,42,12Z"/></g></g></svg>