<svg xmlns="http://www.w3.org/2000/svg" viewBox="0 0 48 48"><defs><style>.cls-1{fill:none;}</style></defs><title>time-alarm-off-solid</title><g id="Layer_2" data-name="Layer 2"><g id="invisible_box" data-name="invisible box"><rect class="cls-1" width="48" height="48"/></g><g id="Layer_3" data-name="Layer 3"><path d="M44.41,41.59,11.33,8.51,8.47,5.65,6.41,3.59A2,2,0,0,0,3.29,6a1.79,1.79,0,0,0,.3.38L5.25,8.06,4.8,8.4a2,2,0,0,0-.4,2.8,2,2,0,0,0,.94.68h0A1.78,1.78,0,0,0,6,12a2,2,0,0,0,1.2-.4l.58-.43.32-.25,2.56,2.56A19,19,0,1,0,37.52,40.34l4.07,4.07a2,2,0,0,0,2.82-2.82Z"/><path d="M15.2,5.6a2,2,0,0,0-2.4-3.2l-.9.68,2.85,2.85Z"/><path d="M32.8,5.6l8,6a2,2,0,1,0,2.4-3.2l-8-6a2,2,0,0,0-2.4,3.2Z"/><path d="M43,27A19,19,0,0,0,24,8a18.72,18.72,0,0,0-6.15,1L42,33.15A18.72,18.72,0,0,0,43,27Z"/></g></g></svg>