<svg xmlns="http://www.w3.org/2000/svg" viewBox="0 0 48 48"><defs><style>.cls-1{fill:none;}</style></defs><title>time-alarm-off</title><g id="Layer_2" data-name="Layer 2"><g id="invisible_box" data-name="invisible box"><rect class="cls-1" width="48" height="48"/></g><g id="Layer_3" data-name="Layer 3"><path d="M44.41,44.41a2,2,0,0,1-2.82,0l-6.07-6.07-2.83-2.83L6.1,8.92,3.59,6.41A1.79,1.79,0,0,1,3.29,6,2,2,0,0,1,6.41,3.59l38,38A2,2,0,0,1,44.41,44.41Z"/><path d="M42,33.15A17.68,17.68,0,0,1,40.16,37l-2.93-2.93a14.79,14.79,0,0,0,1.49-4.15Z"/><path d="M13.31,16.49a15.61,15.61,0,0,0-2.42,3.22L8,16.8a18.54,18.54,0,0,1,2.5-3.14Z"/><path d="M31.29,40.11a15,15,0,0,1-20.4-20.4,15.61,15.61,0,0,1,2.42-3.22l.18-.18a15.61,15.61,0,0,1,3.22-2.42L13.8,11a18.54,18.54,0,0,0-3.14,2.5l-.18.18A18.54,18.54,0,0,0,8,16.8,19,19,0,0,0,34.2,43ZM24,8a18.72,18.72,0,0,0-6.15,1l3.25,3.25A15.41,15.41,0,0,1,24,12,15,15,0,0,1,39,27a15.41,15.41,0,0,1-.28,2.9,14.79,14.79,0,0,1-1.49,4.15l-.12.24a15.61,15.61,0,0,1-2.42,3.22l2.83,2.83A18.54,18.54,0,0,0,40,37.2a1.64,1.64,0,0,0,.14-.22A17.68,17.68,0,0,0,42,33.15,18.72,18.72,0,0,0,43,27,19,19,0,0,0,24,8Z"/><path d="M11.33,8.51,8.1,10.92l-.32.25-.58.43A2,2,0,0,1,6,12a1.78,1.78,0,0,1-.65-.12h0a2,2,0,0,1-.94-.68,2,2,0,0,1,.4-2.8L5.29,8,8.47,5.65Z"/><path d="M15.2,5.6l-.45.33L11.9,3.08l.9-.68a2,2,0,0,1,2.4,3.2Z"/><path d="M42,12a2,2,0,0,1-1.2-.4l-8-6a2,2,0,0,1,2.4-3.2l8,6A2,2,0,0,1,42,12Z"/></g></g></svg>