<svg xmlns="http://www.w3.org/2000/svg" viewBox="0 0 48 48"><defs><style>.cls-1{fill:none;}</style></defs><title>time-alarm-add</title><g id="Layer_2" data-name="Layer 2"><g id="invisible_box" data-name="invisible box"><rect class="cls-1" width="48" height="48"/></g><g id="Layer_3" data-name="Layer 3"><path d="M24,12A15,15,0,1,1,9,27,15,15,0,0,1,24,12m0-4A19,19,0,1,0,43,27,19,19,0,0,0,24,8Z"/><path d="M6,12A2,2,0,0,1,4.8,8.4l8-6a2,2,0,0,1,2.4,3.2l-8,6A2,2,0,0,1,6,12Z"/><path d="M42,12a2,2,0,0,1-1.2-.4l-8-6a2,2,0,0,1,2.4-3.2l8,6A2,2,0,0,1,42,12Z"/><rect x="15" y="25" width="18" height="4" rx="2" ry="2"/><rect x="15" y="25" width="18" height="4" rx="2" ry="2" transform="translate(51 3) rotate(90)"/></g></g></svg>