<svg xmlns="http://www.w3.org/2000/svg" viewBox="0 0 48 48"><defs><style>.cls-1{fill:none;}</style></defs><title>time-history-solid</title><g id="Layer_2" data-name="Layer 2"><g id="invisible_box" data-name="invisible box"><rect class="cls-1" width="48" height="48"/><rect class="cls-1" width="48" height="48"/><rect class="cls-1" width="48" height="48"/></g><g id="Layer_3" data-name="Layer 3"><path d="M46,24A22,22,0,0,1,4.26,33.72a2.07,2.07,0,0,1,.54-2.59,2,2,0,0,1,3,.72A18,18,0,1,0,10.6,12h5.28A2.07,2.07,0,0,1,18,13.66,2,2,0,0,1,16,16H6a2,2,0,0,1-2-2V4.12A2.08,2.08,0,0,1,5.66,2,2,2,0,0,1,8,4V8.91A22,22,0,0,1,46,24Z"/><path d="M34,32a1.94,1.94,0,0,1-1-.29L22,25.13V14a2,2,0,0,1,4,0v8.87l9,5.42A2,2,0,0,1,34,32Z"/></g></g></svg>