<svg xmlns="http://www.w3.org/2000/svg" viewBox="0 0 48 48"><defs><style>.cls-1{fill:none;}</style></defs><title>time-update-solid</title><g id="Layer_2" data-name="Layer 2"><g id="invisible_box" data-name="invisible box"><rect class="cls-1" width="48" height="48"/></g><g id="Layer_3" data-name="Layer 3"><path d="M2,24a22,22,0,0,0,41.74,9.72,2.07,2.07,0,0,0-.54-2.59,2,2,0,0,0-3,.72A18,18,0,1,1,37.4,12H32.12A2.07,2.07,0,0,0,30,13.66,2,2,0,0,0,32,16H42a2,2,0,0,0,2-2V4.12A2.07,2.07,0,0,0,42.34,2,2,2,0,0,0,40,4V8.91A22,22,0,0,0,2,24Z"/><path d="M34,32a1.94,1.94,0,0,1-1-.29L22,25.13V14a2,2,0,0,1,4,0v8.87l9,5.42A2,2,0,0,1,34,32Z"/></g></g></svg>