<svg xmlns="http://www.w3.org/2000/svg" viewBox="0 0 48 48"><defs><style>.cls-1{fill:none;}</style></defs><title>tools-solid</title><g id="Layer_2" data-name="Layer 2"><g id="invisible_box" data-name="invisible box"><rect class="cls-1" width="48" height="48"/></g><g id="Layer_3" data-name="Layer 3"><path d="M36.16,26.41a2,2,0,0,0,1.41.59A2,2,0,0,0,39,26.41L45.41,20a2,2,0,0,0,0-2.83l-3-3A3.93,3.93,0,0,0,43,12a4,4,0,0,0-4-4,3.93,3.93,0,0,0-2.12.62l-3-3a2,2,0,0,0-2.83,0L24.59,12a2,2,0,0,0,0,2.83L29,19.21l-5,5-5.39-5.39A8.89,8.89,0,0,0,20,14a9,9,0,0,0-9-9,2,2,0,0,0,0,4,5,5,0,1,1-5,5,2,2,0,0,0-4,0,9,9,0,0,0,9,9,8.89,8.89,0,0,0,4.78-1.39L21.17,27,8.59,39.59a2,2,0,1,0,2.82,2.82L24,29.83,36.59,42.41a2,2,0,0,0,2.82-2.82L26.83,27l5-5Z"/></g></g></svg>