<svg xmlns="http://www.w3.org/2000/svg" viewBox="0 0 48 48"><defs><style>.cls-1{fill:none;}</style></defs><title>top-page</title><g id="Layer_2" data-name="Layer 2"><g id="invisible_box" data-name="invisible box"><rect class="cls-1" width="48" height="48"/></g><g id="Layer_3" data-name="Layer 3"><path d="M6,6H42a2,2,0,0,1,0,4H6A2,2,0,0,1,6,6Z"/><path d="M35.35,24.51l-9.93-9.92a2,2,0,0,0-2.83,0l-9.94,9.92a2.07,2.07,0,0,0-.3,2.65,2,2,0,0,0,3.05.25L22,20.83V38a2,2,0,0,0,4,0V20.82l6.6,6.59a2,2,0,0,0,3-.25A2.07,2.07,0,0,0,35.35,24.51Z"/></g></g></svg>