<svg xmlns="http://www.w3.org/2000/svg" viewBox="0 0 48 48"><defs><style>.cls-1{fill:none;}</style></defs><title>translate</title><g id="Layer_2" data-name="Layer 2"><g id="invisible_box" data-name="invisible box"><rect class="cls-1" width="48" height="48"/></g><g id="Layer_3" data-name="Layer 3"><path d="M43.83,41.18l-10-24.92A2,2,0,0,0,32,15H30a2,2,0,0,0-1.86,1.26L23.28,28.41a27.63,27.63,0,0,1-5.55-4.3c3.37-4.06,5.86-8.81,6.2-13.11h2A2.07,2.07,0,0,0,28,9.34,2,2,0,0,0,26,7H17.5V4.11A2.07,2.07,0,0,0,15.84,2,2,2,0,0,0,13.5,4V7H6.11A2.07,2.07,0,0,0,4,8.66,2,2,0,0,0,6,11H19.93c-.37,3-2.28,6.73-4.93,10.08a29.38,29.38,0,0,1-3.17-4.88A2,2,0,0,0,9.65,15a2,2,0,0,0-1.44,2.86,32,32,0,0,0,4.1,6.2,23.51,23.51,0,0,1-7.06,5.05A2,2,0,0,0,4,31.36,2,2,0,0,0,6,33a2,2,0,0,0,.78-.16A28.13,28.13,0,0,0,15,27.05a30.39,30.39,0,0,0,6.77,5.09l-3.62,9A2.06,2.06,0,0,0,19,43.73,2.1,2.1,0,0,0,20,44a2,2,0,0,0,1.86-1.26L25.75,33h10.5l3.89,9.74A2,2,0,0,0,42,44a2.1,2.1,0,0,0,1-.27A2.06,2.06,0,0,0,43.83,41.18ZM27.35,29,31,19.88,34.65,29Z"/></g></g></svg>