<svg xmlns="http://www.w3.org/2000/svg" viewBox="0 0 48 48"><defs><style>.cls-1{fill:none;}</style></defs><title>trash-disable-solid</title><g id="Layer_2" data-name="Layer 2"><g id="invisible_box" data-name="invisible box"><rect class="cls-1" width="48" height="48"/></g><g id="Layer_3" data-name="Layer 3"><path d="M41.41,42.59l-36-36A2,2,0,0,0,2.29,9c.08.14,6.8,6.88,6.8,6.88l2.73,27.3a2,2,0,0,0,2,1.79H34.21a2,2,0,0,0,2-1.79l0-.17,2.37,2.37a2,2,0,0,0,2.82-2.82Z"/><path d="M43,8.82a2,2,0,0,1-.58,1.59A2,2,0,0,1,41,11H15.82l-4-4H17V5a2,2,0,0,1,2-2H29a2,2,0,0,1,2,2V7h9.89A2.08,2.08,0,0,1,43,8.82Z"/><path d="M36.78,15l-16.87.09L37.26,32.44l1.5-15.23A2,2,0,0,0,36.78,15Z"/></g></g></svg>