<svg xmlns="http://www.w3.org/2000/svg" viewBox="0 0 48 48"><defs><style>.cls-1{fill:none;}</style></defs><title>trash-solid</title><g id="Layer_2" data-name="Layer 2"><g id="invisible_box" data-name="invisible box"><rect class="cls-1" width="48" height="48"/></g><g id="Layer_3" data-name="Layer 3"><path d="M43,8.82a2,2,0,0,1-.58,1.59A2,2,0,0,1,41,11H7.11A2.08,2.08,0,0,1,5,9.18,2,2,0,0,1,7,7H17V5a2,2,0,0,1,2-2H29a2,2,0,0,1,2,2V7h9.89A2.08,2.08,0,0,1,43,8.82Z"/><path d="M11.23,15h0a2,2,0,0,0-2,2.21l2.58,26a2,2,0,0,0,2,1.79H34.21a2,2,0,0,0,2-1.79l2.56-26a2,2,0,0,0-2-2.21H11.23Z"/></g></g></svg>