<svg xmlns="http://www.w3.org/2000/svg" viewBox="0 0 48 48"><defs><style>.cls-1{fill:none;}</style></defs><title>tv-solid</title><g id="Layer_2" data-name="Layer 2"><g id="invisible_box" data-name="invisible box"><rect class="cls-1" width="48" height="48"/></g><g id="Layer_3" data-name="Layer 3"><path d="M22,41V35a2,2,0,0,1,4,0v6a2,2,0,0,1-4,0Z"/><path d="M44,4H4A2,2,0,0,0,2,6V34a2,2,0,0,0,2,2H44a2,2,0,0,0,2-2V6a2,2,0,0,0-2-2Z"/><path d="M35,44H13a2,2,0,0,1,0-4H35a2,2,0,0,1,0,4Z"/></g></g></svg>