<svg xmlns="http://www.w3.org/2000/svg" viewBox="0 0 48 48"><defs><style>.cls-1{fill:none;}</style></defs><title>upload</title><g id="Layer_2" data-name="Layer 2"><g id="invisible_box" data-name="invisible box"><rect class="cls-1" width="48" height="48"/></g><g id="Layer_3" data-name="Layer 3"><path d="M42,40H6a2,2,0,0,0,0,4H42a2,2,0,0,0,0-4Z"/><path d="M35.35,14.51,25.42,4.59a2,2,0,0,0-2.83,0l-9.94,9.92a2.07,2.07,0,0,0-.3,2.65,2,2,0,0,0,3.05.25L22,10.83V34a2,2,0,0,0,4,0V10.82l6.6,6.59a2,2,0,0,0,3-.25A2.07,2.07,0,0,0,35.35,14.51Z"/></g></g></svg>