<svg xmlns="http://www.w3.org/2000/svg" viewBox="0 0 48 48"><defs><style>.cls-1{fill:none;}</style></defs><title>user-org-chart-solid</title><g id="Layer_2" data-name="Layer 2"><g id="invisible_box" data-name="invisible box"><rect class="cls-1" width="48" height="48"/></g><g id="Layer_3" data-name="Layer 3"><circle cx="24" cy="9" r="6"/><path d="M40,33H26V27h7a2,2,0,0,0,2-2V21a17.9,17.9,0,0,0-11-4,17.9,17.9,0,0,0-11,4v4a2,2,0,0,0,2,2h7v6H8a2,2,0,0,0-2,2v8a2,2,0,0,0,4,0V37H22v6a2,2,0,0,0,4,0V37H38v6a2,2,0,0,0,4,0V35A2,2,0,0,0,40,33Z"/></g></g></svg>