<svg xmlns="http://www.w3.org/2000/svg" viewBox="0 0 48 48"><defs><style>.cls-1{fill:none;}</style></defs><title>user-location</title><g id="Layer_2" data-name="Layer 2"><g id="invisible_box" data-name="invisible box"><rect class="cls-1" width="48" height="48"/></g><g id="Layer_3" data-name="Layer 3"><path d="M23.83,14a3,3,0,1,1-3,3,3,3,0,0,1,3-3m0-4a7,7,0,1,0,7,7,7,7,0,0,0-7-7Z"/><path d="M24,2C14.06,2,7,10.1,7,20,7,30.08,18.49,41.31,22.58,45.41a2,2,0,0,0,2.84,0C29.51,41.31,41,30.08,41,20,41,10.1,33.94,2,24,2ZM11,20c0-8,5.59-14,13-14s13,6,13,14c0,3.29-1.66,6.92-3.9,10.33a18.94,18.94,0,0,0-18.2,0C12.66,26.92,11,23.29,11,20ZM24,41.17a85.93,85.93,0,0,1-6.74-7.57,15,15,0,0,1,13.48,0A85.93,85.93,0,0,1,24,41.17Z"/></g></g></svg>