<svg xmlns="http://www.w3.org/2000/svg" viewBox="0 0 48 48"><defs><style>.cls-1{fill:none;}</style></defs><title>user-canonical-solid</title><g id="Layer_2" data-name="Layer 2"><g id="invisible_box" data-name="invisible box"><rect class="cls-1" width="48" height="48"/></g><g id="Layer_3" data-name="Layer 3"><path d="M44,40H30.08A2.07,2.07,0,0,1,28,38.34,2,2,0,0,1,30,36H42V12H6v2.89A2.07,2.07,0,0,1,4.34,17,2,2,0,0,1,2,15V10A2,2,0,0,1,4,8H44a2,2,0,0,1,2,2V38A2,2,0,0,1,44,40Z"/><path d="M13,30A17.9,17.9,0,0,0,2,34v4a2,2,0,0,0,2,2H22a2,2,0,0,0,2-2V34a17.9,17.9,0,0,0-11-4Z"/><rect x="24" y="18" width="14" height="4" rx="2" ry="2"/><rect x="24" y="26" width="14" height="4" rx="2" ry="2"/><path d="M13,16a6,6,0,1,0,6,6,6,6,0,0,0-6-6Z"/></g></g></svg>