<svg xmlns="http://www.w3.org/2000/svg" width="48" height="48" viewBox="0 0 48 48">
  <title>user-canonical</title>
  <g id="Layer_2" data-name="Layer 2">
    <g id="invisible_box" data-name="invisible box">
      <rect width="48" height="48" fill="none"/>
    </g>
    <g id="icons_Q2" data-name="icons Q2">
      <path d="M44,40H32.1A2.1,2.1,0,0,1,30,38.3,2,2,0,0,1,32,36H42V12H6V23.9A2.1,2.1,0,0,1,4.3,26,2,2,0,0,1,2,24V10A2,2,0,0,1,4,8H44a2,2,0,0,1,2,2V38A2,2,0,0,1,44,40Z"/>
      <path d="M14,32a15.6,15.6,0,0,1,8,2.2V36H6V34.2A15.6,15.6,0,0,1,14,32m0-4A20.5,20.5,0,0,0,2,32v6a2.1,2.1,0,0,0,2.2,2H23.8A2.1,2.1,0,0,0,26,38V32a20.5,20.5,0,0,0-12-4Z"/>
      <rect x="26" y="16" width="14" height="4" rx="2" ry="2"/>
      <rect x="26" y="24" width="14" height="4" rx="2" ry="2"/>
      <path d="M14,18a2,2,0,1,1-2,2,2,2,0,0,1,2-2m0-4a6,6,0,1,0,6,6,6,6,0,0,0-6-6Z"/>
    </g>
  </g>
</svg>
