<svg xmlns="http://www.w3.org/2000/svg" viewBox="0 0 48 48"><defs><style>.cls-1{fill:none;}</style></defs><title>user-org-chart</title><g id="Layer_2" data-name="Layer 2"><g id="invisible_box" data-name="invisible box"><rect class="cls-1" width="48" height="48"/></g><g id="Layer_3" data-name="Layer 3"><path d="M24,21a13.72,13.72,0,0,1,6.9,2H17.1A13.72,13.72,0,0,1,24,21m0-4a17.9,17.9,0,0,0-11,4v4a2,2,0,0,0,2,2H33a2,2,0,0,0,2-2V21a17.9,17.9,0,0,0-11-4Z"/><path d="M24,7a2,2,0,1,1-2,2,2,2,0,0,1,2-2m0-4a6,6,0,1,0,6,6,6,6,0,0,0-6-6Z"/><rect x="14" y="33" width="20" height="4" rx="2" ry="2" transform="translate(-11 59) rotate(-90)"/><rect x="6" y="33" width="36" height="4" rx="2" ry="2"/><rect x="34" y="37" width="12" height="4" rx="2" ry="2" transform="translate(1 79) rotate(-90)"/><rect x="2" y="37" width="12" height="4" rx="2" ry="2" transform="translate(-31 47) rotate(-90)"/></g></g></svg>