<svg xmlns="http://www.w3.org/2000/svg" viewBox="0 0 48 48"><defs><style>.cls-1{fill:none;}</style></defs><title>user-single</title><g id="Layer_2" data-name="Layer 2"><g id="invisible_box" data-name="invisible box"><rect class="cls-1" width="48" height="48"/></g><g id="Layer_3" data-name="Layer 3"><path d="M24,7a7,7,0,1,1-7,7,7,7,0,0,1,7-7m0-4A11,11,0,1,0,35,14,11,11,0,0,0,24,3Z"/><path d="M40,45H8a2,2,0,0,1-2-2V34.52l.93-.59a32,32,0,0,1,34.14,0l.93.59V43A2,2,0,0,1,40,45ZM10,41H38V36.76a28,28,0,0,0-28,0Z"/><path d="M40,45H8a2,2,0,0,1-2-2V34.52l.93-.59a32,32,0,0,1,34.14,0l.93.59V43A2,2,0,0,1,40,45ZM10,41H38V36.76a28,28,0,0,0-28,0Z"/></g></g></svg>