<svg xmlns="http://www.w3.org/2000/svg" viewBox="0 0 48 48"><defs><style>.cls-1{fill:none;}</style></defs><title>user-minus</title><g id="Layer_2" data-name="Layer 2"><g id="invisible_box" data-name="invisible box"><rect class="cls-1" width="48" height="48"/></g><g id="Layer_3" data-name="Layer 3"><rect x="8" y="8" width="4" height="16" rx="2" ry="2" transform="translate(26 6) rotate(90)"/><path d="M44,42H20a2,2,0,0,1-2-2V32.08l1-.58a25.93,25.93,0,0,1,26,0l1,.58V40A2,2,0,0,1,44,42ZM22,38H42V34.41a22,22,0,0,0-20,0Z"/><path d="M32,10a5,5,0,1,1-5,5,5,5,0,0,1,5-5m0-4a9,9,0,1,0,9,9,9,9,0,0,0-9-9Z"/></g></g></svg>