<svg xmlns="http://www.w3.org/2000/svg" viewBox="0 0 48 48"><defs><style>.cls-1{fill:none;}</style></defs><title>user-secure-solid</title><g id="Layer_2" data-name="Layer 2"><g id="invisible_box" data-name="invisible box"><rect class="cls-1" width="48" height="48"/></g><g id="Layer_3" data-name="Layer 3"><path d="M24,2S6,7.09,6,8V26.24C6,35.42,19.3,43.51,23,45.7a1.82,1.82,0,0,0,2,0c3.8-2.09,17-10.28,17-19.46V8C42,7.09,24,2,24,2Zm0,8a8,8,0,1,1-8,8A8,8,0,0,1,24,10Zm0,31.61a49,49,0,0,1-8.41-6.12A26.08,26.08,0,0,1,24,34a26,26,0,0,1,8.44,1.5A46.46,46.46,0,0,1,24,41.61Z"/></g></g></svg>