<svg xmlns="http://www.w3.org/2000/svg" viewBox="0 0 48 48"><defs><style>.cls-1{fill:none;}</style></defs><title>user-group</title><g id="Layer_2" data-name="Layer 2"><g id="invisible_box" data-name="invisible box"><rect class="cls-1" width="48" height="48"/></g><g id="Layer_3" data-name="Layer 3"><path d="M15,24a9,9,0,1,0-9-9A9,9,0,0,0,15,24Zm0-14a5,5,0,1,1-5,5A5,5,0,0,1,15,10Z"/><path d="M35,24a7,7,0,1,0-7-7A7,7,0,0,0,35,24Zm0-10a3,3,0,1,1-3,3A3,3,0,0,1,35,14Z"/><path d="M46,29.44l-.94-.59a19.18,19.18,0,0,0-20.12,0l-.88.55A24,24,0,0,0,2.91,31.88l-.91.6V40a2,2,0,0,0,2,2H28a2,2,0,0,0,2-2V38H44a2,2,0,0,0,2-2ZM26,38H6V34.68a20,20,0,0,1,20,0Zm16-4H30V32.48l-.91-.6-.63-.38A15.44,15.44,0,0,1,42,31.71Z"/></g></g></svg>