<svg xmlns="http://www.w3.org/2000/svg" viewBox="0 0 48 48"><defs><style>.cls-1{fill:none;}</style></defs><title>user-admin-network-solid</title><g id="Layer_2" data-name="Layer 2"><g id="invisible_box" data-name="invisible box"><rect class="cls-1" width="48" height="48"/></g><g id="Layer_3" data-name="Layer 3"><circle cx="24" cy="7" r="5"/><path d="M44,32H42V26a2,2,0,0,0-2-2H26V21h7V17c-2.73-1.36-5.78-3-9-3s-6.27,1.64-9,3v4h7v3H8a2,2,0,0,0-2,2v6H4a2,2,0,0,0-2,2v8a2,2,0,0,0,2,2h8a2,2,0,0,0,2-2V34a2,2,0,0,0-2-2H10V28H22v4H20a2,2,0,0,0-2,2v8a2,2,0,0,0,2,2h8a2,2,0,0,0,2-2V34a2,2,0,0,0-2-2H26V28H38v4H36a2,2,0,0,0-2,2v8a2,2,0,0,0,2,2h8a2,2,0,0,0,2-2V34A2,2,0,0,0,44,32Z"/></g></g></svg>