<svg xmlns="http://www.w3.org/2000/svg" viewBox="0 0 48 48"><defs><style>.cls-1{fill:none;}</style></defs><title>user-id-solid</title><g id="Layer_2" data-name="Layer 2"><g id="invisible_box" data-name="invisible box"><rect class="cls-1" width="48" height="48"/></g><g id="Layer_3" data-name="Layer 3"><path d="M38,6H29.91V4a2,2,0,0,0-2-2h-8a2,2,0,0,0-2,2V6H10A2,2,0,0,0,8,8V44a2,2,0,0,0,2,2H38a2,2,0,0,0,2-2V8A2,2,0,0,0,38,6ZM24,30a8,8,0,1,1,8-8A8,8,0,0,1,24,30ZM36,42H12V39.23a23.91,23.91,0,0,1,24,0Z"/></g></g></svg>