<svg xmlns="http://www.w3.org/2000/svg" viewBox="0 0 48 48"><defs><style>.cls-1{fill:none;}</style></defs><title>user-secure</title><g id="Layer_2" data-name="Layer 2"><g id="invisible_box" data-name="invisible box"><rect class="cls-1" width="48" height="48"/></g><g id="Layer_3" data-name="Layer 3"><path d="M24,2S6,7.09,6,8V26.24C6,35.42,19.3,43.51,23,45.7a1.82,1.82,0,0,0,2,0c3.8-2.09,17-10.28,17-19.46V8C42,7.09,24,2,24,2Zm0,39.61a49,49,0,0,1-8.41-6.12A26.08,26.08,0,0,1,24,34a26,26,0,0,1,8.44,1.5A46.46,46.46,0,0,1,24,41.61ZM38,26.24c0,1.57-.78,3.67-2.65,6.08A30.7,30.7,0,0,0,24,30a30.65,30.65,0,0,0-11.34,2.32C10.78,29.91,10,27.81,10,26.24V10.48c2.9-1.1,8.7-2.79,14-4.29,5.3,1.5,11.1,3.29,14,4.29Z"/><path d="M24,14a4,4,0,1,1-4,4,4,4,0,0,1,4-4m0-4a8,8,0,1,0,8,8,8,8,0,0,0-8-8Z"/></g></g></svg>