<svg xmlns="http://www.w3.org/2000/svg" viewBox="0 0 48 48"><defs><style>.cls-1{fill:none;}</style></defs><title>wallet-solid</title><g id="Layer_2" data-name="Layer 2"><g id="invisible_box" data-name="invisible box"><rect class="cls-1" width="48" height="48"/></g><g id="Layer_3" data-name="Layer 3"><path d="M43,14H41V8a2,2,0,0,0-2-2H10a6,6,0,0,0-6,6V36a6,6,0,0,0,6,6H43a2,2,0,0,0,2-2V16A2,2,0,0,0,43,14ZM8,12.34A2,2,0,0,1,10,10H37v4H10.12A2.09,2.09,0,0,1,8,12.34ZM41,34H29a2,2,0,0,1-2-2V24a2,2,0,0,1,2-2H41Z"/><circle cx="33" cy="28" r="2"/></g></g></svg>