<svg xmlns="http://www.w3.org/2000/svg" viewBox="0 0 48 48"><defs><style>.cls-1{fill:none;}</style></defs><title>women-solid</title><g id="Layer_2" data-name="Layer 2"><g id="invisible_box" data-name="invisible box"><rect class="cls-1" width="48" height="48"/></g><g id="Layer_3" data-name="Layer 3"><path d="M24,46a2,2,0,0,1-2-1.8l-2-20c0-.07,1-5.2,1-5.2h6s1,5.13,1,5.2l-2,20A2,2,0,0,1,24,46Z"/><circle cx="24" cy="6" r="4"/><path d="M33,27a2,2,0,0,1-1.93-1.47L28.47,16H19.53l-2.6,9.53a2,2,0,0,1-3.86-1.06l3-11A2,2,0,0,1,18,12H30a2,2,0,0,1,1.93,1.47l3,11a2,2,0,0,1-1.4,2.46A2,2,0,0,1,33,27Z"/><path d="M27.9,24H20.1l-5,8.49A1,1,0,0,0,16,34H32a1,1,0,0,0,.84-1.51Z"/></g></g></svg>