<svg xmlns="http://www.w3.org/2000/svg" viewBox="0 0 48 48"><defs><style>.cls-1{fill:none;}</style></defs><title>zoom-in-solid</title><g id="Layer_2" data-name="Layer 2"><g id="invisible_box" data-name="invisible box"><rect class="cls-1" width="48" height="48"/></g><g id="Layer_3" data-name="Layer 3"><path d="M43.41,40.57,30.91,28.11A15.07,15.07,0,1,0,28.06,31L40.59,43.42a2,2,0,0,0,2.83,0A2,2,0,0,0,44,42,2.06,2.06,0,0,0,43.41,40.57Zm-18-20.16A2,2,0,0,1,24,21H21v3a2,2,0,0,1-2,2,2,2,0,0,1-2-2V21H14a2,2,0,0,1-2-2,2,2,0,0,1,2-2h3V14a2,2,0,0,1,2-2,2,2,0,0,1,2,2v3h3a2,2,0,0,1,2,2A2,2,0,0,1,25.41,20.41Z"/></g></g></svg>