<?xml version="1.0" standalone="no"?>
<!DOCTYPE svg PUBLIC "-//W3C//DTD SVG 1.1//EN" "http://www.w3.org/Graphics/SVG/1.1/DTD/svg11.dtd" >
<svg xmlns="http://www.w3.org/2000/svg">
<metadata>Generated by IcoMoon</metadata>
<defs>
<font id="denali-icons" horiz-adv-x="1024">
<font-face units-per-em="1024" ascent="960" descent="-64" />
<missing-glyph horiz-adv-x="1024" />
<glyph unicode="&#x20;" horiz-adv-x="512" d="" />
<glyph unicode="&#xe900;" glyph-name="add-circle" d="M512 832c212.077 0 384-171.923 384-384s-171.923-384-384-384c-212.077 0-384 171.923-384 384v0c0 212.077 171.923 384 384 384v0zM512 917.333c-259.206 0-469.333-210.128-469.333-469.333s210.128-469.333 469.333-469.333c259.206 0 469.333 210.128 469.333 469.333v0c0 259.206-210.128 469.333-469.333 469.333v0zM298.667 490.667h426.667c23.564 0 42.667-19.103 42.667-42.667s-19.103-42.667-42.667-42.667h-426.667c-23.564 0-42.667 19.103-42.667 42.667s19.103 42.667 42.667 42.667zM554.667 661.333v-426.667c0-23.564-19.103-42.667-42.667-42.667s-42.667 19.103-42.667 42.667v426.667c0 23.564 19.103 42.667 42.667 42.667s42.667-19.103 42.667-42.667z" />
<glyph unicode="&#xe901;" glyph-name="add-square" d="M298.667 490.667h426.667c23.564 0 42.667-19.103 42.667-42.667s-19.103-42.667-42.667-42.667h-426.667c-23.564 0-42.667 19.103-42.667 42.667s19.103 42.667 42.667 42.667zM554.667 661.333v-426.667c0-23.564-19.103-42.667-42.667-42.667s-42.667 19.103-42.667 42.667v426.667c0 23.564 19.103 42.667 42.667 42.667s42.667-19.103 42.667-42.667zM853.333 789.333v-682.667h-682.667v682.667h682.667zM896 874.667h-768c-23.564 0-42.667-19.103-42.667-42.667v0-768c0-23.564 19.103-42.667 42.667-42.667v0h768c23.564 0 42.667 19.103 42.667 42.667v0 768c0 23.564-19.103 42.667-42.667 42.667v0z" />
<glyph unicode="&#xe902;" glyph-name="add" d="M192 490.667h640c23.564 0 42.667-19.103 42.667-42.667s-19.103-42.667-42.667-42.667h-640c-23.564 0-42.667 19.103-42.667 42.667s19.103 42.667 42.667 42.667zM554.667 768v-640c0-23.564-19.103-42.667-42.667-42.667s-42.667 19.103-42.667 42.667v640c0 23.564 19.103 42.667 42.667 42.667s42.667-19.103 42.667-42.667z" />
<glyph unicode="&#xe903;" glyph-name="archive" d="M696.533 302.080c-7.858 10.565-20.305 17.335-34.333 17.335-11.534 0-21.999-4.577-29.678-12.013l0.011 0.011-77.867-76.373v238.293c0 23.564-19.103 42.667-42.667 42.667s-42.667-19.103-42.667-42.667v0-238.507l-76.8 76.587c-7.668 7.425-18.133 12.002-29.667 12.002-14.028 0-26.476-6.77-34.252-17.222l-0.081-0.114c-4.635-6.877-7.398-15.35-7.398-24.467 0-12.618 5.292-24 13.778-32.048l0.020-0.019 147.84-147.627c7.723-7.731 18.396-12.514 30.187-12.514s22.464 4.782 30.186 12.513v0l148.053 147.627c8.122 8.012 13.153 19.14 13.153 31.443 0 9.382-2.926 18.081-7.915 25.234l0.095-0.144zM921.6 698.24l-106.667 142.293c-15.733 20.819-40.445 34.133-68.267 34.133v0h-469.333c-27.821 0-52.533-13.314-68.111-33.919l-0.156-0.215-106.667-142.293c-10.655-14.084-17.067-31.893-17.067-51.2v0-540.373c0-47.128 38.205-85.333 85.333-85.333v0h128c23.564 0 42.667 19.103 42.667 42.667s-19.103 42.667-42.667 42.667v0h-128v469.333h682.667v-469.333h-128c-23.564 0-42.667-19.103-42.667-42.667s19.103-42.667 42.667-42.667v0h128c47.128 0 85.333 38.205 85.333 85.333v0 540.373c0 19.307-6.412 37.116-17.222 51.415l0.156-0.215zM277.333 789.333h469.333l96-128h-661.333z" />
<glyph unicode="&#xe904;" glyph-name="arrow-down-circle" d="M512 64c-212.077 0-384 171.923-384 384s171.923 384 384 384c212.077 0 384-171.923 384-384v0c0-212.077-171.923-384-384-384v0zM512-21.333c259.206 0 469.333 210.128 469.333 469.333s-210.128 469.333-469.333 469.333c-259.206 0-469.333-210.128-469.333-469.333v0c0-259.206 210.128-469.333 469.333-469.333v0zM512 401.707l-140.8 140.373c-7.668 7.425-18.133 12.002-29.667 12.002-14.028 0-26.476-6.77-34.252-17.222l-0.081-0.114c-4.635-6.877-7.398-15.35-7.398-24.467 0-12.618 5.292-24 13.778-32.048l0.020-0.019 169.387-168.96c7.723-7.731 18.396-12.514 30.187-12.514s22.464 4.782 30.186 12.513v0l169.173 168.96c8.506 8.066 13.798 19.448 13.798 32.066 0 9.118-2.763 17.59-7.498 24.625l0.1-0.158c-7.858 10.565-20.305 17.335-34.333 17.335-11.534 0-21.999-4.577-29.678-12.013l0.011 0.011z" />
<glyph unicode="&#xe905;" glyph-name="arrow-down" d="M512 380.373l-226.133 225.707c-7.733 7.792-18.447 12.616-30.289 12.616-14.295 0-26.948-7.030-34.691-17.822l-0.087-0.128c-4.635-6.877-7.398-15.35-7.398-24.467 0-12.618 5.292-24 13.778-32.048l0.020-0.019 254.72-254.293c7.723-7.731 18.396-12.514 30.187-12.514s22.464 4.782 30.186 12.513v0l254.507 254.293c8.506 8.066 13.798 19.448 13.798 32.066 0 9.118-2.763 17.59-7.498 24.625l0.1-0.158c-7.858 10.565-20.305 17.335-34.333 17.335-11.534 0-21.999-4.577-29.678-12.013l0.011 0.011z" />
<glyph unicode="&#xe906;" glyph-name="arrow-left-circle" d="M896 448c0-212.077-171.923-384-384-384s-384 171.923-384 384c0 212.077 171.923 384 384 384v0c212.077 0 384-171.923 384-384v0zM981.333 448c0 259.206-210.128 469.333-469.333 469.333s-469.333-210.128-469.333-469.333c0-259.206 210.128-469.333 469.333-469.333v0c259.206 0 469.333 210.128 469.333 469.333v0zM465.707 448l140.373-140.8c7.425-7.668 12.002-18.133 12.002-29.667 0-14.028-6.77-26.476-17.222-34.252l-0.114-0.081c-6.877-4.635-15.35-7.398-24.467-7.398-12.618 0-24 5.292-32.048 13.778l-0.019 0.020-168.96 169.387c-7.731 7.723-12.514 18.396-12.514 30.187s4.782 22.464 12.513 30.186v0l168.96 169.173c8.066 8.506 19.448 13.798 32.066 13.798 9.118 0 17.59-2.763 24.625-7.498l-0.158 0.1c10.565-7.858 17.335-20.305 17.335-34.333 0-11.534-4.577-21.999-12.013-29.678l0.011 0.011z" />
<glyph unicode="&#xe907;" glyph-name="arrow-left" d="M444.373 448l225.707 226.133c7.792 7.733 12.616 18.447 12.616 30.289 0 14.295-7.030 26.948-17.822 34.691l-0.128 0.087c-6.877 4.635-15.35 7.398-24.467 7.398-12.618 0-24-5.292-32.048-13.778l-0.019-0.020-254.293-254.72c-7.731-7.723-12.514-18.396-12.514-30.187s4.782-22.464 12.513-30.186v0l254.293-254.507c8.066-8.506 19.448-13.798 32.066-13.798 9.118 0 17.59 2.763 24.625 7.498l-0.158-0.1c10.565 7.858 17.335 20.305 17.335 34.333 0 11.534-4.577 21.999-12.013 29.678l0.011-0.011z" />
<glyph unicode="&#xe908;" glyph-name="arrow-right-circle" d="M128 448c0 212.077 171.923 384 384 384s384-171.923 384-384c0-212.077-171.923-384-384-384v0c-212.077 0-384 171.923-384 384v0zM42.667 448c0-259.206 210.128-469.333 469.333-469.333s469.333 210.128 469.333 469.333c0 259.206-210.128 469.333-469.333 469.333v0c-259.206 0-469.333-210.128-469.333-469.333v0zM558.293 448l-140.373-140.8c-7.425-7.668-12.002-18.133-12.002-29.667 0-14.028 6.77-26.476 17.222-34.252l0.114-0.081c6.877-4.635 15.35-7.398 24.467-7.398 12.618 0 24 5.292 32.048 13.778l0.019 0.020 168.96 169.387c7.731 7.723 12.514 18.396 12.514 30.187s-4.782 22.464-12.513 30.186v0l-168.96 169.173c-8.066 8.506-19.448 13.798-32.066 13.798-9.118 0-17.59-2.763-24.625-7.498l0.158 0.1c-10.565-7.858-17.335-20.305-17.335-34.333 0-11.534 4.577-21.999 12.013-29.678l-0.011 0.011z" />
<glyph unicode="&#xe909;" glyph-name="arrow-right" d="M579.627 448l-225.707-226.133c-7.425-7.668-12.002-18.133-12.002-29.667 0-14.028 6.77-26.476 17.222-34.252l0.114-0.081c6.877-4.635 15.35-7.398 24.467-7.398 12.618 0 24 5.292 32.048 13.778l0.019 0.020 254.293 253.653c7.731 7.723 12.514 18.396 12.514 30.187s-4.782 22.464-12.513 30.186v0l-254.293 254.507c-8.066 8.506-19.448 13.798-32.066 13.798-9.118 0-17.59-2.763-24.625-7.498l0.158 0.1c-10.919-7.83-17.949-20.483-17.949-34.778 0-11.841 4.824-22.556 12.613-30.286l0.003-0.003z" />
<glyph unicode="&#xe90a;" glyph-name="arrow-up-circle" d="M512 832c212.077 0 384-171.923 384-384s-171.923-384-384-384c-212.077 0-384 171.923-384 384v0c0 212.077 171.923 384 384 384v0zM512 917.333c-259.206 0-469.333-210.128-469.333-469.333s210.128-469.333 469.333-469.333c259.206 0 469.333 210.128 469.333 469.333v0c0 259.206-210.128 469.333-469.333 469.333v0zM512 494.293l-140.8-140.373c-7.668-7.425-18.133-12.002-29.667-12.002-14.028 0-26.476 6.77-34.252 17.222l-0.081 0.114c-4.635 6.877-7.398 15.35-7.398 24.467 0 12.618 5.292 24 13.778 32.048l0.020 0.019 169.387 168.96c7.723 7.731 18.396 12.514 30.187 12.514s22.464-4.782 30.186-12.513v0l169.173-168.96c8.506-8.066 13.798-19.448 13.798-32.066 0-9.118-2.763-17.59-7.498-24.625l0.1 0.158c-7.858-10.565-20.305-17.335-34.333-17.335-11.534 0-21.999 4.577-29.678 12.013l0.011-0.011z" />
<glyph unicode="&#xe90b;" glyph-name="arrow-up" d="M512 515.627l-226.133-225.707c-7.733-7.792-18.447-12.616-30.289-12.616-14.295 0-26.948 7.030-34.691 17.822l-0.087 0.128c-4.635 6.877-7.398 15.35-7.398 24.467 0 12.618 5.292 24 13.778 32.048l0.020 0.019 254.72 254.293c7.723 7.731 18.396 12.514 30.187 12.514s22.464-4.782 30.186-12.513v0l254.507-254.293c8.506-8.066 13.798-19.448 13.798-32.066 0-9.118-2.763-17.59-7.498-24.625l0.1 0.158c-7.858-10.565-20.305-17.335-34.333-17.335-11.534 0-21.999 4.577-29.678 12.013l0.011-0.011z" />
<glyph unicode="&#xe90c;" glyph-name="arts-and-crafts" d="M947.413 717.653l-165.76 165.76c-7.712 7.668-18.343 12.407-30.080 12.407s-22.368-4.74-30.082-12.409l-644.905-644.905c-7.775-7.73-12.587-18.433-12.587-30.26 0-0.012 0-0.024 0-0.036v0.002-165.547c0-23.564 19.103-42.667 42.667-42.667v0h165.547c11.761 0.051 22.391 4.853 30.078 12.585l645.122 644.909c7.668 7.712 12.407 18.343 12.407 30.080s-4.74 22.368-12.409 30.082l0.002-0.002zM254.507 85.333h-105.173v105.173l477.227 477.227 105.173-105.173zM792.107 622.72l-105.387 105.387 64 64 105.173-105.173zM192 896c-41.161-0.058-78.41-16.759-105.387-43.734v0c-26.489-26.677-42.861-63.431-42.861-104.008 0-2.661 0.070-5.306 0.209-7.932l-0.015 0.367c1.916-43.274 21.969-81.514 52.69-107.554l0.217-0.179 151.68-131.2 60.587 60.373-158.293 135.893c-13.751 11.809-22.407 29.214-22.407 48.641 0 35.199 28.415 63.76 63.557 63.999h2.796c18.642-0.232 35.332-8.4 46.881-21.273l0.053-0.060 136.533-156.587 60.587 60.373-131.84 150.187c-26.435 30.835-64.793 50.795-107.843 52.682l-0.317 0.011zM796.373 216.32c0.663 0.042 1.438 0.065 2.218 0.065 10.581 0 20.146-4.352 27.002-11.365l0.007-0.007c8.533-7.68 9.813-23.68 9.173-58.88-0.255-4.654-0.4-10.1-0.4-15.581 0-15.958 1.231-31.629 3.604-46.922l-0.218 1.703c-33.896 1.132-65.198 11.309-91.843 28.177l0.75-0.444c-13.285 13.217-21.506 31.512-21.506 51.727 0 1.766 0.063 3.518 0.186 5.253l-0.013-0.233v9.173l10.667 9.387 10.027 8.96 17.707 16 14.72 1.707c4.88 0.745 10.566 1.207 16.346 1.279l0.080 0.001zM725.333 347.733l-131.627-130.987 47.36-42.667c-0.194-2.927-0.304-6.345-0.304-9.789 0-45.102 18.939-85.78 49.298-114.516l0.073-0.068c48.853-40.533 123.307-49.707 182.187-49.707 31.642 0.126 62.627 2.448 92.948 6.821l-3.561-0.421c17.067 2.133 19.627 12.16 19.627 16.64 0 25.6-50.133 28.16-59.52 77.867-8.107 43.733 15.147 117.76-38.4 166.827-22.168 20.761-52.059 33.511-84.928 33.511-0.743 0-1.484-0.007-2.223-0.019l0.111 0.002c-9.46-0.059-18.702-0.755-27.751-2.047l1.085 0.127-44.373 48.427z" />
<glyph unicode="&#xe90d;" glyph-name="assignment-check" d="M417.493 289.92l-83.627 83.627c-8.506 8.066-13.798 19.448-13.798 32.066 0 9.118 2.763 17.59 7.498 24.625l-0.1-0.158c7.858 10.565 20.305 17.335 34.333 17.335 11.534 0 21.999-4.577 29.678-12.013l-0.011 0.011 56.533-55.040 183.253 183.040c7.549 6.884 17.635 11.1 28.706 11.1 23.564 0 42.667-19.103 42.667-42.667 0-11.017-4.176-21.060-11.031-28.63l0.032 0.036-213.333-213.333c-7.743-7.859-18.503-12.729-30.4-12.729s-22.657 4.869-30.395 12.723l-0.005 0.005zM853.333 832h-192v42.667c0 23.564-19.103 42.667-42.667 42.667v0h-213.333c-23.564 0-42.667-19.103-42.667-42.667v0-42.667h-192c-23.564 0-42.667-19.103-42.667-42.667v0-768c0-23.564 19.103-42.667 42.667-42.667v0h682.667c23.564 0 42.667 19.103 42.667 42.667v0 768c0 23.564-19.103 42.667-42.667 42.667v0zM810.667 64h-597.333v682.667h234.667v85.333h128v-85.333h234.667z" />
<glyph unicode="&#xe90e;" glyph-name="assignment-priority" d="M512 320c23.564 0 42.667 19.103 42.667 42.667v0 256c0 23.564-19.103 42.667-42.667 42.667s-42.667-19.103-42.667-42.667v0-256c0-23.564 19.103-42.667 42.667-42.667v0zM554.667 192c0-23.564-19.103-42.667-42.667-42.667s-42.667 19.103-42.667 42.667c0 23.564 19.103 42.667 42.667 42.667s42.667-19.103 42.667-42.667zM853.333 832h-192v42.667c0 23.564-19.103 42.667-42.667 42.667v0h-213.333c-23.564 0-42.667-19.103-42.667-42.667v0-42.667h-192c-23.564 0-42.667-19.103-42.667-42.667v0-768c0-23.564 19.103-42.667 42.667-42.667v0h682.667c23.564 0 42.667 19.103 42.667 42.667v0 768c0 23.564-19.103 42.667-42.667 42.667v0zM810.667 64h-597.333v682.667h234.667v85.333h128v-85.333h234.667z" />
<glyph unicode="&#xe90f;" glyph-name="assignment-text" d="M341.333 618.667h341.333c23.564 0 42.667-19.103 42.667-42.667s-19.103-42.667-42.667-42.667h-341.333c-23.564 0-42.667 19.103-42.667 42.667s19.103 42.667 42.667 42.667zM341.333 448h341.333c23.564 0 42.667-19.103 42.667-42.667s-19.103-42.667-42.667-42.667h-341.333c-23.564 0-42.667 19.103-42.667 42.667s19.103 42.667 42.667 42.667zM341.333 277.333h170.667c23.564 0 42.667-19.103 42.667-42.667s-19.103-42.667-42.667-42.667h-170.667c-23.564 0-42.667 19.103-42.667 42.667s19.103 42.667 42.667 42.667zM853.333 832h-192v42.667c0 23.564-19.103 42.667-42.667 42.667v0h-213.333c-23.564 0-42.667-19.103-42.667-42.667v0-42.667h-192c-23.564 0-42.667-19.103-42.667-42.667v0-768c0-23.564 19.103-42.667 42.667-42.667v0h682.667c23.564 0 42.667 19.103 42.667 42.667v0 768c0 23.564-19.103 42.667-42.667 42.667v0zM810.667 64h-597.333v682.667h234.667v85.333h128v-85.333h234.667z" />
<glyph unicode="&#xe910;" glyph-name="attachment" d="M512-21.333c-141.385 0-256 114.615-256 256v0 192c0 82.475 66.859 149.333 149.333 149.333s149.333-66.859 149.333-149.333v0-192c0-23.564-19.103-42.667-42.667-42.667s-42.667 19.103-42.667 42.667v0 192c0 35.346-28.654 64-64 64s-64-28.654-64-64v0-192c0-94.257 76.41-170.667 170.667-170.667s170.667 76.41 170.667 170.667v0 426.667c0 94.257-76.41 170.667-170.667 170.667s-170.667-76.41-170.667-170.667v0c0-23.564-19.103-42.667-42.667-42.667s-42.667 19.103-42.667 42.667v0c0 141.385 114.615 256 256 256s256-114.615 256-256v0-426.667c0-141.385-114.615-256-256-256v0z" />
<glyph unicode="&#xe911;" glyph-name="baby" d="M213.333 490.667v149.333c0 23.564-19.103 42.667-42.667 42.667v0h-85.333c-23.564 0-42.667-19.103-42.667-42.667s19.103-42.667 42.667-42.667v0h42.667v-128c0.031-3.969 0.653-7.781 1.781-11.368l-0.075 0.275c6.557-81.308 37.684-154.296 85.854-212.704l-0.521 0.65c-51.905-20.829-87.889-70.73-87.889-129.035 0-76.583 62.083-138.667 138.667-138.667s138.667 62.083 138.667 138.667c0 0.364-0.001 0.728-0.004 1.091v-0.056c0 1.493 0 3.2 0 4.693 31.941-9.709 68.651-15.298 106.667-15.298s74.726 5.589 109.354 15.991l-2.687-0.693c0-1.493 0-3.2 0-4.693-0.002-0.308-0.004-0.671-0.004-1.035 0-76.583 62.083-138.667 138.667-138.667s138.667 62.083 138.667 138.667c0 58.305-35.985 108.206-86.957 128.704l-0.932 0.331c54.999 65.778 88.485 151.194 88.747 244.424v0.056zM266.667 64c-29.455 0-53.333 23.878-53.333 53.333s23.878 53.333 53.333 53.333c29.455 0 53.333-23.878 53.333-53.333v0c0-29.455-23.878-53.333-53.333-53.333v0zM225.707 405.333h572.587c-37.861-124.53-151.677-213.591-286.293-213.591s-248.432 89.061-285.739 211.475l-0.554 2.115zM757.333 64c-29.455 0-53.333 23.878-53.333 53.333s23.878 53.333 53.333 53.333c29.455 0 53.333-23.878 53.333-53.333v0c0-29.455-23.878-53.333-53.333-53.333v0zM560.853 917.333c-0.929 0.116-2.003 0.183-3.093 0.183s-2.165-0.066-3.22-0.196l0.127 0.013c-0.537 0.025-1.166 0.039-1.798 0.039-21.66 0-39.393-16.812-40.862-38.099l-0.007-0.128v-303.147h384c0 175.147-146.133 320-335.147 341.333zM597.333 661.333v162.347c88.566-20.919 159.887-81.021 195.756-160.551l0.724-1.796z" />
<glyph unicode="&#xe912;" glyph-name="book" d="M853.333 746.667h-42.667v128c0 23.564-19.103 42.667-42.667 42.667v0h-512c-70.692 0-128-57.308-128-128v0-682.667c0-70.692 57.308-128 128-128v0h597.333c23.564 0 42.667 19.103 42.667 42.667v0 682.667c0 23.564-19.103 42.667-42.667 42.667v0zM256 832h469.333v-85.333h-466.773c-0.473-0.018-1.030-0.028-1.588-0.028-21.386 0-39.256 15.057-43.586 35.148l-0.053 0.293c-0.396 2.182-0.622 4.694-0.622 7.258 0 23.564 19.103 42.667 42.667 42.667 0.219 0 0.437-0.002 0.655-0.005h-0.033zM810.667 64h-554.667c-23.564 0-42.667 19.103-42.667 42.667v0 554.667h597.333zM298.667 576h426.667v-85.333h-426.667v85.333z" />
<glyph unicode="&#xe913;" glyph-name="bookmark-multiple" d="M640 661.333v-554.667l-161.92 122.027-51.413 39.467-51.413-38.613-161.92-122.88v554.667h426.667zM170.667 746.667c-23.564 0-42.667-19.103-42.667-42.667v0-682.667c0-23.564 19.103-42.667 42.667-42.667v0c11.158 0.098 21.278 4.463 28.823 11.541l-0.023-0.021 226.987 170.667 226.987-170.667c7.608-7.136 17.872-11.52 29.16-11.52 0.023 0 0.047 0 0.070 0h-0.004c23.564 0 42.667 19.103 42.667 42.667v0 682.667c0 23.564-19.103 42.667-42.667 42.667v0zM341.333 917.333c-23.564 0-42.667-19.103-42.667-42.667v0-42.667h512v-661.333l13.653-10.24c7.548-6.881 17.632-11.094 28.699-11.094 0.11 0 0.221 0 0.331 0.001h-0.017c23.564 0 42.667 19.103 42.667 42.667v0 682.667c0 23.564-19.103 42.667-42.667 42.667v0z" />
<glyph unicode="&#xe914;" glyph-name="bookmark" d="M725.333 768v-597.333l-161.92 122.027-51.413 39.467-51.413-38.613-161.92-122.88v597.333h426.667zM256 853.333c-23.564 0-42.667-19.103-42.667-42.667v0-725.333c0-23.564 19.103-42.667 42.667-42.667v0c11.158 0.098 21.278 4.463 28.823 11.541l-0.023-0.021 226.987 170.667 226.987-170.667c7.608-7.136 17.872-11.52 29.16-11.52 0.023 0 0.047 0 0.070 0h-0.004c23.564 0 42.667 19.103 42.667 42.667v0 725.333c0 23.564-19.103 42.667-42.667 42.667v0z" />
<glyph unicode="&#xe915;" glyph-name="branch" d="M938.667 768c-0.022 82.458-66.872 149.295-149.333 149.295-82.475 0-149.333-66.859-149.333-149.333 0-67.261 44.468-124.136 105.609-142.83l1.058-0.278v-6.187c0-70.692-57.308-128-128-128v0h-170.667c-0.127 0-0.277 0-0.427 0-48.128 0-92.51-16.033-128.099-43.049l0.525 0.382v176.853c62.199 18.972 106.667 75.847 106.667 143.108 0 82.475-66.859 149.333-149.333 149.333s-149.333-66.859-149.333-149.333c0-67.261 44.468-124.136 105.609-142.83l1.058-0.278v-353.707c-62.199-18.972-106.667-75.847-106.667-143.108 0-82.475 66.859-149.333 149.333-149.333s149.333 66.859 149.333 149.333c0 67.261-44.468 124.136-105.609 142.83l-1.058 0.278v6.187c0 70.692 57.308 128 128 128v0h170.667c117.821 0 213.333 95.513 213.333 213.333v0 6.187c62.199 18.972 106.667 75.847 106.667 143.108 0 0.013 0 0.027 0 0.040v-0.002zM213.333 768c0 35.346 28.654 64 64 64s64-28.654 64-64c0-35.346-28.654-64-64-64v0c-35.346 0-64 28.654-64 64v0zM341.333 128c0-35.346-28.654-64-64-64s-64 28.654-64 64c0 35.346 28.654 64 64 64v0c35.346 0 64-28.654 64-64v0zM789.333 704c-35.346 0-64 28.654-64 64s28.654 64 64 64c35.346 0 64-28.654 64-64v0c0-35.346-28.654-64-64-64v0z" />
<glyph unicode="&#xe916;" glyph-name="broadcast-tower" d="M512 283.52l73.173-176.853h-146.347l73.173 176.853zM512 490.667c-4.053 0-8.32-3.84-11.52-11.52l-177.707-430.080c-6.4-15.147-1.493-27.733 10.88-27.733h356.693c12.373 0 17.28 12.587 10.88 27.733l-177.707 430.080c-3.2 7.68-7.467 11.52-11.52 11.52zM618.667 512c0-58.91-47.756-106.667-106.667-106.667s-106.667 47.756-106.667 106.667c0 58.91 47.756 106.667 106.667 106.667s106.667-47.756 106.667-106.667zM370.347 351.147c9.669-7.885 15.794-19.797 15.794-33.14 0-23.564-19.103-42.667-42.667-42.667-12.28 0-23.348 5.187-31.132 13.491l-0.022 0.023c-60.902 55.291-98.987 134.771-98.987 223.147s38.085 167.856 98.738 222.924l0.249 0.223c7.27 5.932 16.652 9.526 26.873 9.526 23.564 0 42.667-19.103 42.667-42.667 0-11.285-4.381-21.546-11.535-29.176l0.022 0.023c-44.089-39.762-71.681-97.085-71.681-160.853s27.592-121.092 71.489-160.683l0.192-0.17zM810.667 512c-0.228-88.332-38.253-167.738-98.749-222.933l-0.237-0.214c-7.27-5.932-16.652-9.526-26.873-9.526-23.564 0-42.667 19.103-42.667 42.667 0 11.285 4.381 21.546 11.535 29.176l-0.022-0.023c44.089 39.762 71.681 97.085 71.681 160.853s-27.592 121.092-71.489 160.683l-0.192 0.17c-9.669 7.885-15.794 19.797-15.794 33.14 0 23.564 19.103 42.667 42.667 42.667 12.28 0 23.348-5.187 31.132-13.491l0.022-0.023c60.734-55.408 98.759-134.814 98.987-223.106v-0.041zM981.333 512c0-0.021 0-0.046 0-0.071 0-129.457-54.060-246.288-140.837-329.148l-0.176-0.167c-7.669-7.411-18.128-11.977-29.653-11.977-23.581 0-42.697 19.116-42.697 42.697 0 12.056 4.996 22.944 13.032 30.708l0.012 0.012c70.889 67.488 114.976 162.569 114.976 267.947s-44.088 200.458-114.824 267.802l-0.153 0.144c-8.047 7.776-13.044 18.664-13.044 30.72 0 23.581 19.116 42.697 42.697 42.697 11.525 0 21.984-4.566 29.666-11.989l-0.012 0.012c86.953-83.027 141.013-199.858 141.013-329.315 0-0.025 0-0.050 0-0.075v0.003zM242.987 244.053c8.047-7.776 13.044-18.664 13.044-30.72 0-23.581-19.116-42.697-42.697-42.697-11.525 0-21.984 4.566-29.666 11.989l0.012-0.012c-86.942 83.060-140.992 199.911-140.992 329.387s54.050 246.327 140.818 329.222l0.174 0.165c7.669 7.411 18.128 11.977 29.653 11.977 23.581 0 42.697-19.116 42.697-42.697 0-12.056-4.996-22.944-13.032-30.708l-0.012-0.012c-70.889-67.488-114.976-162.569-114.976-267.947s44.088-200.458 114.824-267.802l0.153-0.144z" />
<glyph unicode="&#xe917;" glyph-name="broadcast" d="M618.667 448c0-58.91-47.756-106.667-106.667-106.667s-106.667 47.756-106.667 106.667c0 58.91 47.756 106.667 106.667 106.667s106.667-47.756 106.667-106.667zM370.347 287.147c9.669-7.885 15.794-19.797 15.794-33.14 0-23.564-19.103-42.667-42.667-42.667-12.28 0-23.348 5.187-31.132 13.491l-0.022 0.023c-60.902 55.291-98.987 134.771-98.987 223.147s38.085 167.856 98.738 222.924l0.249 0.223c7.27 5.932 16.652 9.526 26.873 9.526 23.564 0 42.667-19.103 42.667-42.667 0-11.285-4.381-21.546-11.535-29.176l0.022 0.023c-44.089-39.762-71.681-97.085-71.681-160.853s27.592-121.092 71.489-160.683l0.192-0.17zM810.667 448c-0.228-88.332-38.253-167.738-98.749-222.933l-0.237-0.214c-7.27-5.932-16.652-9.526-26.873-9.526-23.564 0-42.667 19.103-42.667 42.667 0 11.285 4.381 21.546 11.535 29.176l-0.022-0.023c44.089 39.762 71.681 97.085 71.681 160.853s-27.592 121.092-71.489 160.683l-0.192 0.17c-7.132 7.607-11.513 17.868-11.513 29.153 0 23.564 19.103 42.667 42.667 42.667 10.221 0 19.603-3.594 26.95-9.587l-0.077 0.061c60.734-55.408 98.759-134.814 98.987-223.106v-0.041zM981.333 448c0-0.021 0-0.046 0-0.071 0-129.457-54.060-246.288-140.837-329.148l-0.176-0.167c-7.669-7.411-18.128-11.977-29.653-11.977-23.581 0-42.697 19.116-42.697 42.697 0 12.056 4.996 22.944 13.032 30.708l0.012 0.012c70.889 67.488 114.976 162.569 114.976 267.947s-44.088 200.458-114.824 267.802l-0.153 0.144c-8.047 7.776-13.044 18.664-13.044 30.72 0 23.581 19.116 42.697 42.697 42.697 11.525 0 21.984-4.566 29.666-11.989l-0.012 0.012c86.953-83.027 141.013-199.858 141.013-329.315 0-0.025 0-0.050 0-0.075v0.003zM242.987 180.053c8.047-7.776 13.044-18.664 13.044-30.72 0-23.581-19.116-42.697-42.697-42.697-11.525 0-21.984 4.566-29.666 11.989l0.012-0.012c-86.942 83.060-140.992 199.911-140.992 329.387s54.050 246.327 140.818 329.222l0.174 0.165c7.669 7.411 18.128 11.977 29.653 11.977 23.581 0 42.697-19.116 42.697-42.697 0-12.056-4.996-22.944-13.032-30.708l-0.012-0.012c-70.889-67.488-114.976-162.569-114.976-267.947s44.088-200.458 114.824-267.802l0.153-0.144z" />
<glyph unicode="&#xe918;" glyph-name="browser-bar-chart" d="M42.667 789.333v-682.667c0-23.564 19.103-42.667 42.667-42.667v0h853.333c23.564 0 42.667 19.103 42.667 42.667v0 682.667c0 23.564-19.103 42.667-42.667 42.667v0h-853.333c-23.564 0-42.667-19.103-42.667-42.667v0zM896 149.333h-768v597.333h768zM256 661.333c0-23.564-19.103-42.667-42.667-42.667s-42.667 19.103-42.667 42.667c0 23.564 19.103 42.667 42.667 42.667s42.667-19.103 42.667-42.667zM384 661.333c0-23.564-19.103-42.667-42.667-42.667s-42.667 19.103-42.667 42.667c0 23.564 19.103 42.667 42.667 42.667s42.667-19.103 42.667-42.667zM512 661.333c0-23.564-19.103-42.667-42.667-42.667s-42.667 19.103-42.667 42.667c0 23.564 19.103 42.667 42.667 42.667s42.667-19.103 42.667-42.667zM426.667 234.667h-85.333v170.667c0 23.564 19.103 42.667 42.667 42.667v0 0c23.564 0 42.667-19.103 42.667-42.667v0zM554.667 234.667h-85.333v256c0 23.564 19.103 42.667 42.667 42.667v0 0c23.564 0 42.667-19.103 42.667-42.667v0zM682.667 234.667h-85.333v149.333c0 23.564 19.103 42.667 42.667 42.667v0 0c23.564 0 42.667-19.103 42.667-42.667v0z" />
<glyph unicode="&#xe919;" glyph-name="browser-code" d="M256 661.333c0-23.564-19.103-42.667-42.667-42.667s-42.667 19.103-42.667 42.667c0 23.564 19.103 42.667 42.667 42.667s42.667-19.103 42.667-42.667zM384 661.333c0-23.564-19.103-42.667-42.667-42.667s-42.667 19.103-42.667 42.667c0 23.564 19.103 42.667 42.667 42.667s42.667-19.103 42.667-42.667zM512 661.333c0-23.564-19.103-42.667-42.667-42.667s-42.667 19.103-42.667 42.667c0 23.564 19.103 42.667 42.667 42.667s42.667-19.103 42.667-42.667zM256 213.333c-0.037 0-0.081 0-0.125 0-23.564 0-42.667 19.103-42.667 42.667 0 12.609 5.47 23.941 14.166 31.752l0.039 0.035 113.92 96.213-114.133 96.213c-8.807 7.892-14.323 19.302-14.323 32 0 23.698 19.211 42.909 42.909 42.909 11 0 21.033-4.139 28.627-10.945l-0.041 0.036 149.333-128c8.877-7.856 14.445-19.278 14.445-32s-5.568-24.144-14.4-31.961l-0.045-0.039-149.333-128c-7.494-6.732-17.45-10.857-28.369-10.88h-0.005zM768 336h-192c-23.564 0-42.667 19.103-42.667 42.667s19.103 42.667 42.667 42.667v0h192c23.564 0 42.667-19.103 42.667-42.667s-19.103-42.667-42.667-42.667v0zM938.667 832h-853.333c-23.564 0-42.667-19.103-42.667-42.667v0-682.667c0-23.564 19.103-42.667 42.667-42.667v0 0c23.952 1.139 42.94 20.835 42.94 44.966 0 1.745-0.099 3.468-0.293 5.162l0.019-0.207c0 21.333 0 632.747 0 632.747h768v-597.333h-554.667c-0.185 0.003-0.403 0.005-0.622 0.005-23.564 0-42.667-19.103-42.667-42.667 0-2.564 0.226-5.076 0.66-7.516l-0.038 0.258c4.205-20.359 21.987-35.447 43.292-35.447 0.605 0 1.208 0.012 1.807 0.036l-0.086-0.003h594.987c23.564 0 42.667 19.103 42.667 42.667v0 682.667c0 23.564-19.103 42.667-42.667 42.667v0z" />
<glyph unicode="&#xe91a;" glyph-name="browser-cost" d="M528 341.333c-73.813 14.72-73.813 27.52-73.813 39.68 0.188 7.482 4.2 13.987 10.148 17.654l0.092 0.053c10.006 6.205 22.143 9.882 35.139 9.882 1.072 0 2.138-0.025 3.198-0.075l-0.15 0.006c0.46 0.006 1.003 0.009 1.547 0.009 25.117 0 48.544-7.234 68.312-19.733l-0.526 0.31c6.514-5.781 15.139-9.312 24.589-9.312 13.981 0 26.157 7.73 32.488 19.149l0.097 0.19c5.741 7.202 9.211 16.436 9.211 26.48 0 14.021-6.763 26.462-17.205 34.24l-0.113 0.081c-19.082 11.666-41.327 20.487-65.057 25.174l-1.289 0.212v48c0 23.564-19.103 42.667-42.667 42.667s-42.667-19.103-42.667-42.667v0-45.867c-62.507-11.52-104.96-54.613-104.96-111.36 0-79.573 69.12-104.32 136.96-118.187s69.973-26.88 69.973-38.187c0-17.707-21.333-30.293-52.267-30.293v0c-0.838-0.018-1.825-0.028-2.815-0.028-31.060 0-59.741 10.18-82.891 27.386l0.372-0.264c-6.926 4.729-15.482 7.551-24.696 7.551-14.732 0-27.779-7.214-35.802-18.302l-0.089-0.129c-5.177-6.786-8.295-15.385-8.295-24.713 0-12.694 5.775-24.040 14.84-31.553l0.068-0.055c25.377-18.193 55.521-31.53 88.147-37.948l1.453-0.238v-47.147c0-23.564 19.103-42.667 42.667-42.667s42.667 19.103 42.667 42.667v0 46.507c24.417 4.179 46.052 13.798 64.379 27.58l-0.379-0.273c26.024 19.667 42.667 50.557 42.667 85.333v0 0c0 80.427-71.253 104.96-133.333 118.187zM938.667 832h-853.333c-23.564 0-42.667-19.103-42.667-42.667v0-682.667c0-23.564 19.103-42.667 42.667-42.667v0h170.667c0.185-0.003 0.403-0.005 0.622-0.005 23.564 0 42.667 19.103 42.667 42.667 0 2.564-0.226 5.076-0.66 7.516l0.038-0.258c-4.205 20.359-21.987 35.447-43.292 35.447-0.605 0-1.208-0.012-1.807-0.036l0.086 0.003h-125.653v597.333h768v-597.333h-128c-0.185 0.003-0.403 0.005-0.622 0.005-23.564 0-42.667-19.103-42.667-42.667 0-2.564 0.226-5.076 0.66-7.516l-0.038 0.258c4.205-20.359 21.987-35.447 43.292-35.447 0.605 0 1.208 0.012 1.807 0.036l-0.086-0.003h168.32c23.564 0 42.667 19.103 42.667 42.667v0 682.667c0 23.564-19.103 42.667-42.667 42.667v0zM256 661.333c0-23.564-19.103-42.667-42.667-42.667s-42.667 19.103-42.667 42.667c0 23.564 19.103 42.667 42.667 42.667s42.667-19.103 42.667-42.667zM384 661.333c0-23.564-19.103-42.667-42.667-42.667s-42.667 19.103-42.667 42.667c0 23.564 19.103 42.667 42.667 42.667s42.667-19.103 42.667-42.667zM512 661.333c0-23.564-19.103-42.667-42.667-42.667s-42.667 19.103-42.667 42.667c0 23.564 19.103 42.667 42.667 42.667s42.667-19.103 42.667-42.667z" />
<glyph unicode="&#xe91b;" glyph-name="browser-open-in" d="M42.667 789.333v-682.667c0-23.564 19.103-42.667 42.667-42.667v0h853.333c23.564 0 42.667 19.103 42.667 42.667v0 682.667c0 23.564-19.103 42.667-42.667 42.667v0h-853.333c-23.564 0-42.667-19.103-42.667-42.667v0zM896 149.333h-768v597.333h768zM256 661.333c0-23.564-19.103-42.667-42.667-42.667s-42.667 19.103-42.667 42.667c0 23.564 19.103 42.667 42.667 42.667s42.667-19.103 42.667-42.667zM384 661.333c0-23.564-19.103-42.667-42.667-42.667s-42.667 19.103-42.667 42.667c0 23.564 19.103 42.667 42.667 42.667s42.667-19.103 42.667-42.667zM512 661.333c0-23.564-19.103-42.667-42.667-42.667s-42.667 19.103-42.667 42.667c0 23.564 19.103 42.667 42.667 42.667s42.667-19.103 42.667-42.667zM690.133 373.12l-147.84 147.627c-7.723 7.731-18.396 12.514-30.187 12.514s-22.464-4.782-30.186-12.513v0l-148.053-147.627c-8.506-8.066-13.798-19.448-13.798-32.066 0-9.118 2.763-17.59 7.498-24.625l-0.1 0.158c7.858-10.565 20.305-17.335 34.333-17.335 11.534 0 21.999 4.577 29.678 12.013l-0.011-0.011 77.867 76.373v-259.627c0-23.564 19.103-42.667 42.667-42.667s42.667 19.103 42.667 42.667v0 259.84l76.8-76.587c7.668-7.425 18.133-12.002 29.667-12.002 14.028 0 26.476 6.77 34.252 17.222l0.081 0.114c4.894 7.009 7.82 15.708 7.82 25.090 0 12.303-5.031 23.431-13.148 31.439l-0.005 0.005z" />
<glyph unicode="&#xe91c;" glyph-name="browser" d="M938.667 832h-853.333c-23.564 0-42.667-19.103-42.667-42.667v0-682.667c0-23.564 19.103-42.667 42.667-42.667v0h853.333c23.564 0 42.667 19.103 42.667 42.667v0 682.667c0 23.564-19.103 42.667-42.667 42.667v0zM896 149.333h-768v597.333h768zM256 661.333c0-23.564-19.103-42.667-42.667-42.667s-42.667 19.103-42.667 42.667c0 23.564 19.103 42.667 42.667 42.667s42.667-19.103 42.667-42.667zM384 661.333c0-23.564-19.103-42.667-42.667-42.667s-42.667 19.103-42.667 42.667c0 23.564 19.103 42.667 42.667 42.667s42.667-19.103 42.667-42.667zM512 661.333c0-23.564-19.103-42.667-42.667-42.667s-42.667 19.103-42.667 42.667c0 23.564 19.103 42.667 42.667 42.667s42.667-19.103 42.667-42.667z" />
<glyph unicode="&#xe91d;" glyph-name="bug" d="M896 277.333c23.564 0 42.667 19.103 42.667 42.667s-19.103 42.667-42.667 42.667v0h-130.133c-1.569 18.615-4.211 35.512-7.943 51.995l0.476-2.502c92.204 24.906 158.933 107.8 158.933 206.281 0 0.079 0 0.159 0 0.238v-0.012c0 23.564-19.103 42.667-42.667 42.667s-42.667-19.103-42.667-42.667v0c-0.44-60.555-42.104-111.256-98.3-125.46l-0.9-0.193c-16.714 37.883-38.59 70.35-65.196 98.27l0.129-0.136c9.457 19.358 14.986 42.12 14.986 66.174 0 1.411-0.019 2.817-0.057 4.219l0.004-0.207c-0.533 30.515-8.366 59.084-21.819 84.191l0.485-0.991v2.133c0 47.128 38.205 85.333 85.333 85.333v0c23.564 0 42.667 19.103 42.667 42.667s-19.103 42.667-42.667 42.667v0c-70.395-0.428-130.782-42.83-157.431-103.424l-0.435-1.11c-22.232 12.091-48.686 19.2-76.8 19.2s-54.568-7.109-77.661-19.627l0.861 0.427c-27.084 61.703-87.471 104.106-157.812 104.533h-0.055c-23.564 0-42.667-19.103-42.667-42.667s19.103-42.667 42.667-42.667v0c47.128 0 85.333-38.205 85.333-85.333v0-2.133c-12.967-24.116-20.8-52.685-21.331-83.035l-0.002-0.165c-0.014-0.8-0.023-1.744-0.023-2.69 0-24.501 5.514-47.714 15.37-68.465l-0.414 0.968c-25.957-27.275-47.46-59.094-63.148-94.087l-0.852-2.126c-57.666 12.376-100.267 62.918-100.267 123.409 0 0.114 0 0.228 0 0.342v-0.018c0 23.564-19.103 42.667-42.667 42.667s-42.667-19.103-42.667-42.667v0c1.043-98.183 67.271-180.615 157.407-206.137l1.526-0.369c-3.255-13.982-5.898-30.878-7.371-48.108l-0.095-1.385h-130.133c-23.564 0-42.667-19.103-42.667-42.667s19.103-42.667 42.667-42.667v0h130.133c1.569-18.615 4.211-35.512 7.943-51.995l-0.476 2.502c-91.662-25.891-157.891-108.324-158.932-206.388l-0.001-0.119c0-23.564 19.103-42.667 42.667-42.667s42.667 19.103 42.667 42.667v0c0.44 60.555 42.104 111.256 98.3 125.46l0.9 0.193c44.587-100.693 126.72-168.32 220.8-168.32s176.213 67.627 220.8 168.32c57.257-13.555 99.203-64.238 99.203-124.719 0-0.329-0.001-0.657-0.004-0.985v0.050c0-23.564 19.103-42.667 42.667-42.667s42.667 19.103 42.667 42.667v0c-1.043 98.183-67.271 180.615-157.407 206.137l-1.526 0.369c3.255 13.982 5.898 30.878 7.371 48.108l0.095 1.385zM512 746.667c47.128 0 85.333-38.205 85.333-85.333v0c0.049-0.912 0.076-1.979 0.076-3.053 0-5.512-0.728-10.854-2.094-15.935l0.098 0.428c-24.439 11.718-53.127 18.563-83.413 18.563s-58.974-6.845-84.601-19.073l1.187 0.51c-1.268 4.653-1.996 9.995-1.996 15.507 0 1.074 0.028 2.142 0.082 3.202l-0.006-0.149c0 47.128 38.205 85.333 85.333 85.333v0zM341.333 320c0 119.253 54.4 219.093 128 247.68v-495.36c-73.6 28.587-128 128.427-128 247.68zM554.667 72.32v495.36c73.6-28.587 128-128 128-247.68s-54.4-219.093-128-247.68z" />
<glyph unicode="&#xe91e;" glyph-name="calendar-date-range" d="M938.667 789.333h-192v82.773c0.027 0.577 0.042 1.253 0.042 1.933 0 21.308-15.092 39.092-35.17 43.244l-0.286 0.049c-2.182 0.396-4.694 0.622-7.258 0.622-23.564 0-42.667-19.103-42.667-42.667 0-0.219 0.002-0.437 0.005-0.655v0.033-85.333h-298.667v82.773c0.027 0.577 0.042 1.253 0.042 1.933 0 21.308-15.092 39.092-35.17 43.244l-0.286 0.049c-2.182 0.396-4.694 0.622-7.258 0.622-23.564 0-42.667-19.103-42.667-42.667 0-0.219 0.002-0.437 0.005-0.655v0.033-85.333h-192c-23.564 0-42.667-19.103-42.667-42.667v0-682.667c0-23.564 19.103-42.667 42.667-42.667v0h853.333c23.564 0 42.667 19.103 42.667 42.667v0 682.667c0 23.564-19.103 42.667-42.667 42.667v0zM896 704v-128h-768v128zM128 106.667v384h768v-384zM213.333 448h85.333c23.564 0 42.667-19.103 42.667-42.667v-85.333c0-23.564-19.103-42.667-42.667-42.667h-85.333c-23.564 0-42.667 19.103-42.667 42.667v85.333c0 23.564 19.103 42.667 42.667 42.667zM725.333 448h85.333c23.564 0 42.667-19.103 42.667-42.667v-85.333c0-23.564-19.103-42.667-42.667-42.667h-85.333c-23.564 0-42.667 19.103-42.667 42.667v85.333c0 23.564 19.103 42.667 42.667 42.667zM469.333 448h85.333c23.564 0 42.667-19.103 42.667-42.667v-85.333c0-23.564-19.103-42.667-42.667-42.667h-85.333c-23.564 0-42.667 19.103-42.667 42.667v85.333c0 23.564 19.103 42.667 42.667 42.667z" />
<glyph unicode="&#xe91f;" glyph-name="calendar-event-available" d="M938.667 789.333h-192v82.773c0.027 0.577 0.042 1.253 0.042 1.933 0 21.308-15.092 39.092-35.17 43.244l-0.286 0.049c-2.182 0.396-4.694 0.622-7.258 0.622-23.564 0-42.667-19.103-42.667-42.667 0-0.219 0.002-0.437 0.005-0.655v0.033-85.333h-298.667v82.773c0.027 0.577 0.042 1.253 0.042 1.933 0 21.308-15.092 39.092-35.17 43.244l-0.286 0.049c-2.182 0.396-4.694 0.622-7.258 0.622-23.564 0-42.667-19.103-42.667-42.667 0-0.219 0.002-0.437 0.005-0.655v0.033-85.333h-192c-23.564 0-42.667-19.103-42.667-42.667v0-682.667c0-23.564 19.103-42.667 42.667-42.667v0h853.333c23.564 0 42.667 19.103 42.667 42.667v0 682.667c0 23.564-19.103 42.667-42.667 42.667v0zM896 704v-128h-768v128zM128 106.667v384h768v-384zM417.493 161.92l-104.96 104.96c-8.506 8.066-13.798 19.448-13.798 32.066 0 9.118 2.763 17.59 7.498 24.625l-0.1-0.158c7.858 10.565 20.305 17.335 34.333 17.335 11.534 0 21.999-4.577 29.678-12.013l-0.011 0.011 77.867-76.373 183.253 183.040c7.549 6.884 17.635 11.1 28.706 11.1 23.564 0 42.667-19.103 42.667-42.667 0-11.017-4.176-21.060-11.031-28.63l0.032 0.036-213.333-213.333c-7.743-7.859-18.503-12.729-30.4-12.729s-22.657 4.869-30.395 12.723l-0.005 0.005z" />
<glyph unicode="&#xe920;" glyph-name="calendar-event-busy" d="M938.667 789.333h-192v82.773c0.027 0.577 0.042 1.253 0.042 1.933 0 21.308-15.092 39.092-35.17 43.244l-0.286 0.049c-2.182 0.396-4.694 0.622-7.258 0.622-23.564 0-42.667-19.103-42.667-42.667 0-0.219 0.002-0.437 0.005-0.655v0.033-85.333h-298.667v82.773c0.027 0.577 0.042 1.253 0.042 1.933 0 21.308-15.092 39.092-35.17 43.244l-0.286 0.049c-2.182 0.396-4.694 0.622-7.258 0.622-23.564 0-42.667-19.103-42.667-42.667 0-0.219 0.002-0.437 0.005-0.655v0.033-85.333h-192c-23.564 0-42.667-19.103-42.667-42.667v0-682.667c0-23.564 19.103-42.667 42.667-42.667v0h853.333c23.564 0 42.667 19.103 42.667 42.667v0 682.667c0 23.564-19.103 42.667-42.667 42.667v0zM896 704v-128h-768v128zM128 106.667v384h768v-384zM572.373 298.667l76.373 76.587c6.377 7.412 10.259 17.129 10.259 27.753 0 23.564-19.103 42.667-42.667 42.667-10.624 0-20.341-3.883-27.809-10.307l0.056 0.047-76.587-76.373-76.587 76.373c-7.412 6.377-17.129 10.259-27.753 10.259-23.564 0-42.667-19.103-42.667-42.667 0-10.624 3.883-20.341 10.307-27.809l-0.047 0.056 76.373-76.587-76.373-76.587c-9.153-7.872-14.914-19.467-14.914-32.407 0-23.564 19.103-42.667 42.667-42.667 12.94 0 24.535 5.761 32.36 14.858l0.047 0.056 76.587 76.373 76.587-76.373c7.872-9.153 19.467-14.914 32.407-14.914 23.564 0 42.667 19.103 42.667 42.667 0 12.94-5.761 24.535-14.858 32.36l-0.056 0.047z" />
<glyph unicode="&#xe921;" glyph-name="calendar-event" d="M938.667 789.333h-192v82.773c0.027 0.577 0.042 1.253 0.042 1.933 0 21.308-15.092 39.092-35.17 43.244l-0.286 0.049c-2.182 0.396-4.694 0.622-7.258 0.622-23.564 0-42.667-19.103-42.667-42.667 0-0.219 0.002-0.437 0.005-0.655v0.033-85.333h-298.667v82.773c0.027 0.577 0.042 1.253 0.042 1.933 0 21.308-15.092 39.092-35.17 43.244l-0.286 0.049c-2.182 0.396-4.694 0.622-7.258 0.622-23.564 0-42.667-19.103-42.667-42.667 0-0.219 0.002-0.437 0.005-0.655v0.033-85.333h-192c-23.564 0-42.667-19.103-42.667-42.667v0-682.667c0-23.564 19.103-42.667 42.667-42.667v0h853.333c23.564 0 42.667 19.103 42.667 42.667v0 682.667c0 23.564-19.103 42.667-42.667 42.667v0zM896 704v-128h-768v128zM128 106.667v384h768v-384zM640 362.667h170.667v-170.667h-170.667v170.667z" />
<glyph unicode="&#xe922;" glyph-name="calendar" d="M938.667 789.333h-192v82.773c0.027 0.577 0.042 1.253 0.042 1.933 0 21.308-15.092 39.092-35.17 43.244l-0.286 0.049c-2.182 0.396-4.694 0.622-7.258 0.622-23.564 0-42.667-19.103-42.667-42.667 0-0.219 0.002-0.437 0.005-0.655v0.033-85.333h-298.667v82.773c0.027 0.577 0.042 1.253 0.042 1.933 0 21.308-15.092 39.092-35.17 43.244l-0.286 0.049c-2.182 0.396-4.694 0.622-7.258 0.622-23.564 0-42.667-19.103-42.667-42.667 0-0.219 0.002-0.437 0.005-0.655v0.033-85.333h-192c-23.564 0-42.667-19.103-42.667-42.667v0-682.667c0-23.564 19.103-42.667 42.667-42.667v0h853.333c23.564 0 42.667 19.103 42.667 42.667v0 682.667c0 23.564-19.103 42.667-42.667 42.667v0zM896 704v-128h-768v128zM128 106.667v384h768v-384z" />
<glyph unicode="&#xe923;" glyph-name="camera" d="M512 512c58.91 0 106.667-47.756 106.667-106.667s-47.756-106.667-106.667-106.667c-58.91 0-106.667 47.756-106.667 106.667v0c0 58.91 47.756 106.667 106.667 106.667v0zM512 597.333c-106.039 0-192-85.961-192-192s85.961-192 192-192c106.039 0 192 85.961 192 192v0c0 106.039-85.961 192-192 192v0zM599.040 746.667l85.333-106.667h211.627v-490.667h-768v490.667h211.627l85.333 106.667h174.080zM640 832h-256l-85.333-106.667h-213.333c-23.564 0-42.667-19.103-42.667-42.667v0-576c0-23.564 19.103-42.667 42.667-42.667v0h853.333c23.564 0 42.667 19.103 42.667 42.667v0 576c0 23.564-19.103 42.667-42.667 42.667v0h-213.333l-85.333 106.667z" />
<glyph unicode="&#xe924;" glyph-name="cart-shopping-add" d="M533.333 853.333v-259.84l-34.133 33.92c-7.668 7.425-18.133 12.002-29.667 12.002-14.028 0-26.476-6.77-34.252-17.222l-0.081-0.114c-4.635-6.877-7.398-15.35-7.398-24.467 0-12.618 5.292-24 13.778-32.048l0.020-0.019 105.173-104.96c7.723-7.731 18.396-12.514 30.187-12.514s22.464 4.782 30.186 12.513v0l105.387 104.96c8.506 8.066 13.798 19.448 13.798 32.066 0 9.118-2.763 17.59-7.498 24.625l0.1-0.158c-7.858 10.565-20.305 17.335-34.333 17.335-11.534 0-21.999-4.577-29.678-12.013l0.011 0.011-36.267-33.92v259.84c0 23.564-19.103 42.667-42.667 42.667s-42.667-19.103-42.667-42.667v0zM944.213 745.6c-11.719 13.643-28.946 22.268-48.19 22.4h-106.69c-23.564 0-42.667-19.103-42.667-42.667v0 0c0-23.564 19.103-42.667 42.667-42.667v0h81.92l-49.707-298.667h-531.413l-34.133 298.667h106.667c23.564 0 42.667 19.103 42.667 42.667v0 0c0 23.564-19.103 42.667-42.667 42.667v0h-117.76l-8.32 71.467c-3.866 31.987-30.848 56.533-63.563 56.533-0.004 0-0.007 0-0.011 0h-63.999c-0.513 0.021-1.116 0.034-1.721 0.034-21.305 0-39.086-15.087-43.242-35.161l-0.050-0.286c-0.396-2.182-0.622-4.694-0.622-7.258 0-23.564 19.103-42.667 42.667-42.667 0.219 0 0.437 0.002 0.655 0.005h47.327l67.413-573.44c-37.221-22.831-61.674-63.297-61.674-109.475 0-70.692 57.308-128 128-128 55.491 0 102.735 35.311 120.487 84.689l0.28 0.893h228.267c18.103-50.14 65.281-85.333 120.68-85.333 70.692 0 128 57.308 128 128s-57.308 128-128 128c-55.398 0-102.577-35.193-120.398-84.442l-0.282-0.891h-228.267c-16.118 44.585-55.067 77.203-102.356 83.973l-0.684 0.080-5.333 43.947h539.733c0.206-0.002 0.448-0.004 0.692-0.004 32.035 0 58.573 23.537 63.264 54.261l0.045 0.356 56.107 337.92c0.513 3.11 0.807 6.695 0.807 10.347 0 16.914-6.289 32.36-16.657 44.126l0.063-0.073zM757.333 170.667c23.564 0 42.667-19.103 42.667-42.667s-19.103-42.667-42.667-42.667c-23.564 0-42.667 19.103-42.667 42.667v0c0 23.564 19.103 42.667 42.667 42.667v0zM330.667 128c0-23.564-19.103-42.667-42.667-42.667s-42.667 19.103-42.667 42.667c0 23.564 19.103 42.667 42.667 42.667v0c23.564 0 42.667-19.103 42.667-42.667v0z" />
<glyph unicode="&#xe925;" glyph-name="cart-shopping-remove" d="M618.667 490.667v259.84l34.133-33.92c7.668-7.425 18.133-12.002 29.667-12.002 14.028 0 26.476 6.77 34.252 17.222l0.081 0.114c4.635 6.877 7.398 15.35 7.398 24.467 0 12.618-5.292 24-13.778 32.048l-0.020 0.019-104.107 104.96c-7.723 7.731-18.396 12.514-30.187 12.514s-22.464-4.782-30.186-12.513v0l-105.387-104.96c-8.506-8.066-13.798-19.448-13.798-32.066 0-9.118 2.763-17.59 7.498-24.625l-0.1 0.158c7.858-10.565 20.305-17.335 34.333-17.335 11.534 0 21.999 4.577 29.678 12.013l35.189 33.909v-259.84c0-23.564 19.103-42.667 42.667-42.667s42.667 19.103 42.667 42.667v0zM944.213 745.6c-11.719 13.643-28.946 22.268-48.19 22.4h-85.356c-23.564 0-42.667-19.103-42.667-42.667v0 0c0-23.564 19.103-42.667 42.667-42.667v0h60.587l-49.707-298.667h-531.413l-34.133 298.667h85.333c23.564 0 42.667 19.103 42.667 42.667v0 0c0 23.564-19.103 42.667-42.667 42.667v0h-96.427l-8.32 71.467c-3.866 31.987-30.848 56.533-63.563 56.533-0.004 0-0.007 0-0.011 0h-63.999c-0.513 0.021-1.116 0.034-1.721 0.034-21.305 0-39.086-15.087-43.242-35.161l-0.050-0.286c-0.396-2.182-0.622-4.694-0.622-7.258 0-23.564 19.103-42.667 42.667-42.667 0.219 0 0.437 0.002 0.655 0.005h47.327l67.413-573.44c-37.221-22.831-61.674-63.297-61.674-109.475 0-70.692 57.308-128 128-128 55.491 0 102.735 35.311 120.487 84.689l0.28 0.893h228.267c18.103-50.14 65.281-85.333 120.68-85.333 70.692 0 128 57.308 128 128s-57.308 128-128 128c-55.398 0-102.577-35.193-120.398-84.442l-0.282-0.891h-228.267c-16.118 44.585-55.067 77.203-102.356 83.973l-0.684 0.080-5.333 43.947h539.733c0.206-0.002 0.448-0.004 0.692-0.004 32.035 0 58.573 23.537 63.264 54.261l0.045 0.356 56.107 337.92c0.513 3.11 0.807 6.695 0.807 10.347 0 16.914-6.289 32.36-16.657 44.126l0.063-0.073zM757.333 170.667c23.564 0 42.667-19.103 42.667-42.667s-19.103-42.667-42.667-42.667c-23.564 0-42.667 19.103-42.667 42.667v0c0 23.564 19.103 42.667 42.667 42.667v0zM330.667 128c0-23.564-19.103-42.667-42.667-42.667s-42.667 19.103-42.667 42.667c0 23.564 19.103 42.667 42.667 42.667v0c23.564 0 42.667-19.103 42.667-42.667v0z" />
<glyph unicode="&#xe926;" glyph-name="cart-shopping" d="M944.213 745.6c-11.719 13.643-28.946 22.268-48.19 22.4h-651.116l-8.32 71.467c-3.866 31.987-30.848 56.533-63.563 56.533-0.004 0-0.007 0-0.011 0h-66.346c-23.564 0-42.667-19.103-42.667-42.667s19.103-42.667 42.667-42.667v0h47.36l67.413-573.44c-37.221-22.831-61.674-63.297-61.674-109.475 0-70.692 57.308-128 128-128 55.491 0 102.735 35.311 120.487 84.689l0.28 0.893h228.267c18.103-50.14 65.281-85.333 120.68-85.333 70.692 0 128 57.308 128 128s-57.308 128-128 128c-55.398 0-102.577-35.193-120.398-84.442l-0.282-0.891h-228.267c-16.118 44.585-55.067 77.203-102.356 83.973l-0.684 0.080-5.333 43.947h539.733c0.206-0.002 0.448-0.004 0.692-0.004 32.035 0 58.573 23.537 63.264 54.261l0.045 0.356 56.107 337.92c0.513 3.11 0.807 6.695 0.807 10.347 0 16.914-6.289 32.36-16.657 44.126l0.063-0.073zM800 128c0-23.564-19.103-42.667-42.667-42.667s-42.667 19.103-42.667 42.667c0 23.564 19.103 42.667 42.667 42.667v0c23.564 0 42.667-19.103 42.667-42.667v0zM330.667 128c0-23.564-19.103-42.667-42.667-42.667s-42.667 19.103-42.667 42.667c0 23.564 19.103 42.667 42.667 42.667v0c23.564 0 42.667-19.103 42.667-42.667v0zM821.333 384h-531.2l-34.133 298.667h615.253z" />
<glyph unicode="&#xe927;" glyph-name="category-list" d="M512 746.667v0c0 23.564 19.103 42.667 42.667 42.667v0h341.333c23.564 0 42.667-19.103 42.667-42.667v0 0c0-23.564-19.103-42.667-42.667-42.667v0h-341.333c-23.564 0-42.667 19.103-42.667 42.667v0zM512 448v0c0 23.564 19.103 42.667 42.667 42.667v0h341.333c23.564 0 42.667-19.103 42.667-42.667v0 0c0-23.564-19.103-42.667-42.667-42.667v0h-341.333c-23.564 0-42.667 19.103-42.667 42.667v0zM512 149.333v0c0 23.564 19.103 42.667 42.667 42.667v0h341.333c23.564 0 42.667-19.103 42.667-42.667v0 0c0-23.564-19.103-42.667-42.667-42.667v0h-341.333c-23.564 0-42.667 19.103-42.667 42.667v0zM256 791.253l51.84-87.253h-105.173l53.333 87.253zM256 917.333c-15.422-0.564-28.786-8.877-36.37-21.142l-0.11-0.191-128-213.333c-3.124-6.226-4.952-13.566-4.952-21.333s1.829-15.108 5.079-21.614l-0.127 0.28c7.2-12.816 20.707-21.333 36.204-21.333 0.022 0 0.044 0 0.066 0h256.21c15.433 0.523 28.813 8.85 36.37 21.141l0.11 0.193c4.002 6.008 6.386 13.392 6.386 21.333s-2.384 15.325-6.475 21.476l0.089-0.143-128 213.333c-7.2 12.817-20.707 21.334-36.204 21.334-0.097 0-0.194 0-0.29-0.001h0.015zM256 320c-70.692 0-128 57.308-128 128s57.308 128 128 128c70.692 0 128-57.308 128-128v0c0-70.692-57.308-128-128-128v0zM256 490.667c-23.564 0-42.667-19.103-42.667-42.667s19.103-42.667 42.667-42.667c23.564 0 42.667 19.103 42.667 42.667v0c0 23.564-19.103 42.667-42.667 42.667v0zM341.333 21.333h-170.667c-23.564 0-42.667 19.103-42.667 42.667v0 170.667c0 23.564 19.103 42.667 42.667 42.667v0h170.667c23.564 0 42.667-19.103 42.667-42.667v0-170.667c0-23.564-19.103-42.667-42.667-42.667v0zM213.333 106.667h85.333v85.333h-85.333z" />
<glyph unicode="&#xe928;" glyph-name="category" d="M512 795.093l112.853-176.427h-227.413l114.56 176.427zM512 917.333c-15.422-0.564-28.786-8.877-36.37-21.142l-0.11-0.191-192-298.667c-3.124-6.226-4.952-13.566-4.952-21.333s1.829-15.108 5.079-21.614l-0.127 0.28c7.2-12.816 20.707-21.333 36.204-21.333 0.022 0 0.044 0 0.066 0h384.21c15.433 0.523 28.813 8.85 36.37 21.141l0.11 0.193c4.002 6.008 6.386 13.392 6.386 21.333s-2.384 15.325-6.475 21.476l0.089-0.143-192 298.667c-7.2 12.817-20.707 21.334-36.204 21.334-0.097 0-0.194 0-0.29-0.001h0.015zM917.333 42.667h-298.667c-23.564 0-42.667 19.103-42.667 42.667v0 298.667c0 23.564 19.103 42.667 42.667 42.667v0h298.667c23.564 0 42.667-19.103 42.667-42.667v0-298.667c0-23.564-19.103-42.667-42.667-42.667v0zM661.333 128h213.333v213.333h-213.333zM277.333 362.667c70.692 0 128-57.308 128-128s-57.308-128-128-128c-70.692 0-128 57.308-128 128v0c0 70.692 57.308 128 128 128v0zM277.333 448c-117.821 0-213.333-95.513-213.333-213.333s95.513-213.333 213.333-213.333c117.821 0 213.333 95.513 213.333 213.333v0c0 117.821-95.513 213.333-213.333 213.333v0z" />
<glyph unicode="&#xe929;" glyph-name="certificate-check" d="M853.333 576c-0.015 188.502-152.83 341.307-341.333 341.307-188.513 0-341.333-152.82-341.333-341.333 0-116.818 58.683-219.929 148.179-281.463l1.154-0.75v-270.080c-0.026-0.558-0.041-1.211-0.041-1.868 0-23.564 19.103-42.667 42.667-42.667 8.844 0 17.059 2.691 23.872 7.298l-0.151-0.096 125.653 98.987 125.653-98.987c6.662-4.511 14.877-7.202 23.721-7.202 23.564 0 42.667 19.103 42.667 42.667 0 0.657-0.015 1.311-0.044 1.961l0.003-0.092v270.080c90.65 62.284 149.333 165.396 149.333 282.213 0 0.009 0 0.019 0 0.028v-0.002zM256 576c0 141.385 114.615 256 256 256s256-114.615 256-256c0-141.385-114.615-256-256-256v0c-141.385 0-256 114.615-256 256v0zM438.827 460.587l-83.627 83.627c-8.506 8.066-13.798 19.448-13.798 32.066 0 9.118 2.763 17.59 7.498 24.625l-0.1-0.158c7.858 10.565 20.305 17.335 34.333 17.335 11.534 0 21.999-4.577 29.678-12.013l-0.011 0.011 56.533-55.040 140.587 140.373c7.549 6.884 17.635 11.1 28.706 11.1 23.564 0 42.667-19.103 42.667-42.667 0-11.017-4.176-21.060-11.031-28.63l0.032 0.036-170.667-170.667c-7.743-7.859-18.503-12.729-30.4-12.729s-22.657 4.869-30.395 12.723l-0.005 0.005z" />
<glyph unicode="&#xe92a;" glyph-name="certificate-key" d="M512 320c-0.040 0-0.088 0-0.136 0-141.385 0-256 114.615-256 256s114.615 256 256 256c90.13 0 169.381-46.577 214.997-116.975l0.606-0.999c3.803-6.014 10.393-9.964 17.911-10.027h49.502c0.047 0 0.102-0.001 0.157-0.001 11.782 0 21.333 9.551 21.333 21.333 0 3.67-0.927 7.124-2.559 10.14l0.056-0.113c-58.509 108.837-171.58 181.58-301.641 181.58-188.513 0-341.333-152.82-341.333-341.333 0-116.722 58.587-219.76 147.958-281.311l1.15-0.748v-269.867c-0.026-0.558-0.041-1.211-0.041-1.868 0-23.564 19.103-42.667 42.667-42.667 8.844 0 17.059 2.691 23.872 7.298l-0.151-0.096 125.653 98.987 125.653-98.987c6.662-4.511 14.877-7.202 23.721-7.202 23.564 0 42.667 19.103 42.667 42.667 0 0.657-0.015 1.311-0.044 1.961l0.003-0.092v269.867c12.323 8.248 23.042 16.595 33.131 25.631l-0.278-0.245c4.389 3.925 7.139 9.604 7.139 15.926 0 6.999-3.37 13.211-8.577 17.101l-0.056 0.040-35.2 26.453c-3.636 2.968-8.328 4.766-13.44 4.766s-9.804-1.798-13.478-4.796l0.038 0.030c-43.399-36.256-99.75-58.317-161.25-58.453h-0.030zM655.147 618.667c-18.972 62.199-75.847 106.667-143.108 106.667-82.475 0-149.333-66.859-149.333-149.333s66.859-149.333 149.333-149.333c67.261 0 124.136 44.468 142.83 105.609l0.278 1.058h85.333v-78.080c0-23.564 19.103-42.667 42.667-42.667s42.667 19.103 42.667 42.667v0 78.080h35.2v-78.080c0-23.564 19.103-42.667 42.667-42.667s42.667 19.103 42.667 42.667v0 120.747c0 23.564-19.103 42.667-42.667 42.667v0zM466.773 530.773c-11.599 11.584-18.773 27.596-18.773 45.283 0 35.346 28.654 64 64 64s64-28.654 64-64c0-17.687-7.175-33.698-18.773-45.282l-0.001-0.001c-11.579-11.565-27.568-18.717-45.227-18.717s-33.648 7.152-45.227 18.718l0.001-0.001z" />
<glyph unicode="&#xe92b;" glyph-name="certificate-ribbon" d="M661.333 576.213c0-82.475-66.859-149.333-149.333-149.333s-149.333 66.859-149.333 149.333c0 82.475 66.859 149.333 149.333 149.333s149.333-66.859 149.333-149.333zM853.333 576c-0.015 188.502-152.83 341.307-341.333 341.307-188.513 0-341.333-152.82-341.333-341.333 0-116.818 58.683-219.929 148.179-281.463l1.154-0.75v-270.080c-0.026-0.558-0.041-1.211-0.041-1.868 0-23.564 19.103-42.667 42.667-42.667 8.844 0 17.059 2.691 23.872 7.298l-0.151-0.096 125.653 98.987 125.653-98.987c6.662-4.511 14.877-7.202 23.721-7.202 23.564 0 42.667 19.103 42.667 42.667 0 0.657-0.015 1.311-0.044 1.961l0.003-0.092v270.080c90.65 62.284 149.333 165.396 149.333 282.213 0 0.009 0 0.019 0 0.028v-0.002zM256 576c0 141.385 114.615 256 256 256s256-114.615 256-256c0-141.385-114.615-256-256-256v0c-141.385 0-256 114.615-256 256v0z" />
<glyph unicode="&#xe92c;" glyph-name="certificate-ssl" d="M469.333 128h-298.667v640h725.333c23.564 0 42.667 19.103 42.667 42.667s-19.103 42.667-42.667 42.667v0h-768c-23.564 0-42.667-19.103-42.667-42.667v0-725.333c0-23.564 19.103-42.667 42.667-42.667v0h341.333c23.564 0 42.667 19.103 42.667 42.667s-19.103 42.667-42.667 42.667v0zM1024 448c-0.067 153.116-124.208 277.216-277.333 277.216-67.525 0-129.413-24.132-177.511-64.243l0.444 0.36h-270.933c-23.564 0-42.667-19.103-42.667-42.667s19.103-42.667 42.667-42.667v0h202.027c-13.050-24.711-22.75-53.421-27.53-83.764l-0.204-1.569h-174.293c-23.564 0-42.667-19.103-42.667-42.667s19.103-42.667 42.667-42.667v0h174.293c4.983-31.913 14.683-60.622 28.461-86.854l-0.728 1.521h-202.027c-23.564 0-42.667-19.103-42.667-42.667s19.103-42.667 42.667-42.667v0h270.933c8.129-6.702 17.175-13.305 26.599-19.37l1.134-0.683v-207.147c0-42.667 42.667-65.707 70.4-37.973l78.933 73.173 78.933-73.173c27.733-27.733 70.4-4.693 70.4 37.973v201.813c0.044 0.606 0.069 1.314 0.069 2.027s-0.025 1.42-0.074 2.121l0.005-0.094c77.458 50.055 128.002 135.973 128.002 233.696 0 0.341-0.001 0.683-0.002 1.024v-0.053zM746.667 256c-106.039 0-192 85.961-192 192s85.961 192 192 192c106.039 0 192-85.961 192-192v0c0-106.039-85.961-192-192-192v0zM853.333 448c0-58.91-47.756-106.667-106.667-106.667s-106.667 47.756-106.667 106.667c0 58.91 47.756 106.667 106.667 106.667s106.667-47.756 106.667-106.667z" />
<glyph unicode="&#xe92d;" glyph-name="certificate-star" d="M637.653-13.653l-125.653 98.987-125.653-98.987c-6.662-4.511-14.877-7.202-23.721-7.202-23.564 0-42.667 19.103-42.667 42.667 0 0.657 0.015 1.311 0.044 1.961l-0.003-0.092v274.987h384v-274.987c0.026-0.558 0.041-1.211 0.041-1.868 0-23.564-19.103-42.667-42.667-42.667-8.844 0-17.059 2.691-23.872 7.298l0.151-0.096zM512 832c141.385 0 256-114.615 256-256s-114.615-256-256-256c-141.385 0-256 114.615-256 256v0c0 141.385 114.615 256 256 256v0zM512 917.333c-188.513 0-341.333-152.82-341.333-341.333s152.82-341.333 341.333-341.333c188.513 0 341.333 152.82 341.333 341.333v0c0 188.513-152.82 341.333-341.333 341.333v0zM531.84 691.627l27.52-61.653 61.653-8.96c11.276-0.628 20.182-9.925 20.182-21.302 0-6.728-3.115-12.729-7.981-16.639l-0.042-0.032-44.373-42.667 10.453-65.28c0.471-1.672 0.742-3.593 0.742-5.577 0-11.782-9.551-21.333-21.333-21.333-4.321 0-8.343 1.285-11.702 3.493l0.081-0.050-55.040 39.040-55.040-40.107c-3.279-2.159-7.301-3.444-11.622-3.444-11.782 0-21.333 9.551-21.333 21.333 0 1.984 0.271 3.904 0.777 5.727l-0.036-0.15 10.453 65.28-44.373 42.667c-4.908 3.942-8.022 9.943-8.022 16.671 0 11.377 8.906 20.674 20.127 21.3l0.055 0.002 61.653 8.96 27.52 61.653c3.066 8.264 10.883 14.046 20.050 14.046 8.764 0 16.294-5.285 19.576-12.842l0.053-0.138z" />
<glyph unicode="&#xe92e;" glyph-name="chart-area" d="M893.653 250.027l-125.653 316.373c-5.851 17.047-21.743 29.081-40.446 29.081-6.289 0-12.26-1.361-17.635-3.804l0.268 0.109-163.413-89.387c-2.566-1.18-5.567-1.868-8.729-1.868-5.617 0-10.727 2.171-14.537 5.72l0.013-0.012-194.347 228.693c-7.755 7.933-18.563 12.852-30.521 12.852-23.564 0-42.667-19.103-42.667-42.667 0-0.393 0.005-0.786 0.016-1.177l-0.001 0.058v-512h597.333c0.153-0.002 0.334-0.003 0.515-0.003 23.564 0 42.667 19.103 42.667 42.667 0 5.526-1.050 10.806-2.962 15.652l0.101-0.289zM896 106.667h-725.333v725.333c0 23.564-19.103 42.667-42.667 42.667s-42.667-19.103-42.667-42.667v0-810.667h810.667c23.564 0 42.667 19.103 42.667 42.667s-19.103 42.667-42.667 42.667v0z" />
<glyph unicode="&#xe92f;" glyph-name="chart-bar-horizontal" d="M128 21.333c-23.564 0-42.667 19.103-42.667 42.667v768c0 23.564 19.103 42.667 42.667 42.667s42.667-19.103 42.667-42.667v-768c0-23.564-19.103-42.667-42.667-42.667zM256 234.667v-85.333h341.333c23.564 0 42.667 19.103 42.667 42.667v0 0c0 23.564-19.103 42.667-42.667 42.667v0zM256 746.667v-85.333h640c23.564 0 42.667 19.103 42.667 42.667v0 0c0 23.564-19.103 42.667-42.667 42.667v0zM256 405.333v-85.333h469.333c23.564 0 42.667 19.103 42.667 42.667v0 0c0 23.564-19.103 42.667-42.667 42.667v0zM256 576v-85.333h277.333c23.564 0 42.667 19.103 42.667 42.667v0 0c0 23.564-19.103 42.667-42.667 42.667v0z" />
<glyph unicode="&#xe930;" glyph-name="chart-bar-vertical" d="M938.667 64c0-23.564-19.103-42.667-42.667-42.667h-768c-23.564 0-42.667 19.103-42.667 42.667s19.103 42.667 42.667 42.667h768c23.564 0 42.667-19.103 42.667-42.667zM298.667 192h-85.333v341.333c0 23.564 19.103 42.667 42.667 42.667v0 0c23.564 0 42.667-19.103 42.667-42.667v0zM810.667 192h-85.333v640c0 23.564 19.103 42.667 42.667 42.667v0 0c23.564 0 42.667-19.103 42.667-42.667v0zM469.333 192h-85.333v469.333c0 23.564 19.103 42.667 42.667 42.667v0 0c23.564 0 42.667-19.103 42.667-42.667v0zM640 192h-85.333v277.333c0 23.564 19.103 42.667 42.667 42.667v0 0c23.564 0 42.667-19.103 42.667-42.667v0z" />
<glyph unicode="&#xe931;" glyph-name="chart-create" d="M347.307 170.667h-261.973c-23.564 0-42.667 19.103-42.667 42.667s19.103 42.667 42.667 42.667v0h226.773c8.598-32.4 20.641-60.781 36.069-86.925l-0.869 1.592zM256 341.333h-85.333v213.333c0 23.564 19.103 42.667 42.667 42.667v0 0c23.564 0 42.667-19.103 42.667-42.667v0zM768 853.333v-198.4c-24.823 10.586-53.639 18.457-83.729 22.236l-1.605 0.164v176c0 23.564 19.103 42.667 42.667 42.667v0c23.564 0 42.667-19.103 42.667-42.667v0zM426.667 682.667v-78.293c-34.763-28.22-63.351-62.527-84.455-101.481l-0.878-1.772v181.547c0 23.564 19.103 42.667 42.667 42.667v0c23.564 0 42.667-19.103 42.667-42.667v0zM597.333 789.333v-112c-31.695-3.943-60.511-11.814-87.478-23.204l2.145 0.804v134.4c0 23.564 19.103 42.667 42.667 42.667v0c23.564 0 42.667-19.103 42.667-42.667v0zM512 384h256c23.564 0 42.667-19.103 42.667-42.667s-19.103-42.667-42.667-42.667h-256c-23.564 0-42.667 19.103-42.667 42.667s19.103 42.667 42.667 42.667zM682.667 469.333v-256c0-23.564-19.103-42.667-42.667-42.667s-42.667 19.103-42.667 42.667v256c0 23.564 19.103 42.667 42.667 42.667s42.667-19.103 42.667-42.667zM640 597.333c141.385 0 256-114.615 256-256s-114.615-256-256-256c-141.385 0-256 114.615-256 256v0c0 141.385 114.615 256 256 256v0zM640 682.667c-188.513 0-341.333-152.82-341.333-341.333s152.82-341.333 341.333-341.333c188.513 0 341.333 152.82 341.333 341.333v0c0 188.513-152.82 341.333-341.333 341.333v0z" />
<glyph unicode="&#xe932;" glyph-name="chart-data-sets" d="M896 106.667h-725.333v725.333c0 23.564-19.103 42.667-42.667 42.667s-42.667-19.103-42.667-42.667v0-810.667h810.667c23.564 0 42.667 19.103 42.667 42.667s-19.103 42.667-42.667 42.667v0zM341.333 704c0-23.564-19.103-42.667-42.667-42.667s-42.667 19.103-42.667 42.667c0 23.564 19.103 42.667 42.667 42.667s42.667-19.103 42.667-42.667zM341.333 490.667c0-23.564-19.103-42.667-42.667-42.667s-42.667 19.103-42.667 42.667c0 23.564 19.103 42.667 42.667 42.667s42.667-19.103 42.667-42.667zM448 597.333c0-23.564-19.103-42.667-42.667-42.667s-42.667 19.103-42.667 42.667c0 23.564 19.103 42.667 42.667 42.667s42.667-19.103 42.667-42.667zM810.667 234.667c0-23.564-19.103-42.667-42.667-42.667s-42.667 19.103-42.667 42.667c0 23.564 19.103 42.667 42.667 42.667s42.667-19.103 42.667-42.667zM810.667 448c0-23.564-19.103-42.667-42.667-42.667s-42.667 19.103-42.667 42.667c0 23.564 19.103 42.667 42.667 42.667s42.667-19.103 42.667-42.667zM704 341.333c0-23.564-19.103-42.667-42.667-42.667s-42.667 19.103-42.667 42.667c0 23.564 19.103 42.667 42.667 42.667s42.667-19.103 42.667-42.667zM640 874.667c-0.185 0.003-0.403 0.005-0.622 0.005-23.564 0-42.667-19.103-42.667-42.667 0-2.564 0.226-5.076 0.66-7.516l-0.038 0.258c4.205-20.359 21.987-35.447 43.292-35.447 0.605 0 1.208 0.012 1.807 0.036l-0.086-0.003h150.613l-671.787-672c-8.533-8.103-13.842-19.532-13.842-32.2 0-10.443 3.608-20.044 9.645-27.624l-0.069 0.090c7.87-9.109 19.437-14.838 32.342-14.838 11.779 0 22.444 4.773 30.165 12.492l673.92 673.707v-150.613c-0.021-0.513-0.034-1.116-0.034-1.721 0-21.305 15.087-39.086 35.161-43.242l0.286-0.050c2.182-0.396 4.694-0.622 7.258-0.622 23.564 0 42.667 19.103 42.667 42.667 0 0.219-0.002 0.437-0.005 0.655v-0.033 256c0 23.564-19.103 42.667-42.667 42.667v0z" />
<glyph unicode="&#xe933;" glyph-name="chart-donut" d="M512 917.333c-259.206 0-469.333-210.128-469.333-469.333s210.128-469.333 469.333-469.333c259.206 0 469.333 210.128 469.333 469.333v0c0 259.206-210.128 469.333-469.333 469.333v0zM896 448c-0.034-55.671-11.969-108.545-33.397-156.229l0.971 2.416-112 64c10.4 26.466 16.428 57.116 16.428 89.173s-6.028 62.707-17.013 90.877l0.585-1.704 112 64c20.286-44.883 32.201-97.288 32.426-152.452v-0.082zM820.693 675.413l-111.573-64c-38.457 45.828-92.003 77.887-152.913 88.524l-1.54 0.223v129.28c109.606-12.786 203.77-70.058 265.294-152.993l0.733-1.034zM512 618.667c94.257 0 170.667-76.41 170.667-170.667s-76.41-170.667-170.667-170.667c-94.257 0-170.667 76.41-170.667 170.667v0c0 94.257 76.41 170.667 170.667 170.667v0zM512 64c-211.4 0.893-382.428 172.472-382.428 383.997 0 196.489 147.577 358.509 337.937 381.266l1.824 0.178v-129.28c-122.037-20.997-213.716-126.034-213.716-252.484 0-141.385 114.615-256 256-256 79.314 0 150.204 36.069 197.161 92.7l0.341 0.424 111.573-64c-70.517-95.307-182.428-156.501-308.646-156.8h-0.048z" />
<glyph unicode="&#xe934;" glyph-name="chart-downward" d="M896 106.667h-725.333v725.333c0 23.564-19.103 42.667-42.667 42.667s-42.667-19.103-42.667-42.667v0-810.667h810.667c23.564 0 42.667 19.103 42.667 42.667s-19.103 42.667-42.667 42.667v0zM853.333 192h-213.333c-0.185-0.003-0.403-0.005-0.622-0.005-23.564 0-42.667 19.103-42.667 42.667 0 2.564 0.226 5.076 0.66 7.516l-0.038-0.258c4.205 20.359 21.987 35.447 43.292 35.447 0.605 0 1.208-0.012 1.807-0.036l-0.086 0.003h107.947l2.347 2.133-241.92 234.667-126.72-126.507-263.467 263.253c-8.506 8.066-13.798 19.448-13.798 32.066 0 9.118 2.763 17.59 7.498 24.625l-0.1-0.158c7.83 10.919 20.483 17.949 34.778 17.949 11.841 0 22.556-4.824 30.286-12.613l0.003-0.003 204.8-204.373 129.28 129.28 297.387-296.32v104.32c-0.021 0.513-0.034 1.116-0.034 1.721 0 21.305 15.087 39.086 35.161 43.242l0.286 0.050c2.182 0.396 4.694 0.622 7.258 0.622 23.564 0 42.667-19.103 42.667-42.667 0-0.219-0.002-0.437-0.005-0.655v0.033-213.333c0-23.564-19.103-42.667-42.667-42.667v0z" />
<glyph unicode="&#xe935;" glyph-name="chart-edit" d="M968.747 461.653l-208.427 208.427c-7.712 7.668-18.343 12.407-30.080 12.407s-22.368-4.74-30.082-12.409l-388.905-388.905c-7.775-7.73-12.587-18.433-12.587-30.26 0-0.012 0-0.024 0-0.036v0.002-208.213c0-23.564 19.103-42.667 42.667-42.667v0h208.213c11.761 0.051 22.391 4.853 30.078 12.585l389.122 388.909c7.668 7.712 12.407 18.343 12.407 30.080s-4.74 22.368-12.409 30.082l0.002-0.002zM384 85.333v147.84l221.227 221.227 147.84-147.84-221.227-221.227zM813.44 366.72l-148.053 148.053 64 64 147.84-147.84zM298.667 256c-0.098-0.769-0.154-1.658-0.154-2.56s0.056-1.791 0.165-2.664l-0.011 0.104v-80.213h-213.333c-23.564 0-42.667 19.103-42.667 42.667s19.103 42.667 42.667 42.667v0zM256 426.667h-85.333v128c0 23.564 19.103 42.667 42.667 42.667v0 0c23.564 0 42.667-19.103 42.667-42.667v0zM768 853.333v-106.667l-7.68 7.68c-7.712 7.668-18.343 12.407-30.080 12.407s-22.368-4.74-30.082-12.409l-17.491-17.491v116.48c0 23.564 19.103 42.667 42.667 42.667v0c23.564 0 42.667-19.103 42.667-42.667v0zM426.667 682.667v-200.747l-55.253-55.253h-30.080v256c0 23.564 19.103 42.667 42.667 42.667v0c23.564 0 42.667-19.103 42.667-42.667v0zM597.333 789.333v-136.747l-85.333-85.333v222.080c0 23.564 19.103 42.667 42.667 42.667v0c23.564 0 42.667-19.103 42.667-42.667v0z" />
<glyph unicode="&#xe936;" glyph-name="chart-flat" d="M757.12 269.867l147.627 147.84c7.731 7.723 12.514 18.396 12.514 30.187s-4.782 22.464-12.513 30.186v0l-147.627 148.053c-8.066 8.506-19.448 13.798-32.066 13.798-9.118 0-17.59-2.763-24.625-7.498l0.158 0.1c-10.565-7.858-17.335-20.305-17.335-34.333 0-11.534 4.577-21.999 12.013-29.678l-0.011 0.011 76.373-77.867h-622.293c-23.564 0-42.667-19.103-42.667-42.667s19.103-42.667 42.667-42.667v0h622.507l-76.587-76.8c-7.425-7.668-12.002-18.133-12.002-29.667 0-14.028 6.77-26.476 17.222-34.252l0.114-0.081c7.009-4.894 15.708-7.82 25.090-7.82 12.303 0 23.431 5.031 31.439 13.148l0.005 0.005zM896 106.667h-725.333v725.333c0 23.564-19.103 42.667-42.667 42.667s-42.667-19.103-42.667-42.667v0-810.667h810.667c23.564 0 42.667 19.103 42.667 42.667s-19.103 42.667-42.667 42.667v0z" />
<glyph unicode="&#xe937;" glyph-name="chart-line-time" d="M896 106.667h-725.333v725.333c0 23.564-19.103 42.667-42.667 42.667s-42.667-19.103-42.667-42.667v0-810.667h810.667c23.564 0 42.667 19.103 42.667 42.667s-19.103 42.667-42.667 42.667v0zM832 725.333c-70.692 0-128-57.308-128-128v0c0.062-23.658 6.719-45.747 18.23-64.544l-0.31 0.544-83.413-91.307c-11.456 3.808-24.645 6.005-38.347 6.005-0.994 0-1.985-0.012-2.973-0.035l0.147 0.003c-18.926-0.033-36.89-4.114-53.084-11.423l0.818 0.33-61.227 55.467c4.327 12.101 6.827 26.060 6.827 40.604 0 0.125 0 0.25-0.001 0.375v-0.019c0 70.692-57.308 128-128 128s-128-57.308-128-128v0c0-0.093 0-0.203 0-0.313 0-18.505 4.007-36.074 11.201-51.887l-0.32 0.786-141.227-147.2 23.68-94.080 173.867 179.84c17.479-9.538 38.285-15.147 60.401-15.147 0.14 0 0.281 0 0.421 0.001h-0.022c0.319-0.003 0.696-0.005 1.073-0.005 26.169 0 50.475 7.972 70.623 21.621l-0.443-0.283 50.773-46.080c-9.759-17.642-15.502-38.68-15.502-61.059 0-70.692 57.308-128 128-128s128 57.308 128 128c0 25.158-7.258 48.621-19.795 68.409l0.31-0.524 81.707 89.6c12.752-4.871 27.499-7.691 42.906-7.691 0.591 0 1.181 0.004 1.77 0.012l-0.089-0.001c70.692 0 128 57.308 128 128s-57.308 128-128 128v0zM405.333 533.333c0-23.564-19.103-42.667-42.667-42.667s-42.667 19.103-42.667 42.667c0 23.564 19.103 42.667 42.667 42.667v0c23.564 0 42.667-19.103 42.667-42.667v0zM603.733 277.333h-6.4c-0.023 0-0.050 0-0.077 0-22.664 0-41.2 17.67-42.584 39.985l-0.006 0.121c-0.050 0.384-0.079 0.829-0.079 1.28s0.029 0.896 0.084 1.332l-0.005-0.052c0 23.564 19.103 42.667 42.667 42.667s42.667-19.103 42.667-42.667v0c0.050-0.48 0.079-1.037 0.079-1.6s-0.029-1.12-0.085-1.669l0.006 0.069c-1.333-20.169-16.495-36.427-36.028-39.436l-0.238-0.030zM789.333 606.080c3.376 15.569 14.896 27.799 29.778 32.138l0.302 0.075c3.582 1.086 7.699 1.711 11.962 1.711 0.22 0 0.439-0.002 0.657-0.005h-0.033c23.564 0 42.667-19.103 42.667-42.667s-19.103-42.667-42.667-42.667c-23.564 0-42.667 19.103-42.667 42.667v0c-0.156 1.281-0.245 2.763-0.245 4.267s0.089 2.986 0.262 4.443l-0.017-0.176z" />
<glyph unicode="&#xe938;" glyph-name="chart-line" d="M896 106.667h-725.333v725.333c0 23.564-19.103 42.667-42.667 42.667s-42.667-19.103-42.667-42.667v0-810.667h810.667c23.564 0 42.667 19.103 42.667 42.667s-19.103 42.667-42.667 42.667v0zM946.347 756.693c-7.59 7.056-17.797 11.386-29.016 11.386-12.385 0-23.537-5.277-31.331-13.704l-0.026-0.028-271.147-290.133-169.387 169.6-346.24-346.027c-8.506-8.066-13.798-19.448-13.798-32.066 0-9.118 2.763-17.59 7.498-24.625l-0.1 0.158c7.83-10.919 20.483-17.949 34.778-17.949 11.841 0 22.556 4.824 30.286 12.613l292.696 292.483 171.947-171.733 326.187 349.653c7.056 7.59 11.386 17.797 11.386 29.016 0 12.385-5.277 23.537-13.704 31.331l-0.028 0.026z" />
<glyph unicode="&#xe939;" glyph-name="chart-pie" d="M597.333-21.333c-203.317 0.766-369.558 158.464-383.928 358.221l-0.072 1.246c-0.082 1.201-0.129 2.603-0.129 4.017 0 16.618 6.463 31.727 17.013 42.949l-0.030-0.033c11.709 12.488 28.31 20.268 46.728 20.268 0.147 0 0.294 0 0.441-0.001h277.31v277.333c0.232 18.642 8.4 35.332 21.273 46.881l0.060 0.053c11.16 10.521 26.244 16.988 42.838 16.988 1.441 0 2.87-0.049 4.287-0.145l-0.192 0.010c210.658-1.872 380.708-173.077 380.708-384 0-212.085-171.929-384.014-384.014-384.014-1.163 0-2.324 0.005-3.484 0.015l0.178-0.001zM301.013 320c21.974-145.174 145.883-255.161 295.481-255.161 164.949 0 298.667 133.718 298.667 298.667 0 149.598-109.987 273.507-253.508 295.275l-1.653 0.206v-296.32c0-23.564-19.103-42.667-42.667-42.667v0zM405.333 490.667h-298.667c-0.056 0-0.122 0-0.188 0-35.346 0-64 28.654-64 64 0 1.727 0.068 3.438 0.203 5.13l-0.014-0.223c13.771 191.792 165.968 343.989 356.518 357.688l1.242 0.072c1.469 0.12 3.18 0.188 4.907 0.188 35.346 0 64-28.654 64-64 0-0.066 0-0.132 0-0.199v0.010-298.667c0-35.346-28.654-64-64-64v0zM130.347 576h253.653v253.653c-131.326-19.85-233.804-122.327-253.446-251.991l-0.207-1.663z" />
<glyph unicode="&#xe93a;" glyph-name="chart-threshold" d="M149.333 490.667h42.667c23.564 0 42.667-19.103 42.667-42.667s-19.103-42.667-42.667-42.667h-42.667c-23.564 0-42.667 19.103-42.667 42.667s19.103 42.667 42.667 42.667zM362.667 490.667h42.667c23.564 0 42.667-19.103 42.667-42.667s-19.103-42.667-42.667-42.667h-42.667c-23.564 0-42.667 19.103-42.667 42.667s19.103 42.667 42.667 42.667zM576 490.667h42.667c23.564 0 42.667-19.103 42.667-42.667s-19.103-42.667-42.667-42.667h-42.667c-23.564 0-42.667 19.103-42.667 42.667s19.103 42.667 42.667 42.667zM896 106.667h-725.333v725.333c0 23.564-19.103 42.667-42.667 42.667s-42.667-19.103-42.667-42.667v0-810.667h810.667c23.564 0 42.667 19.103 42.667 42.667s-19.103 42.667-42.667 42.667v0zM789.333 490.667h42.667c23.564 0 42.667-19.103 42.667-42.667s-19.103-42.667-42.667-42.667h-42.667c-23.564 0-42.667 19.103-42.667 42.667s19.103 42.667 42.667 42.667z" />
<glyph unicode="&#xe93b;" glyph-name="chart-upward" d="M896 106.667h-725.333v725.333c0 23.564-19.103 42.667-42.667 42.667s-42.667-19.103-42.667-42.667v0-810.667h810.667c23.564 0 42.667 19.103 42.667 42.667s-19.103 42.667-42.667 42.667v0zM853.333 768h-213.333c-0.185 0.003-0.403 0.005-0.622 0.005-23.564 0-42.667-19.103-42.667-42.667 0-2.564 0.226-5.076 0.66-7.516l-0.038 0.258c4.205-20.359 21.987-35.447 43.292-35.447 0.605 0 1.208 0.012 1.807 0.036l-0.086-0.003h107.947l2.347-2.133-241.92-234.667-126.72 126.507-263.467-263.253c-8.506-8.066-13.798-19.448-13.798-32.066 0-9.118 2.763-17.59 7.498-24.625l-0.1 0.158c7.83-10.919 20.483-17.949 34.778-17.949 11.841 0 22.556 4.824 30.286 12.613l0.003 0.003 204.8 204.373 129.28-129.28 297.387 295.253v-103.253c-0.021-0.513-0.034-1.116-0.034-1.721 0-21.305 15.087-39.086 35.161-43.242l0.286-0.050c2.182-0.396 4.694-0.622 7.258-0.622 23.564 0 42.667 19.103 42.667 42.667 0 0.219-0.002 0.437-0.005 0.655v-0.033 213.333c0 23.564-19.103 42.667-42.667 42.667v0z" />
<glyph unicode="&#xe93c;" glyph-name="chart-wave" d="M896 106.667h-725.333v725.333c0 23.564-19.103 42.667-42.667 42.667s-42.667-19.103-42.667-42.667v0-810.667h810.667c23.564 0 42.667 19.103 42.667 42.667s-19.103 42.667-42.667 42.667v0zM640 234.667c-100.48 0-149.333 116.267-197.333 228.693-39.467 92.8-84.053 197.973-144 197.973s-85.333-66.773-124.8-175.787l-5.76-16.213c-6.206-16.447-21.815-27.933-40.107-27.933-23.615 0-42.759 19.144-42.759 42.759 0 5.324 0.973 10.42 2.75 15.121l-0.098-0.294 5.973 15.573c41.813 114.347 85.12 232.107 204.8 232.107s172.8-132.907 222.507-250.027c34.987-82.773 74.88-176.64 118.827-176.64 77.227 0 133.333 161.493 151.68 213.333 5.964 16.848 21.758 28.699 40.32 28.699 23.567 0 42.673-19.105 42.673-42.673 0-5.005-0.862-9.809-2.445-14.272l0.092 0.298c-43.947-125.44-110.080-270.72-232.32-270.72z" />
<glyph unicode="&#xe93d;" glyph-name="chart-x-axis" d="M835.627 192l-97.707 98.133c-7.425 7.668-12.002 18.133-12.002 29.667 0 14.028 6.77 26.476 17.222 34.252l0.114 0.081c6.877 4.635 15.35 7.398 24.467 7.398 12.618 0 24-5.292 32.048-13.778l0.019-0.020 126.293-126.72c7.731-7.723 12.514-18.396 12.514-30.187s-4.782-22.464-12.513-30.186v0l-126.293-126.507c-8.066-8.506-19.448-13.798-32.066-13.798-9.118 0-17.59 2.763-24.625 7.498l0.158-0.1c-10.565 7.858-17.335 20.305-17.335 34.333 0 11.534 4.577 21.999 12.013 29.678l-0.011-0.011zM128 234.667h725.333c23.564 0 42.667-19.103 42.667-42.667s-19.103-42.667-42.667-42.667h-725.333c-23.564 0-42.667 19.103-42.667 42.667s19.103 42.667 42.667 42.667zM85.333 362.667v42.667c0 23.564 19.103 42.667 42.667 42.667s42.667-19.103 42.667-42.667v-42.667c0-23.564-19.103-42.667-42.667-42.667s-42.667 19.103-42.667 42.667zM85.333 576v42.667c0 23.564 19.103 42.667 42.667 42.667s42.667-19.103 42.667-42.667v-42.667c0-23.564-19.103-42.667-42.667-42.667s-42.667 19.103-42.667 42.667zM85.333 789.333v42.667c0 23.564 19.103 42.667 42.667 42.667s42.667-19.103 42.667-42.667v-42.667c0-23.564-19.103-42.667-42.667-42.667s-42.667 19.103-42.667 42.667z" />
<glyph unicode="&#xe93e;" glyph-name="chart-y-axis" d="M256 771.627l98.133-97.707c7.668-7.425 18.133-12.002 29.667-12.002 14.028 0 26.476 6.77 34.252 17.222l0.081 0.114c4.635 6.877 7.398 15.35 7.398 24.467 0 12.618-5.292 24-13.778 32.048l-0.020 0.019-125.653 126.293c-7.723 7.731-18.396 12.514-30.187 12.514s-22.464-4.782-30.186-12.513v0l-126.507-126.293c-8.506-8.066-13.798-19.448-13.798-32.066 0-9.118 2.763-17.59 7.498-24.625l-0.1 0.158c7.83-10.919 20.483-17.949 34.778-17.949 11.841 0 22.556 4.824 30.286 12.613l0.003 0.003zM213.333 64v725.333c0 23.564 19.103 42.667 42.667 42.667s42.667-19.103 42.667-42.667v-725.333c0-23.564-19.103-42.667-42.667-42.667s-42.667 19.103-42.667 42.667zM426.667 106.667h42.667c23.564 0 42.667-19.103 42.667-42.667s-19.103-42.667-42.667-42.667h-42.667c-23.564 0-42.667 19.103-42.667 42.667s19.103 42.667 42.667 42.667zM640 106.667h42.667c23.564 0 42.667-19.103 42.667-42.667s-19.103-42.667-42.667-42.667h-42.667c-23.564 0-42.667 19.103-42.667 42.667s19.103 42.667 42.667 42.667zM853.333 106.667h42.667c23.564 0 42.667-19.103 42.667-42.667s-19.103-42.667-42.667-42.667h-42.667c-23.564 0-42.667 19.103-42.667 42.667s19.103 42.667 42.667 42.667z" />
<glyph unicode="&#xe93f;" glyph-name="check-all" d="M438.827 140.587l-168.96 168.96c-8.506 8.066-13.798 19.448-13.798 32.066 0 9.118 2.763 17.59 7.498 24.625l-0.1-0.158c7.83 10.919 20.483 17.949 34.778 17.949 11.841 0 22.556-4.824 30.286-12.613l0.003-0.003 140.8-140.373 439.040 439.040c7.549 6.884 17.635 11.1 28.706 11.1 23.564 0 42.667-19.103 42.667-42.667 0-11.017-4.176-21.060-11.031-28.63l0.032 0.036-469.333-469.333c-7.733-7.795-18.45-12.621-30.293-12.621s-22.56 4.826-30.291 12.618l-0.003 0.003zM256 128c-11.761 0.051-22.391 4.853-30.078 12.585l-170.669 170.669c-6.377 7.412-10.259 17.129-10.259 27.753 0 23.564 19.103 42.667 42.667 42.667 10.624 0 20.341-3.883 27.809-10.307l-0.056 0.047 170.667-170.667c7.668-7.712 12.408-18.343 12.408-30.080 0-23.501-19.001-42.564-42.478-42.666h-0.010zM469.333 341.333c-23.487 0.102-42.488 19.165-42.488 42.666 0 11.738 4.74 22.368 12.41 30.082l255.998 255.998c7.412 6.377 17.129 10.259 27.753 10.259 23.564 0 42.667-19.103 42.667-42.667 0-10.624-3.883-20.341-10.307-27.809l0.047 0.056-256-256c-7.689-7.733-18.319-12.535-30.070-12.587h-0.010z" />
<glyph unicode="&#xe940;" glyph-name="check-circle" d="M512 832c212.077 0 384-171.923 384-384s-171.923-384-384-384c-212.077 0-384 171.923-384 384v0c0 212.077 171.923 384 384 384v0zM512 917.333c-259.206 0-469.333-210.128-469.333-469.333s210.128-469.333 469.333-469.333c259.206 0 469.333 210.128 469.333 469.333v0c0 259.206-210.128 469.333-469.333 469.333v0zM396.16 268.587l-126.293 126.293c-8.506 8.066-13.798 19.448-13.798 32.066 0 9.118 2.763 17.59 7.498 24.625l-0.1-0.158c7.83 10.919 20.483 17.949 34.778 17.949 11.841 0 22.556-4.824 30.286-12.613l0.003-0.003 98.133-97.707 268.373 268.373c7.549 6.884 17.635 11.1 28.706 11.1 23.564 0 42.667-19.103 42.667-42.667 0-11.017-4.176-21.060-11.031-28.63l0.032 0.036-298.667-298.667c-7.733-7.795-18.45-12.621-30.293-12.621s-22.56 4.826-30.291 12.618l-0.003 0.003z" />
<glyph unicode="&#xe941;" glyph-name="check-square" d="M396.16 268.587l-126.293 126.293c-8.506 8.066-13.798 19.448-13.798 32.066 0 9.118 2.763 17.59 7.498 24.625l-0.1-0.158c7.83 10.919 20.483 17.949 34.778 17.949 11.841 0 22.556-4.824 30.286-12.613l0.003-0.003 98.133-97.707 268.373 268.373c7.549 6.884 17.635 11.1 28.706 11.1 23.564 0 42.667-19.103 42.667-42.667 0-11.017-4.176-21.060-11.031-28.63l0.032 0.036-298.667-298.667c-7.733-7.795-18.45-12.621-30.293-12.621s-22.56 4.826-30.291 12.618l-0.003 0.003zM853.333 789.333v-682.667h-682.667v682.667h682.667zM896 874.667h-768c-23.564 0-42.667-19.103-42.667-42.667v0-768c0-23.564 19.103-42.667 42.667-42.667v0h768c23.564 0 42.667 19.103 42.667 42.667v0 768c0 23.564-19.103 42.667-42.667 42.667v0z" />
<glyph unicode="&#xe942;" glyph-name="check" d="M300.16 151.253l-168.96 168.747c-8.506 8.066-13.798 19.448-13.798 32.066 0 9.118 2.763 17.59 7.498 24.625l-0.1-0.158c7.83 10.919 20.483 17.949 34.778 17.949 11.841 0 22.556-4.824 30.286-12.613l0.003-0.003 140.587-140.373 503.253 503.253c7.549 6.884 17.635 11.1 28.706 11.1 23.564 0 42.667-19.103 42.667-42.667 0-11.017-4.176-21.060-11.031-28.63l0.032 0.036-533.333-533.333c-7.733-7.795-18.45-12.621-30.293-12.621s-22.56 4.826-30.291 12.618l-0.003 0.003z" />
<glyph unicode="&#xe943;" glyph-name="circle" d="M512 832c212.077 0 384-171.923 384-384s-171.923-384-384-384c-212.077 0-384 171.923-384 384v0c0 212.077 171.923 384 384 384v0zM512 917.333c-259.206 0-469.333-210.128-469.333-469.333s210.128-469.333 469.333-469.333c259.206 0 469.333 210.128 469.333 469.333v0c0 259.206-210.128 469.333-469.333 469.333v0z" />
<glyph unicode="&#xe944;" glyph-name="close-circle" d="M512 832c212.077 0 384-171.923 384-384s-171.923-384-384-384c-212.077 0-384 171.923-384 384v0c0 212.077 171.923 384 384 384v0zM512 917.333c-259.206 0-469.333-210.128-469.333-469.333s210.128-469.333 469.333-469.333c259.206 0 469.333 210.128 469.333 469.333v0c0 259.206-210.128 469.333-469.333 469.333v0zM572.373 448l117.76 117.547c8.506 8.066 13.798 19.448 13.798 32.066 0 9.118-2.763 17.59-7.498 24.625l0.1-0.158c-7.858 10.565-20.305 17.335-34.333 17.335-11.534 0-21.999-4.577-29.678-12.013l0.011 0.011-120.533-119.040-119.467 119.040c-7.668 7.425-18.133 12.002-29.667 12.002-14.028 0-26.476-6.77-34.252-17.222l-0.081-0.114c-4.635-6.877-7.398-15.35-7.398-24.467 0-12.618 5.292-24 13.778-32.048l0.020-0.019 116.693-117.547-117.76-117.547c-8.506-8.066-13.798-19.448-13.798-32.066 0-9.118 2.763-17.59 7.498-24.625l-0.1 0.158c7.858-10.565 20.305-17.335 34.333-17.335 11.534 0 21.999 4.577 29.678 12.013l-0.011-0.011 120.533 119.040 119.467-119.040c7.668-7.425 18.133-12.002 29.667-12.002 14.028 0 26.476 6.77 34.252 17.222l0.081 0.114c4.635 6.877 7.398 15.35 7.398 24.467 0 12.618-5.292 24-13.778 32.048l-0.020 0.019z" />
<glyph unicode="&#xe945;" glyph-name="close-square" d="M572.373 448l117.76 117.547c8.506 8.066 13.798 19.448 13.798 32.066 0 9.118-2.763 17.59-7.498 24.625l0.1-0.158c-7.858 10.565-20.305 17.335-34.333 17.335-11.534 0-21.999-4.577-29.678-12.013l0.011 0.011-120.533-119.040-119.467 119.040c-7.668 7.425-18.133 12.002-29.667 12.002-14.028 0-26.476-6.77-34.252-17.222l-0.081-0.114c-4.635-6.877-7.398-15.35-7.398-24.467 0-12.618 5.292-24 13.778-32.048l0.020-0.019 116.693-117.547-117.76-117.547c-8.506-8.066-13.798-19.448-13.798-32.066 0-9.118 2.763-17.59 7.498-24.625l-0.1 0.158c7.858-10.565 20.305-17.335 34.333-17.335 11.534 0 21.999 4.577 29.678 12.013l-0.011-0.011 120.533 119.040 119.467-119.040c7.668-7.425 18.133-12.002 29.667-12.002 14.028 0 26.476 6.77 34.252 17.222l0.081 0.114c4.635 6.877 7.398 15.35 7.398 24.467 0 12.618-5.292 24-13.778 32.048l-0.020 0.019zM853.333 789.333v-682.667h-682.667v682.667h682.667zM896 874.667h-768c-23.564 0-42.667-19.103-42.667-42.667v0-768c0-23.564 19.103-42.667 42.667-42.667v0h768c23.564 0 42.667 19.103 42.667 42.667v0 768c0 23.564-19.103 42.667-42.667 42.667v0z" />
<glyph unicode="&#xe946;" glyph-name="close" d="M572.373 448l224.427 224.213c8.506 8.066 13.798 19.448 13.798 32.066 0 9.118-2.763 17.59-7.498 24.625l0.1-0.158c-7.858 10.565-20.305 17.335-34.333 17.335-11.534 0-21.999-4.577-29.678-12.013l0.011 0.011-227.2-225.707-226.133 225.707c-7.733 7.792-18.447 12.616-30.289 12.616-14.295 0-26.948-7.030-34.691-17.822l-0.087-0.128c-4.635-6.877-7.398-15.35-7.398-24.467 0-12.618 5.292-24 13.778-32.048l0.020-0.019 224.427-224.213-224.427-224.213c-8.506-8.066-13.798-19.448-13.798-32.066 0-9.118 2.763-17.59 7.498-24.625l-0.1 0.158c7.83-10.919 20.483-17.949 34.778-17.949 11.841 0 22.556 4.824 30.286 12.613l0.003 0.003 226.133 225.707 226.133-225.707c7.668-7.425 18.133-12.002 29.667-12.002 14.028 0 26.476 6.77 34.252 17.222l0.081 0.114c4.635 6.877 7.398 15.35 7.398 24.467 0 12.618-5.292 24-13.778 32.048l-0.020 0.019z" />
<glyph unicode="&#xe947;" glyph-name="clothes" d="M964.267 683.947l-173.44 190.72h-557.653l-173.44-190.507c-10.502-11.366-16.942-26.619-16.942-43.377 0-17.837 7.297-33.969 19.068-45.576l0.007-0.007 161.067-158.933-2.773-414.933h583.68l-2.773 414.933 161.067 158.933c11.718 11.604 18.973 27.695 18.973 45.481 0 16.704-6.4 31.914-16.881 43.311l0.042-0.046zM784.213 539.733l-65.707 62.72v-495.787h-413.013v495.787l-65.707-62.72-103.253 101.76 133.973 147.84h159.147c10.176-36.567 43.18-62.955 82.347-62.955s72.171 26.387 82.204 62.354l0.143 0.6h159.147l133.973-147.84z" />
<glyph unicode="&#xe948;" glyph-name="cloud-check" d="M864.427 495.36c-5.119 56.097-32.279 105.005-72.631 138.614l-0.329 0.266c-37.017 30.864-85.086 49.601-137.53 49.601-7.915 0-15.73-0.427-23.423-1.258l0.954 0.084c-45.31 74.549-124.726 124.446-216.037 127.985l-0.497 0.015c-74.947-0.012-142.208-32.913-188.135-85.057l-0.238-0.276c-42.708-47.244-68.858-110.164-68.907-179.19v-0.010c-58.625-39.94-99.654-101.98-111.164-173.877l-0.196-1.483c-2.423-13.005-3.809-27.968-3.809-43.254 0-67.387 26.934-128.483 70.625-173.109l-0.042 0.043c46.064-42.934 108.073-69.289 176.237-69.289 3.293 0 6.571 0.061 9.834 0.183l-0.471-0.014c23.564 0 42.667 19.103 42.667 42.667v0 0c0 23.564-19.103 42.667-42.667 42.667v0 0c-2.997-0.185-6.5-0.291-10.028-0.291-44.511 0-85.101 16.788-115.784 44.377l0.158-0.14c-28.143 29.34-45.471 69.244-45.471 113.194 0 10.667 1.021 21.096 2.97 31.194l-0.165-1.028c4.718 28.694 15.615 54.21 31.3 76.057l-0.367-0.537c15.44 21.725 35.405 39.234 58.61 51.405l0.91 0.435c14.047 7.177 23.497 21.544 23.497 38.118 0 1.602-0.088 3.184-0.26 4.741l0.017-0.192c-0.62 5.657-0.973 12.218-0.973 18.862 0 47.11 17.776 90.067 46.987 122.531l-0.147-0.166c30.738 34.491 75.287 56.107 124.885 56.107 0.045 0 0.090 0 0.136 0h-0.007c36.193-0.74 69.254-13.565 95.456-34.587l-0.31 0.24c25.288-19.068 45.668-43.269 59.837-71.157l0.536-1.163c7.005-14.463 21.551-24.271 38.393-24.32h0.007c3.565 0.005 7.019 0.471 10.308 1.343l-0.281-0.063c10.054 2.727 21.599 4.293 33.508 4.293 33.36 0 63.849-12.291 87.186-32.591l-0.161 0.137c24.712-22.941 40.126-55.604 40.126-91.867 0-0.778-0.007-1.554-0.021-2.329l0.002 0.116c0-2.56 0-5.333 0-7.893-0.033-0.581-0.052-1.261-0.052-1.945 0-15.729 10.073-29.106 24.12-34.031l0.253-0.077 4.48-1.707c51.602-18.966 87.747-67.687 87.747-124.849 0-1.483-0.024-2.96-0.073-4.432l0.006 0.214c0-13.013-8.32-128-160.853-128h-116.48c-23.564 0-42.667-19.103-42.667-42.667v0 0c0-23.564 19.103-42.667 42.667-42.667v0h116.48c164.693 0 242.987 109.44 246.187 210.773 0.076 2.146 0.12 4.667 0.12 7.198 0 83.163-46.976 155.355-115.84 191.488l-1.187 0.567zM417.493 225.92l-104.96 104.96c-8.506 8.066-13.798 19.448-13.798 32.066 0 9.118 2.763 17.59 7.498 24.625l-0.1-0.158c7.858 10.565 20.305 17.335 34.333 17.335 11.534 0 21.999-4.577 29.678-12.013l-0.011 0.011 77.867-76.373 183.253 183.040c7.549 6.884 17.635 11.1 28.706 11.1 23.564 0 42.667-19.103 42.667-42.667 0-11.017-4.176-21.060-11.031-28.63l0.032 0.036-213.333-213.333c-7.743-7.859-18.503-12.729-30.4-12.729s-22.657 4.869-30.395 12.723l-0.005 0.005z" />
<glyph unicode="&#xe949;" glyph-name="cloud-data-network" d="M874.667 128h-256c-1.309 0.106-2.834 0.166-4.373 0.166s-3.064-0.060-4.573-0.178l0.2 0.013c-11.057 24.848-30.459 44.319-54.572 55.192l-0.681 0.275v93.867h160.213c149.333 0 221.013 96.427 223.787 186.027 0.051 1.649 0.080 3.588 0.080 5.534 0 74.722-43.019 139.397-105.642 170.607l-1.105 0.498c-4.706 49.844-29.36 93.15-65.786 122.397l-0.347 0.27c-33.655 26.863-76.817 43.104-123.772 43.104-0.737 0-1.472-0.004-2.207-0.012l0.112 0.001c-6.4 0-12.8 0-19.2 0-42.49 65.694-114.479 109.158-196.768 111.565l-0.352 0.008c-0.23 0.001-0.502 0.001-0.774 0.001-67.151 0-127.598-28.701-169.744-74.504l-0.149-0.164c-38.737-41.198-62.685-96.692-63.146-157.775l-0.001-0.092c-52.978-34.829-90.289-89.782-101.143-153.74l-0.19-1.353c-2.237-11.639-3.517-25.026-3.517-38.712 0-60.014 24.609-114.279 64.285-153.257l0.031-0.031c40.107-39.040 123.733-60.373 168.533-60.373h151.467v-93.867c-24.951-10.999-44.468-30.515-55.198-54.785l-0.269-0.682h-259.2c-23.564 0-42.667-19.103-42.667-42.667s19.103-42.667 42.667-42.667v0h259.2c16.629-38.589 54.337-65.113 98.24-65.113s81.611 26.524 97.974 64.422l0.266 0.692c1.249-0.151 2.694-0.237 4.16-0.237s2.912 0.086 4.332 0.253l-0.172-0.017h256c23.564 0 42.667 19.103 42.667 42.667s-19.103 42.667-42.667 42.667v0zM209.067 399.36c-23.878 23.275-38.69 55.755-38.69 91.693 0 8.77 0.882 17.335 2.562 25.609l-0.139-0.822c6.963 40.994 30.55 75.434 63.441 96.728l0.559 0.339c23.274 15.489 38.402 41.612 38.402 71.269 0 0.22-0.001 0.439-0.002 0.658v-0.034c1.202 81.552 67.594 147.2 149.318 147.2 0.005 0 0.011 0 0.016 0h-0.001c52.891-2.638 98.606-31.103 125.060-72.955l0.38-0.645c15.438-23.494 41.662-38.798 71.462-38.827h7.684c1.753 0.101 3.803 0.159 5.867 0.159s4.114-0.058 6.149-0.172l-0.282 0.013c0.298 0.003 0.651 0.004 1.004 0.004 27.075 0 51.952-9.41 71.539-25.138l-0.223 0.173c19.289-15.394 32.293-37.96 34.953-63.598l0.034-0.402c2.836-30.042 20.869-55.309 46.237-68.256l0.483-0.224c34.909-17.299 58.487-52.686 58.487-93.579 0-0.926-0.012-1.85-0.036-2.771l0.003 0.136c-1.493-47.573-38.613-103.253-138.453-103.253h-397.013c-40.884 2.057-78.265 15.482-109.495 37.149l0.695-0.456zM512 64c-11.782 0-21.333 9.551-21.333 21.333s9.551 21.333 21.333 21.333c11.782 0 21.333-9.551 21.333-21.333v0c0.028-0.396 0.044-0.858 0.044-1.324 0-11.075-8.978-20.053-20.053-20.053-0.466 0-0.928 0.016-1.386 0.047l0.062-0.003z" />
<glyph unicode="&#xe94a;" glyph-name="cloud-download" d="M333.867 266.88l147.84-147.627c7.723-7.731 18.396-12.514 30.187-12.514s22.464 4.782 30.186 12.513v0l148.053 147.627c8.506 8.066 13.798 19.448 13.798 32.066 0 9.118-2.763 17.59-7.498 24.625l0.1-0.158c-7.858 10.565-20.305 17.335-34.333 17.335-11.534 0-21.999-4.577-29.678-12.013l0.011 0.011-77.867-76.373v238.293c0 23.564-19.103 42.667-42.667 42.667s-42.667-19.103-42.667-42.667v0-238.507l-76.8 76.587c-7.668 7.425-18.133 12.002-29.667 12.002-14.028 0-26.476-6.77-34.252-17.222l-0.081-0.114c-4.894-7.009-7.82-15.708-7.82-25.090 0-12.303 5.031-23.431 13.148-31.439l0.005-0.005zM864.427 495.36c-5.119 56.097-32.279 105.005-72.631 138.614l-0.329 0.266c-37.017 30.864-85.086 49.601-137.53 49.601-7.915 0-15.73-0.427-23.423-1.258l0.954 0.084c-45.31 74.549-124.726 124.446-216.037 127.985l-0.497 0.015c-74.947-0.012-142.208-32.913-188.135-85.057l-0.238-0.276c-42.708-47.244-68.858-110.164-68.907-179.19v-0.010c-58.625-39.94-99.654-101.98-111.164-173.877l-0.196-1.483c-2.423-13.005-3.809-27.968-3.809-43.254 0-67.387 26.934-128.483 70.625-173.109l-0.042 0.043c46.064-42.934 108.073-69.289 176.237-69.289 3.293 0 6.571 0.061 9.834 0.183l-0.471-0.014c23.564 0 42.667 19.103 42.667 42.667v0 0c0 23.564-19.103 42.667-42.667 42.667v0 0c-2.997-0.185-6.5-0.291-10.028-0.291-44.511 0-85.101 16.788-115.784 44.377l0.158-0.14c-28.143 29.34-45.471 69.244-45.471 113.194 0 10.667 1.021 21.096 2.97 31.194l-0.165-1.028c4.718 28.694 15.615 54.21 31.3 76.057l-0.367-0.537c15.44 21.725 35.405 39.234 58.61 51.405l0.91 0.435c14.047 7.177 23.497 21.544 23.497 38.118 0 1.602-0.088 3.184-0.26 4.741l0.017-0.192c-0.62 5.657-0.973 12.218-0.973 18.862 0 47.11 17.776 90.067 46.987 122.531l-0.147-0.166c30.738 34.491 75.287 56.107 124.885 56.107 0.045 0 0.090 0 0.136 0h-0.007c36.193-0.74 69.254-13.565 95.456-34.587l-0.31 0.24c25.288-19.068 45.668-43.269 59.837-71.157l0.536-1.163c7.005-14.463 21.551-24.271 38.393-24.32h0.007c3.565 0.005 7.019 0.471 10.308 1.343l-0.281-0.063c10.054 2.727 21.599 4.293 33.508 4.293 33.36 0 63.849-12.291 87.186-32.591l-0.161 0.137c24.712-22.941 40.126-55.604 40.126-91.867 0-0.778-0.007-1.554-0.021-2.329l0.002 0.116c0-2.56 0-5.333 0-7.893-0.033-0.581-0.052-1.261-0.052-1.945 0-15.729 10.073-29.106 24.12-34.031l0.253-0.077 4.48-1.707c51.602-18.966 87.747-67.687 87.747-124.849 0-1.483-0.024-2.96-0.073-4.432l0.006 0.214c0-13.013-8.32-128-160.853-128h-9.813c-23.564 0-42.667-19.103-42.667-42.667v0 0c0-23.564 19.103-42.667 42.667-42.667v0h9.813c164.693 0 242.987 109.44 246.187 210.773 0.076 2.146 0.12 4.667 0.12 7.198 0 83.163-46.976 155.355-115.84 191.488l-1.187 0.567z" />
<glyph unicode="&#xe94b;" glyph-name="cloud-error" d="M981.333 296.107c-3.2-101.333-81.493-210.773-246.187-210.773h-9.813c-0.010 0-0.022 0-0.034 0-11.827 0-22.53 4.812-30.258 12.585l-0.002 0.002c-7.668 7.712-12.407 18.343-12.407 30.080 0 23.564 19.103 42.667 42.667 42.667 0.012 0 0.024 0 0.036 0h9.812c152.533 0 160.853 114.987 160.853 128 0.023 0.919 0.036 2 0.036 3.085 0 57.231-36.231 105.999-87.008 124.619l-0.921 0.295-4.48 1.707c-14.3 5.003-24.372 18.379-24.372 34.109 0 0.684 0.019 1.364 0.057 2.038l-0.004-0.094c0 2.56 0 5.333 0 7.893 0.012 0.658 0.020 1.435 0.020 2.213 0 36.263-15.414 68.926-40.047 91.795l-0.079 0.073c-23.204 20.262-53.766 32.618-87.214 32.618-11.841 0-23.321-1.549-34.247-4.454l0.928 0.21c-3.008-0.809-6.462-1.275-10.024-1.28h-0.003c-16.939 0.3-31.442 10.425-38.077 24.907l-0.109 0.266c-14.605 29.389-35.004 53.883-59.872 72.807l-0.502 0.366c-25.976 20.481-59.052 33.015-95.039 33.492l-0.108 0.001c-0.038 0-0.084 0-0.129 0-49.597 0-94.146-21.616-124.739-55.941l-0.145-0.166c-29.064-32.298-46.84-75.255-46.84-122.365 0-6.644 0.354-13.204 1.043-19.665l-0.070 0.803c0.155-1.365 0.243-2.947 0.243-4.549 0-16.574-9.45-30.94-23.256-38.006l-0.241-0.112c-24.115-12.606-44.081-30.115-59.176-51.331l-0.344-0.509c-15.318-21.31-26.216-46.826-30.791-74.477l-0.143-1.043c-1.784-9.070-2.805-19.498-2.805-30.166 0-43.951 17.328-83.854 45.526-113.252l-0.054 0.057c30.553-27.447 71.167-44.232 115.701-44.232 3.501 0 6.978 0.104 10.427 0.308l-0.475-0.023h42.667c23.564 0 42.667-19.103 42.667-42.667v0c0-23.564-19.103-42.667-42.667-42.667v0h-42.667c-2.792-0.108-6.070-0.169-9.363-0.169-68.164 0-130.173 26.355-176.391 69.432l0.154-0.142c-43.725 44.597-70.712 105.746-70.712 173.198 0 15.544 1.433 30.753 4.174 45.503l-0.236-1.528c11.706 73.38 52.735 135.42 110.462 174.782l0.898 0.578c0.275 68.73 26.384 131.309 69.113 178.579l-0.207-0.232c46.166 52.42 113.426 85.322 188.371 85.333h0.002c91.807-3.554 171.223-53.451 215.873-126.832l0.66-1.168c6.602 0.718 14.26 1.127 22.013 1.127 52.653 0 100.896-18.886 138.322-50.254l-0.335 0.274c40.681-33.875 67.841-82.783 72.901-138.084l0.059-0.796c70.043-36.702 117.013-108.89 117.013-192.048 0-2.384-0.039-4.758-0.115-7.124l0.009 0.345zM572.373 362.667l76.373 76.587c6.377 7.412 10.259 17.129 10.259 27.753 0 23.564-19.103 42.667-42.667 42.667-10.624 0-20.341-3.883-27.809-10.307l0.056 0.047-76.587-76.373-76.587 76.373c-7.412 6.377-17.129 10.259-27.753 10.259-23.564 0-42.667-19.103-42.667-42.667 0-10.624 3.883-20.341 10.307-27.809l-0.047 0.056 76.373-76.587-76.373-76.587c-9.153-7.872-14.914-19.467-14.914-32.407 0-23.564 19.103-42.667 42.667-42.667 12.94 0 24.535 5.761 32.36 14.858l0.047 0.056 76.587 76.373 76.587-76.373c7.872-9.153 19.467-14.914 32.407-14.914 23.564 0 42.667 19.103 42.667 42.667 0 12.94-5.761 24.535-14.858 32.36l-0.056 0.047z" />
<glyph unicode="&#xe94c;" glyph-name="cloud-off" d="M864.427 495.36c-5.119 56.097-32.279 105.005-72.631 138.614l-0.329 0.266c-37.017 30.864-85.086 49.601-137.53 49.601-7.915 0-15.73-0.427-23.423-1.258l0.954 0.084c-45.31 74.549-124.726 124.446-216.037 127.985l-0.497 0.015c-0.128 0-0.28 0-0.432 0-41.378 0-80.436-9.933-114.92-27.544l1.431 0.664 65.707-65.707c14.418 4.586 31.003 7.236 48.205 7.253h0.009c36.193-0.74 69.254-13.565 95.456-34.587l-0.31 0.24c25.288-19.068 45.668-43.269 59.837-71.157l0.536-1.163c7.005-14.463 21.551-24.271 38.393-24.32h0.007c3.565 0.005 7.019 0.471 10.308 1.343l-0.281-0.063c10.054 2.727 21.599 4.293 33.508 4.293 33.36 0 63.849-12.291 87.186-32.591l-0.161 0.137c24.712-22.941 40.126-55.604 40.126-91.867 0-0.778-0.007-1.554-0.021-2.329l0.002 0.116c0-2.56 0-5.333 0-7.893-0.033-0.581-0.052-1.261-0.052-1.945 0-15.729 10.073-29.106 24.12-34.031l0.253-0.077 4.48-1.707c51.602-18.966 87.747-67.687 87.747-124.849 0-1.483-0.024-2.96-0.073-4.432l0.006 0.214c-1.673-30.256-13.079-57.564-31.107-79.147l0.174 0.214 60.373-60.373c33.112 36.057 54.013 83.793 55.883 136.376l0.010 0.371c0.076 2.146 0.12 4.667 0.12 7.198 0 83.163-46.976 155.355-115.84 191.488l-1.187 0.567zM158.72 798.080c-7.78 7.78-18.528 12.592-30.4 12.592-23.744 0-42.992-19.248-42.992-42.992 0-11.872 4.812-22.62 12.592-30.4v0l82.56-82.56c-14.144-31.386-22.516-68.009-22.826-106.553l-0.001-0.114c-58.625-39.94-99.654-101.98-111.164-173.877l-0.196-1.483c-2.61-13.492-4.103-29.009-4.103-44.875 0-67.534 27.052-128.75 70.912-173.402l-0.036 0.037c46.064-42.934 108.073-69.289 176.237-69.289 3.293 0 6.571 0.061 9.834 0.183l-0.471-0.014h450.773l73.6-73.387c7.733-7.795 18.45-12.621 30.293-12.621s22.56 4.826 30.291 12.618l0.003 0.003c7.859 7.743 12.729 18.503 12.729 30.4s-4.869 22.657-12.723 30.395l-0.005 0.005zM298.667 170.667c-2.997-0.185-6.5-0.291-10.028-0.291-44.511 0-85.101 16.788-115.784 44.377l0.158-0.14c-28.143 29.34-45.471 69.244-45.471 113.194 0 10.667 1.021 21.096 2.97 31.194l-0.165-1.028c4.718 28.694 15.615 54.21 31.3 76.057l-0.367-0.537c15.44 21.725 35.405 39.234 58.61 51.405l0.91 0.435c14.047 7.177 23.497 21.544 23.497 38.118 0 1.602-0.088 3.184-0.26 4.741l0.017-0.192c-0.684 5.796-1.074 12.511-1.074 19.316 0 14.264 1.713 28.128 4.946 41.397l-0.246-1.193 416.853-416.853z" />
<glyph unicode="&#xe94d;" glyph-name="cloud-settings" d="M725.333 338.987v47.36l-77.867 18.987c-2.768 8.284-5.871 15.334-9.526 22.040l0.352-0.706 41.387 68.907-33.493 33.493-68.907-41.387c-5.999 3.303-13.050 6.405-20.383 8.893l-0.95 0.28-20.267 79.147h-47.36l-18.987-77.867c-8.284-2.768-15.334-5.871-22.040-9.526l0.706 0.352-68.907 41.387-33.493-33.493 41.387-68.907c-3.303-5.999-6.405-13.050-8.893-20.383l-0.28-0.95-79.147-20.267v-47.36l77.867-19.413c2.768-8.284 5.871-15.334 9.526-22.040l-0.352 0.706-41.387-68.907 33.493-33.493 68.907 41.387c5.999-3.303 13.050-6.405 20.383-8.893l0.95-0.28 20.267-78.72h47.36l18.987 77.867c8.284 2.768 15.334 5.871 22.040 9.526l-0.706-0.352 68.907-41.387 33.493 33.493-41.387 68.907c3.303 5.999 6.405 13.050 8.893 20.383l0.28 0.95zM512 298.667c-35.346 0-64 28.654-64 64s28.654 64 64 64c35.346 0 64-28.654 64-64v0c0-35.346-28.654-64-64-64v0zM864.427 495.36c-5.119 56.097-32.279 105.005-72.631 138.614l-0.329 0.266c-37.017 30.864-85.086 49.601-137.53 49.601-7.915 0-15.73-0.427-23.423-1.258l0.954 0.084c-45.31 74.549-124.726 124.446-216.037 127.985l-0.497 0.015c-74.947-0.012-142.208-32.913-188.135-85.057l-0.238-0.276c-42.708-47.244-68.858-110.164-68.907-179.19v-0.010c-58.625-39.94-99.654-101.98-111.164-173.877l-0.196-1.483c-2.423-13.005-3.809-27.968-3.809-43.254 0-67.387 26.934-128.483 70.625-173.109l-0.042 0.043c46.064-42.934 108.073-69.289 176.237-69.289 3.293 0 6.571 0.061 9.834 0.183l-0.471-0.014c23.564 0 42.667 19.103 42.667 42.667v0 0c0 23.564-19.103 42.667-42.667 42.667v0 0c-2.997-0.185-6.5-0.291-10.028-0.291-44.511 0-85.101 16.788-115.784 44.377l0.158-0.14c-28.143 29.34-45.471 69.244-45.471 113.194 0 10.667 1.021 21.096 2.97 31.194l-0.165-1.028c4.718 28.694 15.615 54.21 31.3 76.057l-0.367-0.537c15.44 21.725 35.405 39.234 58.61 51.405l0.91 0.435c14.047 7.177 23.497 21.544 23.497 38.118 0 1.602-0.088 3.184-0.26 4.741l0.017-0.192c-0.62 5.657-0.973 12.218-0.973 18.862 0 47.11 17.776 90.067 46.987 122.531l-0.147-0.166c30.738 34.491 75.287 56.107 124.885 56.107 0.045 0 0.090 0 0.136 0h-0.007c36.193-0.74 69.254-13.565 95.456-34.587l-0.31 0.24c25.288-19.068 45.668-43.269 59.837-71.157l0.536-1.163c7.005-14.463 21.551-24.271 38.393-24.32h0.007c3.565 0.005 7.019 0.471 10.308 1.343l-0.281-0.063c10.054 2.727 21.599 4.293 33.508 4.293 33.36 0 63.849-12.291 87.186-32.591l-0.161 0.137c24.712-22.941 40.126-55.604 40.126-91.867 0-0.778-0.007-1.554-0.021-2.329l0.002 0.116c0-2.56 0-5.333 0-7.893-0.033-0.581-0.052-1.261-0.052-1.945 0-15.729 10.073-29.106 24.12-34.031l0.253-0.077 4.48-1.707c51.602-18.966 87.747-67.687 87.747-124.849 0-1.483-0.024-2.96-0.073-4.432l0.006 0.214c0-13.013-8.32-128-160.853-128h-9.813c-23.564 0-42.667-19.103-42.667-42.667v0 0c0-23.564 19.103-42.667 42.667-42.667v0h9.813c164.693 0 242.987 109.44 246.187 210.773 0.076 2.146 0.12 4.667 0.12 7.198 0 83.163-46.976 155.355-115.84 191.488l-1.187 0.567z" />
<glyph unicode="&#xe94e;" glyph-name="cloud-upload" d="M327.467 295.253c7.858-10.565 20.305-17.335 34.333-17.335 11.534 0 21.999 4.577 29.678 12.013l-0.011-0.011 77.867 76.587v-238.507c0-23.564 19.103-42.667 42.667-42.667s42.667 19.103 42.667 42.667v0 238.293l76.8-76.373c7.668-7.425 18.133-12.002 29.667-12.002 14.028 0 26.476 6.77 34.252 17.222l0.081 0.114c4.635 6.877 7.398 15.35 7.398 24.467 0 12.618-5.292 24-13.778 32.048l-0.020 0.019-148.053 147.627c-7.723 7.731-18.396 12.514-30.187 12.514s-22.464-4.782-30.186-12.513v0l-147.84-147.627c-8.122-8.012-13.153-19.14-13.153-31.443 0-9.382 2.926-18.081 7.915-25.234l-0.095 0.144zM864.427 495.36c-5.119 56.097-32.279 105.005-72.631 138.614l-0.329 0.266c-37.017 30.864-85.086 49.601-137.53 49.601-7.915 0-15.73-0.427-23.423-1.258l0.954 0.084c-45.31 74.549-124.726 124.446-216.037 127.985l-0.497 0.015c-74.947-0.012-142.208-32.913-188.135-85.057l-0.238-0.276c-42.708-47.244-68.858-110.164-68.907-179.19v-0.010c-58.625-39.94-99.654-101.98-111.164-173.877l-0.196-1.483c-2.423-13.005-3.809-27.968-3.809-43.254 0-67.387 26.934-128.483 70.625-173.109l-0.042 0.043c46.064-42.934 108.073-69.289 176.237-69.289 3.293 0 6.571 0.061 9.834 0.183l-0.471-0.014c23.564 0 42.667 19.103 42.667 42.667v0 0c0 23.564-19.103 42.667-42.667 42.667v0 0c-2.997-0.185-6.5-0.291-10.028-0.291-44.511 0-85.101 16.788-115.784 44.377l0.158-0.14c-28.143 29.34-45.471 69.244-45.471 113.194 0 10.667 1.021 21.096 2.97 31.194l-0.165-1.028c4.718 28.694 15.615 54.21 31.3 76.057l-0.367-0.537c15.44 21.725 35.405 39.234 58.61 51.405l0.91 0.435c14.047 7.177 23.497 21.544 23.497 38.118 0 1.602-0.088 3.184-0.26 4.741l0.017-0.192c-0.62 5.657-0.973 12.218-0.973 18.862 0 47.11 17.776 90.067 46.987 122.531l-0.147-0.166c30.738 34.491 75.287 56.107 124.885 56.107 0.045 0 0.090 0 0.136 0h-0.007c36.193-0.74 69.254-13.565 95.456-34.587l-0.31 0.24c25.288-19.068 45.668-43.269 59.837-71.157l0.536-1.163c7.005-14.463 21.551-24.271 38.393-24.32h0.007c3.565 0.005 7.019 0.471 10.308 1.343l-0.281-0.063c10.054 2.727 21.599 4.293 33.508 4.293 33.36 0 63.849-12.291 87.186-32.591l-0.161 0.137c24.712-22.941 40.126-55.604 40.126-91.867 0-0.778-0.007-1.554-0.021-2.329l0.002 0.116c0-2.56 0-5.333 0-7.893-0.033-0.581-0.052-1.261-0.052-1.945 0-15.729 10.073-29.106 24.12-34.031l0.253-0.077 4.48-1.707c51.602-18.966 87.747-67.687 87.747-124.849 0-1.483-0.024-2.96-0.073-4.432l0.006 0.214c0-13.013-8.32-128-160.853-128h-9.813c-23.564 0-42.667-19.103-42.667-42.667v0 0c0-23.564 19.103-42.667 42.667-42.667v0h9.813c164.693 0 242.987 109.44 246.187 210.773 0.076 2.146 0.12 4.667 0.12 7.198 0 83.163-46.976 155.355-115.84 191.488l-1.187 0.567z" />
<glyph unicode="&#xe94f;" glyph-name="cloud" d="M413.013 85.333h-114.347c-2.792-0.108-6.070-0.169-9.363-0.169-68.164 0-130.173 26.355-176.391 69.432l0.154-0.142c-43.725 44.597-70.712 105.746-70.712 173.198 0 15.544 1.433 30.753 4.174 45.503l-0.236-1.528c11.706 73.38 52.735 135.42 110.462 174.782l0.898 0.578c0.275 68.73 26.384 131.309 69.113 178.579l-0.207-0.232c46.166 52.42 113.426 85.322 188.371 85.333h0.002c91.807-3.554 171.223-53.451 215.873-126.832l0.66-1.168c6.602 0.718 14.26 1.127 22.013 1.127 52.653 0 100.896-18.886 138.322-50.254l-0.335 0.274c40.681-33.875 67.841-82.783 72.901-138.084l0.059-0.796c70.043-36.702 117.013-108.89 117.013-192.048 0-2.384-0.039-4.758-0.115-7.124l0.009 0.345c-3.2-101.333-81.493-210.773-246.187-210.773h-322.133zM414.933 725.333c-0.038 0-0.084 0-0.129 0-49.597 0-94.146-21.616-124.739-55.941l-0.145-0.166c-29.064-32.298-46.84-75.255-46.84-122.365 0-6.644 0.354-13.204 1.043-19.665l-0.070 0.803c0.155-1.365 0.243-2.947 0.243-4.549 0-16.574-9.45-30.94-23.256-38.006l-0.241-0.112c-48.004-25.745-82.038-72.173-90.334-127.043l-0.119-0.957c-1.784-9.070-2.805-19.498-2.805-30.166 0-43.951 17.328-83.854 45.526-113.252l-0.054 0.057c30.43-27.088 70.758-43.637 114.953-43.637 3.765 0 7.501 0.12 11.206 0.357l-0.505-0.026h436.48c152.533 0 160.853 114.987 160.853 128 0.023 0.919 0.036 2 0.036 3.085 0 57.231-36.231 105.999-87.008 124.619l-0.921 0.295-4.48 1.707c-14.3 5.003-24.372 18.379-24.372 34.109 0 0.684 0.019 1.364 0.057 2.038l-0.004-0.094c0.229 2.851 0.36 6.172 0.36 9.523 0 36.469-15.457 69.327-40.178 92.381l-0.075 0.069c-23.211 20.288-53.792 32.66-87.263 32.66-11.901 0-23.436-1.564-34.412-4.498l0.929 0.211c-2.825-0.667-6.069-1.049-9.402-1.049-17.138 0-31.915 10.104-38.701 24.679l-0.11 0.263c-24.96 50.987-84.267 106.667-155.52 106.667z" />
<glyph unicode="&#xe950;" glyph-name="code" d="M426.667 106.667c-4.196 0.048-8.229 0.668-12.049 1.786l0.315-0.079c-17.968 5.295-30.86 21.642-30.86 41.001 0 4.164 0.597 8.189 1.709 11.994l-0.076-0.302 170.667 597.333c5.941 16.886 21.753 28.773 40.341 28.773 23.564 0 42.667-19.103 42.667-42.667 0-3.395-0.396-6.697-1.145-9.862l0.058 0.29-170.667-597.333c-5.265-17.986-21.6-30.904-40.957-30.933h-0.003zM298.667 213.333c0.037 0 0.081 0 0.125 0 23.564 0 42.667 19.103 42.667 42.667 0 12.609-5.47 23.941-14.166 31.752l-0.039 0.035-177.92 160.213 178.133 160.213c8.807 7.892 14.323 19.302 14.323 32 0 23.698-19.211 42.909-42.909 42.909-11 0-21.033-4.139-28.627-10.945l0.041 0.036-213.333-192c-8.877-7.856-14.445-19.278-14.445-32s5.568-24.144 14.4-31.961l0.045-0.039 213.333-192c7.494-6.732 17.45-10.857 28.369-10.88h0.005zM725.333 213.333c-0.037 0-0.081 0-0.125 0-23.564 0-42.667 19.103-42.667 42.667 0 12.609 5.47 23.941 14.166 31.752l0.039 0.035 177.92 160.213-178.133 160.213c-8.807 7.892-14.323 19.302-14.323 32 0 23.698 19.211 42.909 42.909 42.909 11 0 21.033-4.139 28.627-10.945l-0.041 0.036 213.333-192c8.877-7.856 14.445-19.278 14.445-32s-5.568-24.144-14.4-31.961l-0.045-0.039-213.333-192c-7.494-6.732-17.45-10.857-28.369-10.88h-0.005z" />
</font>
</defs>
</svg>
